<svg width="28" height="37" viewBox="0 0 28 37" fill="none" xmlns="http://www.w3.org/2000/svg">
<path d="M23.634 21.4758V24.1112H4.96338V21.2362C5.38538 21.085 5.72592 20.9747 5.94887 20.886C6.89387 20.5069 9.62981 18.6608 10.0684 18.4091C10.3118 18.2695 10.5255 17.2811 10.6641 16.4259C10.6894 16.2732 10.7134 16.1249 10.7324 15.9849C10.7368 15.958 10.7407 15.9307 10.7441 15.9039C10.806 15.458 10.8422 15.135 10.8422 15.135H17.1039C17.1039 15.135 17.14 15.458 17.201 15.9039C17.2059 15.9307 17.2098 15.9575 17.2137 15.9849C17.2322 16.1249 17.2561 16.2732 17.2815 16.4259C17.42 17.2811 17.6332 18.2695 17.8776 18.4091C18.3157 18.6608 21.0522 20.5064 21.9957 20.886C22.3255 21.0177 22.91 21.1953 23.634 21.4758Z" fill="#FFB67F"/>
<path d="M21.7359 31.1745C21.1764 32.9518 20.9193 33.7202 20.9246 36.5H7.02489C7.03025 33.7202 6.77315 32.9518 6.21357 31.1745C5.88231 30.1158 5.9389 28.7771 6.21796 27.336C6.42384 26.291 6.75022 25.1952 7.13222 24.1126C7.81767 22.1724 8.69533 20.279 9.41396 18.8237C9.71204 18.2129 9.9872 17.6806 10.2062 17.2567C10.2482 17.1728 10.2906 17.0884 10.3282 17.0142C10.3282 17.0093 10.3282 17.0093 10.3331 17.0045C10.356 16.9718 10.3697 16.9303 10.3887 16.8971C10.5053 16.6776 10.5936 16.4961 10.6541 16.3698C10.6073 16.5986 10.5746 16.8176 10.5619 17.023C10.5619 17.0274 10.5619 17.0274 10.5619 17.0323C10.3468 19.7375 12.6085 20.4981 13.6345 20.5956C13.775 20.6098 13.8911 20.6142 13.975 20.6049C14.0594 20.6142 14.1755 20.6098 14.3165 20.5956C15.3371 20.4976 17.5998 19.7375 17.3891 17.0367V17.0181C17.3754 16.8127 17.3432 16.5986 17.2964 16.3693C17.3569 16.4956 17.4457 16.6771 17.5623 16.8966C17.572 16.9157 17.5764 16.9293 17.5857 16.9479C17.5998 16.9664 17.6086 16.9854 17.6179 17.0089L17.6228 17.0137C17.6603 17.0933 17.7023 17.1723 17.7486 17.2606C17.7486 17.2606 17.7486 17.2655 17.754 17.2703C17.9687 17.6948 18.2389 18.2217 18.5365 18.8237C19.2556 20.279 20.1323 22.1724 20.8183 24.1126C21.2003 25.1952 21.5271 26.291 21.7325 27.336C22.0106 28.7776 22.0672 30.1158 21.7359 31.1745Z" fill="#E6E6E6"/>
<path d="M15.4759 35.0793L13.9953 36.4999L12.4629 35.0793L13.2044 24.1131L13.2981 22.2845H14.6368L14.73 24.1131L15.4759 35.0793Z" fill="#F94910"/>
<path d="M14.6476 22.2862H13.2962L12.5356 20.5952H15.4116L14.6476 22.2862Z" fill="#D93F0E"/>
<path opacity="0.2" d="M13.9736 20.6039C14.7932 20.22 17.5741 19.3604 17.2935 16.3698C18.1302 17.6743 18.8074 21.6845 16.3647 24.5454C15.6875 23.192 14.7908 21.9207 13.9736 20.6039Z" fill="black"/>
<path d="M13.9736 20.6039C14.7932 20.24 17.5741 19.2013 17.2935 16.3698C18.1302 17.605 18.8074 21.4016 16.3647 24.1107C15.6875 22.8291 14.6786 20.9913 13.9736 20.6039Z" fill="#F5F5F5"/>
<path d="M0.442795 36.5C0.442795 36.5 0.360352 26.0626 0.412066 25.7172C0.718932 23.6135 2.23472 20.9552 3.29826 20.5683C4.31009 20.1995 8.19106 18.9866 10.0284 17.4245C10.0337 17.4196 10.0337 17.4152 10.0386 17.4104C10.0986 17.3547 10.1547 17.303 10.2059 17.2567C10.224 17.2381 10.2386 17.224 10.2528 17.2098C10.2528 17.2142 10.2528 17.2191 10.2479 17.2284C10.2342 17.2796 10.2162 17.3494 10.2016 17.424C10.2016 17.4289 10.1962 17.4377 10.1962 17.4474C10.1918 17.485 10.183 17.5221 10.1781 17.564C10.1357 17.788 10.0986 18.0773 10.0566 18.4178C10.0059 18.8705 9.95419 19.416 9.90297 20.018C9.90297 20.0463 9.8981 20.0692 9.8981 20.097C9.80052 21.3001 9.71173 22.7227 9.65123 24.1131C9.54829 26.3475 9.50633 28.4932 9.57707 29.505C9.63708 30.3724 10.0342 32.1541 10.5187 34.1085C10.5235 34.1182 10.5235 34.127 10.5235 34.1363C10.8782 35.5682 11.2846 35.1896 11.6339 36.5H0.442795Z" fill="#404040"/>
<path d="M11.5676 36.5H9.84253C9.81424 36.4532 9.79571 36.4112 9.77229 36.3644C8.03256 32.8527 6.87144 30.4188 6.2177 27.3359C5.92011 25.9411 5.72886 24.803 5.6308 24.1126C5.59324 23.8331 5.56982 23.6272 5.56104 23.5067C5.75667 23.334 7.13244 22.8071 7.18416 22.5642C7.2305 22.3217 6.6519 21.7899 6.28844 21.5938C6.30747 21.2859 6.63337 20.8152 7.10952 20.2736C7.92133 19.3457 9.17124 18.2261 10.0289 17.424C10.0343 17.4191 10.0343 17.4147 10.0391 17.4099C10.0992 17.3542 10.1553 17.3025 10.2065 17.2562C10.2245 17.2376 10.2392 17.2235 10.2533 17.2094C10.2533 17.2137 10.2533 17.2186 10.2484 17.2279C10.2348 17.2791 10.2201 17.3445 10.2021 17.4235C10.2021 17.4284 10.1967 17.4372 10.1967 17.4469C10.1923 17.4845 10.1835 17.5216 10.1787 17.5635C10.1411 17.7875 10.1079 18.0675 10.0757 18.4032C10.025 18.9535 9.97816 19.634 9.94108 20.3995V20.4044C9.93571 20.4507 9.93571 20.4976 9.93084 20.5488C9.8801 21.6357 9.83765 22.8764 9.81911 24.1121C9.78204 26.3046 9.80107 28.4922 9.88986 29.8026C9.98256 31.1608 11.2232 35.2403 11.5676 36.5Z" fill="#2E2E2E"/>
<path opacity="0.2" d="M13.9735 20.6039C13.1549 20.22 10.3736 19.3604 10.6541 16.3698C9.81691 17.6743 9.14023 21.6845 11.583 24.5454C12.2601 23.192 13.1573 21.9207 13.9735 20.6039Z" fill="black"/>
<path opacity="0.2" d="M17.202 15.9044C16.6288 16.5576 16.015 17.1304 15.7769 17.3045C15.2935 17.6568 14.5856 17.8583 13.9738 17.8583C13.362 17.8583 12.6541 17.6568 12.1711 17.3045C11.9331 17.1309 11.3198 16.5581 10.7451 15.9044C10.8071 15.4585 10.8432 15.1355 10.8432 15.1355H17.1049C17.1049 15.1355 17.141 15.459 17.202 15.9044Z" fill="black"/>
<path d="M18.5778 4.2927C18.1197 2.48272 15.053 2.26562 13.9739 2.26562C12.8952 2.26562 9.82946 2.48272 9.37086 4.2927C8.91178 6.10414 9.46697 12.5503 9.56357 13.4919C9.66065 14.4339 11.6877 16.341 12.1717 16.6781C12.6542 17.0167 13.3626 17.2094 13.9743 17.2094C14.5861 17.2094 15.295 17.0167 15.7775 16.6781C16.261 16.341 18.2885 14.4334 18.3856 13.4919C18.4812 12.5498 19.0364 6.10365 18.5778 4.2927Z" fill="#FFB67F"/>
<path d="M13.9735 20.6039C13.1549 20.24 10.3736 19.2013 10.6541 16.3698C9.81691 17.605 9.14023 21.4016 11.583 24.1107C12.2601 22.8291 13.2695 20.9913 13.9735 20.6039Z" fill="#F5F5F5"/>
<path d="M27.5065 36.5H16.3159C16.6657 35.1891 17.0721 35.5682 17.4263 34.1363C17.4263 34.127 17.4263 34.1177 17.4307 34.1085C17.9156 32.1541 18.3123 30.3724 18.3728 29.505C18.443 28.4932 18.401 26.347 18.2986 24.1131C18.2381 22.7232 18.1488 21.3006 18.0513 20.097V20.0921C18.0464 20.0643 18.0464 20.0458 18.0464 20.018C18.0464 20.0131 18.0464 20.0131 18.0464 20.0082C17.9951 19.4067 17.9439 18.8608 17.8878 18.4134C17.8507 18.0773 17.8088 17.788 17.7663 17.564C17.7576 17.4943 17.7434 17.4382 17.7341 17.3825V17.3777C17.7205 17.3128 17.7058 17.2567 17.6922 17.2098L17.7532 17.2708C17.8039 17.3128 17.8556 17.3591 17.9068 17.4104C17.9112 17.4152 17.9161 17.4196 17.9205 17.4245C19.7578 18.9871 23.6388 20.1995 24.6506 20.5683C25.7141 20.9552 27.2294 23.6135 27.5373 25.7172C27.5895 26.0626 27.5065 36.5 27.5065 36.5Z" fill="#404040"/>
<path d="M22.3884 23.5067C22.3791 23.6272 22.3567 23.8331 22.3182 24.1126C22.2206 24.8025 22.0294 25.9407 21.7313 27.3359C21.078 30.4188 19.9164 32.8527 18.1762 36.3644C18.1533 36.4112 18.1342 36.4532 18.1118 36.5H16.3813C16.7263 35.2403 17.9669 31.1608 18.0596 29.8031C18.1484 28.4927 18.1674 26.3051 18.1294 24.1126C18.1113 22.8817 18.0694 21.6504 18.0176 20.5683C18.0133 20.5122 18.0133 20.4561 18.0089 20.4053C17.9718 19.6404 17.9249 18.9544 17.8737 18.4041C17.841 18.0685 17.804 17.7884 17.7659 17.5645C17.7571 17.4948 17.743 17.4338 17.7337 17.3782C17.72 17.3133 17.7054 17.2572 17.6918 17.2103L17.6971 17.2147C17.7157 17.2289 17.7293 17.2474 17.7479 17.2616C17.7479 17.2616 17.7478 17.2664 17.7532 17.2713C17.804 17.3133 17.8557 17.3596 17.9069 17.4108C17.9113 17.4157 17.9162 17.4201 17.9206 17.425C18.7787 18.2275 20.0286 19.3467 20.8404 20.2746C21.3161 20.8156 21.6425 21.2864 21.6615 21.5948C21.2976 21.7909 20.7185 22.3227 20.7658 22.5651C20.8126 22.8071 22.1928 23.334 22.3884 23.5067Z" fill="#2E2E2E"/>
<path d="M18.5897 9.04202C18.6087 8.61368 18.9917 7.8609 19.3385 8.25461C19.6869 8.64832 19.5591 10.0724 19.42 10.5705C19.281 11.0681 18.6414 12.179 18.3848 12.1556C18.4262 11.6326 18.4789 10.7486 18.5209 10.2724C18.5633 9.79431 18.5726 9.40256 18.5897 9.04202Z" fill="#FFB67F"/>
<path d="M18.8529 9.70162C18.789 9.44598 18.7832 9.17912 18.849 8.91079C18.872 8.84834 18.8866 8.76199 18.9978 8.72004C19.0515 8.70686 19.1013 8.72296 19.1388 8.74833C19.1744 8.7737 19.2018 8.80395 19.2227 8.83469C19.3057 8.96055 19.3335 9.09862 19.3481 9.23522C19.3574 9.37231 19.3471 9.51135 19.3086 9.64551C19.2647 9.77821 19.21 9.89628 19.1427 10.0119C19.0042 10.2334 18.9129 10.469 18.8324 10.7208C18.8451 10.59 18.87 10.4612 18.9032 10.3329C18.9388 10.2051 18.9954 10.0812 19.05 9.96507C19.0998 9.84798 19.1539 9.72796 19.1847 9.61136C19.2144 9.49379 19.2237 9.36938 19.2125 9.24742C19.2032 9.12643 19.1744 9.00056 19.1164 8.90591C19.0876 8.85761 19.0476 8.82981 19.0256 8.83517C19.0056 8.83517 18.9661 8.88981 18.9466 8.94397C18.9032 9.05715 18.8832 9.18692 18.869 9.31377C18.8525 9.44256 18.8437 9.57185 18.8529 9.70162Z" fill="#EC8940"/>
<path d="M9.35159 8.93514C9.33257 8.50631 8.94958 7.75403 8.60174 8.14724C8.25487 8.54144 8.3822 9.966 8.52173 10.4641C8.65979 10.9622 9.30037 12.0721 9.55552 12.0487C9.51551 11.5262 9.46282 10.6422 9.42038 10.165C9.37793 9.68743 9.36867 9.29519 9.35159 8.93514Z" fill="#FFB67F"/>
<path d="M9.08827 9.59516C9.09802 9.4649 9.08826 9.33464 9.07265 9.20731C9.0585 9.07998 9.03849 8.95069 8.99459 8.838C8.9741 8.78335 8.93605 8.72871 8.91605 8.72871C8.89312 8.72335 8.8536 8.75164 8.82531 8.79897C8.76725 8.8941 8.73846 9.01948 8.72968 9.14047C8.71797 9.26292 8.72675 9.38733 8.757 9.50588C8.78822 9.62248 8.84141 9.7425 8.89263 9.85861C8.94581 9.97569 9.00288 10.0996 9.03898 10.2269C9.07118 10.3557 9.09655 10.4845 9.11021 10.6148C9.02971 10.3631 8.93849 10.1274 8.79944 9.90642C8.73261 9.79079 8.67748 9.67224 8.63308 9.53906C8.59454 9.40587 8.5843 9.26634 8.59455 9.12925C8.6087 8.99216 8.63698 8.85458 8.71943 8.72871C8.7409 8.69749 8.76725 8.66724 8.80384 8.64236C8.84043 8.61748 8.89068 8.6004 8.94483 8.61358C9.05558 8.65504 9.07022 8.7414 9.09266 8.80433C9.15706 9.07217 9.15218 9.33903 9.08827 9.59516Z" fill="#EC8940"/>
<path d="M9.56264 2.37829C9.72363 1.47233 10.9535 1.37524 12.2474 1.24644C13.5426 1.11667 15.8727 0.566849 16.5518 0.59856C17.2314 0.63076 17.7817 0.498548 18.1695 0.500012C17.8471 0.825417 17.0704 0.92299 17.2314 1.08447C17.3934 1.24644 18.836 1.89872 19.0755 2.37829C19.6902 3.6082 19.5014 6.12216 19.4312 6.74662C19.2702 8.17119 18.7194 8.94689 18.6867 9.36841C18.6228 8.2029 17.4573 4.90299 17.5866 4.2551C17.2953 4.41707 15.9693 4.67564 15.096 4.61124C14.2217 4.54685 10.8882 4.93421 9.88561 4.41659C10.1769 5.55038 10.0461 6.42366 9.82073 6.812C9.59387 7.20034 9.14064 8.26779 9.23773 9.36841C8.68595 8.0902 8.49374 7.03837 8.49374 6.45586C8.49374 5.87335 8.32396 4.20924 8.55033 3.49794C8.7767 2.78614 9.2709 2.31292 9.56264 2.37829Z" fill="#7F5026"/>
<path d="M12.2714 14.2505C12.4036 14.3105 12.5422 14.3573 12.6773 14.39C12.7461 14.4066 12.8139 14.4178 12.8788 14.4193C12.9393 14.4202 13.0105 14.4119 13.0847 14.4061C13.3754 14.3851 13.6672 14.3783 13.9589 14.37C14.1053 14.3646 14.2512 14.3656 14.3966 14.3563L14.8283 14.3295C15.1015 14.3002 15.3933 14.2617 15.6782 14.2051C15.683 14.2036 15.6884 14.2066 15.6899 14.2119C15.6914 14.2153 15.6894 14.2197 15.6865 14.2222C15.5645 14.3139 15.424 14.37 15.285 14.4227C15.1449 14.4724 15.001 14.5105 14.8459 14.5281C14.6859 14.5349 14.5532 14.5256 14.4044 14.531C14.258 14.5329 14.1121 14.5456 13.9672 14.5534C13.6765 14.5695 13.3862 14.5895 13.0935 14.5939C13.0227 14.5915 12.9466 14.5983 12.8617 14.5832C12.7817 14.5685 12.7085 14.5432 12.6378 14.5129C12.4988 14.4505 12.3695 14.371 12.2612 14.2675C12.2568 14.2636 12.2568 14.2578 12.2607 14.2539C12.2631 14.249 12.268 14.2485 12.2714 14.2505Z" fill="#EC8940"/>
<path d="M13.4272 15.0959C13.5282 15.1296 13.618 15.1501 13.7087 15.1652C13.799 15.1784 13.8873 15.1891 13.9761 15.1882C14.1561 15.1911 14.3225 15.1662 14.5205 15.0959C14.4737 15.1921 14.3874 15.2662 14.2898 15.313C14.1922 15.3623 14.0815 15.3818 13.9737 15.3818C13.8653 15.3789 13.758 15.357 13.6609 15.3091C13.5658 15.2623 13.4765 15.1921 13.4272 15.0959Z" fill="#EC8940"/>
<path d="M13.49 13.1468C13.4446 13.1351 13.3983 13.1244 13.3539 13.1087C13.331 13.1009 13.3085 13.0931 13.2861 13.0839C13.2744 13.0785 13.2636 13.0731 13.2519 13.0658C13.2431 13.0556 13.2231 13.0536 13.2222 13.0175C13.2353 12.9829 13.247 12.9868 13.2553 12.977C13.269 12.9697 13.2836 12.9619 13.2963 12.959C13.3227 12.9502 13.349 12.9487 13.3739 12.9487C13.4251 12.9502 13.4744 12.9585 13.5207 12.9712C13.6261 12.9985 13.6988 13.0746 13.77 13.1317C13.8061 13.1624 13.8408 13.1936 13.8759 13.2185C13.9076 13.2449 13.9549 13.2649 13.9686 13.2658C14.0354 13.2619 14.1072 13.1902 14.1769 13.1317C14.2501 13.0736 14.3194 12.999 14.4267 12.9707C14.4701 12.959 14.5238 12.9497 14.5735 12.9487C14.6238 12.9521 14.6818 12.9492 14.7243 13.0112C14.7272 13.059 14.7038 13.0531 14.696 13.0658C14.6843 13.0726 14.6726 13.078 14.6618 13.0839C14.6394 13.0936 14.6165 13.1009 14.5936 13.1087C14.5492 13.1239 14.5033 13.1346 14.4579 13.1468L14.5838 13.0848C14.6053 13.0746 14.6257 13.0639 14.6443 13.0522C14.654 13.0453 14.6633 13.0395 14.6706 13.0326C14.6789 13.0302 14.6809 13.0082 14.6809 13.0312C14.6687 13.0146 14.616 13.0034 14.577 13.0102C14.533 13.0156 14.4945 13.0253 14.4486 13.0429C14.3735 13.0707 14.3077 13.137 14.2389 13.2005C14.1681 13.2595 14.1057 13.3434 13.9803 13.3624C13.8988 13.3585 13.8627 13.3234 13.8203 13.2951C13.7808 13.2644 13.7452 13.2322 13.7105 13.2005C13.6412 13.1366 13.5778 13.0712 13.5007 13.0424C13.4583 13.0258 13.4154 13.0146 13.3719 13.0102C13.3319 13.0029 13.2841 13.017 13.2705 13.0253C13.2627 13.0146 13.2871 13.0444 13.3041 13.0522C13.3232 13.0639 13.3436 13.0746 13.3646 13.0848L13.49 13.1468Z" fill="#EC8940"/>
<path d="M14.6719 12.58C14.7734 12.6009 14.8709 12.6673 14.9114 12.779C14.929 12.8346 14.927 12.8976 14.9046 12.9488C14.8817 13 14.848 13.0415 14.8031 13.0703C14.8295 12.9683 14.847 12.8839 14.8197 12.8097C14.7963 12.7327 14.7338 12.6644 14.6719 12.58Z" fill="#EC8940"/>
<path d="M13.2746 12.58C13.2131 12.6644 13.1512 12.7327 13.1273 12.8097C13.0995 12.8839 13.1175 12.9683 13.1439 13.0703C13.0985 13.0415 13.0653 13 13.0424 12.9488C13.0195 12.898 13.0175 12.8351 13.0356 12.779C13.0766 12.6673 13.1741 12.6009 13.2746 12.58Z" fill="#EC8940"/>
<path d="M15 9.48248C15.2483 8.95705 15.9274 8.83362 16.1753 8.83362C16.5148 8.83362 17.0856 9.06535 17.2866 9.28099C17.049 9.74251 16.5685 9.94497 16.2436 9.9923C15.9191 10.0391 15.3259 9.86887 15 9.48248Z" fill="white"/>
<path d="M16.6436 9.38453C16.6436 9.69481 16.3913 9.94606 16.082 9.94606C15.7713 9.94606 15.52 9.69481 15.52 9.38453C15.52 9.07425 15.7718 8.823 16.082 8.823C16.3913 8.82251 16.6436 9.07376 16.6436 9.38453Z" fill="#60100E"/>
<path d="M16.3984 9.38449C16.3984 9.55915 16.2569 9.70112 16.0818 9.70112C15.9066 9.70112 15.7656 9.55866 15.7656 9.38449C15.7656 9.20935 15.9066 9.06689 16.0818 9.06689C16.2569 9.06689 16.3984 9.20886 16.3984 9.38449Z" fill="black"/>
<path opacity="0.3" d="M16.111 9.23227C16.111 9.33277 16.031 9.41326 15.9305 9.41326C15.831 9.41326 15.75 9.33277 15.75 9.23227C15.75 9.13274 15.831 9.05176 15.9305 9.05176C16.031 9.05176 16.111 9.13274 16.111 9.23227Z" fill="white"/>
<path d="M15 9.48256C15.0634 9.26887 15.2278 9.083 15.4239 8.96493C15.6196 8.84053 15.8435 8.77174 16.0738 8.74783C16.3104 8.72198 16.548 8.79516 16.7514 8.87858C16.9558 8.97274 17.1627 9.07909 17.3086 9.26253L17.3232 9.28058L17.3134 9.29473C17.271 9.35571 17.2261 9.41231 17.1734 9.46207C17.2056 9.39767 17.2354 9.33376 17.2617 9.26887L17.2671 9.30156C17.0983 9.17569 16.8978 9.09227 16.6953 9.02933C16.4885 8.96688 16.2933 8.91224 16.0904 8.92981C15.8855 8.9464 15.6801 9.00152 15.4883 9.08348C15.2966 9.16984 15.1293 9.29863 15 9.48256Z" fill="black"/>
<path d="M14.776 8.12631C14.6808 7.81749 14.834 7.74675 15.0394 7.64576C15.1941 7.56868 16.562 7.37061 16.8957 7.37061C17.2275 7.37061 17.7085 7.86286 17.8237 8.12631C17.6027 8.14143 17.2963 7.95458 16.964 7.91994C16.6313 7.88628 15.4404 8.16046 15.2116 8.26389C14.9828 8.36682 14.8048 8.21949 14.776 8.12631Z" fill="#7F5026"/>
<path d="M12.9477 9.48248C12.6994 8.95705 12.0203 8.83362 11.773 8.83362C11.4329 8.83362 10.8616 9.06535 10.6606 9.28099C10.8987 9.74251 11.3793 9.94497 11.7037 9.9923C12.0281 10.0391 12.6219 9.86887 12.9477 9.48248Z" fill="white"/>
<path d="M11.3042 9.38453C11.3042 9.69481 11.5564 9.94606 11.8657 9.94606C12.176 9.94606 12.4278 9.69481 12.4278 9.38453C12.4278 9.07425 12.1755 8.823 11.8657 8.823C11.5559 8.82251 11.3042 9.07376 11.3042 9.38453Z" fill="#60100E"/>
<path d="M11.5493 9.38449C11.5493 9.55915 11.6908 9.70112 11.8659 9.70112C12.0411 9.70112 12.1821 9.55866 12.1821 9.38449C12.1821 9.20935 12.0411 9.06689 11.8659 9.06689C11.6908 9.06689 11.5493 9.20886 11.5493 9.38449Z" fill="black"/>
<path opacity="0.3" d="M11.8364 9.23227C11.8364 9.33277 11.9169 9.41326 12.0169 9.41326C12.1165 9.41326 12.1974 9.33277 12.1974 9.23227C12.1974 9.13274 12.1165 9.05176 12.0169 9.05176C11.9174 9.05176 11.8364 9.13274 11.8364 9.23227Z" fill="white"/>
<path d="M12.9477 9.48256C12.8843 9.26887 12.7194 9.083 12.5233 8.96493C12.3281 8.84053 12.1042 8.77174 11.8739 8.74783C11.6373 8.72198 11.3997 8.79516 11.1963 8.87858C10.9919 8.97274 10.7855 9.07909 10.6391 9.26253L10.6245 9.28058L10.6343 9.29473C10.6767 9.35571 10.7221 9.41231 10.7738 9.46207C10.7421 9.39767 10.7123 9.33376 10.6855 9.26887L10.6806 9.30156C10.8489 9.17569 11.0499 9.09227 11.2524 9.02933C11.4593 8.96688 11.6544 8.91224 11.8573 8.92981C12.0618 8.9464 12.2686 9.00152 12.4589 9.08348C12.6501 9.16984 12.8184 9.29863 12.9477 9.48256Z" fill="black"/>
<path d="M13.1722 8.12631C13.2678 7.81749 13.1141 7.74675 12.9092 7.64576C12.7536 7.56868 11.3852 7.37061 11.0529 7.37061C10.7202 7.37061 10.2396 7.86286 10.125 8.12631C10.3455 8.14143 10.6524 7.95458 10.9841 7.91994C11.3168 7.88628 12.5077 8.16046 12.7365 8.26389C12.9658 8.36682 13.1429 8.21949 13.1722 8.12631Z" fill="#7F5026"/>
<path d="M14.4498 9.14829C14.3849 9.07657 14.2381 9.06389 13.9727 9.06389V8.83215C14.2215 8.83215 14.5298 8.83215 14.6971 9.01559L14.4498 9.14829Z" fill="#404040"/>
<path d="M18.7971 8.97272C18.7834 8.89369 18.7551 8.82344 18.7092 8.76343C18.6946 8.73953 18.6761 8.72099 18.657 8.70245C18.6434 8.67903 18.6204 8.66488 18.6009 8.64634C18.5921 8.64147 18.5829 8.6322 18.5731 8.62781C18.4429 8.53462 18.2565 8.48291 18.0326 8.48291H15.2664C14.9868 8.48291 14.7341 8.58097 14.5717 8.7488C14.5292 8.79075 14.4965 8.83759 14.4736 8.88393C14.4321 8.96833 14.4131 9.05176 14.4277 9.13128C14.4321 9.15958 14.436 9.18251 14.4453 9.20592C14.6175 9.60695 14.7814 10.2787 15.3083 10.2787H18.056C18.2565 10.2787 18.4238 10.1948 18.5409 10.0363C18.5883 9.98504 18.6248 9.92455 18.657 9.8543C18.737 9.68159 18.7883 9.46254 18.8068 9.19226C18.8112 9.16397 18.8112 9.13128 18.8112 9.10347C18.8107 9.05713 18.8068 9.01517 18.7971 8.97272ZM18.056 10.0504H15.3083C15.1171 10.0504 15.0005 9.76599 14.7341 9.13177C14.7063 9.06639 14.7395 8.96882 14.819 8.8893C14.9215 8.77758 15.0844 8.71172 15.2664 8.71172H18.0326C18.1867 8.71172 18.3077 8.74441 18.3829 8.80539C18.4756 8.88442 18.5175 9.01029 18.5082 9.18299C18.4755 9.60256 18.3443 10.0504 18.056 10.0504Z" fill="#404040"/>
<path d="M13.4709 8.88467C13.4475 8.83832 13.4148 8.79197 13.3728 8.74953C13.2099 8.5817 12.9572 8.48364 12.6825 8.48364H9.91194C9.67435 8.48364 9.47775 8.53975 9.3431 8.64708C9.33285 8.65635 9.31918 8.66562 9.30991 8.67976C9.2821 8.70318 9.25967 8.73099 9.23967 8.7588C9.1699 8.85686 9.1377 8.97297 9.1377 9.11787V9.19251C9.15575 9.46718 9.21136 9.69159 9.29088 9.86381V9.87747L9.29577 9.88235C9.32406 9.95211 9.36601 9.99895 9.41285 10.0502C9.52896 10.1995 9.6924 10.279 9.88852 10.279H12.6352C13.1621 10.279 13.3314 9.60768 13.4992 9.20617C13.508 9.18275 13.5173 9.15982 13.5173 9.13153C13.5314 9.05249 13.5124 8.96858 13.4709 8.88467ZM13.2099 9.13153C12.9484 9.76624 12.8269 10.0502 12.6352 10.0502H9.88852C9.60409 10.0502 9.46847 9.6028 9.44066 9.18275C9.427 9.01005 9.46846 8.88418 9.56213 8.80515C9.63629 8.74416 9.75729 8.71147 9.91194 8.71147H12.6825C12.8601 8.71147 13.0226 8.77734 13.1299 8.88906C13.2099 8.96858 13.2426 9.06664 13.2099 9.13153Z" fill="#404040"/>
<path d="M13.4959 9.14841L13.2476 9.0162C13.4154 8.83276 13.7242 8.83276 13.9725 8.83276V9.0645C13.7071 9.06401 13.5613 9.0767 13.4959 9.14841Z" fill="#404040"/>
<path d="M22.6868 31.3271L22.9234 36.5H22.4497L22.6868 31.3271Z" fill="#262626"/>
<path d="M5.26249 31.3271L5.49911 36.5H5.02588L5.26249 31.3271Z" fill="#262626"/>
</svg>
