<svg width="40" height="38" viewBox="0 0 40 38" fill="none" xmlns="http://www.w3.org/2000/svg">
<path d="M20.0959 7.81026C20.3457 7.81026 20.5679 7.63118 20.6088 7.37661C20.6579 7.09399 20.467 6.82594 20.1844 6.77739L5.53833 4.30016C5.24492 4.24676 4.98496 4.44309 4.93857 4.72463C4.89057 5.00779 5.08041 5.27692 5.36465 5.32384L20.0102 7.8027C20.0382 7.80809 20.069 7.81026 20.0959 7.81026Z" fill="#FFB001"/>
<path d="M20.1009 0.661743L39.7991 8.21804L20.1009 15.776L0.40332 8.21804L20.1009 0.661743Z" fill="#6E6E6E"/>
<path d="M20.1009 0L39.7991 7.55629V8.21807L20.1009 0.661777L0.40332 8.21807V7.55629L20.1009 0Z" fill="#474747"/>
<path d="M32.3001 8.58747V17.3136C30.1615 15.9663 22.7266 15.6454 20.5708 15.5958C20.5643 15.5958 20.5643 15.5958 20.5584 15.5958C20.354 15.5899 20.1933 15.5899 20.0946 15.5899C19.9953 15.5899 19.8411 15.5899 19.6372 15.5958C17.5062 15.6384 10.0465 15.9609 7.89014 17.3136V8.58747C9.57776 7.77737 11.6402 7.15982 13.7858 6.75153C14.9103 6.5304 16.0537 6.3756 17.1848 6.26989C18.1804 6.17766 19.1561 6.13452 20.0946 6.13452C24.124 6.13398 28.9561 6.98075 32.3001 8.58747Z" fill="#474747"/>
<path d="M32.3001 17.3131C30.1616 18.6669 22.7266 19.0007 20.5708 19.0498C20.36 19.0558 20.1933 19.0558 20.0941 19.0558C18.9825 19.0558 10.2558 18.8023 7.88965 17.3131C10.046 15.9599 17.5057 15.6379 19.6367 15.5953C19.8406 15.5893 19.9948 15.5894 20.0941 15.5894C20.1933 15.5894 20.354 15.5893 20.5579 15.5953C20.5644 15.5953 20.5644 15.5953 20.5703 15.5953C22.7266 15.6454 30.1616 15.9658 32.3001 17.3131Z" fill="black"/>
<path d="M5.45114 17.1415C5.73807 17.1415 5.97108 16.9091 5.97108 16.6227V4.81199C5.97108 4.52559 5.73807 4.2926 5.45114 4.2926C5.16312 4.2926 4.93066 4.52559 4.93066 4.81199V16.6227C4.93066 16.9091 5.16312 17.1415 5.45114 17.1415Z" fill="#FFB001"/>
<path d="M3.59277 19.6727L5.45082 20.7406L7.30943 19.6727L5.82298 17.0498H5.07867L3.59277 19.6727Z" fill="#FFB001"/>
<path d="M4.39795 16.6227C4.39795 17.2025 4.86988 17.6739 5.45076 17.6739C6.03164 17.6739 6.50304 17.2025 6.50304 16.6227C6.50304 16.0418 6.03164 15.5693 5.45076 15.5693C4.86988 15.5693 4.39795 16.0418 4.39795 16.6227Z" fill="#FDD52C"/>
<path d="M0.306216 35.1732C7.56533 35.1732 14.8255 35.1732 22.0841 35.1732C22.4929 33.6587 22.4929 32.0503 22.0841 30.5353C14.8255 30.5353 7.56533 30.5353 0.306216 30.5353C-0.102072 32.0503 -0.102072 33.6587 0.306216 35.1732Z" fill="#4FA0CB"/>
<path d="M3.22228 30.5353H2.0918V35.1732H3.22228V30.5353Z" fill="#FDD52C"/>
<path d="M4.4379 30.5353H3.90771V35.1732H4.4379V30.5353Z" fill="#FDD52C"/>
<path d="M21.3106 30.5353H20.7168V35.1732H21.3106V30.5353Z" fill="#FDD52C"/>
<path d="M23.4439 28.3008C23.4439 29.0979 22.931 29.8029 22.1522 30.1923C21.7385 30.4086 21.2504 30.5321 20.7191 30.5385H2.47021V30.0936C2.57485 30.0936 2.66706 29.921 2.73556 29.6308C2.80999 29.3525 2.85962 28.9637 2.86447 28.5246C2.87148 28.4502 2.87149 28.3763 2.87149 28.3013C2.87149 28.2274 2.87148 28.153 2.86447 28.0797C2.85962 27.6406 2.80945 27.2582 2.73556 26.9794C2.73556 26.961 2.72964 26.9422 2.72317 26.9238C2.71669 26.8866 2.70483 26.8553 2.69242 26.8186C2.68002 26.7766 2.66707 26.7318 2.64981 26.7005C2.63093 26.6574 2.61206 26.6212 2.58779 26.5964C2.55057 26.5468 2.51282 26.5161 2.47021 26.5161V26.0717H20.6943C20.793 26.0717 20.8858 26.0771 20.978 26.0835H20.985C22.3749 26.2006 23.4439 27.139 23.4439 28.3008Z" fill="#2181B8"/>
<path d="M2.4707 30.0924H20.697C21.9893 30.0924 23.0356 29.2942 23.0356 28.3023C23.0356 27.3121 21.9898 26.5122 20.697 26.5122H2.4707C2.67727 26.5122 2.84177 27.1939 2.85634 28.0796C2.87036 28.154 2.87036 28.2284 2.87036 28.3023C2.87036 28.3767 2.87036 28.4496 2.85634 28.524C2.84123 29.4112 2.67727 30.0924 2.4707 30.0924Z" fill="#F2F2F2"/>
<path d="M22.613 28.3023C22.613 27.3121 21.5678 26.5122 20.2744 26.5122H20.6967C21.989 26.5122 23.0353 27.3121 23.0353 28.3023C23.0353 29.2942 21.9895 30.0924 20.6967 30.0924H20.2744C21.5672 30.0924 22.613 29.2936 22.613 28.3023Z" fill="#D2D2D2"/>
<path d="M2.86998 28.3023C2.86998 28.3768 2.86998 28.4496 2.85596 28.524L22.3049 28.3023L2.85596 28.0796C2.86998 28.1535 2.86998 28.2284 2.86998 28.3023Z" fill="#D2D2D2"/>
<path d="M3.57617 29.2311L4.28488 29.9613L5.06962 29.2311V28.1044H3.57617V29.2311Z" fill="#FAAE1C"/>
<path d="M17.2234 23.8365C17.2234 24.8268 17.3652 25.6256 17.5405 25.6256V26.0684H2.99585C1.77746 26.0684 0.801758 25.0635 0.801758 23.836C0.801758 22.5933 1.77799 21.6025 2.99585 21.6025H17.5405V22.0459C17.3652 22.047 17.2234 22.8452 17.2234 23.8365Z" fill="#F94910"/>
<path d="M17.5402 25.6261H2.99556C1.96432 25.6261 1.12939 24.8273 1.12939 23.837C1.12939 22.8457 1.96432 22.0475 2.99556 22.0475H17.5402C17.3757 22.0475 17.2457 22.7271 17.2333 23.6138C17.2236 23.6887 17.2236 23.7615 17.2236 23.837C17.2236 23.9104 17.2236 23.9837 17.2333 24.0571C17.2457 24.9459 17.3762 25.6261 17.5402 25.6261Z" fill="#F2F2F2"/>
<path d="M1.46859 23.8366C1.46859 22.8452 2.30081 22.047 3.33312 22.047H2.99603C1.96479 22.047 1.12988 22.8452 1.12988 23.8366C1.12988 24.8268 1.96479 25.6256 2.99603 25.6256H3.33312C2.30081 25.6261 1.46859 24.8268 1.46859 23.8366Z" fill="#D2D2D2"/>
<path d="M17.2231 23.8365C17.2231 23.9098 17.2231 23.9831 17.2328 24.0565L1.71191 23.8365L17.2328 23.6132C17.2231 23.6881 17.2231 23.7615 17.2231 23.8365Z" fill="#D2D2D2"/>
<path d="M16.6582 26.2437L16.0935 26.9745L15.4668 26.2437V23.6381H16.6582V26.2437Z" fill="#A18CC2"/>
<path opacity="0.2" d="M23.4438 28.3007C23.4438 29.0979 22.9309 29.8028 22.1521 30.1922C22.0663 30.0687 21.9978 29.9452 21.9299 29.8276C21.8932 29.7662 21.856 29.7041 21.8247 29.6421C21.7751 29.5369 21.726 29.4318 21.6834 29.3331C21.5652 29.0488 21.4606 28.7096 21.3614 28.3142C21.3614 28.3067 21.3614 28.3008 21.3549 28.2894C21.2379 27.8019 21.1392 27.2323 21.0583 26.6201C21.0459 26.5889 21.0459 26.564 21.0459 26.5338C21.0205 26.3855 21.0022 26.2367 20.9844 26.0824C22.3748 26.2005 23.4438 27.139 23.4438 28.3007Z" fill="black"/>
<path opacity="0.2" d="M32.3005 12.9005V17.3135C30.162 18.6673 22.7271 19.0011 20.5713 19.0502C20.5465 17.437 20.5524 16.1398 20.5589 15.6016V15.5951C20.5654 15.5272 20.5654 15.4775 20.5654 15.4349L20.5831 14.3961L21.6343 14.4209C21.684 14.4274 21.7266 14.4274 21.7757 14.4274C22.7832 14.4274 23.9762 14.1809 25.1326 13.8471C27.4615 13.1794 29.6059 12.1719 29.6372 12.153L30.0946 11.9426L30.5455 12.153C30.5638 12.1659 31.2682 12.4933 32.3005 12.9005Z" fill="black"/>
<path d="M30.0909 13.8505C30.0909 13.8505 25.1677 16.2236 22.0243 16.1422C22.0243 16.1422 21.8717 26.4092 23.0173 29.2139C24.0642 31.7741 30.0909 36.2313 30.0909 36.2313C30.0909 36.2313 36.1176 31.7741 37.1644 29.2139C38.3111 26.4092 38.1563 16.1422 38.1563 16.1422C35.0146 16.2236 30.0909 13.8505 30.0909 13.8505Z" fill="#69AB1D"/>
<path d="M37.165 29.2134C36.1181 31.7742 30.0903 36.2319 30.0903 36.2319V13.85C30.0903 13.85 35.0151 16.222 38.1579 16.1428C38.1579 16.1428 38.3117 26.4087 37.165 29.2134Z" fill="#75BB24"/>
<path opacity="0.2" d="M37.6614 16.1421C37.4354 16.1486 37.1992 16.1384 36.9554 16.1184C36.8292 19.841 36.5196 24.0938 35.7872 25.8947C34.8028 28.3018 30.3095 32.0438 28.1235 33.7649C29.1861 34.6402 29.9951 35.2368 29.9951 35.2368C29.9951 35.2368 35.723 30.9996 36.7181 28.5666C37.807 25.899 37.6614 16.1421 37.6614 16.1421Z" fill="white"/>
<path d="M30.091 13.8505C30.091 13.8505 34.8535 16.1449 38.0006 16.1449C38.0545 16.1449 38.1058 16.1449 38.1565 16.1422C38.1565 16.1422 38.3113 26.4092 37.1646 29.2139C36.1177 31.7742 30.091 36.2313 30.091 36.2313C30.091 36.2313 24.0643 31.7742 23.0174 29.2139C21.8718 26.4092 22.0245 16.1422 22.0245 16.1422C22.0768 16.1449 22.1291 16.1449 22.1831 16.1449C25.3275 16.1443 30.091 13.8505 30.091 13.8505ZM30.091 12.748L29.6601 12.9541C29.6153 12.9773 25.0632 15.1514 22.1831 15.1514C22.1372 15.1514 22.0935 15.1514 22.0504 15.1503L21.0483 15.125L21.0326 16.1265C21.017 17.2004 20.9113 26.6822 22.0984 29.5887C23.2186 32.327 28.8613 36.5561 29.501 37.0307L30.0915 37.467L30.6843 37.0307C31.3223 36.5561 36.9645 32.327 38.0869 29.5887C39.2729 26.6822 39.1677 17.2004 39.1526 16.1265L39.1386 15.125L38.1338 15.1503C38.0917 15.1514 38.048 15.1514 38.0022 15.1514C35.1145 15.1514 30.5683 12.9773 30.5252 12.9541L30.091 12.748Z" fill="#E3E3E3"/>
<path opacity="0.2" d="M23.5141 29.7106C22.3696 26.906 22.5211 16.6394 22.5211 16.6394C25.6628 16.7193 30.0904 14.345 30.0904 14.345C30.0904 14.345 35.0249 16.483 38.1612 16.6308C38.1607 16.3201 38.1558 16.1422 38.1558 16.1422C35.0141 16.2236 30.0904 13.8505 30.0904 13.8505C30.0904 13.8505 25.1672 16.2236 22.0238 16.1422C22.0238 16.1422 21.8712 26.4092 23.0168 29.2139C23.3873 30.1183 24.3765 31.2575 25.5021 32.3534C24.589 31.4171 23.828 30.4781 23.5141 29.7106Z" fill="black"/>
</svg>
