<svg width="81" height="38" viewBox="0 0 81 38" fill="none" xmlns="http://www.w3.org/2000/svg">
<path d="M41.4015 0.195538C34.5398 -0.271082 28.173 0.0437698 24.2082 1.72737C21.8458 2.72943 17.1353 5.59796 15.2717 6.06552C13.4052 6.5312 4.8015 5.9854 1.14772 9.60052C-0.443499 11.1757 -0.274761 14.2479 1.00727 15.4139C2.28929 16.581 -0.311537 17.7056 6.60386 17.7056C10.3566 17.7056 54.8231 17.7056 54.8231 17.7056L63.2581 16.8298V13.1987V9.11975C63.2581 9.11975 63.1544 8.59753 63.0262 7.95369C62.8971 7.30985 61.9431 6.67732 60.8939 6.54252L55.5641 5.85531C55.5641 5.85531 48.2594 0.662159 41.4015 0.195538Z" fill="#9FB603"/>
<path d="M63.2582 12.2701C62.4711 12.2249 61.3135 12.0722 60.9374 11.6942C60.5188 11.2766 60.384 11.1022 59.6846 10.282L63.2582 9.8503V12.2701Z" fill="#BCCC4F"/>
<path d="M27.3012 15.7938C24.3856 15.7938 21.4162 15.6185 18.5552 15.1792C17.5861 13.1251 15.4934 11.6989 13.0755 11.6989C10.7329 11.6989 8.69676 13.0384 7.69093 14.9897H2.55529C2.55529 14.9897 2.42992 11.3963 10.5048 9.46852C12.7361 8.93592 16.9979 8.83788 19.8249 8.83788C21.4642 8.83788 22.6209 8.87089 22.6209 8.87089L52.6806 8.83788C52.6806 8.83788 53.1944 10.6497 52.7617 11.9534C52.1876 11.7875 51.5758 11.6989 50.9424 11.6989C49.1371 11.6989 47.5148 12.4926 46.4043 13.7492C42.3839 14.5636 35.0264 15.7938 27.3012 15.7938Z" fill="#8AA602"/>
<mask id="mask0_550_4750" style="mask-type:luminance" maskUnits="userSpaceOnUse" x="14" y="1" width="13" height="6">
<path d="M21.252 3.68149C22.8498 2.75862 24.6579 1.78485 26.0115 1.07031C25.3677 1.2711 24.7634 1.49073 24.2082 1.72734C21.8459 2.7294 17.1354 5.59793 15.2717 6.06549C14.9927 6.13431 14.5657 6.20594 14.0293 6.28701C16.1512 6.3775 18.8143 5.08795 21.252 3.68149Z" fill="white"/>
</mask>
<g mask="url(#mask0_550_4750)">
<path d="M21.252 3.68149C22.8498 2.75862 24.6579 1.78485 26.0115 1.07031C25.3677 1.2711 24.7634 1.49073 24.2082 1.72734C21.8459 2.7294 17.1354 5.59793 15.2717 6.06549C14.9927 6.13431 14.5657 6.20594 14.0293 6.28701C16.1512 6.3775 18.8143 5.08795 21.252 3.68149Z" fill="url(#paint0_linear_550_4750)"/>
</g>
<path d="M7.02065 17.7056C6.85002 17.7056 6.71052 17.7056 6.604 17.7056C6.58043 17.7056 6.55686 17.7056 6.5333 17.7056C6.53235 17.7056 6.53046 17.7056 6.52858 17.7056C6.52481 17.7056 6.52105 17.7056 6.51728 17.7056C6.51445 17.7056 6.51161 17.7056 6.50878 17.7056C6.5069 17.7056 6.50406 17.7056 6.50124 17.7056C6.49652 17.7056 6.49182 17.7046 6.48616 17.7046C6.48522 17.7046 6.48333 17.7046 6.48144 17.7046C6.47107 17.7046 6.46166 17.7046 6.4513 17.7046C6.44564 17.7046 6.44091 17.7046 6.43525 17.7046C6.43148 17.7046 6.42773 17.7046 6.4249 17.7046C6.42207 17.7046 6.42018 17.7046 6.41735 17.7046C6.41452 17.7046 6.41168 17.7046 6.40791 17.7046C6.40509 17.7046 6.40133 17.7046 6.3985 17.7046C6.39473 17.7046 6.39095 17.7046 6.38718 17.7046C6.38435 17.7046 6.38154 17.7046 6.37871 17.7046C6.37588 17.7046 6.37399 17.7046 6.3721 17.7046C6.36739 17.7046 6.36361 17.7046 6.35984 17.7046C6.35795 17.7046 6.35514 17.7046 6.35325 17.7046C6.34854 17.7046 6.34476 17.7046 6.34099 17.7046C6.3391 17.7046 6.33816 17.7046 6.33721 17.7046C6.3325 17.7046 6.32874 17.7046 6.32403 17.7046C6.3212 17.7046 6.31836 17.7046 6.31459 17.7046C6.30139 17.7046 6.28726 17.7046 6.27312 17.7046C6.27218 17.7046 6.27217 17.7046 6.27123 17.7046C6.2684 17.7046 6.26465 17.7046 6.26087 17.7046C6.25805 17.7046 6.25427 17.7046 6.2505 17.7046C6.24767 17.7037 6.24485 17.7037 6.24108 17.7037C6.2392 17.7037 6.23636 17.7037 6.23448 17.7037C6.23071 17.7037 6.22787 17.7037 6.22504 17.7037C6.22221 17.7037 6.2194 17.7037 6.21657 17.7037C6.20715 17.7037 6.19771 17.7037 6.18829 17.7037C6.18546 17.7037 6.18357 17.7037 6.18074 17.7037C6.16189 17.7037 6.1421 17.7037 6.12325 17.7037C6.12136 17.7037 6.11947 17.7037 6.11759 17.7037C6.11382 17.7027 6.11004 17.7027 6.10626 17.7027C6.10438 17.7027 6.10343 17.7027 6.1006 17.7027C6.09683 17.7027 6.09307 17.7027 6.0893 17.7027C6.08742 17.7027 6.08553 17.7027 6.08364 17.7027C6.07893 17.7027 6.07422 17.7027 6.07045 17.7027C6.06951 17.7027 6.06857 17.7027 6.06857 17.7027C6.06385 17.7027 6.05913 17.7027 6.05441 17.7027C6.05253 17.7027 6.0516 17.7027 6.04972 17.7027C0.584139 17.6499 1.79262 16.7987 1.32129 15.8221L1.43724 15.8212L4.45282 15.9249L5.01654 16.8195H7.09984L7.0904 16.8496C7.04798 17.1296 7.02347 17.4152 7.02065 17.7056Z" fill="#363E01"/>
<path d="M46.5058 2.72943C43.0547 1.35219 37.5721 0.355812 29.255 1.68968C29.255 1.68968 24.2692 2.35143 20.0809 5.19734C19.3504 5.69507 18.6405 6.25971 17.9863 6.89978L51.5349 6.08721C51.5349 6.08721 50.168 4.19339 46.5058 2.72943Z" fill="black"/>
<path d="M1.00896 15.4159L1.00708 15.414C0.985396 15.3942 0.964641 15.3744 0.94296 15.3537C0.262355 14.6797 0.0408279 13.5306 0.16526 12.4842L1.28799 12.9112L1.43692 14.6269L1.00896 15.4159Z" fill="#363E01"/>
<path d="M1.05228 14.5533L1.1456 14.4798L1.07301 14.3676L0.29248 14.2017L0.361293 14.4072L1.03623 14.5515L1.05228 14.5533Z" fill="#808080"/>
<path d="M1.05237 13.3033L1.14569 13.2289L1.0731 13.1176L0.134211 12.9168L0.132324 13.1101L1.03633 13.3024L1.05237 13.3033Z" fill="#808080"/>
<path d="M1.07346 13.5343L0.14209 13.3354L0.159074 13.5324L1.03668 13.7181L1.05272 13.7209L1.14604 13.6455L1.07346 13.5343Z" fill="#808080"/>
<path d="M1.07336 13.9509L0.193848 13.7643L0.231568 13.9641L1.03659 14.1347L1.05263 14.1376L1.14595 14.0631L1.07336 13.9509Z" fill="#808080"/>
<path d="M1.05245 14.9709L1.14577 14.8965L1.07318 14.7834L0.460449 14.6542L0.575452 14.8691L1.03641 14.9681L1.05245 14.9709Z" fill="#808080"/>
<path d="M63.2582 9.46857C61.7839 9.44877 59.6846 10.283 59.6846 10.283L60.9374 11.6942H63.2582V9.46857Z" fill="#DB2A24"/>
<path d="M46.4294 5.46035C46.4087 4.99562 46.3804 4.2424 46.3842 3.50524C47.8952 4.12834 48.9831 4.8165 49.7099 5.38021L46.4294 5.46035ZM29.3521 2.43438L29.3624 2.43249L29.3728 2.43061C30.5059 2.24962 31.6126 2.11388 32.6919 2.01113V5.79215L20.1054 6.09757C24.1617 3.15928 29.2936 2.44098 29.3521 2.43438ZM45.6451 3.22057V5.47826L34.7356 5.74315C34.6489 5.11156 34.3802 2.83879 34.8695 1.85276C35.4728 1.82543 36.0648 1.81127 36.6445 1.81127C40.534 1.81127 43.4713 2.43062 45.6451 3.22057ZM36.6445 1.05997C34.4736 1.05997 32.0207 1.24569 29.255 1.68968C29.255 1.68968 22.3678 2.60122 17.9863 6.89978L51.5349 6.08721C51.5349 6.08721 47.9245 1.05997 36.6445 1.05997Z" fill="#303030"/>
<path d="M20.7871 6.36053L20.5948 4.94842C20.5599 4.6939 20.2526 4.55817 19.9217 4.67977C19.2119 4.93995 18.9414 6.42464 18.9743 6.49157C19.1629 6.85639 19.6436 6.83092 20.2045 6.82903C20.5599 6.82715 20.822 6.61505 20.7871 6.36053Z" fill="#545454"/>
<path d="M4.46879 15.0152C4.46879 15.167 4.34529 15.2896 4.19446 15.2896H2.83043C2.6796 15.2896 2.55518 15.167 2.55518 15.0152C2.55518 14.8635 2.6796 14.7409 2.83043 14.7409H4.19446C4.34529 14.7409 4.46879 14.8635 4.46879 15.0152Z" fill="#FF8000"/>
<path d="M13.0758 11.6989C10.6541 11.6989 8.56132 13.1298 7.5932 15.1895L7.09075 16.8496C7.0455 17.1446 7.021 17.4463 7.021 17.7517C7.7082 17.7517 8.17295 17.7517 8.17295 17.7517H19.1305C19.1305 14.4156 16.4137 11.6989 13.0758 11.6989Z" fill="black"/>
<path d="M18.2627 17.7518C18.2627 20.6184 15.9428 22.9412 13.0752 22.9412C10.2095 22.9412 7.8877 20.6184 7.8877 17.7518C7.8877 14.888 10.2095 12.5643 13.0752 12.5643C15.9428 12.5643 18.2627 14.888 18.2627 17.7518Z" fill="#303030"/>
<path d="M13.0753 21.1322C11.2107 21.1322 9.6958 19.6164 9.6958 17.7518C9.6958 15.8881 11.2107 14.3723 13.0753 14.3723C14.9389 14.3723 16.4566 15.8881 16.4566 17.7518C16.4566 19.6164 14.9389 21.1322 13.0753 21.1322Z" fill="#F0F0F0"/>
<path d="M11.7101 15.0472L12.6518 16.6733C12.8639 17.0391 13.2071 17.0391 13.4192 16.6733L14.359 15.0472C14.3854 15.0236 13.7915 14.6626 13.0355 14.6626C12.2804 14.6626 11.6875 15.0246 11.7101 15.0472Z" fill="black"/>
<path d="M10.2563 18.1619L12.1137 17.8773C12.5316 17.8131 12.6567 17.4935 12.3933 17.1627L11.2214 15.695C11.2091 15.6619 10.6565 16.0834 10.381 16.7875C10.1059 17.4906 10.227 18.1747 10.2563 18.1619Z" fill="black"/>
<path d="M12.6973 20.7401L12.8274 18.8642C12.8566 18.4438 12.571 18.2515 12.192 18.4362L10.5028 19.2573C10.4679 19.263 10.7611 19.8945 11.3842 20.3178C12.0101 20.7392 12.7058 20.7712 12.6973 20.7401Z" fill="black"/>
<path d="M15.8308 18.9791L14.0765 18.306C13.6797 18.1571 13.4157 18.372 13.4798 18.7896L13.773 20.6457C13.7664 20.6797 14.4564 20.5854 15.0427 20.1103C15.6291 19.6352 15.8638 18.981 15.8308 18.9791Z" fill="black"/>
<path d="M15.0633 15.5365L13.9066 17.0183C13.6465 17.352 13.7765 17.6697 14.1941 17.7291L16.054 17.9931C16.087 18.0072 16.1983 17.3209 15.9155 16.6205C15.6327 15.9211 15.0755 15.5054 15.0633 15.5365Z" fill="black"/>
<path d="M44.8865 17.7056C37.4385 17.7056 27.187 17.7056 19.1291 17.7056C19.1272 17.4247 19.1065 17.1494 19.0669 16.8798H44.9516C44.9129 17.1494 44.8884 17.4256 44.8865 17.7056Z" fill="#363E01"/>
<path d="M1.04053 11.3237C1.11028 11.0447 1.21776 10.809 1.35633 10.6337C1.80881 10.0615 2.42153 9.50156 3.17943 8.96801L6.03572 8.74081C5.52856 9.05849 4.74991 9.56283 4.00521 10.1209C3.36514 10.6016 2.62986 10.8166 1.97753 11.0079C1.62686 11.1097 1.30919 11.2021 1.04053 11.3237Z" fill="white"/>
<path d="M2.48544 10.7798C2.58253 10.7591 2.76635 10.5621 2.60704 10.4329C2.44868 10.3029 2.49392 10.086 2.48544 9.99365C2.47318 9.90032 2.27521 9.88431 2.14229 10.0502C2.00843 10.2152 1.78975 10.9326 2.48544 10.7798Z" fill="#DFD2C2"/>
<path d="M2.73353 10.0097C2.87399 10.3141 3.19733 10.465 3.45374 10.3471C3.71203 10.2274 3.80913 9.88525 3.66867 9.58171C3.52821 9.27534 3.20581 9.12451 2.94752 9.24422C2.69017 9.36206 2.59496 9.70518 2.73353 10.0097Z" fill="#DFD2C2"/>
<path d="M4.23958 9.17534C4.24147 9.11972 4.36403 8.74831 4.51486 9.06128C4.66474 9.37424 4.48939 9.70887 4.29144 9.68154C4.11421 9.65703 4.22921 9.32993 4.23958 9.17534Z" fill="#FABBAC"/>
<path d="M8.16033 20.7485C9.87786 22.0013 20.5357 23.8941 26.0116 25.277C30.0066 26.2857 41.624 24.8839 45.2118 22.0559C47.5789 20.1904 47.9305 17.5858 49.5226 15.0359C51.4796 15.8711 53.7269 16.0125 55.6575 15.1236C56.9245 15.3809 58.1923 15.6251 59.5158 15.676C60.351 15.7099 61.1608 15.5911 61.9244 15.3517V30.6455C62.5088 35.7859 53.907 37.2112 48.5357 37.2112C48.5357 37.2112 30.97 37.2112 22.1316 33.1276C13.6268 27.202 5.57553 25.2073 5.82345 21.9174C5.88095 21.135 7.49103 20.2583 8.16033 20.7485Z" fill="#F2CE9E"/>
<path d="M54.8997 11.4388C53.5498 11.3663 51.9482 11.3078 50.1977 11.2852C49.7414 11.2908 45.6314 11.5915 44.0355 11.9073C42.8958 12.1336 40.4892 12.9858 38.9017 13.5325C37.3199 14.0802 35.8692 14.6109 34.6305 15.0719C32.1551 16.0127 30.5044 16.6405 30.5044 16.6405C29.1253 17.1646 28.4315 18.7068 28.9556 20.085C29.41 21.2746 30.6213 21.9533 31.8317 21.7799L31.893 21.7695C31.893 21.7695 33.6002 21.5235 36.1604 21.1559C37.4425 20.9805 38.9404 20.7863 40.5278 20.6063C42.1115 20.4281 43.8187 20.2509 45.3797 20.1858L46.3761 20.1953L46.7004 20.2019H46.7833H46.8239L46.8446 20.2037C46.8776 20.2019 46.5788 20.2235 46.7089 20.2141L46.7145 20.216L46.8324 20.232L47.2952 20.2952L47.7467 20.3499L48.2916 20.4422C48.6574 20.5054 49.0184 20.5657 49.37 20.6261C50.8585 20.9183 52.2696 21.2256 53.4942 21.5169C54.7159 21.8185 55.7321 22.0702 56.4419 22.2465C57.1536 22.4322 57.559 22.5397 57.559 22.5397L57.5788 22.5444C60.517 23.3193 63.5242 21.564 64.299 18.6257C65.0711 15.6884 58.9277 11.4388 54.8997 11.4388Z" fill="#F2CE9E"/>
<path d="M30.0813 17.5085C29.313 17.9365 29.0246 19.0686 29.2075 19.819C29.3074 20.2253 29.7608 21.2349 31.2738 21.1651C32.783 21.0935 32.7849 20.9889 32.7849 20.9889L31.2455 17.0542C31.2455 17.0542 30.366 17.352 30.0813 17.5085Z" fill="#FFEFDB"/>
<path d="M59.7939 13.8746V34.7075C59.7939 34.7075 62.9179 32.1614 69.5091 32.5045C71.697 32.6195 77.4953 33.0946 81.0002 33.4839V12.6831C72.5473 15.1585 59.7939 13.8746 59.7939 13.8746Z" fill="#F2CE9E"/>
<defs>
<linearGradient id="paint0_linear_550_4750" x1="20.0209" y1="-0.451152" x2="20.0209" y2="17.6464" gradientUnits="userSpaceOnUse">
<stop stop-color="#5F5A5E"/>
<stop offset="0.275424" stop-color="#262529"/>
<stop offset="0.598214" stop-color="#262529"/>
<stop offset="0.809322" stop-color="#4A484B"/>
<stop offset="1" stop-color="#4A484B"/>
</linearGradient>
</defs>
</svg>
