<svg width="40" height="39" viewBox="0 0 40 39" fill="none" xmlns="http://www.w3.org/2000/svg">
<path d="M30.6042 7.8042H3.54346V30.8515H30.6042V7.8042Z" fill="#D2D2D2"/>
<path d="M30.604 28.3732H3.53906V30.8514H30.604V28.3732Z" fill="#474747"/>
<path d="M30.6042 7.57935H30.2656V30.8514H30.6042V7.57935Z" fill="#E3E3E3"/>
<path d="M3.87903 7.57831H3.54102V30.8493H3.87903V7.57831Z" fill="#E3E3E3"/>
<path d="M28.6373 20.498H22.3779V27.1509H28.6373V20.498Z" fill="#D6D6D6"/>
<path d="M22.4458 20.5872V27.1857H28.5663V20.5872H22.4458ZM28.5151 27.121H22.4987V20.6577H28.5151V27.121Z" fill="#EFEFEF"/>
<path d="M28.397 20.8062H22.6177V27.0911H28.397V20.8062Z" fill="#E5E5E5"/>
<path d="M22.5918 20.7736V27.1258H28.425V20.7736H22.5918ZM28.3732 27.0543H22.6436V20.8392H28.3732V27.0543Z" fill="#A3A8AD"/>
<path d="M28.2051 21.0507H22.8076V26.8445H28.2051V21.0507Z" fill="#B4E5FA"/>
<path d="M28.2051 23.051H22.8076V23.3186H28.2051V23.051Z" fill="#E5E5E5"/>
<path opacity="0.2" d="M28.2051 23.2817H22.8076V23.318H28.2051V23.2817Z" fill="black"/>
<path opacity="0.2" d="M22.9043 21.1725H28.2057V21.0507H22.8076V26.8445H22.9043V21.1725Z" fill="black"/>
<path d="M28.8737 27.1509H22.1401L22.3393 27.4366H28.675L28.8737 27.1509Z" fill="#E5E5E5"/>
<path d="M28.6688 27.4366H22.3433V27.6807H28.6688V27.4366Z" fill="#D6D6D6"/>
<path opacity="0.2" d="M28.6688 27.4366H22.3433V27.4735H28.6688V27.4366Z" fill="black"/>
<path opacity="0.3" d="M27.3321 21.0507L22.8076 25.6446V24.0133L25.9149 21.0507H27.3321Z" fill="white"/>
<path opacity="0.3" d="M27.9579 21.0507L22.8076 26.5177V26.1145L27.6594 21.0507H27.9579Z" fill="white"/>
<path d="M22.6545 25.69H22.5781V26.4621H22.6545V25.69Z" fill="#A3A8AD"/>
<path d="M22.6545 21.433H22.5781V22.2068H22.6545V21.433Z" fill="#A3A8AD"/>
<path opacity="0.2" d="M28.6373 27.0687H22.3779V27.151H28.6373V27.0687Z" fill="black"/>
<path d="M11.7687 20.498H5.50879V27.1509H11.7687V20.498Z" fill="#D6D6D6"/>
<path d="M5.57812 20.5872V27.1857H11.6976V20.5872H5.57812ZM11.6458 27.121H5.62938V20.6577H11.6458V27.121Z" fill="#EFEFEF"/>
<path d="M11.5285 20.8062H5.74756V27.0911H11.5285V20.8062Z" fill="#E5E5E5"/>
<path d="M5.72266 20.7736V27.1258H11.5559V20.7736H5.72266ZM11.5036 27.0543H5.77445V20.8392H11.5036V27.0543Z" fill="#A3A8AD"/>
<path d="M11.3376 21.0507H5.93896V26.8445H11.3376V21.0507Z" fill="#B4E5FA"/>
<path d="M11.3376 23.051H5.93896V23.3186H11.3376V23.051Z" fill="#E5E5E5"/>
<path opacity="0.2" d="M11.3376 23.2817H5.93896V23.318H11.3376V23.2817Z" fill="black"/>
<path opacity="0.2" d="M6.03562 21.1725H11.3381V21.0507H5.93896V26.8445H6.03562V21.1725Z" fill="black"/>
<path d="M12.0066 27.1509H5.27148L5.4712 27.4366H11.8064L12.0066 27.1509Z" fill="#E5E5E5"/>
<path d="M11.7998 27.4366H5.47363V27.6807H11.7998V27.4366Z" fill="#D6D6D6"/>
<path opacity="0.2" d="M11.7998 27.4366H5.47363V27.4735H11.7998V27.4366Z" fill="black"/>
<path opacity="0.3" d="M10.4634 21.0507L5.93896 25.6446V24.0133L9.04676 21.0507H10.4634Z" fill="white"/>
<path opacity="0.3" d="M11.0887 21.0507L5.93896 26.5177V26.1145L10.7913 21.0507H11.0887Z" fill="white"/>
<path d="M5.78641 25.69H5.70898V26.4621H5.78641V25.69Z" fill="#A3A8AD"/>
<path d="M5.78641 21.433H5.70898V22.2068H5.78641V21.433Z" fill="#A3A8AD"/>
<path opacity="0.2" d="M11.7687 27.0687H5.50879V27.151H11.7687V27.0687Z" fill="black"/>
<path d="M28.1466 0H17.0728H5.99959L2.08496 7.8047H17.0728H32.0612L28.1466 0Z" fill="#F76231"/>
<path opacity="0.2" d="M30.6065 8.17902H3.54102V9.01416H30.6065V8.17902Z" fill="black"/>
<path d="M20.1697 7.80469H13.9771V17.5061H20.1697V7.80469Z" fill="#D2D2D2"/>
<path d="M21.1594 7.80469H20.1694V17.5061H21.1594V7.80469Z" fill="#A3A3A3"/>
<path d="M18.839 8.29865H15.3066V16.3698H18.839V8.29865Z" fill="#D6D6D6"/>
<path d="M15.3936 8.40808V16.4098H18.755V8.40808H15.3936ZM18.6898 16.3281H15.4566V8.48498H18.6898V16.3281Z" fill="#EFEFEF"/>
<path d="M18.5479 8.67188H15.5977V16.2956H18.5479V8.67188Z" fill="#E5E5E5"/>
<path d="M15.5645 8.62915V16.3329H18.5799V8.62915H15.5645ZM18.5142 16.2507H15.6291V8.71138H18.5142V16.2507Z" fill="#A3A8AD"/>
<path d="M18.3158 8.96881H15.8301V15.9966H18.3158V8.96881Z" fill="#B4E5FA"/>
<path d="M18.3158 11.3947H15.8301V11.7194H18.3158V11.3947Z" fill="#E5E5E5"/>
<path opacity="0.2" d="M18.3158 11.675H15.8301V11.7194H18.3158V11.675Z" fill="black"/>
<path opacity="0.2" d="M15.9465 9.11565H18.3158V8.96881H15.8301V15.9971H15.9465V9.11565Z" fill="black"/>
<path d="M19.1268 16.3698H15.0205L15.2619 16.7153H18.8839L19.1268 16.3698Z" fill="#E5E5E5"/>
<path d="M18.8765 16.7153H15.2651V17.0122H18.8765V16.7153Z" fill="#D6D6D6"/>
<path opacity="0.2" d="M18.8765 16.7153H15.2651V16.7617H18.8765V16.7153Z" fill="black"/>
<path opacity="0.3" d="M17.2569 8.96881L15.8301 13.5899V11.611L16.6834 8.96881H17.2569Z" fill="white"/>
<path opacity="0.3" d="M18.0162 8.96881L15.8301 15.3857V14.5297L17.6526 8.96881H18.0162Z" fill="white"/>
<path d="M15.6437 14.5953H15.5513V15.533H15.6437V14.5953Z" fill="#A3A8AD"/>
<path d="M15.6437 9.43121H15.5513V10.371H15.6437V9.43121Z" fill="#A3A8AD"/>
<path opacity="0.2" d="M18.839 16.2684H15.3066V16.3693H18.839V16.2684Z" fill="black"/>
<path opacity="0.2" d="M30.604 19.3121H3.53906V19.7676H30.604V19.3121Z" fill="black"/>
<path d="M30.604 18.9212H3.53906V19.5096H30.604V18.9212Z" fill="#E0E1E6"/>
<path d="M20.7912 28.9873H13.3555V29.3691H20.7912V28.9873Z" fill="#EFEFEF"/>
<path d="M21.5424 29.6809H12.6035L13.3554 29.3691H20.7911L21.5424 29.6809Z" fill="#A3A8AD"/>
<path d="M22.2942 30.3751H11.8511L12.6035 30.0659H21.5424L22.2942 30.3751Z" fill="#A3A8AD"/>
<path d="M21.5424 29.681H12.6035V30.0665H21.5424V29.681Z" fill="#EFEFEF"/>
<path d="M20.3069 28.668H13.8382L13.3555 28.9873H20.7912L20.3069 28.668Z" fill="#A3A8AD"/>
<path d="M22.2947 30.3751H11.8511V30.8493H22.2947V30.3751Z" fill="#E0E1E6"/>
<path d="M20.4145 18.9191H19.3022V19.3633H20.4145V18.9191Z" fill="#EFEFEF"/>
<path d="M20.4145 28.0245H19.3022V28.8634H20.4145V28.0245Z" fill="#EFEFEF"/>
<path opacity="0.8" d="M19.8061 28.0245H19.5386V28.8634H19.8061V28.0245Z" fill="white"/>
<path opacity="0.8" d="M19.6724 18.9191H19.4038V19.3633H19.6724V18.9191Z" fill="white"/>
<path d="M20.2572 19.3633H19.46V28.0245H20.2572V19.3633Z" fill="#EFEFEF"/>
<path opacity="0.8" d="M19.8953 19.3633H19.6299V28.0245H19.8953V19.3633Z" fill="white"/>
<path opacity="0.2" d="M20.2572 19.3633H19.46V19.491H20.2572V19.3633Z" fill="black"/>
<path opacity="0.2" d="M20.2572 27.8959H19.46V28.0246H20.2572V27.8959Z" fill="black"/>
<path d="M14.8437 18.9191H13.7319V19.3633H14.8437V18.9191Z" fill="#EFEFEF"/>
<path d="M14.8437 28.0245H13.7319V28.8634H14.8437V28.0245Z" fill="#EFEFEF"/>
<path opacity="0.8" d="M14.2369 28.0245H13.9678V28.8634H14.2369V28.0245Z" fill="white"/>
<path opacity="0.8" d="M14.1026 18.9191H13.834V19.3633H14.1026V18.9191Z" fill="white"/>
<path d="M14.6865 19.3633H13.8887V28.0245H14.6865V19.3633Z" fill="#EFEFEF"/>
<path opacity="0.8" d="M14.3245 19.3633H14.0586V28.0245H14.3245V19.3633Z" fill="white"/>
<path opacity="0.2" d="M14.6865 19.3633H13.8887V19.491H14.6865V19.3633Z" fill="black"/>
<path opacity="0.2" d="M14.6865 27.8959H13.8887V28.0246H14.6865V27.8959Z" fill="black"/>
<path d="M32.0618 7.80469H2.08496V8.17902H32.0618V7.80469Z" fill="#D93F0E"/>
<path d="M20.6357 7.43093V8.17904H13.5107V7.43093L17.073 3.90503L20.6357 7.43093Z" fill="#D2D2D2"/>
<path opacity="0.2" d="M17.0728 3.90503L13.5106 7.43093V8.17904L13.5159 8.18224L12.9873 8.17904V9.01419L13.7263 8.32696H14.0878V8.12724L17.1705 5.26509L20.1694 8.18064L20.6356 8.17904V7.43093L17.0728 3.90503Z" fill="black"/>
<path d="M13.9773 7.80469H12.9873V17.5061H13.9773V7.80469Z" fill="#E3E3E3"/>
<path d="M20.1694 8.18063V7.87893L17.0728 4.75246L13.9768 7.87893V8.18063H12.9873V7.66588L17.0728 3.44794L21.1594 7.66588V8.18063H20.1694Z" fill="#D1D1D1"/>
<path d="M12.9682 7.83458L12.8662 7.67279L17.0729 3.31494L21.2791 7.67279L21.1777 7.83458L17.0729 3.583L12.9682 7.83458Z" fill="#D93F0E"/>
<path d="M18.9331 19.5118H15.2129V28.668H18.9331V19.5118Z" fill="#A0652E"/>
<path d="M18.3495 20.2444V24.0122H15.796L15.5269 24.3512H18.6192V19.9064L18.3495 20.2444Z" fill="#C77E39"/>
<path d="M15.796 20.2444H18.3495L18.6192 19.9064H15.5269V24.3512L15.796 24.0122V20.2444Z" fill="#7F5026"/>
<path d="M15.796 25.1752H18.3495L18.6192 24.8367H15.5269V28.3636L15.796 28.0256V25.1752Z" fill="#7F5026"/>
<path d="M18.3495 25.1752V28.0256H15.796L15.5269 28.3636H18.6192V24.8367L18.3495 25.1752Z" fill="#C77E39"/>
<path d="M18.8031 24.5729C18.8031 24.6727 18.7396 24.7523 18.66 24.7523C18.5821 24.7523 18.519 24.6727 18.519 24.5729C18.519 24.4735 18.5821 24.3956 18.66 24.3956C18.7396 24.3956 18.8031 24.4735 18.8031 24.5729Z" fill="#DFBC00"/>
<path d="M18.66 24.4917H18.0405V24.653H18.66C18.6952 24.653 18.724 24.6177 18.724 24.5729C18.724 24.5285 18.6952 24.4917 18.66 24.4917Z" fill="#F7D419"/>
<path d="M28.3298 9.63574H23.2158V17.7037H28.3298V9.63574Z" fill="#D6D6D6"/>
<path d="M23.3022 9.74469V17.7454H28.2437V9.74469H23.3022ZM28.1807 17.6685H23.3669V9.82638H28.1807V17.6685Z" fill="#EFEFEF"/>
<path d="M28.0394 10.0079H23.5059V17.6327H28.0394V10.0079Z" fill="#E5E5E5"/>
<path d="M23.4741 9.96893V17.6679H28.0744V9.96893H23.4741ZM28.0098 17.5916H23.5387V10.0464H28.0098V17.5916Z" fill="#A3A8AD"/>
<path d="M27.8072 10.3032H23.7383V17.3331H27.8072V10.3032Z" fill="#B4E5FA"/>
<path d="M27.8072 12.7313H23.7383V13.0543H27.8072V12.7313Z" fill="#E5E5E5"/>
<path opacity="0.2" d="M27.8072 13.0089H23.7383V13.0548H27.8072V13.0089Z" fill="black"/>
<path opacity="0.2" d="M23.8525 10.4533H27.8072V10.3032H23.7383V17.3336H23.8525V10.4533Z" fill="black"/>
<path d="M28.6176 17.7042H22.9302L23.1699 18.0524H28.3752L28.6176 17.7042Z" fill="#E5E5E5"/>
<path d="M28.3673 18.0524H23.1743V18.3482H28.3673V18.0524Z" fill="#D6D6D6"/>
<path opacity="0.2" d="M28.3673 18.0524H23.1743V18.0972H28.3673V18.0524Z" fill="black"/>
<path opacity="0.3" d="M26.7473 10.3032L23.7383 14.9254V12.947L25.3829 10.3032H26.7473Z" fill="white"/>
<path opacity="0.3" d="M27.505 10.3032L23.7383 16.7206V15.8657L27.143 10.3032H27.505Z" fill="white"/>
<path d="M23.5544 15.9324H23.4609V16.8701H23.5544V15.9324Z" fill="#A3A8AD"/>
<path d="M23.5544 10.7678H23.4609V11.706H23.5544V10.7678Z" fill="#A3A8AD"/>
<path opacity="0.2" d="M28.3298 17.606H23.2158V17.7042H28.3298V17.606Z" fill="black"/>
<path d="M10.9293 9.63574H5.81689V17.7048H10.9293V9.63574Z" fill="#D6D6D6"/>
<path d="M5.90332 9.74469V17.7507H10.8454V9.74469H5.90332ZM10.7802 17.6685H5.9626V9.82638H10.7802V17.6685Z" fill="#EFEFEF"/>
<path d="M10.6393 10.0079H6.10742V17.6327H10.6393V10.0079Z" fill="#E5E5E5"/>
<path d="M6.07471 9.96893V17.6738H10.6728V9.96893H6.07471ZM10.6093 17.5916H6.13825V10.0522H10.6093V17.5916Z" fill="#A3A8AD"/>
<path d="M10.4084 10.3054H6.33838V17.3347H10.4084V10.3054Z" fill="#B4E5FA"/>
<path d="M10.4084 12.7313H6.33838V13.0559H10.4084V12.7313Z" fill="#E5E5E5"/>
<path opacity="0.2" d="M10.4084 13.0089H6.33838V13.0564H10.4084V13.0089Z" fill="black"/>
<path opacity="0.2" d="M6.45319 10.4538H10.4089V10.3054H6.33838V17.3347H6.45319V10.4538Z" fill="black"/>
<path d="M11.2168 17.7053H5.52881L5.7707 18.0519H10.9765L11.2168 17.7053Z" fill="#E5E5E5"/>
<path d="M10.9669 18.0519H5.77393V18.3483H10.9669V18.0519Z" fill="#D6D6D6"/>
<path opacity="0.2" d="M10.9669 18.0519H5.77393V18.0978H10.9669V18.0519Z" fill="black"/>
<path opacity="0.3" d="M9.34578 10.3054L6.33838 14.9275V12.947L7.98359 10.3054H9.34578Z" fill="white"/>
<path opacity="0.3" d="M10.1056 10.3054L6.33838 16.7206V15.8663L9.74359 10.3054H10.1056Z" fill="white"/>
<path d="M6.15559 15.9325H6.06055V16.8702H6.15559V15.9325Z" fill="#A3A8AD"/>
<path d="M6.15559 10.7689H6.06055V11.7076H6.15559V10.7689Z" fill="#A3A8AD"/>
<path opacity="0.2" d="M10.9293 17.606H5.81689V17.7047H10.9293V17.606Z" fill="black"/>
<path opacity="0.2" d="M30.604 19.9267V30.8515H22.2274L21.8552 30.3736L20.7579 28.967L20.4161 28.5265L20.2965 28.3733L19.628 27.5157L19.4608 27.3026L18.9338 26.6261L14.686 21.1746L14.3218 20.7079L14.0607 20.372L13.3889 19.5102L13.2346 19.3121L12.9297 18.9212H21.1573V7.8042L21.1781 7.83197V7.8373L21.4489 8.17798L23.3669 10.6391L23.4615 10.7662H23.4652L30.604 19.9267Z" fill="black"/>
<path d="M21.5236 17.9023H12.6221L12.927 17.5061H21.2192L21.5236 17.9023Z" fill="#F2F2F2"/>
<path d="M21.5236 18.3482H12.6221L12.927 18.919H21.2192L21.5236 18.3482Z" fill="#949494"/>
<path d="M21.5236 17.9023H12.6221V18.3482H21.5236V17.9023Z" fill="#F2F2F2"/>
<path opacity="0.2" d="M28.9897 28.1233H22.6914L22.3208 27.6694H28.6197L28.9897 28.1233Z" fill="black"/>
<path d="M33.29 35.2457L34.5577 27.0704C34.5577 27.0704 32.2664 27.2087 31.1894 26.9139C30.107 26.6143 28.0949 25.9378 26.5352 25.7925C24.9749 25.6478 23.0349 26.9273 21.8938 27.7661C20.7473 28.6082 20.0008 30.7015 18.904 31.1644C18.2226 31.449 16.1299 31.5516 14.2087 31.3663C13.0323 31.2563 11.9248 31.0373 11.2408 30.6844C11.2274 30.6806 11.2162 30.6732 11.1981 30.6651C9.34833 29.7403 3.29883 28.0027 1.93076 27.8014C0.556288 27.607 -0.0674036 28.8224 0.00575221 29.3056C0.0094901 29.3419 0.0345862 29.3814 0.074635 29.4322C0.350171 29.7771 1.42241 30.4382 2.45406 31.0133C3.26198 31.4736 4.04908 31.8709 4.40044 32.0295C5.26229 32.4177 8.58474 34.4319 9.32271 34.7197C10.0591 34.999 13.5988 36.3563 14.6439 36.7675C15.6985 37.1771 16.4749 37.4991 17.4969 38.512C18.5163 39.5314 20.4189 38.7085 21.0228 38.252C21.631 37.788 26.2852 35.9612 27.4419 35.3487C28.6059 34.7298 32.0272 35.0011 33.29 35.2457Z" fill="#FDD4A6"/>
<path d="M19.5336 30.6923C19.2062 31.1253 18.8666 31.489 18.4869 31.6492C17.8061 31.9322 15.7129 32.0363 13.7927 31.851C12.6163 31.741 11.5094 31.5205 10.8248 31.168C10.8109 31.1659 10.8008 31.1568 10.7832 31.1504C8.9329 30.2245 2.8834 28.4858 1.51427 28.2861C0.94077 28.2044 0.504504 28.3742 0.189453 28.6295C0.461251 28.1489 1.03261 27.6731 1.93184 27.8007C3.29991 28.0021 9.34942 29.7402 11.1991 30.6645C11.2173 30.673 11.2285 30.68 11.2419 30.6837C11.9254 31.0367 13.0334 31.2556 14.2097 31.3656C16.131 31.5509 18.2237 31.4484 18.9051 31.1638C19.1272 31.0703 19.3333 30.8984 19.5336 30.6923Z" fill="#F0BD89"/>
<path d="M30.7729 27.3976C29.691 27.0991 27.679 26.4225 26.1182 26.2768C24.56 26.1321 22.6184 27.4115 21.4778 28.2488C21.3433 28.3465 21.2162 28.4661 21.0923 28.5932C21.3422 28.268 21.6054 27.9759 21.8938 27.765C23.0355 26.9261 24.9754 25.6467 26.5352 25.7914C28.095 25.9366 30.107 26.6137 31.1894 26.9127C32.2664 27.2075 34.5578 27.0692 34.5578 27.0692L34.4654 27.6721C33.5341 27.6635 31.5803 27.6187 30.7729 27.3976Z" fill="#F0BD89"/>
<path d="M14.4179 32.9211C13.2944 32.7171 12.4022 31.5328 11.3497 30.94C10.8627 30.6645 10.8958 31.073 10.8835 31.6705C10.868 32.3257 11.7277 32.8191 12.1325 33.0375C12.864 33.4321 15.3001 33.5817 15.8629 33.7333C16.3344 33.8599 16.8289 33.9736 17.3185 33.9763C18.0261 33.9784 19.4107 33.7477 19.8219 33.5753C20.2341 33.4022 22.0091 33.0434 22.613 33.053C23.3152 33.0637 25.0544 32.7038 25.6861 31.9573C26.3173 31.2113 25.661 30.8834 25.661 30.8834L19.4823 32.2563C18.2893 32.5415 17.051 32.675 15.8469 32.912C15.3423 33.013 14.8692 33.0034 14.4179 32.9211Z" fill="#F0BD89"/>
<path d="M24.148 26.3681C22.5119 26.9656 20.4069 28.5959 18.8611 28.6007C17.3152 28.6039 13.3322 28.8303 12.4709 28.9312C11.6101 29.0337 10.7509 29.9084 10.7365 30.9502C10.7215 32.0069 11.7153 32.9137 12.5579 33.0765C13.4005 33.241 16.5233 33.6068 17.5736 33.5277C18.624 33.4487 22.3939 32.9008 24.4497 32.6312C26.5056 32.3637 27.4171 29.1779 27.4171 29.1779L24.3584 26.2693C24.3584 26.2693 25.7836 25.7706 24.148 26.3681Z" fill="#FDD4A6"/>
<path d="M18.4449 29.085C16.9172 29.3237 12.9155 29.313 12.0552 29.4155C11.7023 29.4577 11.3509 29.635 11.0562 29.8956C11.3867 29.3696 11.9292 28.9953 12.4707 28.9301C13.3315 28.8287 17.315 28.6028 18.8609 28.5996C20.4073 28.5948 22.5117 26.9646 24.1478 26.367L24.3582 26.2677L24.6156 26.4898C23.0286 27.1279 20.3768 28.7796 18.4449 29.085Z" fill="#F0BD89"/>
<path d="M13.5425 29.643C13.9494 29.658 14.1865 29.9148 14.2116 30.2528C14.2378 30.5903 14.2228 31.3838 14.1838 31.6332C14.147 31.8804 14.0776 32.3482 13.526 32.3989C13.0491 32.4433 12.3816 32.258 11.9758 32.1202C11.6362 32.0038 11.1257 31.3539 11.1642 30.8616C11.2021 30.3671 11.6624 29.8315 12.0303 29.7109C12.3971 29.588 13.1004 29.6249 13.5425 29.643Z" fill="#FFEBCA"/>
<path d="M2.45467 31.0132C2.58977 30.7179 2.59672 30.319 2.42264 30.1866C2.2256 30.0344 1.39685 29.6083 1.0583 29.4342C0.718689 29.2692 0.296844 29.3189 0.074707 29.4321C0.350777 29.7765 1.42302 30.4376 2.45467 31.0132Z" fill="#FFEBCA"/>
<path d="M31.8961 25.652H29.9775V35.0966H31.8961V25.652Z" fill="#E3E3E3"/>
<path d="M39.4037 25.1437H31.2578V35.606H39.4037V25.1437Z" fill="#474747"/>
<path opacity="0.5" d="M31.2578 26.3275L36.4663 26.1156L31.2578 25.9014V26.3275Z" fill="black"/>
<path d="M33.9099 27.4062C33.9099 26.9993 33.5815 26.6698 33.1751 26.6698C32.7699 26.6698 32.4409 26.9993 32.4409 27.4062C32.4409 27.8115 32.7699 28.1399 33.1751 28.1399C33.5815 28.1399 33.9099 27.8115 33.9099 27.4062Z" fill="#FDD52C"/>
<path opacity="0.3" d="M32.94 27.6187C32.8139 27.4985 32.6644 27.4531 32.6062 27.5151C32.5454 27.5781 32.5987 27.7249 32.7248 27.8461C32.8508 27.9636 33.0014 28.0112 33.0606 27.9481C33.1199 27.8851 33.066 27.7377 32.94 27.6187Z" fill="white"/>
</svg>
