<svg width="46" height="40" viewBox="0 0 46 40" fill="none" xmlns="http://www.w3.org/2000/svg">
<path d="M28.7545 6.70869H26.0737V12.0709L28.7545 10.4859V6.70869Z" fill="#DF4937"/>
<path d="M42.9378 15.1465V28.6406H24.1895V15.1465L33.5552 9.61118L33.562 9.61521L33.5653 9.61118H33.5727L42.9378 15.1465Z" fill="#F89F26"/>
<path d="M34.6607 26.0494H24.1904V28.6398H42.9375V26.0494H34.6607Z" fill="#FFE8E6"/>
<path d="M27.1016 22.405H31.6045V16.937H27.1016V22.405Z" fill="#2EBBFF"/>
<path d="M35.5229 22.405H40.0259V16.9371H35.5229V22.405Z" fill="#2EBBFF"/>
<path d="M33.5644 14.5042C32.8312 14.5042 32.2368 13.9098 32.2368 13.1766C32.2368 12.4434 32.8312 11.8491 33.5644 11.8491C34.2976 11.8491 34.8919 12.4434 34.8919 13.1766C34.8919 13.9098 34.2976 14.5042 33.5644 14.5042Z" fill="#2EBBFF"/>
<path d="M29.5378 22.2317V18.8629H31.4321V22.2317H29.5378ZM27.2756 18.8629H29.1699V22.2317H27.2756V18.8629ZM31.4321 17.1101V18.4943H29.5378H29.1699H27.2756V17.1101H31.4321ZM26.9292 16.7638V22.5781H31.7785V16.7638H26.9292Z" fill="white"/>
<path d="M37.5903 22.2317V18.8629H35.696V22.2317H37.5903ZM39.8526 18.8629H37.9582V22.2317H39.8526V18.8629ZM35.696 17.1101V18.495H39.8526V17.1101H35.696ZM40.1983 16.7638V22.5781H35.3496V16.7638H40.1983Z" fill="white"/>
<path d="M33.6714 14.3722V13.2784H34.7598C34.7099 13.8593 34.2517 14.3196 33.6714 14.3722ZM32.3675 13.2784H33.4551V14.3722C32.8756 14.3196 32.4167 13.8593 32.3675 13.2784ZM34.7598 13.0749H33.6714V11.9812C34.2517 12.0338 34.7099 12.494 34.7598 13.0749ZM33.4551 11.9812V13.0749H32.3675C32.4167 12.494 32.8756 12.0338 33.4551 11.9812ZM33.5636 11.7278C32.7644 11.7278 32.1147 12.3774 32.1147 13.1767C32.1147 13.9759 32.7644 14.6255 33.5636 14.6255C34.3622 14.6255 35.0125 13.9759 35.0125 13.1767C35.0125 12.3774 34.3622 11.7278 33.5636 11.7278Z" fill="white"/>
<path d="M26.2144 23.1408H32.4924V22.5783H26.2144V23.1408Z" fill="#FFE8E6"/>
<path d="M34.6357 23.1408H40.9137V22.5783H34.6357V23.1408Z" fill="#FFE8E6"/>
<path d="M24.0391 16.7638H25.37V15.5158H24.0391V16.7638Z" fill="#DF4937"/>
<path d="M24.0391 18.9864H25.37V17.7384H24.0391V18.9864Z" fill="#DF4937"/>
<path d="M24.0391 21.2088H25.37V19.9608H24.0391V21.2088Z" fill="#DF4937"/>
<path d="M24.0391 23.4313H25.37V22.183H24.0391V23.4313Z" fill="#DF4937"/>
<path d="M24.0391 25.6539H25.37V24.4059H24.0391V25.6539Z" fill="#DF4937"/>
<path d="M41.7568 16.7638H43.0886V15.5158H41.7568V16.7638Z" fill="#DF4937"/>
<path d="M41.7568 18.9864H43.0884V17.7383H41.7568V18.9864Z" fill="#DF4937"/>
<path d="M41.7568 21.2088H43.0884V19.9607H41.7568V21.2088Z" fill="#DF4937"/>
<path d="M41.7568 23.4313H43.0884V22.1832H41.7568V23.4313Z" fill="#DF4937"/>
<path d="M41.7568 25.6539H43.0884V24.4058H41.7568V25.6539Z" fill="#DF4937"/>
<path d="M26.7941 10.8687V9.9542H28.0516V10.8687H26.7941ZM26.7941 8.69335V7.77954H28.0516V8.69335H26.7941ZM28.2248 9.9542H28.7545V9.781H27.501V8.86654H28.7545V8.69335H28.2248V7.77954H28.7545V7.60636H27.501V6.70873H27.3279V7.60636H26.0737V7.77954H26.6209V8.69335H26.0737V8.86654H27.3279V9.781H26.0737V9.9542H26.6209V10.8687H26.0737V11.0419H27.8144L28.2248 10.7993V9.9542Z" fill="white"/>
<path d="M46 14.9936L45.6745 15.5482L45.1374 16.4553L33.5653 9.61121L21.9898 16.4553L21.4534 15.5482L21.1279 14.9936L26.0736 12.0709L27.8123 11.0419L28.2247 10.7993L28.7544 10.4846L33.5653 7.64411L46 14.9936Z" fill="#DF4937"/>
<path d="M42.9379 15.5157H42.2856L33.5654 10.3598V9.6111L42.9379 15.1545V15.5157Z" fill="#CC8524"/>
<path d="M42.9375 15.9012L42.2852 15.5158H42.9375V15.9012Z" fill="#B84031"/>
<path d="M42.9379 15.1546L33.5654 9.61116H33.5728L42.9379 15.1533V15.1546Z" fill="#B84031"/>
<path d="M34.6357 23.7549H40.9137V23.141H34.6357V23.7549Z" fill="#CC8524"/>
<path d="M19.4487 33.5343C19.2714 33.7857 19.0773 33.5902 18.8832 33.3948C18.6952 33.2048 18.5079 33.0147 18.3374 33.2364V23.9981H21.2068V31.0045C20.6084 31.8395 20.041 32.6946 19.4487 33.5343Z" fill="#28324E"/>
<path d="M2.1888 19.3442L6.61425 17.6824L6.621 17.677L8.9648 19.9831L10.4939 18.2653L10.6098 18.3031L10.725 18.2653L12.2548 19.9831L14.5979 17.677L14.6046 17.6824L19.0301 19.3442C20.3367 19.7324 21.2195 20.8342 21.2195 22.0755V24.6154H18.3501V39.6783H2.86877H0V24.6154V22.0755C0 20.8342 0.882799 19.7324 2.1888 19.3442Z" fill="#28324E"/>
<path d="M6.60986 17.6749L9.37485 27.1175L10.5845 31.2397L11.813 27.0677L14.584 17.6749H6.60986Z" fill="white"/>
<path d="M13.5041 13.7596V16.7848C13.5041 17.369 12.0869 17.834 10.7122 18.3286L10.5969 18.3698L10.481 18.3286C9.10696 17.834 7.69043 17.369 7.69043 16.7848V16.4714V13.7596H13.5041Z" fill="#ECB46B"/>
<path fill-rule="evenodd" clip-rule="evenodd" d="M10.0598 20.0107H11.1346L11.3327 18.3509H9.8623L10.0598 20.0107Z" fill="#A83023"/>
<path fill-rule="evenodd" clip-rule="evenodd" d="M9.37402 27.1175L10.5837 31.2397L11.8122 27.0677L11.1329 20.014H10.0594L9.37402 27.1175Z" fill="#C63929"/>
<path d="M10.5972 18.3697L12.2421 20.231L14.5853 17.6769L13.5043 16.4713V16.7847C13.5043 17.3689 11.9719 17.8764 10.5972 18.3697Z" fill="#EDEDED"/>
<path d="M10.5967 18.3697L8.95171 20.231L6.60791 17.6769L7.68884 16.4713V16.7847C7.68884 17.3689 9.22126 17.8764 10.5967 18.3697Z" fill="#EDEDED"/>
<path d="M10.5845 31.2397L16.1097 21.5087L14.4331 20.7243L16.3179 20.8214L16.4231 18.3697L14.1514 17.1924L10.5845 31.2397Z" fill="#485678"/>
<path d="M11.1254 33.3665L5.05898 21.5087L6.73561 20.7243L4.85074 20.8213L4.74561 18.3697L7.01797 17.1924L11.1254 33.3665Z" fill="#485678"/>
<path d="M18.3498 39.6783H17.4219V25.5434C17.4219 25.0312 17.8377 24.6161 18.3498 24.6161V39.6783Z" fill="#242D46"/>
<path d="M9.77295 36.3485C9.77295 36.5689 9.95085 36.7468 10.1712 36.7468C10.3909 36.7468 10.5688 36.5689 10.5688 36.3485C10.5688 36.1288 10.3909 35.9502 10.1712 35.9502C9.95085 35.9502 9.77295 36.1288 9.77295 36.3485Z" fill="#E6E6E6"/>
<path d="M18.3506 23.7461H21.22V31.0834H28.1739V35.0924H18.3634V34.9226H18.3506V23.7461Z" fill="#28324E"/>
<path d="M31.1894 31.5841C31.5802 31.3577 32.0553 31.2909 32.5014 31.3981L33.9631 31.7505C34.1538 31.7964 34.3499 31.8213 34.5467 31.8253L36.2234 31.8611C36.5772 31.8685 36.8595 32.134 36.8595 32.4588C36.8595 32.7722 36.5933 33.0309 36.2523 33.0491L34.0292 33.165L33.9941 33.1664L34.17 33.2291L35.9855 33.8915L39.4803 33.0303C39.8395 32.942 40.2094 33.1374 40.3058 33.4676C40.3395 33.5822 40.2815 33.7028 40.1663 33.7581L37.6183 34.9744L37.4768 35.0257L35.348 35.5634C35.0737 35.6328 34.7832 35.6214 34.5171 35.5304L31.3363 34.4475C31.0997 34.3673 30.8497 34.3262 30.597 34.3262H28.4702V31.9116H30.2992C30.5108 31.9116 30.7176 31.8563 30.8969 31.7526L31.1894 31.5841Z" fill="#FFC77A"/>
<path d="M28.1738 31.5053V34.6705H30.0088V31.5053H28.1738Z" fill="#F2F2F2"/>
<path d="M27.4484 31.7687C27.3271 31.7687 27.228 31.8671 27.228 31.9884C27.228 32.1104 27.3271 32.2088 27.4484 32.2088C27.5697 32.2088 27.6681 32.1104 27.6681 31.9884C27.6681 31.8671 27.5697 31.7687 27.4484 31.7687Z" fill="#E6E6E6"/>
<path d="M26.5683 31.7687C26.447 31.7687 26.3486 31.8671 26.3486 31.9884C26.3486 32.1104 26.447 32.2088 26.5683 32.2088C26.6896 32.2088 26.788 32.1104 26.788 31.9884C26.788 31.8671 26.6896 31.7687 26.5683 31.7687Z" fill="#E6E6E6"/>
<path d="M25.6889 31.7687C25.5676 31.7687 25.4692 31.8671 25.4692 31.9884C25.4692 32.1104 25.5676 32.2088 25.6889 32.2088C25.8102 32.2088 25.9086 32.1104 25.9086 31.9884C25.9086 31.8671 25.8102 31.7687 25.6889 31.7687Z" fill="#E6E6E6"/>
<path d="M10.597 12.7805H10.6576C13.6052 12.7805 15.9282 8.6441 15.9282 5.11492C15.9282 1.58574 13.6052 7.82013e-05 10.6576 7.82013e-05H10.597H10.5357C7.58873 7.82013e-05 5.26514 1.58574 5.26514 5.11492C5.26514 8.6441 7.58873 12.7805 10.5357 12.7805H10.597Z" fill="#1D1D1B"/>
<path d="M10.597 15.2003L10.6934 15.1983C10.7568 15.201 10.8241 15.201 10.8962 15.201H10.9609H11.029C12.5729 15.201 13.0689 14.709 14.6599 12.3261C15.0569 11.7345 15.2772 10.6812 15.3965 9.53961C15.7766 9.60094 16.2018 9.02071 16.3487 8.22552C16.4977 7.42426 16.3083 6.71195 15.9248 6.63445L15.9053 6.6331C15.7833 6.61423 15.656 6.66343 15.5374 6.7598C15.3628 7.18301 15.2563 7.63855 15.2287 8.0968C15.0784 8.0968 15.1802 8.00245 15.1108 7.96134C15.7099 2.4334 13.0884 1.80602 12.0068 2.35052C12.0035 2.34917 11.0903 2.84515 10.6941 2.84515L10.597 2.83707L10.5 2.84515C10.1031 2.84515 9.18996 2.34917 9.18659 2.35052C8.10567 1.80602 5.48354 2.4334 6.08331 7.96134C6.01322 8.00245 6.11566 8.0968 5.9647 8.0968C5.93707 7.63855 5.83059 7.18301 5.65605 6.7598C5.53745 6.66343 5.41076 6.61423 5.28879 6.6331L5.26924 6.63445C4.8858 6.71195 4.69575 7.42426 4.84468 8.22552C4.99159 9.02071 5.41683 9.60094 5.79758 9.53961C5.91618 10.6812 6.13722 11.7345 6.53347 12.3261C8.12453 14.709 8.62119 15.201 10.1644 15.201H10.2325H10.2978C10.3693 15.201 10.4373 15.201 10.5007 15.1983L10.597 15.2003Z" fill="#FFC77A"/>
<path d="M10.5972 11.3087C10.5972 11.8518 11.2037 12.0533 12.1929 11.7818C12.6438 11.6584 13.0926 11.8013 13.5556 11.9442C13.9821 12.0749 14.4208 12.2063 14.8851 12.1308C15.8549 12.0749 16.1575 10.7217 16.1575 10.7035C16.1575 10.7224 15.5011 11.8909 14.6345 11.587C13.8393 11.308 13.6432 10.9077 12.5238 10.5869C10.771 10.0849 10.5972 11.054 10.5972 11.3087Z" fill="#1D1D1B"/>
<path d="M10.5971 11.3087C10.5971 11.8518 9.98993 12.0533 9.00065 11.7818C8.54982 11.6584 8.10168 11.8013 7.63804 11.9442C7.21147 12.0749 6.77276 12.2063 6.30845 12.1308C5.33872 12.0749 5.03613 10.7217 5.03613 10.7035C5.03613 10.7224 5.69251 11.8909 6.55981 11.587C7.35501 11.308 7.55042 10.9077 8.67043 10.5869C10.4232 10.0849 10.5971 11.054 10.5971 11.3087Z" fill="#1D1D1B"/>
<path d="M33.5653 28.6406H24.1895V25.6539H25.3701V24.4058H24.1895V23.4314H25.3701V22.1833H24.1895V21.2089H25.3701V19.9608H24.1895V18.9864H25.3701V17.7383H24.1895V16.7639H25.3701V15.5158H24.8425L33.5653 10.3599V11.7279C33.5647 11.7279 33.5647 11.7279 33.564 11.7279C32.7648 11.7279 32.1151 12.3775 32.1151 13.1767C32.1151 13.976 32.7648 14.6256 33.564 14.6256C33.5647 14.6256 33.5647 14.6256 33.5653 14.6256V26.0494H24.1901V28.6399H33.5653V28.6406ZM26.2145 23.1409V23.7548H32.4925V23.1409H26.2145ZM26.2145 22.5782V23.1409H32.4925V22.5782H26.2145ZM26.9288 16.7639V22.5782H31.7782V16.7639H26.9288Z" fill="#E29225"/>
<path d="M33.5619 9.61525L33.5606 9.61457L33.5653 9.61121L33.5619 9.61525Z" fill="#E8E8E8"/>
<path d="M24.1895 15.1566V15.1553L33.5606 9.61452L33.562 9.61519L24.1895 15.1566Z" fill="#E29225"/>
<path d="M26.0737 12.0709V11.0418H27.8124L26.0737 12.0709ZM28.0516 10.8686H26.7941V9.95415H28.0516V10.8686ZM26.6209 10.8686H26.0737V9.95415H26.6209V10.8686Z" fill="#CB4534"/>
<path d="M28.1499 10.843L28.16 10.8376L28.2247 10.7992L28.2847 10.7635L28.2995 10.7548L28.2247 10.7992L28.1499 10.843Z" fill="#E8E8E8"/>
<path d="M28.2248 10.7993V9.95419H28.7545V10.4846L28.2996 10.7548L28.2848 10.7635L28.2882 10.7615L28.2572 10.7797L28.2248 10.7993ZM28.7545 9.781H27.501V8.86653H28.7545V9.781ZM27.3279 9.781H26.0737V8.86653H27.3279V9.781ZM28.7545 8.69334H28.2248V7.77954H28.7545V8.69334ZM28.0516 8.69334H26.7941V7.77954H28.0516V8.69334ZM26.6209 8.69334H26.0737V7.77954H26.6209V8.69334ZM28.7545 7.60636H27.501V6.70873H28.7545V7.60636ZM27.3279 7.60636H26.0737V6.70873H27.3279V7.60636Z" fill="#CB4534"/>
<path d="M33.5656 28.6399H24.1904V26.0494H33.5656V28.6406" fill="#E8D3D1"/>
<path d="M31.4315 22.2318H29.5372V18.863H31.4315V22.2318ZM29.1692 22.2318H27.2749V18.863H29.1692V22.2318ZM31.4315 18.4944H29.5372H29.1692H27.2749V17.1102H31.4315V18.4944Z" fill="#2CABE8"/>
<path d="M33.4558 14.3722C32.8763 14.3196 32.4174 13.8594 32.3682 13.2785H33.4558V14.3722ZM33.4558 13.0749H32.3682C32.4174 12.4941 32.8763 12.0338 33.4558 11.9812V13.0749Z" fill="#2CABE8"/>
<path d="M31.7785 22.5781H26.9292V16.7638H31.7785V22.5781ZM29.5378 18.8629V22.2317H31.4321V18.8629H29.5378ZM27.2756 18.8629V22.2317H29.1699V18.8629H27.2756ZM27.2756 17.1101V18.4943H29.1699H29.5378H31.4321V17.1101H27.2756Z" fill="#E8E8E8"/>
<path d="M33.5636 14.6255C32.7644 14.6255 32.1147 13.9759 32.1147 13.1767C32.1147 12.3774 32.7644 11.7278 33.5636 11.7278C33.5643 11.7278 33.5643 11.7278 33.565 11.7278V14.6255C33.5643 14.6255 33.5643 14.6255 33.5636 14.6255ZM32.3675 13.2784C32.4167 13.8593 32.8756 14.3196 33.4551 14.3722V13.2784H32.3675ZM33.4551 11.9812C32.8756 12.0338 32.4167 12.494 32.3675 13.0749H33.4551V11.9812Z" fill="#E8E8E8"/>
<path d="M26.2144 23.1408H32.4924V22.5783H26.2144V23.1408Z" fill="#E8D3D1"/>
<path d="M25.37 16.7638H24.0391V15.5157H24.1893V15.9012L24.8423 15.5157H25.37V16.7638Z" fill="#CB4534"/>
<path d="M25.37 18.9864H24.0391V17.7383H25.37V18.9864Z" fill="#CB4534"/>
<path d="M25.37 21.2088H24.0391V19.9607H25.37V21.2088Z" fill="#CB4534"/>
<path d="M25.37 23.4313H24.0391V22.1832H24.1893H25.37V23.4313Z" fill="#CB4534"/>
<path d="M25.37 25.6539H24.0391V24.4058H25.37V25.6539Z" fill="#CB4534"/>
<path d="M27.8124 11.0419H26.0737V10.8687H26.6209V9.9542H26.0737V9.781H27.3279V8.86654H26.0737V8.69335H26.6209V7.77954H26.0737V7.60636H27.3279V6.70873H27.501V7.60636H28.7545V7.77954H28.2248V8.69335H28.7545V8.86654H27.501V9.781H28.7545V9.9542H28.2248V10.7993L28.1527 10.8417L28.1601 10.8377L28.15 10.8431L27.8124 11.0419ZM26.7941 9.9542V10.8687H28.0516V9.9542H26.7941ZM26.7941 7.77954V8.69335H28.0516V7.77954H26.7941Z" fill="#E8E8E8"/>
<path d="M21.9898 16.4553L21.4534 15.5482L21.1279 14.9936L26.0736 12.0709L27.8123 11.0419L28.1499 10.8431L28.2247 10.7993L28.2995 10.7548L28.7544 10.4846L33.5653 7.64411V9.61121L33.5606 9.61457L24.1894 15.1553L21.9898 16.4553Z" fill="#CB4534"/>
<path d="M24.8425 15.5157H24.1895V15.1566L33.562 9.61513L33.5653 9.6111V10.3598L24.8425 15.5157Z" fill="#BA7A23"/>
<path d="M24.1895 15.9012V15.5158H24.8425L24.1895 15.9012Z" fill="#A83C2F"/>
<path d="M26.2144 23.7549H32.4924V23.141H26.2144V23.7549Z" fill="#BA7A23"/>
<path d="M7.70454 16.8872C7.69443 16.8535 7.68904 16.8191 7.68904 16.7847L7.69037 16.7881C7.69037 16.8211 7.69578 16.8542 7.70454 16.8872ZM6.5333 12.3263C6.53061 12.3222 6.52725 12.3182 6.52455 12.3135C6.52725 12.3175 6.53061 12.3222 6.5333 12.3263Z" fill="#E8E8E8"/>
<path d="M10.5357 39.6783H3.79672V25.5434C3.79672 25.0312 3.3816 24.6161 2.86877 24.6161V39.6783H0V24.6154V22.0755C0 21.8936 0.0188736 21.715 0.0552638 21.5411C0.26754 20.5269 1.07418 19.6758 2.1888 19.3442L3.68282 18.7836L4.74622 18.3839L4.85068 20.8214L6.73556 20.7244L5.05892 21.5088L10.5357 32.2136V36.1895C10.4743 36.0487 10.3341 35.9503 10.1711 35.9503C9.9507 35.9503 9.7728 36.1289 9.7728 36.3486C9.7728 36.5689 9.9507 36.7468 10.1711 36.7468C10.3341 36.7468 10.4743 36.6485 10.5357 36.5076V39.6783ZM4.35941 29.677V30.5268H7.69046V29.677H4.35941Z" fill="#273049"/>
<path d="M9.41965 26.6498L7.34473 18.4789L8.95197 20.231L9.95134 19.1002L10.0598 20.0106H10.5356V20.014H10.0598L9.41965 26.6498ZM10.5356 18.3482C10.293 18.2612 10.0464 18.1736 9.80511 18.086C10.0268 18.1662 10.2546 18.2471 10.481 18.3286L10.5356 18.3482Z" fill="#E8E8E8"/>
<path d="M10.5356 18.3481L10.481 18.3286C10.2546 18.2471 10.0268 18.1662 9.80512 18.086C8.77406 17.71 7.836 17.3191 7.7046 16.8871C7.69583 16.8541 7.69043 16.8211 7.69043 16.7881L7.7046 16.8326L7.69043 16.7847V16.4713V13.9523C8.4991 14.9524 9.06721 15.2011 10.1643 15.2011H10.2324H10.2977C10.3692 15.2011 10.4372 15.2011 10.5006 15.1984L10.5356 15.199V18.3481Z" fill="#D7A563"/>
<path d="M10.5359 20.0107H10.0602L9.95166 19.1003L10.5359 18.4392V20.0107Z" fill="#9A2E22"/>
<path d="M10.5359 31.0442L9.41992 26.6497L10.0601 20.0139H10.5359V31.0442Z" fill="#B53628"/>
<path d="M8.95213 20.231L7.34489 18.4788L7.02344 17.2139L7.68925 16.4713V16.7847C7.68925 16.819 7.69464 16.8534 7.70475 16.8871C7.83616 17.3191 8.77421 17.7099 9.80527 18.086C10.0465 18.1736 10.2932 18.2612 10.5358 18.3481V18.4391L9.9515 19.1002L8.95213 20.231Z" fill="#D8D8D8"/>
<path d="M10.5357 32.2135L5.05898 21.5087L6.73561 20.7243L4.85074 20.8213L4.74628 18.3839L4.74561 18.3697L7.01797 17.1924L7.02337 17.214L7.34482 18.4789L9.41974 26.6498L10.5357 31.0443V32.2135Z" fill="#44506F"/>
<path d="M3.7966 39.6783H2.86865V24.6161C3.38149 24.6161 3.7966 25.0312 3.7966 25.5434V39.6783Z" fill="#232B42"/>
<path d="M10.1712 36.7468C9.95085 36.7468 9.77295 36.5689 9.77295 36.3485C9.77295 36.1288 9.95085 35.9502 10.1712 35.9502C10.3343 35.9502 10.4745 36.0486 10.5358 36.1895V36.5075C10.4745 36.6484 10.3343 36.7468 10.1712 36.7468Z" fill="#D2D2D1"/>
<path d="M4.35938 30.5267H7.69041V29.677H4.35938V30.5267Z" fill="#232B42"/>
<path d="M10.2977 15.201H10.1643C9.0672 15.201 8.49909 14.9523 7.69042 13.9523V13.9496C7.40132 13.5931 7.08325 13.1436 6.69845 12.5728C6.64454 12.4926 6.58996 12.4111 6.53335 12.3261C6.53066 12.3221 6.5273 12.3174 6.5246 12.3133C6.49091 12.2615 6.4599 12.2042 6.42822 12.1456C6.48213 12.1509 6.53538 12.153 6.58862 12.153C6.9505 12.153 7.29823 12.0485 7.63787 11.9441C7.97684 11.8396 8.30839 11.7351 8.6386 11.7351C8.75922 11.7351 8.87986 11.7486 9.00048 11.7817C9.297 11.8632 9.55846 11.9023 9.78017 11.9023C10.1616 11.9023 10.4237 11.787 10.5356 11.5741V15.199L10.5006 15.1983C10.4372 15.201 10.3692 15.201 10.2977 15.201Z" fill="#E8B670"/>
<path d="M6.20664 11.6349C5.52466 11.5843 5.04214 10.7299 5.03675 10.7043C5.04214 10.7299 5.52465 11.5763 6.20461 11.6295C6.20529 11.6315 6.20596 11.6329 6.20664 11.6349ZM5.74164 9.54449C5.37639 9.54449 4.98485 8.98245 4.84468 8.22567C4.98485 8.98245 5.37639 9.54381 5.74164 9.54449Z" fill="#E8E8E8"/>
<path d="M5.96465 8.09698C5.93702 7.63874 5.83054 7.1832 5.656 6.75999C5.57513 6.69395 5.48955 6.65014 5.40464 6.63531C5.31636 6.12518 5.26514 5.61436 5.26514 5.11501C5.26514 4.5085 5.33389 3.95928 5.4626 3.46599C6.08258 1.08782 8.09483 0.000165939 10.5357 0.000165939V2.84197L10.5 2.84534C10.1037 2.84534 9.19193 2.35071 9.18653 2.35071C8.99178 2.25233 8.74648 2.19234 8.47895 2.19234C7.26392 2.19234 5.59131 3.43095 6.08325 7.96153C6.01317 8.00264 6.1156 8.09698 5.96465 8.09698Z" fill="#1D1D1B"/>
<path d="M6.2693 11.6375C6.24841 11.6375 6.22753 11.6362 6.20664 11.6348C6.20596 11.6328 6.20529 11.6315 6.20461 11.6294C6.20596 11.6294 6.20662 11.6294 6.20797 11.6294C6.01187 11.0607 5.88249 10.341 5.80095 9.57608C5.80095 9.57608 5.80095 9.57608 5.80095 9.57541C5.80028 9.57069 5.80028 9.5653 5.7996 9.56059C5.7996 9.55924 5.79893 9.55721 5.79893 9.55586C5.79825 9.55047 5.79825 9.54508 5.79758 9.53969C5.79488 9.54036 5.79285 9.54037 5.79016 9.54104C5.77399 9.54306 5.75849 9.54441 5.74164 9.54441C5.37639 9.54374 4.98485 8.98238 4.84468 8.2256C4.69575 7.42434 4.8858 6.71203 5.26924 6.63453L5.28879 6.63318L5.40672 6.646C5.40604 6.64263 5.40537 6.63857 5.40469 6.6352C5.4896 6.65003 5.57519 6.69384 5.65605 6.75988C5.83059 7.18309 5.93707 7.63863 5.9647 8.09687C6.11566 8.09687 6.01322 8.00253 6.08331 7.96142C5.59137 3.43084 7.26397 2.19223 8.479 2.19223C8.74654 2.19223 8.99184 2.25221 9.18659 2.3506C9.19198 2.3506 10.1038 2.84523 10.5 2.84523L10.5357 2.84186V11.0007C10.4353 10.7433 10.1779 10.4447 9.54576 10.4447C9.3099 10.4447 9.02148 10.4865 8.67038 10.5869C7.55037 10.9077 7.35495 11.308 6.55976 11.587C6.46002 11.622 6.36298 11.6375 6.2693 11.6375Z" fill="#E8B670"/>
<path d="M6.58879 12.1531C6.53555 12.1531 6.4823 12.151 6.42839 12.1457C6.42704 12.143 6.42571 12.1403 6.42436 12.1376L6.30845 12.1308C5.47552 12.083 5.13452 11.0769 5.05568 10.783C5.0422 10.7352 5.03613 10.7062 5.03613 10.7035C5.03613 10.7042 5.03613 10.7042 5.03613 10.7042H5.03681C5.0422 10.7298 5.52471 11.5843 6.20669 11.6348C6.22758 11.6362 6.24847 11.6375 6.26936 11.6375C6.36303 11.6375 6.46008 11.622 6.55981 11.587C7.35501 11.308 7.55042 10.9077 8.67043 10.5869C9.02153 10.4865 9.30996 10.4448 9.54582 10.4448C10.1779 10.4448 10.4354 10.7433 10.5358 11.0007V11.5742C10.4239 11.7871 10.1618 11.9024 9.78033 11.9024C9.55862 11.9024 9.29716 11.8633 9.00065 11.7818C8.88003 11.7487 8.75939 11.7352 8.63876 11.7352C8.30856 11.7352 7.97701 11.8397 7.63804 11.9442C7.2984 12.0486 6.95067 12.1531 6.58879 12.1531Z" fill="#1D1D1B"/>
</svg>
