<svg width="401" height="452" viewBox="0 0 401 452" fill="none" xmlns="http://www.w3.org/2000/svg">
<path d="M396.129 152.555C404.318 192.347 401.614 242.671 373.485 274.714C330.986 323.135 351.184 369.208 255.066 424.058C240.081 432.611 225.294 439.026 210.838 443.527C203.067 445.948 195.384 447.807 187.821 449.139C119.199 461.304 60.0531 430.432 25.6651 380.88C-19.5749 315.715 7.19008 254.337 25.8761 216.506C44.5631 178.675 35.7091 83.067 129.776 28.402C144.121 20.074 159.337 13.203 175.223 8.366C211.478 -2.689 254.623 -3.901 289.946 11.736C292.599 12.911 295.218 14.174 297.807 15.511C348.384 41.71 384.967 98.305 396.129 152.555Z" fill="#92E3A9"/>
<path opacity="0.7" d="M396.129 152.555C404.318 192.347 401.614 242.671 373.485 274.714C330.986 323.135 351.184 369.208 255.066 424.058C240.081 432.611 225.294 439.026 210.838 443.527C203.067 445.948 195.384 447.807 187.821 449.139C119.199 461.304 60.0531 430.432 25.6651 380.88C-19.5749 315.715 7.19008 254.337 25.8761 216.506C44.5631 178.675 35.7091 83.067 129.776 28.402C144.121 20.074 159.337 13.203 175.223 8.366C211.478 -2.689 254.623 -3.901 289.946 11.736C292.599 12.911 295.218 14.174 297.807 15.511C348.384 41.71 384.967 98.305 396.129 152.555Z" fill="white"/>
</svg>
