<svg width="500" height="500" viewBox="0 0 500 500" fill="none" xmlns="http://www.w3.org/2000/svg">
<path d="M447.129 175.555C455.318 215.347 452.614 265.671 424.485 297.714C381.986 346.135 402.184 392.208 306.066 447.058C291.081 455.611 276.294 462.026 261.838 466.527C254.067 468.948 246.384 470.807 238.821 472.139C170.199 484.304 111.053 453.432 76.6651 403.88C31.4251 338.715 58.1901 277.337 76.8761 239.506C95.5631 201.675 86.7091 106.067 180.776 51.402C195.121 43.074 210.337 36.203 226.223 31.366C262.478 20.311 305.623 19.099 340.946 34.736C343.599 35.911 346.218 37.174 348.807 38.511C399.384 64.71 435.967 121.305 447.129 175.555Z" fill="#92E3A9"/>
<path opacity="0.7" d="M447.129 175.555C455.318 215.347 452.614 265.671 424.485 297.714C381.986 346.135 402.184 392.208 306.066 447.058C291.081 455.611 276.294 462.026 261.838 466.527C254.067 468.948 246.384 470.807 238.821 472.139C170.199 484.304 111.053 453.432 76.6651 403.88C31.4251 338.715 58.1901 277.337 76.8761 239.506C95.5631 201.675 86.7091 106.067 180.776 51.402C195.121 43.074 210.337 36.203 226.223 31.366C262.478 20.311 305.623 19.099 340.946 34.736C343.599 35.911 346.218 37.174 348.807 38.511C399.384 64.71 435.967 121.305 447.129 175.555Z" fill="white"/>
<path d="M71.61 407.405C73.84 407.824 78.769 406.574 78.773 406.573C78.824 406.56 76.962 403.574 76.823 403.399C75.213 401.374 70.912 398.408 68.201 399.429C66.248 400.165 65.591 402.439 66.481 404.232C67.392 406.064 69.711 407.047 71.61 407.405Z" fill="#263238"/>
<path d="M109.861 459.098H111.735C111.667 458.944 111.602 458.796 111.532 458.639C110.964 457.366 110.332 456.018 109.67 454.639C109.97 454.432 111.668 453.245 113.114 451.937C114.918 453.17 119.042 454.151 119.575 454.273C119.356 455.628 119.129 456.944 118.896 458.182C118.838 458.494 118.78 458.796 118.722 459.098H120.482C120.517 458.89 120.553 458.692 120.587 458.479C120.816 457.104 121.032 455.63 121.241 454.115C121.798 454.104 126.345 453.988 128.266 453.066C130.007 452.229 131.993 450.679 132.398 448.674C132.795 446.712 131.57 444.685 129.493 444.48C126.611 444.196 123.223 448.174 122.193 450.546C122.132 450.686 121.642 452.278 121.349 453.288C121.431 452.668 121.517 452.068 121.593 451.429C121.753 450.167 121.875 448.902 122.011 447.542C122.054 446.883 122.097 446.217 122.141 445.545C122.198 444.879 122.174 444.169 122.195 443.474C122.208 441.862 122.142 440.228 122.04 438.584C123.146 438.721 127.079 439.151 128.936 438.585C130.784 438.021 132.982 436.791 133.686 434.87C134.376 432.99 133.473 430.801 131.451 430.284C128.644 429.567 124.694 432.986 123.316 435.175C123.23 435.311 122.418 436.993 121.989 437.925C121.92 436.937 121.855 435.951 121.753 434.953C121.458 432.074 121.068 429.169 120.694 426.269C120.578 425.381 120.474 424.494 120.367 423.608C120.76 423.661 125.424 424.274 127.504 423.64C129.352 423.077 131.55 421.845 132.253 419.925C132.942 418.045 132.04 415.856 130.018 415.339C127.212 414.621 123.261 418.04 121.883 420.229C121.779 420.394 120.614 422.816 120.347 423.446C120.11 421.492 119.893 419.544 119.756 417.614C119.564 414.952 119.523 412.329 119.67 409.784C119.853 409.809 124.718 410.47 126.848 409.821C128.696 409.257 130.894 408.026 131.598 406.106C132.287 404.226 131.385 402.037 129.362 401.52C126.555 400.802 122.605 404.221 121.227 406.41C121.119 406.582 119.866 409.188 119.673 409.677C119.683 409.526 119.675 409.368 119.686 409.217C119.878 406.503 120.406 403.898 121.019 401.483C121.372 400.079 121.789 398.757 122.223 397.48C123.117 397.696 127.211 398.639 129.192 398.266C131.091 397.909 133.411 396.926 134.321 395.095C135.213 393.302 134.556 391.027 132.603 390.291C129.892 389.27 125.59 392.234 123.98 394.258C123.893 394.368 123.126 395.586 122.581 396.48C122.786 395.906 122.986 395.311 123.193 394.766C123.965 392.716 124.799 390.887 125.55 389.272C125.985 388.358 126.396 387.539 126.789 386.777C127.776 386.532 131.743 385.493 133.302 384.272C134.822 383.08 136.429 381.139 136.393 379.094C136.358 377.092 134.726 375.375 132.654 375.623C129.778 375.965 127.325 380.578 126.829 383.117C126.787 383.337 126.509 386.845 126.561 386.832C126.561 386.832 126.609 386.82 126.621 386.818C126.228 387.543 125.816 388.325 125.382 389.189C124.594 390.79 123.718 392.606 122.898 394.647C122.073 396.685 121.234 398.922 120.563 401.358C119.887 403.799 119.302 406.401 119.044 409.16C119.041 409.191 119.042 409.224 119.039 409.255C118.864 408.424 118.296 406.119 118.232 405.947C117.334 403.521 114.172 399.362 111.278 399.486C109.193 399.576 107.859 401.532 108.146 403.514C108.44 405.538 110.336 407.195 112.029 408.127C113.938 409.178 118.648 409.538 119.024 409.566C118.803 412.196 118.791 414.912 118.929 417.662C119.006 419.235 119.133 420.816 119.281 422.4C119.106 421.687 118.945 421.05 118.912 420.964C118.013 418.538 114.852 414.379 111.958 414.504C109.873 414.594 108.539 416.55 108.827 418.531C109.12 420.555 111.017 422.212 112.71 423.144C114.428 424.089 118.438 424.477 119.5 424.566C119.563 425.173 119.619 425.78 119.684 426.387C119.996 429.298 120.321 432.202 120.551 435.06C120.633 436.067 120.676 437.062 120.724 438.057C120.568 437.424 120.431 436.892 120.402 436.813C119.503 434.387 116.342 430.228 113.448 430.352C111.363 430.442 110.028 432.398 110.316 434.38C110.609 436.403 112.507 438.061 114.199 438.992C115.837 439.895 119.536 440.286 120.798 440.397C120.816 441.418 120.835 442.44 120.806 443.43C120.771 444.106 120.784 444.758 120.711 445.435C120.653 446.106 120.595 446.77 120.538 447.428C120.381 448.691 120.228 449.996 120.045 451.224C119.924 452.08 119.792 452.892 119.663 453.711C119.593 452.708 119.415 450.746 119.382 450.584C119.036 448.901 117.816 446.315 116.192 444.673C116.143 444.424 116.072 444.181 115.976 443.945C115.224 442.089 113.085 441.074 111.239 442.049C108.678 443.402 108.048 448.589 108.497 451.136C108.524 451.287 108.993 452.885 109.306 453.888C109.032 453.326 108.773 452.777 108.484 452.202C107.921 451.061 107.325 449.939 106.689 448.729C106.361 448.156 106.03 447.577 105.695 446.992C105.376 446.405 104.964 445.826 104.597 445.235C103.718 443.884 102.762 442.557 101.77 441.242C102.768 440.746 106.286 438.935 107.522 437.439C108.753 435.95 109.906 433.71 109.434 431.721C108.971 429.773 107.012 428.445 105.04 429.129C102.303 430.078 100.894 435.109 100.952 437.696C100.956 437.857 101.206 439.708 101.363 440.722C100.76 439.936 100.162 439.149 99.5259 438.373C97.6909 436.134 95.7649 433.926 93.8519 431.714C93.2659 431.037 92.6899 430.355 92.1109 429.675C92.4679 429.502 96.6959 427.44 98.0809 425.764C99.3109 424.275 100.465 422.035 99.9929 420.045C99.5309 418.097 97.5699 416.769 95.5989 417.454C92.8619 418.403 91.4529 423.434 91.5109 426.02C91.5159 426.215 91.8789 428.877 92.0049 429.55C90.7299 428.052 89.4739 426.546 88.2949 425.012C86.6659 422.897 85.1849 420.732 83.9039 418.529C84.0709 418.449 88.4929 416.316 89.9119 414.6C91.1429 413.111 92.2959 410.871 91.8239 408.881C91.3619 406.933 89.4019 405.605 87.4299 406.29C84.6929 407.239 83.2849 412.27 83.3429 414.856C83.3469 415.059 83.7399 417.924 83.8489 418.438C83.7729 418.307 83.6799 418.18 83.6059 418.048C82.2689 415.677 81.2719 413.214 80.4509 410.861C79.9709 409.495 79.5899 408.163 79.2469 406.858C80.1109 406.545 84.0459 405.072 85.4929 403.669C86.8799 402.323 88.2729 400.224 88.0219 398.195C87.7759 396.208 85.9739 394.672 83.9389 395.136C81.1139 395.779 79.1619 400.625 78.9349 403.202C78.9229 403.342 78.9549 404.781 78.9939 405.828C78.8479 405.237 78.6869 404.629 78.5589 404.06C78.0729 401.924 77.7579 399.938 77.4939 398.177C77.3519 397.174 77.2439 396.265 77.1519 395.413C77.8399 394.663 80.5759 391.608 81.2009 389.73C81.8119 387.897 82.0799 385.393 80.9229 383.707C79.7889 382.056 77.4819 381.525 75.8899 382.873C73.6799 384.746 74.1799 389.946 75.1659 392.338C75.2519 392.544 76.9559 395.623 76.9929 395.585C76.9929 395.585 77.0269 395.549 77.0339 395.54C77.1059 396.361 77.1939 397.242 77.3089 398.201C77.5349 399.971 77.8059 401.969 78.2489 404.124C78.6849 406.279 79.2199 408.607 80.0039 411.009C80.7869 413.417 81.7329 415.911 83.0409 418.354C83.0559 418.382 83.0749 418.409 83.0899 418.436C82.4849 417.84 80.7389 416.231 80.5909 416.123C78.5039 414.595 73.5719 412.871 71.2269 414.571C69.5379 415.796 69.5039 418.164 70.8369 419.658C72.1989 421.184 74.6949 421.519 76.6199 421.363C78.7919 421.187 82.9199 418.888 83.2479 418.704C84.5149 421.019 86.0029 423.293 87.6349 425.51C88.5659 426.779 89.5449 428.028 90.5409 429.268C90.0019 428.77 89.5159 428.328 89.4419 428.274C87.3539 426.746 82.4219 425.022 80.0779 426.722C78.3879 427.947 78.3549 430.314 79.6879 431.808C81.0479 433.334 83.5459 433.67 85.4719 433.514C87.4259 433.355 90.9849 431.466 91.9199 430.954C92.3069 431.426 92.6889 431.901 93.0779 432.371C94.9449 434.627 96.8169 436.87 98.5859 439.126C99.2099 439.921 99.7949 440.726 100.383 441.531C99.9039 441.089 99.4959 440.721 99.4279 440.671C97.3409 439.144 92.4089 437.419 90.0639 439.119C88.3739 440.344 88.3409 442.711 89.6739 444.206C91.0359 445.732 93.5319 446.068 95.4579 445.911C97.3229 445.76 100.623 444.046 101.737 443.442C102.315 444.284 102.895 445.126 103.417 445.967C103.76 446.55 104.132 447.087 104.443 447.691C104.765 448.283 105.083 448.869 105.399 449.45C105.965 450.589 106.557 451.762 107.082 452.888C107.453 453.668 107.792 454.419 108.136 455.174C107.524 454.376 106.294 452.838 106.176 452.721C104.345 450.895 99.7309 448.443 97.1549 449.769C95.2989 450.724 94.9079 453.059 95.9989 454.738C97.1129 456.453 99.5299 457.163 101.457 457.3C103.579 457.45 107.841 455.889 108.372 455.69C108.897 456.861 109.398 458.003 109.861 459.098Z" fill="#263238"/>
<path d="M121.985 396.98C122.035 396.997 122.13 393.479 122.111 393.257C121.885 390.68 119.933 385.834 117.109 385.19C115.074 384.726 113.272 386.26 113.026 388.248C112.774 390.277 114.166 392.377 115.553 393.722C117.18 395.302 121.981 396.978 121.985 396.98Z" fill="#263238"/>
<path d="M232.034 350.734C232.034 350.734 194.2 357.92 190.016 363.645C185.832 369.37 175.442 399.839 174.561 401.16C173.68 402.481 155.844 429.126 153.202 436.833C150.559 444.54 152.541 451.366 159.147 455.55C165.753 459.734 172.579 457.752 175.882 457.752C179.185 457.752 187.773 450.485 188.433 447.403C189.094 444.32 191.075 435.952 191.075 435.952L203.406 414.372L210.893 459.288H313.727L320.773 416.354L342.353 455.99H378.026L355.786 408.647L343.455 386.407C343.455 386.407 338.611 369.892 331.124 363.066C323.637 356.24 313.288 354.038 309.765 353.817C306.242 353.597 296.773 351.395 291.929 350.294C287.085 349.193 276.955 345.89 276.955 345.89L232.034 350.734Z" fill="#B5B5B5" stroke="#263238" stroke-miterlimit="10" stroke-linecap="round" stroke-linejoin="round"/>
<path d="M161.813 426.241C161.813 426.241 173.889 424.383 185.408 434.23" stroke="#263238" stroke-miterlimit="10" stroke-linecap="round" stroke-linejoin="round"/>
<path d="M330.073 433.432C336.829 429.112 349.184 421.812 360.376 418.415L355.787 408.647L343.456 386.407C343.456 386.407 338.612 369.892 331.125 363.066C323.638 356.24 313.289 354.038 309.765 353.817C306.242 353.597 296.773 351.395 291.929 350.294C287.085 349.193 276.955 345.89 276.955 345.89L232.034 350.734C232.034 350.734 197.719 356.309 190.016 363.645C180.436 372.769 175.442 399.839 174.561 401.16C174.157 401.766 170.189 407.697 165.756 414.682C170.512 418.569 181.271 426.357 194.637 429.722L203.408 414.373L210.895 459.289H313.729L320.775 416.355L330.073 433.432Z" fill="white" stroke="#263238" stroke-miterlimit="10" stroke-linecap="round" stroke-linejoin="round"/>
<path d="M232.034 350.734C232.034 350.734 231.803 350.813 231.415 350.946L233.135 356.239C233.135 356.239 235.998 373.415 242.384 379.36C248.77 385.305 256.697 386.186 268.148 377.819C279.599 369.451 283.122 359.322 283.342 354.698C283.562 350.074 283.562 350.074 283.562 350.074L282.736 347.713C279.548 346.735 276.956 345.89 276.956 345.89L232.034 350.734Z" stroke="#263238" stroke-miterlimit="10" stroke-linecap="round" stroke-linejoin="round"/>
<path d="M233.21 388.997C233.833 390.818 234.539 392.546 235.337 394.114" stroke="#263238" stroke-miterlimit="10" stroke-linecap="round" stroke-linejoin="round"/>
<path d="M228.511 358.882C228.511 358.882 228.769 372.177 231.756 384.042" stroke="#263238" stroke-miterlimit="10" stroke-linecap="round" stroke-linejoin="round"/>
<path d="M223.666 358.001C223.666 358.001 219.923 368.13 221.464 373.856" stroke="#263238" stroke-miterlimit="10" stroke-linecap="round" stroke-linejoin="round"/>
<path d="M305.499 395.094C305.863 396.729 306.324 398.325 306.902 399.839" stroke="#263238" stroke-miterlimit="10" stroke-linecap="round" stroke-linejoin="round"/>
<path d="M305.141 370.332C305.141 370.332 303.134 382.527 305.195 393.605" stroke="#263238" stroke-miterlimit="10" stroke-linecap="round" stroke-linejoin="round"/>
<path d="M293.911 382.664C293.911 382.664 295.893 390.591 297.875 394.115" stroke="#263238" stroke-miterlimit="10" stroke-linecap="round" stroke-linejoin="round"/>
<path d="M311.747 404.243L320.775 416.354L312.187 410.409" stroke="#263238" stroke-miterlimit="10" stroke-linecap="round" stroke-linejoin="round"/>
<path d="M203.408 414.373C203.408 414.373 200.545 401.822 199.004 396.316C197.463 390.811 197.683 381.122 197.683 381.122" stroke="#263238" stroke-miterlimit="10" stroke-linecap="round" stroke-linejoin="round"/>
<path d="M187.333 385.747C187.333 385.747 190.196 391.692 195.701 394.995" stroke="#263238" stroke-miterlimit="10" stroke-linecap="round" stroke-linejoin="round"/>
<path d="M239.08 363.726C239.08 363.726 242.603 374.956 251.852 377.819C261.1 380.682 275.854 363.065 276.955 358.221C278.056 353.376 278.056 348.312 278.056 347.651C278.056 346.99 276.294 330.916 276.294 330.916C276.294 330.916 270.128 341.045 261.54 351.174C252.953 361.304 239.08 363.726 239.08 363.726Z" fill="#B5B5B5" stroke="#263238" stroke-miterlimit="10" stroke-linecap="round" stroke-linejoin="round"/>
<path d="M239.08 363.726C239.08 363.726 241.936 372.818 249.247 376.725C251.95 373.939 254.972 370.236 256.476 366.369C259.559 358.442 261.541 351.175 261.541 351.175C252.953 361.304 239.08 363.726 239.08 363.726Z" fill="#263238" stroke="#263238" stroke-miterlimit="10" stroke-linecap="round" stroke-linejoin="round"/>
<path d="M221.716 304.057C221.716 304.057 222.87 329.642 223.447 333.49C224.024 337.338 228.064 347.726 229.026 350.611C229.988 353.497 236.336 364.462 241.915 366.001C247.494 367.54 251.534 365.424 255.189 363.692C258.844 361.961 267.116 352.342 268.655 349.649C270.194 346.956 273.464 340.608 274.619 338.107C275.773 335.606 275.773 335.606 275.773 335.606C275.773 335.606 276.927 311.175 277.12 308.097C277.312 305.019 279.813 292.323 276.928 287.898C274.043 283.473 263.077 277.702 250.958 277.317C238.839 276.932 228.066 280.01 224.026 285.397C219.984 290.784 219.215 300.595 221.716 304.057Z" fill="#B5B5B5" stroke="#263238" stroke-miterlimit="10" stroke-linecap="round" stroke-linejoin="round"/>
<path d="M223.255 302.133C223.255 300.786 225.564 300.402 225.564 300.402C225.564 300.402 237.491 309.443 244.609 309.059C251.727 308.674 260.383 302.326 263.654 302.903C266.924 303.48 267.309 306.366 266.347 311.175C265.385 315.984 264.808 322.91 266.347 323.102C267.886 323.294 270.579 322.14 270.579 322.14C270.579 322.14 270.194 327.142 272.118 327.334C274.042 327.526 275.773 325.218 275.773 324.641C275.773 324.064 276.35 316.369 276.35 316.369C276.35 316.369 276.485 316.305 276.704 316.2C276.895 312.304 277.057 309.089 277.119 308.097C277.311 305.019 279.812 292.323 276.927 287.898C274.041 283.474 263.076 277.702 250.957 277.318C238.838 276.933 228.065 280.011 224.025 285.398C219.985 290.784 219.216 300.595 221.717 304.058C221.717 304.058 223.255 303.48 223.255 302.133Z" fill="#263238" stroke="#263238" stroke-miterlimit="10" stroke-linecap="round" stroke-linejoin="round"/>
<path d="M271.925 328.681C271.925 328.681 273.849 319.447 277.311 319.832C280.774 320.217 280.389 329.066 278.08 332.336C275.772 335.606 273.463 336.183 273.463 336.183" fill="#B5B5B5"/>
<path d="M271.925 328.681C271.925 328.681 273.849 319.447 277.311 319.832C280.774 320.217 280.389 329.066 278.08 332.336C275.772 335.606 273.463 336.183 273.463 336.183" stroke="#263238" stroke-miterlimit="10" stroke-linecap="round" stroke-linejoin="round"/>
<path d="M238.452 331.759C238.452 331.759 237.875 345.802 238.26 346.956C238.645 348.11 239.991 349.649 243.454 349.649C246.917 349.649 247.879 348.687 248.456 346.956" stroke="#263238" stroke-miterlimit="10" stroke-linecap="round" stroke-linejoin="round"/>
<path d="M235.374 351.765C235.374 351.765 236.721 353.689 238.452 354.266C240.183 354.843 245.57 355.036 248.263 354.651C250.956 354.266 253.457 352.727 253.842 352.15" stroke="#263238" stroke-miterlimit="10" stroke-linecap="round" stroke-linejoin="round"/>
<path d="M247.852 328.83C247.852 328.83 259.053 328.231 260.383 328.021C261.713 327.811 256.923 325.841 252.842 325.9C248.762 325.96 244.832 326.969 247.852 328.83Z" fill="#263238" stroke="#263238" stroke-miterlimit="10" stroke-linecap="round" stroke-linejoin="round"/>
<path d="M237.098 328.772C237.098 328.772 225.892 328.285 224.559 328.089C223.227 327.892 227.997 325.874 232.078 325.892C236.159 325.911 240.1 326.881 237.098 328.772Z" fill="#263238" stroke="#263238" stroke-miterlimit="10" stroke-linecap="round" stroke-linejoin="round"/>
<path d="M228.256 335.029C228.256 335.029 230.564 338.492 236.913 336.183" stroke="#263238" stroke-miterlimit="10" stroke-linecap="round" stroke-linejoin="round"/>
<path d="M249.35 335.977C249.35 335.977 252.268 339.926 259.079 336.547" stroke="#263238" stroke-miterlimit="10" stroke-linecap="round" stroke-linejoin="round"/>
<path d="M252.67 401.344L238.479 421.056L278.153 449.619L292.344 429.906L252.67 401.344Z" fill="#92E3A9" stroke="#263238" stroke-miterlimit="10" stroke-linecap="round" stroke-linejoin="round"/>
<path d="M253.528 406.508L243.647 420.232L277.296 444.456L287.176 430.732L253.528 406.508Z" fill="white" stroke="#263238" stroke-miterlimit="10" stroke-linecap="round" stroke-linejoin="round"/>
<path d="M267.632 422.349C270.25 424.234 271.368 427.158 270.128 428.881C268.888 430.604 265.76 430.472 263.142 428.587C260.524 426.702 259.406 423.778 260.647 422.055C261.886 420.333 265.014 420.464 267.632 422.349Z" fill="#92E3A9" stroke="#263238" stroke-miterlimit="10" stroke-linecap="round" stroke-linejoin="round"/>
<path d="M259.995 397.417L243.182 414.945L278.462 448.783L295.274 431.254L259.995 397.417Z" fill="#92E3A9" stroke="#263238" stroke-miterlimit="10" stroke-linecap="round" stroke-linejoin="round"/>
<path d="M260.12 402.652L248.416 414.855L278.336 443.553L290.041 431.35L260.12 402.652Z" fill="white" stroke="#263238" stroke-miterlimit="10" stroke-linecap="round" stroke-linejoin="round"/>
<path d="M271.89 420.334C274.218 422.567 274.915 425.619 273.445 427.151C271.976 428.683 268.897 428.114 266.569 425.881C264.241 423.648 263.544 420.596 265.013 419.064C266.483 417.532 269.561 418.101 271.89 420.334Z" fill="#92E3A9" stroke="#263238" stroke-miterlimit="10" stroke-linecap="round" stroke-linejoin="round"/>
<path d="M268.367 394.892L248.745 409.205L277.552 448.698L297.174 434.385L268.367 394.892Z" fill="#92E3A9" stroke="#263238" stroke-miterlimit="10" stroke-linecap="round" stroke-linejoin="round"/>
<path d="M267.603 400.104L253.941 410.069L278.373 443.567L292.035 433.603L267.603 400.104Z" fill="white" stroke="#263238" stroke-miterlimit="10" stroke-linecap="round" stroke-linejoin="round"/>
<path d="M276.059 419.564C277.96 422.171 278.111 425.297 276.396 426.548C274.681 427.799 271.75 426.699 269.849 424.093C267.948 421.487 267.797 418.359 269.512 417.109C271.226 415.858 274.158 416.957 276.059 419.564Z" fill="#92E3A9" stroke="#263238" stroke-miterlimit="10" stroke-linecap="round" stroke-linejoin="round"/>
<path d="M278.848 393.897L256.649 403.751L276.481 448.431L298.68 438.577L278.848 393.897Z" fill="#92E3A9" stroke="#263238" stroke-miterlimit="10" stroke-linecap="round" stroke-linejoin="round"/>
<path d="M276.981 398.787L261.526 405.647L278.346 443.54L293.801 436.68L276.981 398.787Z" fill="white" stroke="#263238" stroke-miterlimit="10" stroke-linecap="round" stroke-linejoin="round"/>
<path d="M281.169 419.622C282.478 422.571 281.966 425.659 280.026 426.52C278.086 427.381 275.452 425.689 274.144 422.74C272.835 419.791 273.347 416.703 275.287 415.842C277.226 414.981 279.86 416.674 281.169 419.622Z" fill="#92E3A9" stroke="#263238" stroke-miterlimit="10" stroke-linecap="round" stroke-linejoin="round"/>
<path d="M288.421 394.962L264.735 400.34L275.558 448.012L299.244 442.634L288.421 394.962Z" fill="#92E3A9" stroke="#263238" stroke-miterlimit="10" stroke-linecap="round" stroke-linejoin="round"/>
<path d="M285.645 399.399L269.156 403.143L278.335 443.574L294.824 439.83L285.645 399.399Z" fill="white" stroke="#263238" stroke-miterlimit="10" stroke-linecap="round" stroke-linejoin="round"/>
<path d="M285.74 420.621C286.454 423.767 285.356 426.698 283.286 427.168C281.216 427.638 278.959 425.469 278.245 422.322C277.531 419.176 278.63 416.245 280.699 415.775C282.769 415.305 285.026 417.474 285.74 420.621Z" fill="#92E3A9" stroke="#263238" stroke-miterlimit="10" stroke-linecap="round" stroke-linejoin="round"/>
<path d="M295.723 426.484C295.723 426.484 278.327 433.09 277.446 433.751C276.565 434.412 267.977 442.339 267.537 443.44C267.097 444.541 267.097 444.541 267.097 444.541C267.097 444.541 266.877 446.082 268.418 446.082C268.418 446.082 266.656 448.724 268.198 450.046C269.739 451.367 271.941 450.266 271.941 450.266C271.941 450.266 269.959 453.349 272.161 454.009C274.363 454.67 277.226 454.229 277.226 454.229C277.226 454.229 276.785 455.33 284.493 456.872C292.2 458.413 300.347 459.074 303.871 458.413C307.394 457.752 315.322 456.872 315.322 456.872C315.322 456.872 350.554 459.735 357.601 459.074C364.648 458.413 375.878 459.514 378.08 455.991C380.282 452.468 376.979 446.082 374.337 442.118C371.695 438.154 365.529 430.667 358.262 430.447C353.86 430.314 346.151 431.768 342.187 433.53C338.223 435.292 328.975 439.035 328.094 439.255C327.213 439.475 317.745 438.815 317.745 438.815C317.745 438.815 299.468 426.704 298.367 426.484C297.264 426.264 295.723 426.484 295.723 426.484Z" fill="#B5B5B5" stroke="#263238" stroke-miterlimit="10" stroke-linecap="round" stroke-linejoin="round"/>
<path d="M268.418 446.082L281.85 438.815L297.044 435.072" stroke="#263238" stroke-miterlimit="10" stroke-linecap="round" stroke-linejoin="round"/>
<path d="M271.941 450.266L284.493 445.641L298.365 442.999" stroke="#263238" stroke-miterlimit="10" stroke-linecap="round" stroke-linejoin="round"/>
<path d="M277.226 454.229L289.557 452.468L300.567 451.146" stroke="#263238" stroke-miterlimit="10" stroke-linecap="round" stroke-linejoin="round"/>
<path d="M174.782 428.46C174.782 428.46 185.352 433.745 186.453 433.965C187.554 434.185 194.38 433.745 194.821 438.589C195.261 443.433 190.857 450.04 189.977 452.902C189.097 455.764 178.747 455.104 178.747 455.104C178.747 455.104 175.224 443.213 174.343 438.809C173.462 434.405 174.782 428.46 174.782 428.46Z" fill="#B5B5B5" stroke="#263238" stroke-miterlimit="10" stroke-linecap="round" stroke-linejoin="round"/>
<path d="M170.598 410.184L183.369 452.242L187.177 455.987L187.083 450.482L173.984 409.003L170.598 410.184Z" fill="white" stroke="#263238" stroke-miterlimit="10" stroke-linecap="round" stroke-linejoin="round"/>
<path d="M173.984 409.003L170.598 410.184L172.099 415.129L175.551 413.964L173.984 409.003Z" fill="white" stroke="#263238" stroke-miterlimit="10" stroke-linecap="round" stroke-linejoin="round"/>
<path d="M157.386 452.903C157.386 452.903 158.707 456.646 160.028 457.087C161.349 457.527 168.836 457.307 171.038 457.307C173.24 457.307 157.386 452.903 157.386 452.903Z" fill="#B5B5B5" stroke="#263238" stroke-miterlimit="10" stroke-linecap="round" stroke-linejoin="round"/>
<path d="M160.468 444.535C160.468 444.535 156.945 451.141 157.385 452.903C157.825 454.665 161.128 455.545 163.991 456.206C166.854 456.867 173.46 457.087 176.322 456.867C179.185 456.647 173.9 454.004 173.9 454.004C173.9 454.004 168.835 450.921 165.752 448.279C162.671 445.636 160.468 444.535 160.468 444.535Z" fill="#B5B5B5" stroke="#263238" stroke-miterlimit="10" stroke-linecap="round" stroke-linejoin="round"/>
<path d="M166.634 438.149C166.634 438.149 160.688 442.113 160.468 444.535C160.248 446.957 166.854 453.343 167.955 454.224C169.056 455.105 176.763 457.087 179.185 456.646C181.607 456.206 182.488 454.444 182.488 454.444C182.488 454.444 175.001 448.719 173.019 445.636C171.037 442.553 168.615 436.828 168.615 436.828L166.634 438.149Z" fill="#B5B5B5" stroke="#263238" stroke-miterlimit="10" stroke-linecap="round" stroke-linejoin="round"/>
<path d="M174.782 428.46C174.782 428.46 166.194 430.662 166.194 433.745C166.194 436.828 169.937 446.076 171.919 448.058C173.901 450.04 180.727 455.985 182.489 454.444C184.251 452.903 183.15 451.361 182.709 449.82C182.269 448.279 177.204 435.287 177.204 435.287L174.782 428.46Z" fill="#B5B5B5" stroke="#263238" stroke-miterlimit="10" stroke-linecap="round" stroke-linejoin="round"/>
<path d="M188.654 434.846C188.654 434.846 181.387 448.498 182.709 449.82C184.031 451.142 186.452 452.462 187.553 451.802C188.654 451.141 193.278 445.196 194.599 441.893C195.92 438.59 195.039 437.269 193.058 435.727C191.076 434.186 188.654 434.846 188.654 434.846Z" fill="#B5B5B5" stroke="#263238" stroke-miterlimit="10" stroke-linecap="round" stroke-linejoin="round"/>
<path d="M208.774 456.823C208.774 455.55 207.742 454.519 206.47 454.519C205.197 454.519 204.166 455.551 204.166 456.823C204.166 458.095 205.198 459.127 206.47 459.127C207.742 459.127 208.774 458.096 208.774 456.823Z" stroke="#263238" stroke-miterlimit="10" stroke-linecap="round" stroke-linejoin="round"/>
<path d="M205.874 456.062H143.637V459.338H205.874V456.062Z" fill="white" stroke="#263238" stroke-miterlimit="10" stroke-linecap="round" stroke-linejoin="round"/>
<path d="M269.496 456.062H207.259V459.338H269.496V456.062Z" fill="white" stroke="#263238" stroke-miterlimit="10" stroke-linecap="round" stroke-linejoin="round"/>
<path d="M397.548 459.337H406.813" stroke="#263238" stroke-miterlimit="10" stroke-linecap="round" stroke-linejoin="round"/>
<path d="M66.134 459.337H392.56" stroke="#263238" stroke-miterlimit="10" stroke-linecap="round" stroke-linejoin="round"/>
<path d="M247.482 156.964L202.23 115.106C192.055 126.101 185.829 140.802 185.829 156.964C185.829 191.014 213.432 218.617 247.482 218.617C269.24 218.617 288.351 207.336 299.324 190.314L247.482 156.964Z" fill="#878787" stroke="#263238" stroke-miterlimit="10" stroke-linecap="round" stroke-linejoin="round"/>
<path d="M202.23 115.106L247.482 156.964L299.324 190.315C305.523 180.698 309.135 169.257 309.135 156.964C309.135 122.914 281.532 95.311 247.482 95.311C229.593 95.311 213.492 102.937 202.23 115.106Z" fill="#92E3A9" stroke="#263238" stroke-miterlimit="10" stroke-linecap="round" stroke-linejoin="round"/>
<path d="M247.482 156.964L233.127 216.919C237.735 218.019 242.538 218.617 247.482 218.617C269.24 218.617 288.351 207.336 299.324 190.314L247.482 156.964Z" fill="#B8B8B8" stroke="#263238" stroke-miterlimit="10" stroke-linecap="round" stroke-linejoin="round"/>
<path d="M233.05 216.902L247.482 156.964L185.852 156.004C185.847 156.325 185.829 156.642 185.829 156.964C185.829 186.043 205.965 210.403 233.05 216.902Z" fill="white" stroke="#263238" stroke-miterlimit="10" stroke-linecap="round" stroke-linejoin="round"/>
<path d="M287.729 132.22L317.682 109.22" stroke="#263238" stroke-miterlimit="10" stroke-linecap="round" stroke-linejoin="round"/>
<path d="M205.891 189.453L178.612 209.243" stroke="#263238" stroke-miterlimit="10" stroke-linecap="round" stroke-linejoin="round"/>
<path d="M202.682 135.964L167.379 119.917" stroke="#263238" stroke-miterlimit="10" stroke-linecap="round" stroke-linejoin="round"/>
<path d="M265.264 202.825L278.636 236.97H302.35" stroke="#263238" stroke-miterlimit="10" stroke-linecap="round" stroke-linejoin="round"/>
<path d="M247.482 199.12C270.764 199.12 289.638 180.246 289.638 156.964C289.638 133.682 270.764 114.808 247.482 114.808C224.2 114.808 205.326 133.682 205.326 156.964C205.326 180.246 224.2 199.12 247.482 199.12Z" fill="#263238" stroke="#263238" stroke-miterlimit="10" stroke-linecap="round" stroke-linejoin="round"/>
<path d="M165.077 195.476H102.815V278.819H165.077V195.476Z" fill="white" stroke="#263238" stroke-width="0.75" stroke-miterlimit="10"/>
<path d="M110.169 220.969H158.214" stroke="#263238" stroke-width="0.75" stroke-miterlimit="10"/>
<path d="M110.169 232.735H158.214" stroke="#263238" stroke-width="0.75" stroke-miterlimit="10"/>
<path d="M110.169 269.014H158.214" stroke="#263238" stroke-width="0.75" stroke-miterlimit="10"/>
<path d="M140.074 221.459V271.955" stroke="#263238" stroke-width="0.75" stroke-miterlimit="10"/>
<path d="M114.091 221.459V271.955" stroke="#263238" stroke-width="0.75" stroke-miterlimit="10"/>
<path d="M153.311 221.459V271.955" stroke="#263238" stroke-width="0.75" stroke-miterlimit="10"/>
<path d="M119.112 215.599V203.607H122.058C122.591 203.607 123.072 203.657 123.501 203.755C123.931 203.854 124.3 204.019 124.611 204.251C124.922 204.483 125.161 204.797 125.329 205.191C125.497 205.586 125.581 206.084 125.581 206.686C125.581 207.17 125.514 207.584 125.381 207.93C125.248 208.275 125.053 208.549 124.796 208.752C124.539 208.954 124.219 209.09 123.834 209.159C124.307 209.238 124.7 209.404 125.011 209.655C125.322 209.907 125.554 210.234 125.707 210.639C125.86 211.044 125.936 211.532 125.936 212.105C125.936 212.677 125.864 213.183 125.721 213.622C125.578 214.061 125.366 214.427 125.085 214.718C124.804 215.009 124.453 215.229 124.034 215.376C123.614 215.524 123.123 215.598 122.56 215.598L119.112 215.599ZM121.302 208.508H122.042C122.476 208.508 122.812 208.444 123.049 208.316C123.286 208.188 123.451 207.99 123.545 207.724C123.638 207.457 123.685 207.122 123.685 206.717C123.685 206.293 123.613 205.965 123.47 205.733C123.327 205.501 123.112 205.343 122.826 205.26C122.539 205.176 122.174 205.134 121.73 205.134H121.3V208.508H121.302ZM121.302 214.059H122.131C122.792 214.059 123.241 213.899 123.478 213.578C123.715 213.258 123.833 212.762 123.833 212.09C123.833 211.607 123.776 211.215 123.662 210.914C123.549 210.613 123.361 210.388 123.099 210.24C122.838 210.092 122.49 210.018 122.056 210.018H121.301L121.302 214.059Z" fill="#263238"/>
<path d="M127.416 215.599V203.607H129.578V215.599H127.416Z" fill="#263238"/>
<path d="M131.428 215.599V203.607H133.619V214.089H136.521V215.599H131.428Z" fill="#263238"/>
<path d="M137.602 215.599V203.607H139.793V214.089H142.695V215.599H137.602Z" fill="#263238"/>
<path d="M146.795 215.762C146.074 215.762 145.472 215.622 144.988 215.34C144.504 215.059 144.139 214.647 143.893 214.104C143.646 213.561 143.508 212.895 143.479 212.105L145.359 211.735C145.378 212.199 145.435 212.608 145.529 212.963C145.623 213.318 145.766 213.593 145.958 213.785C146.151 213.978 146.404 214.074 146.721 214.074C147.076 214.074 147.328 213.968 147.476 213.755C147.624 213.543 147.698 213.274 147.698 212.948C147.698 212.425 147.579 211.996 147.343 211.66C147.106 211.325 146.79 210.989 146.395 210.653L144.885 209.321C144.461 208.956 144.123 208.549 143.871 208.099C143.619 207.65 143.493 207.095 143.493 206.433C143.493 205.486 143.77 204.755 144.322 204.242C144.875 203.729 145.63 203.472 146.588 203.472C147.15 203.472 147.619 203.559 147.994 203.731C148.369 203.904 148.668 204.144 148.89 204.449C149.112 204.755 149.277 205.103 149.386 205.493C149.495 205.883 149.564 206.295 149.594 206.729L147.728 207.055C147.708 206.68 147.666 206.344 147.602 206.048C147.537 205.752 147.424 205.52 147.262 205.352C147.099 205.185 146.86 205.101 146.544 205.101C146.218 205.101 145.969 205.207 145.796 205.419C145.623 205.632 145.537 205.896 145.537 206.211C145.537 206.616 145.621 206.949 145.788 207.21C145.956 207.471 146.198 207.741 146.514 208.017L148.009 209.334C148.502 209.748 148.924 210.235 149.275 210.792C149.625 211.35 149.801 212.023 149.801 212.813C149.801 213.385 149.675 213.894 149.423 214.338C149.171 214.782 148.821 215.13 148.372 215.382C147.922 215.636 147.397 215.762 146.795 215.762Z" fill="#263238"/>
<path d="M167.275 198.897L106.532 185.218L88.222 266.528L148.965 280.206L167.275 198.897Z" fill="white" stroke="#263238" stroke-width="0.75" stroke-miterlimit="10"/>
<path d="M108.096 211.7L154.967 222.256" stroke="#263238" stroke-width="0.75" stroke-miterlimit="10"/>
<path d="M105.511 223.178L152.382 233.735" stroke="#263238" stroke-width="0.75" stroke-miterlimit="10"/>
<path d="M103.303 235.007L150.174 245.563" stroke="#263238" stroke-width="0.75" stroke-miterlimit="10"/>
<path d="M101.095 246.835L147.966 257.392" stroke="#263238" stroke-width="0.75" stroke-miterlimit="10"/>
<path d="M97.54 258.57L144.411 269.127" stroke="#263238" stroke-width="0.75" stroke-miterlimit="10"/>
<path d="M137.163 218.749L126.068 268.011" stroke="#263238" stroke-width="0.75" stroke-miterlimit="10"/>
<path d="M111.815 213.04L100.72 262.302" stroke="#263238" stroke-width="0.75" stroke-miterlimit="10"/>
<path d="M150.077 221.657L138.981 270.919" stroke="#263238" stroke-width="0.75" stroke-miterlimit="10"/>
<path d="M118.001 208.426L120.636 196.727L123.51 197.374C124.03 197.491 124.488 197.646 124.886 197.836C125.283 198.027 125.608 198.27 125.86 198.564C126.112 198.859 126.277 199.217 126.354 199.639C126.43 200.061 126.403 200.566 126.271 201.153C126.165 201.625 126.008 202.014 125.803 202.323C125.597 202.63 125.347 202.855 125.052 202.996C124.757 203.137 124.415 203.199 124.024 203.181C124.468 203.363 124.815 203.61 125.063 203.924C125.311 204.238 125.465 204.609 125.525 205.037C125.585 205.465 125.553 205.959 125.427 206.517C125.301 207.075 125.12 207.553 124.884 207.95C124.648 208.347 124.36 208.657 124.023 208.879C123.685 209.101 123.294 209.238 122.853 209.29C122.411 209.342 121.916 209.307 121.367 209.183L118.001 208.426ZM121.696 201.989L122.418 202.152C122.842 202.248 123.183 202.259 123.442 202.186C123.702 202.113 123.906 201.956 124.056 201.717C124.206 201.477 124.325 201.16 124.414 200.765C124.507 200.351 124.509 200.015 124.421 199.758C124.332 199.5 124.158 199.299 123.897 199.155C123.636 199.01 123.289 198.889 122.856 198.791L122.437 198.697L121.696 201.989ZM120.476 207.405L121.285 207.587C121.93 207.732 122.403 207.675 122.705 207.413C123.006 207.152 123.231 206.695 123.379 206.04C123.485 205.569 123.515 205.174 123.471 204.855C123.427 204.536 123.293 204.276 123.07 204.074C122.847 203.873 122.525 203.724 122.101 203.629L121.364 203.463L120.476 207.405Z" fill="#92E3A9"/>
<path d="M126.103 210.251L128.738 198.552L130.847 199.027L128.212 210.726L126.103 210.251Z" fill="#92E3A9"/>
<path d="M130.016 211.132L132.651 199.433L134.788 199.914L132.485 210.139L135.316 210.777L134.984 212.25L130.016 211.132Z" fill="#92E3A9"/>
<path d="M136.039 212.488L138.674 200.789L140.811 201.27L138.508 211.495L141.339 212.133L141.007 213.606L136.039 212.488Z" fill="#92E3A9"/>
<path d="M144.972 214.667C144.269 214.509 143.712 214.239 143.302 213.859C142.892 213.478 142.626 212.996 142.505 212.412C142.383 211.828 142.395 211.148 142.54 210.371L144.455 210.423C144.372 210.88 144.337 211.292 144.351 211.659C144.365 212.026 144.444 212.325 144.589 212.555C144.735 212.785 144.961 212.935 145.269 213.005C145.616 213.083 145.884 213.035 146.075 212.86C146.266 212.686 146.398 212.44 146.469 212.122C146.584 211.612 146.563 211.167 146.405 210.787C146.248 210.408 146.013 210.011 145.702 209.597L144.522 207.965C144.188 207.516 143.948 207.044 143.801 206.55C143.654 206.057 143.653 205.487 143.798 204.842C144.006 203.918 144.436 203.266 145.088 202.887C145.74 202.508 146.533 202.423 147.467 202.634C148.015 202.757 148.453 202.945 148.782 203.196C149.11 203.447 149.349 203.747 149.498 204.093C149.648 204.44 149.732 204.816 149.752 205.22C149.773 205.624 149.749 206.041 149.683 206.472L147.791 206.38C147.854 206.01 147.887 205.673 147.89 205.37C147.892 205.067 147.832 204.816 147.711 204.616C147.589 204.417 147.374 204.283 147.066 204.213C146.748 204.141 146.481 204.19 146.267 204.359C146.052 204.528 145.91 204.767 145.84 205.075C145.751 205.47 145.759 205.813 145.865 206.105C145.971 206.397 146.148 206.713 146.396 207.051L147.565 208.665C147.955 209.178 148.26 209.745 148.479 210.366C148.698 210.987 148.721 211.683 148.548 212.453C148.422 213.011 148.188 213.48 147.844 213.857C147.501 214.235 147.082 214.498 146.589 214.645C146.099 214.792 145.559 214.799 144.972 214.667Z" fill="#92E3A9"/>
<path d="M394.053 245.048V262.365H326.361V245.048H313.636V270.355C313.636 272.318 315.227 273.91 317.19 273.91H322.806C324.769 273.91 326.361 272.319 326.361 270.355V269.187H332.527L335.413 267.35H384.739L388.412 269.449H394.053V270.355C394.053 272.318 395.644 273.91 397.608 273.91H403.224C405.187 273.91 406.778 272.319 406.778 270.355V245.048H394.053Z" fill="#263238" stroke="#263238" stroke-width="0.75" stroke-miterlimit="10" stroke-linecap="round" stroke-linejoin="round"/>
<path d="M404.154 232.585C403.682 231.642 400.244 228.049 399.552 227.332C399.471 227.248 399.404 227.155 399.35 227.052C398.508 225.446 391.369 213.691 390.117 211.355C387.82 207.071 385.976 207.716 383.524 207.405C383.452 207.396 383.38 207.417 383.307 207.413L364.68 206.471C361.612 206.316 358.539 206.315 355.471 206.468C350.429 206.72 345.388 206.968 340.346 207.225C336.139 207.44 332.083 207.167 329.771 211.354C328.49 213.673 321.38 225.436 320.538 227.049C320.484 227.153 320.416 227.247 320.335 227.331C319.641 228.051 316.206 231.641 315.734 232.583C315.209 233.632 313.11 237.568 313.11 238.355C313.11 239.034 313.598 250.256 315.753 259.053C316.395 261.675 318.382 263.775 320.979 264.51C321.163 264.562 321.302 264.592 321.374 264.592H337.715C338.156 264.592 338.564 264.357 338.785 263.975L342.651 257.297C342.727 257.165 342.826 257.049 342.945 256.954C343.554 256.464 345.609 255.015 348.66 255.015C351.344 255.015 356.546 255.015 359.155 255.015C360.117 255.015 360.729 255.015 360.729 255.015C363.338 255.015 368.54 255.015 371.224 255.015C374.275 255.015 376.331 256.463 376.939 256.954C377.058 257.05 377.157 257.165 377.233 257.297L381.099 263.975C381.32 264.357 381.728 264.592 382.169 264.592H398.51C398.583 264.592 398.721 264.562 398.905 264.51C401.503 263.775 403.489 261.675 404.131 259.053C406.286 250.256 406.774 239.034 406.774 238.355C406.778 237.57 404.679 233.635 404.154 232.585ZM323.999 224.189C327.279 217.761 333.444 209.912 333.444 209.912C363.486 206.895 386.574 209.781 386.574 209.781L395.495 224.189C375.162 222.221 323.999 224.189 323.999 224.189Z" fill="#92E3A9" stroke="#263238" stroke-width="0.75" stroke-miterlimit="10" stroke-linecap="round" stroke-linejoin="round"/>
<path d="M338.43 264.595L337.512 266.694H382.115L381.459 264.595L377.13 257.117C377.13 257.117 375.425 255.149 371.227 255.018C367.029 254.887 348.663 255.018 348.663 255.018C348.663 255.018 345.515 254.756 342.76 257.117L338.43 264.595Z" fill="#787878" stroke="#263238" stroke-width="0.75" stroke-miterlimit="10" stroke-linecap="round" stroke-linejoin="round"/>
<path d="M342.234 239.669C342.234 239.669 345.776 245.966 346.826 247.015C347.876 248.064 349.056 248.064 350.499 248.196C351.942 248.327 371.751 248.196 371.751 248.196C371.751 248.196 373.325 247.934 374.112 246.753C374.899 245.572 377.523 239.669 377.523 239.669H342.234Z" fill="#263238" stroke="#263238" stroke-width="0.75" stroke-miterlimit="10" stroke-linecap="round" stroke-linejoin="round"/>
<path d="M345.748 240.524C345.748 240.524 348.584 245.567 349.425 246.407C350.265 247.247 351.211 247.247 352.367 247.352C353.523 247.457 369.386 247.352 369.386 247.352C369.386 247.352 370.647 247.142 371.277 246.196C371.907 245.251 374.008 240.523 374.008 240.523H345.748V240.524Z" fill="#787878" stroke="#263238" stroke-width="0.75" stroke-miterlimit="10" stroke-linecap="round" stroke-linejoin="round"/>
<path d="M374.678 262.365L373.893 260.197C373.397 258.826 372.083 257.924 370.625 257.953L349.318 258.167C347.814 258.197 346.508 259.21 346.106 260.659L345.575 262.365H374.678Z" fill="#263238" stroke="#263238" stroke-width="0.75" stroke-miterlimit="10" stroke-linecap="round" stroke-linejoin="round"/>
<path d="M345.249 263.414L344.595 265.513H375.818L375.058 263.414H345.249Z" fill="#263238" stroke="#263238" stroke-width="0.75" stroke-miterlimit="10" stroke-linecap="round" stroke-linejoin="round"/>
<path d="M399.431 227.206C399.431 227.206 400.087 222.09 401.268 222.09C402.449 222.09 407.696 223.533 407.827 224.582C407.958 225.631 406.778 226.812 405.728 227.075C404.679 227.337 402.448 227.6 402.448 227.6L401.923 229.568L399.431 227.206Z" fill="#263238" stroke="#263238" stroke-width="0.75" stroke-miterlimit="10" stroke-linecap="round" stroke-linejoin="round"/>
<path d="M320.457 227.206C320.457 227.206 319.801 222.09 318.62 222.09C317.439 222.09 312.192 223.533 312.061 224.582C311.93 225.631 313.111 226.812 314.16 227.075C315.209 227.337 317.44 227.6 317.44 227.6L317.965 229.568L320.457 227.206Z" fill="#263238" stroke="#263238" stroke-width="0.75" stroke-miterlimit="10" stroke-linecap="round" stroke-linejoin="round"/>
<path d="M335.675 239.013C335.675 239.013 338.036 241.505 338.823 246.097C338.823 246.097 327.672 245.572 323.343 243.867C319.014 242.162 318.489 242.03 318.358 241.243C318.227 240.456 318.62 234.815 320.326 233.897C322.031 232.979 323.868 233.241 325.573 234.553C327.278 235.865 329.377 237.833 330.558 238.226C331.739 238.62 335.675 239.013 335.675 239.013Z" fill="white" stroke="#263238" stroke-width="0.75" stroke-miterlimit="10" stroke-linecap="round" stroke-linejoin="round"/>
<path d="M324.959 242.469C326.657 242.469 328.034 241.092 328.034 239.394C328.034 237.696 326.657 236.319 324.959 236.319C323.261 236.319 321.884 237.696 321.884 239.394C321.884 241.092 323.261 242.469 324.959 242.469Z" fill="white" stroke="#263238" stroke-width="0.75" stroke-miterlimit="10" stroke-linecap="round" stroke-linejoin="round"/>
<path d="M333.524 243.238C333.524 244.026 332.885 244.666 332.096 244.666C331.307 244.666 330.669 244.027 330.669 243.238C330.669 242.45 331.308 241.81 332.096 241.81C332.884 241.81 333.524 242.449 333.524 243.238Z" fill="white" stroke="#263238" stroke-width="0.75" stroke-miterlimit="10" stroke-linecap="round" stroke-linejoin="round"/>
<path d="M384.584 239.013C384.584 239.013 382.223 241.505 381.436 246.097C381.436 246.097 392.587 245.572 396.916 243.867C401.245 242.162 401.77 242.03 401.901 241.243C402.032 240.456 401.639 234.815 399.933 233.897C398.228 232.979 396.391 233.241 394.686 234.553C392.98 235.865 390.882 237.833 389.701 238.226C388.52 238.62 384.584 239.013 384.584 239.013Z" fill="white" stroke="#263238" stroke-width="0.75" stroke-miterlimit="10" stroke-linecap="round" stroke-linejoin="round"/>
<path d="M392.932 239.394C392.932 241.092 394.309 242.469 396.007 242.469C397.705 242.469 399.082 241.092 399.082 239.394C399.082 237.696 397.706 236.319 396.007 236.319C394.308 236.32 392.932 237.696 392.932 239.394Z" fill="white" stroke="#263238" stroke-width="0.75" stroke-miterlimit="10" stroke-linecap="round" stroke-linejoin="round"/>
<path d="M387.441 243.238C387.441 244.026 388.08 244.666 388.869 244.666C389.658 244.666 390.297 244.027 390.297 243.238C390.297 242.45 389.658 241.81 388.869 241.81C388.08 241.81 387.441 242.449 387.441 243.238Z" fill="white" stroke="#263238" stroke-width="0.75" stroke-miterlimit="10" stroke-linecap="round" stroke-linejoin="round"/>
<path d="M398.644 250.689C398.644 250.689 386.444 253.05 385.919 253.444C385.394 253.838 384.345 256.068 384.345 256.068L386.837 255.412C386.837 255.412 392.609 255.674 394.577 254.756C396.545 253.837 398.644 250.689 398.644 250.689Z" fill="#263238" stroke="#263238" stroke-width="0.75" stroke-miterlimit="10" stroke-linecap="round" stroke-linejoin="round"/>
<path d="M322.163 250.689C322.163 250.689 334.363 253.05 334.888 253.444C335.413 253.838 336.462 256.068 336.462 256.068L333.97 255.412C333.97 255.412 328.198 255.674 326.23 254.756C324.262 253.837 322.163 250.689 322.163 250.689Z" fill="#263238" stroke="#263238" stroke-width="0.75" stroke-miterlimit="10" stroke-linecap="round" stroke-linejoin="round"/>
<path d="M383.353 241.032L380.095 239.946H377.523" stroke="#263238" stroke-width="0.75" stroke-miterlimit="10" stroke-linecap="round" stroke-linejoin="round"/>
<path d="M337.121 240.877L339.293 239.636L342.234 239.669" stroke="#263238" stroke-width="0.75" stroke-miterlimit="10" stroke-linecap="round" stroke-linejoin="round"/>
<path d="M392.588 226.36C392.919 226.17 393.254 225.993 393.593 225.828" stroke="#263238" stroke-width="0.75" stroke-miterlimit="10" stroke-linecap="round" stroke-linejoin="round"/>
<path d="M378.146 244.984C380.198 240.472 384.891 231.499 391.45 227.07" stroke="#263238" stroke-width="0.75" stroke-miterlimit="10" stroke-linecap="round" stroke-linejoin="round"/>
<path d="M376.992 247.704C376.992 247.704 377.154 247.274 377.467 246.532" stroke="#263238" stroke-width="0.75" stroke-miterlimit="10" stroke-linecap="round" stroke-linejoin="round"/>
<path d="M328.418 227.068C327.874 226.738 327.31 226.427 326.726 226.139" stroke="#263238" stroke-width="0.75" stroke-miterlimit="10" stroke-linecap="round" stroke-linejoin="round"/>
<path d="M341.558 245.083C340.214 241.068 336.714 232.761 329.574 227.818" stroke="#263238" stroke-width="0.75" stroke-miterlimit="10" stroke-linecap="round" stroke-linejoin="round"/>
<path d="M342.24 247.393C342.24 247.393 342.143 246.976 341.928 246.253" stroke="#263238" stroke-width="0.75" stroke-miterlimit="10" stroke-linecap="round" stroke-linejoin="round"/>
<path d="M323.003 233.43C323.003 233.43 321.607 230.017 321.607 228L323.003 233.43Z" fill="white"/>
<path d="M323.003 233.43C323.003 233.43 321.607 230.017 321.607 228" stroke="#263238" stroke-width="0.75" stroke-miterlimit="10" stroke-linecap="round" stroke-linejoin="round"/>
<path d="M397.626 233.275C397.626 233.275 398.091 231.724 398.402 228.931L397.626 233.275Z" fill="white"/>
<path d="M397.626 233.275C397.626 233.275 398.091 231.724 398.402 228.931" stroke="#263238" stroke-width="0.75" stroke-miterlimit="10" stroke-linecap="round" stroke-linejoin="round"/>
<path d="M402.436 247.859L401.505 259.96L384.284 260.736C384.284 260.736 381.336 257.168 381.181 255.616C381.026 254.065 383.198 251.737 383.818 251.582C384.439 251.427 395.299 249.255 395.299 249.255" stroke="#263238" stroke-width="0.75" stroke-miterlimit="10" stroke-linecap="round" stroke-linejoin="round"/>
<path d="M318.185 247.859L319.116 259.96L336.337 260.736C336.337 260.736 339.285 257.168 339.44 255.616C339.595 254.065 337.423 251.737 336.803 251.582C336.182 251.427 325.322 249.255 325.322 249.255" stroke="#263238" stroke-width="0.75" stroke-miterlimit="10" stroke-linecap="round" stroke-linejoin="round"/>
<path d="M346.975 242.593L359.634 243.606C360.172 243.649 360.712 243.65 361.25 243.608L372.918 242.702" stroke="#263238" stroke-width="0.75" stroke-miterlimit="10" stroke-linecap="round" stroke-linejoin="round"/>
<path d="M347.81 243.918L359.635 244.864C360.173 244.907 360.713 244.908 361.251 244.866L372.51 243.992" stroke="#263238" stroke-width="0.75" stroke-miterlimit="10" stroke-linecap="round" stroke-linejoin="round"/>
<path d="M348.656 245.244L359.635 246.122C360.173 246.165 360.713 246.166 361.251 246.124L371.941 245.294" stroke="#263238" stroke-width="0.75" stroke-miterlimit="10" stroke-linecap="round" stroke-linejoin="round"/>
<path d="M323.999 224.189C323.999 224.189 375.162 222.221 395.496 224.189L386.575 209.781C386.575 209.781 363.486 206.895 333.445 209.912C333.445 209.912 327.279 217.761 323.999 224.189Z" stroke="#263238" stroke-width="0.75" stroke-miterlimit="10" stroke-linecap="round" stroke-linejoin="round"/>
<path d="M413.622 69.97H309.041V102.972H413.622V69.97Z" fill="white" stroke="#263238" stroke-width="0.75" stroke-miterlimit="10" stroke-linecap="round" stroke-linejoin="round"/>
<path d="M361.469 39.86L309.317 69.97H413.622L361.469 39.86Z" fill="#92E3A9" stroke="#263238" stroke-width="0.75" stroke-miterlimit="10" stroke-linecap="round" stroke-linejoin="round"/>
<path d="M382.521 67.288H356.641V102.971H382.521V67.288Z" fill="white" stroke="#263238" stroke-width="0.75" stroke-miterlimit="10" stroke-linecap="round" stroke-linejoin="round"/>
<path d="M382.521 67.288H356.641V68.806H382.521V67.288Z" fill="#263238" stroke="#263238" stroke-width="0.75" stroke-miterlimit="10" stroke-linecap="round" stroke-linejoin="round"/>
<path d="M376.044 102.972H363.119V80.667C363.119 77.098 366.012 74.204 369.582 74.204C373.151 74.204 376.044 77.097 376.044 80.667V102.972Z" fill="#263238" stroke="#263238" stroke-width="0.75" stroke-miterlimit="10" stroke-linecap="round" stroke-linejoin="round"/>
<path d="M361.478 75.751H301.532V102.972H361.478V75.751Z" fill="white" stroke="#263238" stroke-width="0.75" stroke-miterlimit="10" stroke-linecap="round" stroke-linejoin="round"/>
<path d="M361.478 75.751H301.532V76.965H361.478V75.751Z" fill="#263238" stroke="#263238" stroke-width="0.75" stroke-miterlimit="10" stroke-linecap="round" stroke-linejoin="round"/>
<path d="M354.882 77.996H308.128V102.972H354.882V77.996Z" fill="#92E3A9" stroke="#263238" stroke-width="0.75" stroke-miterlimit="10" stroke-linecap="round" stroke-linejoin="round"/>
<path d="M331.505 55.836L299.69 74.204H363.319L331.505 55.836Z" fill="#92E3A9" stroke="#263238" stroke-width="0.75" stroke-miterlimit="10" stroke-linecap="round" stroke-linejoin="round"/>
<path d="M363.318 74.204H299.69V75.75H363.318V74.204Z" fill="white" stroke="#263238" stroke-width="0.75" stroke-miterlimit="10" stroke-linecap="round" stroke-linejoin="round"/>
<path d="M369.581 56.931L353.105 66.443H386.057L369.581 56.931Z" fill="#92E3A9" stroke="#263238" stroke-width="0.75" stroke-miterlimit="10" stroke-linecap="round" stroke-linejoin="round"/>
<path d="M386.057 66.443H353.105V67.97H386.057V66.443Z" fill="white" stroke="#263238" stroke-width="0.75" stroke-miterlimit="10" stroke-linecap="round" stroke-linejoin="round"/>
<path d="M313.617 80.003H309.831V83.789H313.617V80.003Z" fill="white" stroke="#263238" stroke-width="0.75" stroke-miterlimit="10" stroke-linecap="round" stroke-linejoin="round"/>
<path d="M319.296 80.003H315.51V83.789H319.296V80.003Z" fill="white" stroke="#263238" stroke-width="0.75" stroke-miterlimit="10" stroke-linecap="round" stroke-linejoin="round"/>
<path d="M324.975 80.003H321.189V83.789H324.975V80.003Z" fill="white" stroke="#263238" stroke-width="0.75" stroke-miterlimit="10" stroke-linecap="round" stroke-linejoin="round"/>
<path d="M330.655 80.003H326.869V83.789H330.655V80.003Z" fill="white" stroke="#263238" stroke-width="0.75" stroke-miterlimit="10" stroke-linecap="round" stroke-linejoin="round"/>
<path d="M336.334 80.003H332.548V83.789H336.334V80.003Z" fill="white" stroke="#263238" stroke-width="0.75" stroke-miterlimit="10" stroke-linecap="round" stroke-linejoin="round"/>
<path d="M342.014 80.003H338.228V83.789H342.014V80.003Z" fill="white" stroke="#263238" stroke-width="0.75" stroke-miterlimit="10" stroke-linecap="round" stroke-linejoin="round"/>
<path d="M347.693 80.003H343.907V83.789H347.693V80.003Z" fill="white" stroke="#263238" stroke-width="0.75" stroke-miterlimit="10" stroke-linecap="round" stroke-linejoin="round"/>
<path d="M353.373 80.003H349.587V83.789H353.373V80.003Z" fill="white" stroke="#263238" stroke-width="0.75" stroke-miterlimit="10" stroke-linecap="round" stroke-linejoin="round"/>
<path d="M313.617 85.575H309.831V89.361H313.617V85.575Z" fill="white" stroke="#263238" stroke-width="0.75" stroke-miterlimit="10" stroke-linecap="round" stroke-linejoin="round"/>
<path d="M319.296 85.575H315.51V89.361H319.296V85.575Z" fill="white" stroke="#263238" stroke-width="0.75" stroke-miterlimit="10" stroke-linecap="round" stroke-linejoin="round"/>
<path d="M324.975 85.575H321.189V89.361H324.975V85.575Z" fill="white" stroke="#263238" stroke-width="0.75" stroke-miterlimit="10" stroke-linecap="round" stroke-linejoin="round"/>
<path d="M330.655 85.575H326.869V89.361H330.655V85.575Z" fill="white" stroke="#263238" stroke-width="0.75" stroke-miterlimit="10" stroke-linecap="round" stroke-linejoin="round"/>
<path d="M336.334 85.575H332.548V89.361H336.334V85.575Z" fill="white" stroke="#263238" stroke-width="0.75" stroke-miterlimit="10" stroke-linecap="round" stroke-linejoin="round"/>
<path d="M342.014 85.575H338.228V89.361H342.014V85.575Z" fill="white" stroke="#263238" stroke-width="0.75" stroke-miterlimit="10" stroke-linecap="round" stroke-linejoin="round"/>
<path d="M347.693 85.575H343.907V89.361H347.693V85.575Z" fill="white" stroke="#263238" stroke-width="0.75" stroke-miterlimit="10" stroke-linecap="round" stroke-linejoin="round"/>
<path d="M353.373 85.575H349.587V89.361H353.373V85.575Z" fill="white" stroke="#263238" stroke-width="0.75" stroke-miterlimit="10" stroke-linecap="round" stroke-linejoin="round"/>
<path d="M313.617 91.146H309.831V94.932H313.617V91.146Z" fill="white" stroke="#263238" stroke-width="0.75" stroke-miterlimit="10" stroke-linecap="round" stroke-linejoin="round"/>
<path d="M319.296 91.146H315.51V94.932H319.296V91.146Z" fill="white" stroke="#263238" stroke-width="0.75" stroke-miterlimit="10" stroke-linecap="round" stroke-linejoin="round"/>
<path d="M324.975 91.146H321.189V94.932H324.975V91.146Z" fill="white" stroke="#263238" stroke-width="0.75" stroke-miterlimit="10" stroke-linecap="round" stroke-linejoin="round"/>
<path d="M330.655 91.146H326.869V94.932H330.655V91.146Z" fill="white" stroke="#263238" stroke-width="0.75" stroke-miterlimit="10" stroke-linecap="round" stroke-linejoin="round"/>
<path d="M336.334 91.146H332.548V94.932H336.334V91.146Z" fill="white" stroke="#263238" stroke-width="0.75" stroke-miterlimit="10" stroke-linecap="round" stroke-linejoin="round"/>
<path d="M342.014 91.146H338.228V94.932H342.014V91.146Z" fill="white" stroke="#263238" stroke-width="0.75" stroke-miterlimit="10" stroke-linecap="round" stroke-linejoin="round"/>
<path d="M347.693 91.146H343.907V94.932H347.693V91.146Z" fill="white" stroke="#263238" stroke-width="0.75" stroke-miterlimit="10" stroke-linecap="round" stroke-linejoin="round"/>
<path d="M353.373 91.146H349.587V94.932H353.373V91.146Z" fill="white" stroke="#263238" stroke-width="0.75" stroke-miterlimit="10" stroke-linecap="round" stroke-linejoin="round"/>
<path d="M313.617 96.718H309.831V100.504H313.617V96.718Z" fill="white" stroke="#263238" stroke-width="0.75" stroke-miterlimit="10" stroke-linecap="round" stroke-linejoin="round"/>
<path d="M319.296 96.718H315.51V100.504H319.296V96.718Z" fill="white" stroke="#263238" stroke-width="0.75" stroke-miterlimit="10" stroke-linecap="round" stroke-linejoin="round"/>
<path d="M324.975 96.718H321.189V100.504H324.975V96.718Z" fill="white" stroke="#263238" stroke-width="0.75" stroke-miterlimit="10" stroke-linecap="round" stroke-linejoin="round"/>
<path d="M330.655 96.718H326.869V100.504H330.655V96.718Z" fill="white" stroke="#263238" stroke-width="0.75" stroke-miterlimit="10" stroke-linecap="round" stroke-linejoin="round"/>
<path d="M336.334 96.718H332.548V100.504H336.334V96.718Z" fill="white" stroke="#263238" stroke-width="0.75" stroke-miterlimit="10" stroke-linecap="round" stroke-linejoin="round"/>
<path d="M342.014 96.718H338.228V100.504H342.014V96.718Z" fill="white" stroke="#263238" stroke-width="0.75" stroke-miterlimit="10" stroke-linecap="round" stroke-linejoin="round"/>
<path d="M347.693 96.718H343.907V100.504H347.693V96.718Z" fill="white" stroke="#263238" stroke-width="0.75" stroke-miterlimit="10" stroke-linecap="round" stroke-linejoin="round"/>
<path d="M353.373 96.718H349.587V100.504H353.373V96.718Z" fill="white" stroke="#263238" stroke-width="0.75" stroke-miterlimit="10" stroke-linecap="round" stroke-linejoin="round"/>
<path d="M416.587 102.972H378.351V67.288L397.469 56.931L416.587 67.288V102.972Z" fill="white" stroke="#263238" stroke-width="0.75" stroke-miterlimit="10" stroke-linecap="round" stroke-linejoin="round"/>
<path d="M419.509 68.806L397.469 56.865L375.428 68.806L374.743 67.54L397.469 55.228L420.195 67.54L419.509 68.806Z" fill="white" stroke="#263238" stroke-width="0.75" stroke-miterlimit="10" stroke-linecap="round" stroke-linejoin="round"/>
<path d="M378.351 67.288V68.156L397.469 57.798L416.587 68.156V67.288L397.469 56.931L378.351 67.288Z" fill="#263238" stroke="#263238" stroke-width="0.75" stroke-miterlimit="10" stroke-linecap="round" stroke-linejoin="round"/>
<path d="M404.502 79.519H398.086V83.978H404.502V79.519Z" fill="#263238" stroke="#263238" stroke-width="0.75" stroke-miterlimit="10" stroke-linecap="round" stroke-linejoin="round"/>
<path d="M404.502 85.445H398.086V89.904H404.502V85.445Z" fill="#263238" stroke="#263238" stroke-width="0.75" stroke-miterlimit="10" stroke-linecap="round" stroke-linejoin="round"/>
<path d="M404.502 73.292H398.086V78.053H404.502V73.292Z" fill="#263238" stroke="#263238" stroke-width="0.75" stroke-miterlimit="10" stroke-linecap="round" stroke-linejoin="round"/>
<path d="M396.619 73.292H390.203V78.053H396.619V73.292Z" fill="#263238" stroke="#263238" stroke-width="0.75" stroke-miterlimit="10" stroke-linecap="round" stroke-linejoin="round"/>
<path d="M396.619 85.445H390.203V89.904H396.619V85.445Z" fill="#263238" stroke="#263238" stroke-width="0.75" stroke-miterlimit="10" stroke-linecap="round" stroke-linejoin="round"/>
<path d="M396.619 79.519H390.203V83.978H396.619V79.519Z" fill="#263238" stroke="#263238" stroke-width="0.75" stroke-miterlimit="10" stroke-linecap="round" stroke-linejoin="round"/>
<path d="M404.502 91.37H398.086V95.472H404.502V91.37Z" fill="#263238" stroke="#263238" stroke-width="0.75" stroke-miterlimit="10" stroke-linecap="round" stroke-linejoin="round"/>
<path d="M396.619 91.37H390.203V95.472H396.619V91.37Z" fill="#263238" stroke="#263238" stroke-width="0.75" stroke-miterlimit="10" stroke-linecap="round" stroke-linejoin="round"/>
<path d="M148.187 60.919C148.187 60.919 157.669 55.575 159.048 56.092C160.427 56.609 157.841 67.125 157.497 67.815C157.152 68.504 148.187 60.919 148.187 60.919Z" fill="#92E3A9" stroke="#263238" stroke-width="0.75" stroke-miterlimit="10" stroke-linecap="round" stroke-linejoin="round"/>
<path d="M158.531 57.471C158.531 57.471 158.12 58.111 157.597 59.033C156.683 60.643 155.428 63.114 155.428 64.539C155.428 66.78 156.807 66.608 157.152 64.884L158.359 59.885" stroke="#263238" stroke-width="0.75" stroke-miterlimit="10" stroke-linecap="round" stroke-linejoin="round"/>
<path d="M83.557 82.842C83.557 86.226 81.45 88.969 78.851 88.969C76.252 88.969 74.145 86.226 74.145 82.842C74.145 79.458 76.252 76.715 78.851 76.715C81.45 76.716 83.557 79.459 83.557 82.842Z" fill="#92E3A9" stroke="#263238" stroke-width="0.75" stroke-miterlimit="10" stroke-linecap="round" stroke-linejoin="round"/>
<path d="M121.512 126.813C146.281 126.813 166.36 109.814 166.36 88.844C166.36 67.8743 146.281 50.875 121.512 50.875C96.7432 50.875 76.6641 67.8743 76.6641 88.844C76.6641 109.814 96.7432 126.813 121.512 126.813Z" fill="#92E3A9" stroke="#263238" stroke-width="0.75" stroke-miterlimit="10" stroke-linecap="round" stroke-linejoin="round"/>
<path d="M150.639 115.017C143.035 121.085 132.787 124.803 121.513 124.803C101.389 124.803 84.5339 112.955 80.1489 97.049" fill="#92E3A9"/>
<path d="M150.639 115.017C143.035 121.085 132.787 124.803 121.513 124.803C101.389 124.803 84.5339 112.955 80.1489 97.049" stroke="#263238" stroke-width="0.75" stroke-miterlimit="10" stroke-linecap="round" stroke-linejoin="round"/>
<path d="M79.0611 90.037C79.0461 89.641 79.0381 89.243 79.0381 88.844C79.0381 84.421 79.9811 80.184 81.7071 76.27" fill="#92E3A9"/>
<path d="M79.0611 90.037C79.0461 89.641 79.0381 89.243 79.0381 88.844C79.0381 84.421 79.9811 80.184 81.7071 76.27" stroke="#263238" stroke-width="0.75" stroke-miterlimit="10" stroke-linecap="round" stroke-linejoin="round"/>
<path d="M108.04 55.054C112.27 53.846 116.801 53.191 121.512 53.191C126.243 53.191 130.792 53.852 135.037 55.069" stroke="#263238" stroke-width="0.75" stroke-miterlimit="10" stroke-linecap="round" stroke-linejoin="round"/>
<path d="M163.875 77.124C163.875 77.124 169.564 75.228 170.426 76.262C171.288 77.296 171.288 89.364 170.598 91.605C169.908 93.846 165.254 93.329 161.978 90.915C158.703 88.501 159.047 85.054 159.047 85.054" fill="#92E3A9"/>
<path d="M163.875 77.124C163.875 77.124 169.564 75.228 170.426 76.262C171.288 77.296 171.288 89.364 170.598 91.605C169.908 93.846 165.254 93.329 161.978 90.915C158.703 88.501 159.047 85.054 159.047 85.054" stroke="#263238" stroke-width="0.75" stroke-miterlimit="10" stroke-linecap="round" stroke-linejoin="round"/>
<path d="M160.427 84.537L156.979 85.054" stroke="#263238" stroke-width="0.75" stroke-miterlimit="10" stroke-linecap="round" stroke-linejoin="round"/>
<path d="M159.565 88.33C159.565 88.33 158.703 94.364 159.737 94.536C160.771 94.708 162.495 91.605 162.495 91.605C162.495 91.605 160.083 88.847 159.565 88.33Z" fill="#263238" stroke="#263238" stroke-width="0.75" stroke-miterlimit="10" stroke-linecap="round" stroke-linejoin="round"/>
<path d="M156.43 74.195C156.75 75.44 156.56 76.564 156.007 76.706C155.454 76.848 154.746 75.954 154.426 74.709C154.106 73.464 154.296 72.34 154.849 72.198C155.402 72.056 156.11 72.95 156.43 74.195Z" fill="#263238"/>
<path d="M138.314 57.49C138.314 57.49 149.162 46.642 151.279 48.758C153.396 50.875 152.602 60.135 152.602 61.458C152.602 62.781 152.602 65.162 152.602 65.162" fill="#92E3A9"/>
<path d="M138.314 57.49C138.314 57.49 149.162 46.642 151.279 48.758C153.396 50.875 152.602 60.135 152.602 61.458C152.602 62.781 152.602 65.162 152.602 65.162" stroke="#263238" stroke-width="0.75" stroke-miterlimit="10" stroke-linecap="round" stroke-linejoin="round"/>
<path d="M151.635 51.093C151.635 51.093 151.807 48.335 150.601 50.059C149.394 51.783 145.946 63.678 146.981 65.057C148.015 66.436 150.946 65.747 151.636 63.161C152.326 60.575 151.808 53.162 151.808 53.162" stroke="#263238" stroke-width="0.75" stroke-miterlimit="10" stroke-linecap="round" stroke-linejoin="round"/>
<path d="M92.259 114.009L98.193 130.049H104.744L107.675 121.774" fill="#92E3A9"/>
<path d="M92.259 114.009L98.193 130.049H104.744L107.675 121.774" stroke="#263238" stroke-width="0.75" stroke-miterlimit="10" stroke-linecap="round" stroke-linejoin="round"/>
<path d="M146.98 116.085L141.292 130.049H134.741L131.81 121.774" fill="#92E3A9"/>
<path d="M146.98 116.085L141.292 130.049H134.741L131.81 121.774" stroke="#263238" stroke-width="0.75" stroke-miterlimit="10" stroke-linecap="round" stroke-linejoin="round"/>
<g clip-path="url(#clip0_14_2537)">
<path d="M259.491 144.903V148.494C259.491 149.086 259.115 149.566 258.651 149.566H258.616H254.035C253.689 152.732 252.441 155.625 250.531 157.694L250.517 157.71C248.38 159.91 245.776 161.242 243.04 161.535L242.989 161.539C246.025 165.668 250.198 171.886 255.507 180.191C255.629 180.343 255.706 180.544 255.725 180.76C255.745 180.976 255.706 181.194 255.615 181.377L255.616 181.373C255.556 181.559 255.455 181.718 255.324 181.83C255.193 181.942 255.039 182.002 254.882 182.002L254.823 182H254.826H249.474C249.348 182.001 249.224 181.963 249.112 181.891C248.999 181.818 248.902 181.713 248.827 181.584L248.826 181.582C243.262 173.067 238.735 166.443 235.243 161.71C235.165 161.613 235.103 161.497 235.061 161.369C235.019 161.241 234.997 161.104 234.997 160.965V160.942V160.944V156.52C235 156.226 235.093 155.945 235.255 155.737C235.418 155.529 235.638 155.41 235.869 155.405H238.923C240.949 155.52 242.966 154.992 244.792 153.868L244.719 153.909C245.394 153.482 245.991 152.879 246.472 152.137C246.952 151.396 247.304 150.534 247.506 149.607L247.514 149.56H235.832C235.722 149.56 235.613 149.532 235.511 149.479C235.409 149.425 235.316 149.346 235.238 149.246C235.16 149.147 235.098 149.029 235.056 148.898C235.014 148.768 234.992 148.629 234.992 148.488V148.443V144.854C234.992 144.262 235.368 143.782 235.832 143.782H235.867H247.13C246.094 141.161 243.658 139.85 239.821 139.85H235.867C235.637 139.846 235.417 139.728 235.253 139.52C235.09 139.312 234.997 139.031 234.994 138.737V134.064C234.994 133.472 235.37 132.992 235.834 132.992H235.869H258.592C259.056 132.992 259.432 133.472 259.432 134.064V134.109V137.698C259.432 138.29 259.056 138.77 258.592 138.77H258.557H258.559H252.205C253.072 140.224 253.666 141.912 253.941 143.705L253.951 143.78H258.647C259.111 143.78 259.487 144.26 259.487 144.852V144.897L259.491 144.903Z" fill="#92E3A9"/>
</g>
<defs>
<clipPath id="clip0_14_2537">
<rect width="24" height="49" fill="white" transform="translate(235 133)"/>
</clipPath>
</defs>
</svg>
