<svg width="735" height="969" viewBox="0 0 735 969" fill="none" xmlns="http://www.w3.org/2000/svg">
<path opacity="0.3" d="M734.976 235.273V306.21C734.976 317.905 723.696 327.382 709.776 327.382H708.72H571.296C560.893 389.921 523.478 447.063 466.176 487.927L465.744 488.249C401.642 531.696 323.513 558.006 241.44 563.784L239.904 563.864C330.976 645.434 456.16 768.246 615.456 932.3C619.103 935.306 621.412 939.273 621.997 943.537C622.583 947.801 621.409 952.105 618.672 955.73L618.72 955.649C616.929 959.323 613.878 962.466 609.954 964.677C606.031 966.889 601.413 968.07 596.688 968.07L594.912 968.03H595.008H434.448C430.673 968.037 426.95 967.295 423.581 965.866C420.211 964.436 417.291 962.359 415.056 959.803L415.008 959.763C248.096 791.569 112.272 660.732 7.536 567.252C5.19537 565.338 3.33523 563.049 2.06557 560.521C0.795917 557.993 0.142514 555.276 0.144 552.532V552.088V552.129V464.738C0.230829 458.928 3.01335 453.376 7.89927 449.263C12.7852 445.151 19.3886 442.803 26.304 442.719H117.936C178.71 444.983 239.203 434.55 294 412.352L291.792 413.159C312.057 404.731 329.978 392.807 344.386 378.166C358.794 363.524 369.365 346.495 375.408 328.188L375.648 327.261H25.2C21.8907 327.261 18.6138 326.713 15.5564 325.649C12.499 324.585 9.72095 323.025 7.38091 321.059C5.04087 319.093 3.18465 316.759 1.91824 314.191C0.651817 311.622 0 308.869 0 306.089V305.201V234.305C0 222.61 11.28 213.133 25.2 213.133H26.256H364.128C333.056 161.352 259.968 135.461 144.864 135.461H26.256C19.3405 135.388 12.7319 133.051 7.83702 128.946C2.94214 124.841 0.147507 119.293 0.048 113.483V21.1721C0.048 9.47705 11.328 0 25.248 0H26.304H708C721.92 0 733.2 9.47705 733.2 21.1721V22.0593V92.9557C733.2 104.651 721.92 114.128 708 114.128H706.944H706.992H516.384C542.389 142.844 560.206 176.19 568.464 211.6L568.752 213.092H709.632C723.552 213.092 734.832 222.569 734.832 234.265V235.152L734.976 235.273Z" fill="url(#paint0_linear_14_2793)"/>
<defs>
<linearGradient id="paint0_linear_14_2793" x1="448.5" y1="5.84618e-07" x2="469.5" y2="904.5" gradientUnits="userSpaceOnUse">
<stop offset="0.0001" stop-color="#FF8D1D"/>
<stop offset="0.606667" stop-color="#A49236"/>
<stop offset="1" stop-color="#039C62"/>
</linearGradient>
</defs>
</svg>
