<svg width="20" height="20" viewBox="0 0 20 20" fill="none" xmlns="http://www.w3.org/2000/svg">
<circle cx="10.0519" cy="9.95473" r="9.94887" fill="#5C50F8"/>
<path d="M14.8789 8.80531L6.9431 4.73446C6.52701 4.521 6.03242 4.71907 5.83836 5.17677L5.48678 6.00553C5.29273 6.46323 5.47279 7.00728 5.88888 7.22074L11.5481 10.1234L5.88785 13.0272C5.47279 13.2401 5.29325 13.7827 5.48678 14.2393L5.83707 15.0658C6.0306 15.5223 6.5239 15.7198 6.93896 15.5069L14.8791 11.4341C15.0222 11.3607 15.1432 11.244 15.228 11.0976C15.3128 10.9512 15.3579 10.7812 15.3579 10.6076V9.63208C15.3577 9.27726 15.1711 8.95493 14.8789 8.80531Z" fill="white"/>
</svg>
