<svg width="234" height="237" viewBox="0 0 234 237" fill="none" xmlns="http://www.w3.org/2000/svg">
<path d="M233.824 118.475C233.824 183.905 181.484 236.95 116.915 236.95C52.3404 236.95 0 183.906 0 118.475C0 53.0441 52.3397 0 116.915 0C181.484 0.000689153 233.824 53.0448 233.824 118.475Z" fill="#FFCA37"/>
<path d="M158.814 107.203L170.717 94.2451C170.717 94.2451 157.733 80.4855 143.375 98.7156C143.375 98.7156 153.831 102.687 158.814 107.203Z" fill="#F69790" stroke="#2E3192" stroke-width="3.7823" stroke-miterlimit="10"/>
<path d="M89.5894 197.619H72.082V163.567H100.018L89.5894 197.619Z" fill="#F69790" stroke="#2E3192" stroke-width="3.7823" stroke-miterlimit="10"/>
<path d="M89.5894 197.619H72.082V163.567H100.018L89.5894 197.619Z" fill="#F69790"/>
<path d="M159.333 197.619H141.822V163.567H169.753L159.333 197.619Z" fill="#F69790" stroke="#2E3192" stroke-width="3.7823" stroke-miterlimit="10"/>
<path d="M182.644 129.273H175.491C168.684 109.091 146.899 94.3305 121.082 94.3305C89.806 94.3305 64.4512 115.991 64.4512 142.712C64.4512 169.433 89.806 191.09 121.082 191.09C146.899 191.09 168.684 176.336 175.491 156.153H182.644C186.862 156.153 190.298 152.962 190.298 149.024V136.396C190.298 132.461 186.862 129.273 182.644 129.273Z" fill="#F69790" stroke="#2E3192" stroke-width="3.7823" stroke-miterlimit="10"/>
<path d="M120.285 94.3368C89.3741 94.7041 64.4512 116.224 64.4512 142.712C64.4512 169.203 89.3741 190.723 120.285 191.09V94.3368Z" fill="#F69790"/>
<path d="M133.903 107.203C133.595 107.203 133.269 107.142 132.967 107.008C119.527 100.962 108.321 106.866 108.216 106.931C107.099 107.537 105.71 107.109 105.112 105.983C104.517 104.85 104.937 103.443 106.054 102.844C106.184 102.767 109.487 101.01 114.654 100.135C119.403 99.3365 126.762 99.1373 134.83 102.766C135.989 103.287 136.509 104.658 136.001 105.826C135.608 106.695 134.775 107.203 133.903 107.203Z" fill="#2E3192"/>
<path d="M64.451 138.765C64.451 138.765 51.7022 143.116 48.227 133.692C46.2256 128.258 52.9311 126.183 56.1228 129.932C58.469 132.685 58.4296 138.63 57.0164 140.068C51.0799 146.127 43.5283 140.726 43.5283 140.726" stroke="#2E3192" stroke-width="3.7823" stroke-miterlimit="10"/>
<path d="M147.2 127.453C151.231 131.54 157.765 131.54 161.797 127.453" stroke="#2E3192" stroke-width="3.7823" stroke-miterlimit="10" stroke-linecap="round" stroke-linejoin="round"/>
<path d="M154.498 130.519V135.485" stroke="#2E3192" stroke-width="3.7823" stroke-miterlimit="10" stroke-linecap="round" stroke-linejoin="round"/>
<path d="M159.203 129.368L161.797 133.383" stroke="#2E3192" stroke-width="3.7823" stroke-miterlimit="10" stroke-linecap="round" stroke-linejoin="round"/>
<path d="M149.782 129.368L147.2 133.383" stroke="#2E3192" stroke-width="3.7823" stroke-miterlimit="10" stroke-linecap="round" stroke-linejoin="round"/>
<path d="M146.957 75.1886C146.957 90.319 134.843 102.589 119.92 102.589C104.983 102.589 92.875 90.319 92.875 75.1886C92.875 60.0548 104.983 47.7886 119.92 47.7886C134.843 47.7886 146.957 60.0548 146.957 75.1886Z" fill="#FFCA37" stroke="#2E3192" stroke-width="3.7823" stroke-miterlimit="10"/>
<path d="M142.065 75.1886C142.065 87.5775 132.145 97.6288 119.919 97.6288C107.685 97.6288 97.7686 87.5775 97.7686 75.1886C97.7686 62.7935 107.685 52.7423 119.919 52.7423C132.145 52.7423 142.065 62.7935 142.065 75.1886Z" fill="#FFCA37" stroke="#2E3192" stroke-width="3.7823" stroke-miterlimit="10"/>
<path d="M119.841 47.7886C104.949 47.8251 92.874 60.0797 92.874 75.1886C92.874 90.2949 104.949 102.546 119.841 102.589V47.7886Z" fill="#FFCA37"/>
<path d="M146.957 75.1886C146.957 90.319 134.843 102.589 119.92 102.589C104.983 102.589 92.875 90.319 92.875 75.1886C92.875 60.0548 104.983 47.7886 119.92 47.7886C134.843 47.7886 146.957 60.0548 146.957 75.1886Z" stroke="#2E3192" stroke-width="3.7823" stroke-miterlimit="10"/>
<path d="M142.066 75.1886C142.066 87.5775 132.146 97.6288 119.92 97.6288C107.686 97.6288 97.7695 87.5775 97.7695 75.1886C97.7695 62.7935 107.686 52.7423 119.92 52.7423C132.146 52.7423 142.066 62.7935 142.066 75.1886Z" stroke="#2E3192" stroke-width="3.7823" stroke-miterlimit="10"/>
<path d="M118.951 47.7886V52.7423" stroke="#2E3192" stroke-width="3.7823" stroke-miterlimit="10"/>
<path d="M118.951 97.6288V102.589" stroke="#2E3192" stroke-width="3.7823" stroke-miterlimit="10"/>
<path d="M118.951 47.7886V52.7423" stroke="#2E3192" stroke-width="3.7823" stroke-miterlimit="10"/>
<path d="M118.951 97.6288V102.589" stroke="#2E3192" stroke-width="3.7823" stroke-miterlimit="10"/>
<path d="M147.678 75.1886H142.789" stroke="#2E3192" stroke-width="3.7823" stroke-miterlimit="10"/>
<path d="M98.4992 75.1886H93.6074" stroke="#2E3192" stroke-width="3.7823" stroke-miterlimit="10"/>
<path d="M147.678 75.1886H142.789" stroke="#2E3192" stroke-width="3.7823" stroke-miterlimit="10"/>
<path d="M98.4992 75.1886H93.6074" stroke="#2E3192" stroke-width="3.7823" stroke-miterlimit="10"/>
<path d="M139.764 55.8138L136.301 59.3147" stroke="#2E3192" stroke-width="3.7823" stroke-miterlimit="10"/>
<path d="M104.983 91.0536L101.525 94.56" stroke="#2E3192" stroke-width="3.7823" stroke-miterlimit="10"/>
<path d="M139.764 55.8138L136.301 59.3147" stroke="#2E3192" stroke-width="3.7823" stroke-miterlimit="10"/>
<path d="M104.983 91.0536L101.525 94.56" stroke="#2E3192" stroke-width="3.7823" stroke-miterlimit="10"/>
<path d="M139.764 94.56L136.301 91.0536" stroke="#2E3192" stroke-width="3.7823" stroke-miterlimit="10"/>
<path d="M104.983 59.3147L101.525 55.8138" stroke="#2E3192" stroke-width="3.7823" stroke-miterlimit="10"/>
<path d="M139.764 94.56L136.301 91.0536" stroke="#2E3192" stroke-width="3.7823" stroke-miterlimit="10"/>
<path d="M104.983 59.3147L101.525 55.8138" stroke="#2E3192" stroke-width="3.7823" stroke-miterlimit="10"/>
<path d="M134.213 51.4908L131.755 55.7773" stroke="#2E3192" stroke-width="3.7823" stroke-miterlimit="10"/>
<path d="M109.523 94.5938L107.062 98.8804" stroke="#2E3192" stroke-width="3.7823" stroke-miterlimit="10"/>
<path d="M134.213 51.4908L131.755 55.7773" stroke="#2E3192" stroke-width="3.7823" stroke-miterlimit="10"/>
<path d="M109.523 94.5938L107.062 98.8804" stroke="#2E3192" stroke-width="3.7823" stroke-miterlimit="10"/>
<path d="M144.022 88.9455L139.795 86.4549" stroke="#2E3192" stroke-width="3.7823" stroke-miterlimit="10"/>
<path d="M101.499 63.9162L97.2598 61.4318" stroke="#2E3192" stroke-width="3.7823" stroke-miterlimit="10"/>
<path d="M144.022 88.9455L139.795 86.4549" stroke="#2E3192" stroke-width="3.7823" stroke-miterlimit="10"/>
<path d="M101.499 63.9162L97.2598 61.4318" stroke="#2E3192" stroke-width="3.7823" stroke-miterlimit="10"/>
<path d="M146.046 68.1572L141.323 69.4336" stroke="#2E3192" stroke-width="3.7823" stroke-miterlimit="10"/>
<path d="M98.5099 80.9438L93.7881 82.2138" stroke="#2E3192" stroke-width="3.7823" stroke-miterlimit="10"/>
<path d="M146.046 68.1572L141.323 69.4336" stroke="#2E3192" stroke-width="3.7823" stroke-miterlimit="10"/>
<path d="M98.5099 80.9438L93.7881 82.2138" stroke="#2E3192" stroke-width="3.7823" stroke-miterlimit="10"/>
<path d="M125.892 101.662L124.63 96.8825" stroke="#2E3192" stroke-width="3.7823" stroke-miterlimit="10"/>
<path d="M113.277 53.4948L112.018 48.7059" stroke="#2E3192" stroke-width="3.7823" stroke-miterlimit="10"/>
<path d="M125.892 101.662L124.63 96.8825" stroke="#2E3192" stroke-width="3.7823" stroke-miterlimit="10"/>
<path d="M113.277 53.4948L112.018 48.7059" stroke="#2E3192" stroke-width="3.7823" stroke-miterlimit="10"/>
<path d="M128.147 48.8624L126.788 53.6265" stroke="#2E3192" stroke-width="3.7823" stroke-miterlimit="10"/>
<path d="M114.507 96.7475L113.139 101.512" stroke="#2E3192" stroke-width="3.7823" stroke-miterlimit="10"/>
<path d="M128.147 48.8624L126.788 53.6265" stroke="#2E3192" stroke-width="3.7823" stroke-miterlimit="10"/>
<path d="M114.507 96.7475L113.139 101.512" stroke="#2E3192" stroke-width="3.7823" stroke-miterlimit="10"/>
<path d="M146.621 82.7831L141.916 81.4089" stroke="#2E3192" stroke-width="3.7823" stroke-miterlimit="10"/>
<path d="M99.3566 68.9649L94.6641 67.5852" stroke="#2E3192" stroke-width="3.7823" stroke-miterlimit="10"/>
<path d="M146.621 82.7831L141.916 81.4089" stroke="#2E3192" stroke-width="3.7823" stroke-miterlimit="10"/>
<path d="M99.3566 68.9649L94.6641 67.5852" stroke="#2E3192" stroke-width="3.7823" stroke-miterlimit="10"/>
<path d="M143.595 61.9425L139.298 64.3386" stroke="#2E3192" stroke-width="3.7823" stroke-miterlimit="10"/>
<path d="M100.528 86.0324L96.2461 88.4341" stroke="#2E3192" stroke-width="3.7823" stroke-miterlimit="10"/>
<path d="M143.595 61.9425L139.298 64.3386" stroke="#2E3192" stroke-width="3.7823" stroke-miterlimit="10"/>
<path d="M100.528 86.0324L96.2461 88.4341" stroke="#2E3192" stroke-width="3.7823" stroke-miterlimit="10"/>
<path d="M133.713 99.1712L131.337 94.8357" stroke="#2E3192" stroke-width="3.7823" stroke-miterlimit="10"/>
<path d="M109.938 55.5389L107.579 51.2" stroke="#2E3192" stroke-width="3.7823" stroke-miterlimit="10"/>
<path d="M133.713 99.1712L131.337 94.8357" stroke="#2E3192" stroke-width="3.7823" stroke-miterlimit="10"/>
<path d="M109.938 55.5389L107.579 51.2" stroke="#2E3192" stroke-width="3.7823" stroke-miterlimit="10"/>
<path d="M100.795 76.1493C100.795 65.4461 109.352 56.769 119.92 56.769" stroke="white" stroke-width="3.7823" stroke-miterlimit="10" stroke-linecap="round" stroke-linejoin="round"/>
<path d="M122.792 56.7745C122.792 56.7745 126.373 56.8785 129.763 59.314" stroke="white" stroke-width="3.7823" stroke-miterlimit="10" stroke-linecap="round" stroke-linejoin="round"/>
<path d="M129.274 69.9042L123.229 70.8773C122.927 70.0972 122.649 69.5583 122.408 69.2557C122.163 68.9497 121.762 68.6499 121.194 68.3405V73.1019C124.494 73.9923 126.681 74.9254 127.792 75.9164C129.251 77.2444 129.984 78.93 129.984 80.9713C129.984 82.1677 129.719 83.26 129.199 84.2634C128.658 85.264 128.004 86.0959 127.182 86.7664C126.36 87.4397 125.497 87.92 124.57 88.2226C123.655 88.5223 122.538 88.7029 121.194 88.7553V91.8669H118.827V88.7553C117.242 88.614 115.947 88.3514 114.966 87.9745C113.972 87.592 113.112 87.0751 112.396 86.4053C111.674 85.7382 111.118 85.0126 110.723 84.2386C110.345 83.4702 110.049 82.5344 109.854 81.4358L116.409 80.6647C116.605 81.7508 116.865 82.5343 117.2 83.0174C117.526 83.495 118.07 83.9229 118.827 84.2992V78.4856C116.644 77.8674 115.095 77.3347 114.18 76.8888C113.277 76.4388 112.477 75.7165 111.798 74.7255C111.125 73.7311 110.795 72.5223 110.795 71.0937C110.795 69.1386 111.475 67.5108 112.815 66.1979C114.162 64.8885 116.161 64.1602 118.827 64.0168V62.3862H121.194V64.0168C123.625 64.1698 125.482 64.7542 126.756 65.7611C128.045 66.7679 128.879 68.1545 129.274 69.9042ZM118.826 68.2585C118.132 68.4907 117.655 68.7788 117.389 69.1186C117.111 69.4611 116.976 69.865 116.976 70.3302C116.976 70.8105 117.124 71.2329 117.389 71.5941C117.661 71.949 118.138 72.2522 118.826 72.4907V68.2585ZM121.194 84.466C122.117 84.2545 122.791 83.9092 123.223 83.4316C123.648 82.9513 123.86 82.4192 123.86 81.8224C123.86 81.3083 123.682 80.828 123.316 80.3966C122.97 79.9617 122.247 79.5579 121.194 79.1851V84.466Z" fill="#2E3192"/>
<path d="M120.285 39.3341V43.2816" stroke="#2E3192" stroke-width="3.7823" stroke-miterlimit="10" stroke-linecap="round" stroke-linejoin="round"/>
<path d="M155.664 75.1886H151.77" stroke="#2E3192" stroke-width="3.7823" stroke-miterlimit="10" stroke-linecap="round" stroke-linejoin="round"/>
<path d="M88.7824 75.1886H84.9053" stroke="#2E3192" stroke-width="3.7823" stroke-miterlimit="10" stroke-linecap="round" stroke-linejoin="round"/>
<path d="M145.295 49.8354L142.541 52.6169" stroke="#2E3192" stroke-width="3.7823" stroke-miterlimit="10" stroke-linecap="round" stroke-linejoin="round"/>
<path d="M98.0092 97.7515L95.2617 100.536" stroke="#2E3192" stroke-width="3.7823" stroke-miterlimit="10" stroke-linecap="round" stroke-linejoin="round"/>
<path d="M145.295 100.536L142.541 97.7515" stroke="#2E3192" stroke-width="3.7823" stroke-miterlimit="10" stroke-linecap="round" stroke-linejoin="round"/>
<path d="M98.0092 52.6169L95.2617 49.8354" stroke="#2E3192" stroke-width="3.7823" stroke-miterlimit="10" stroke-linecap="round" stroke-linejoin="round"/>
<path d="M133.885 42.0907L132.385 45.726" stroke="#2E3192" stroke-width="3.7823" stroke-miterlimit="10" stroke-linecap="round" stroke-linejoin="round"/>
<path d="M152.932 88.9641L149.357 87.4521" stroke="#2E3192" stroke-width="3.7823" stroke-miterlimit="10" stroke-linecap="round" stroke-linejoin="round"/>
<path d="M91.213 62.919L87.6201 61.4015" stroke="#2E3192" stroke-width="3.7823" stroke-miterlimit="10" stroke-linecap="round" stroke-linejoin="round"/>
<path d="M152.993 61.5269L149.394 63.032" stroke="#2E3192" stroke-width="3.7823" stroke-miterlimit="10" stroke-linecap="round" stroke-linejoin="round"/>
<path d="M91.1652 87.3418L87.5723 88.8415" stroke="#2E3192" stroke-width="3.7823" stroke-miterlimit="10" stroke-linecap="round" stroke-linejoin="round"/>
<path d="M108.282 45.6833L106.797 42.0418" stroke="#2E3192" stroke-width="3.7823" stroke-miterlimit="10" stroke-linecap="round" stroke-linejoin="round"/>
</svg>
