<svg width="490" height="490" viewBox="0 0 490 490" fill="none" xmlns="http://www.w3.org/2000/svg">
<path fill-rule="evenodd" clip-rule="evenodd" d="M153.199 66C157.487 66.1358 161.753 66.5358 165.999 67.2C172.969 68.9424 179.903 70.6758 186.799 72.4C187.451 73.4693 188.385 74.2693 189.599 74.8C190.037 79.7809 187.771 82.7144 182.799 83.6C180.451 82.6808 178.051 82.2808 175.599 82.4C174.426 83.2784 173.759 84.4784 173.599 86C172.791 90.0464 173.191 93.9128 174.799 97.6C175.599 98.1336 176.399 98.1336 177.199 97.6C179.113 95.4176 180.713 93.0176 181.999 90.4C183.198 89.932 183.998 90.332 184.399 91.6C175.897 101.038 167.231 110.371 158.399 119.6C158.241 122.062 158.907 124.33 160.399 126.4C163.855 126.461 167.321 126.327 170.799 126C168.659 127.474 166.926 129.341 165.599 131.6C164.899 138.584 165.166 145.517 166.399 152.4C169.975 154.409 173.843 155.209 177.999 154.8C179.707 156.295 181.841 156.829 184.399 156.4C185.543 156.337 186.611 156.603 187.599 157.2C188.133 162.266 188.666 167.334 189.199 172.4C190.929 174.791 191.729 177.458 191.599 180.4C186.745 187.149 185.545 194.615 187.999 202.8C189.084 203.504 190.284 203.771 191.599 203.6C191.599 212.134 191.599 220.666 191.599 229.2C184.104 231.164 176.638 233.298 169.199 235.6C160.686 237.184 152.152 237.45 143.599 236.4C143.599 235.066 143.599 233.734 143.599 232.4C148.572 224.79 147.505 217.99 140.399 212C135.874 211.601 131.34 211.467 126.799 211.6C130.407 206.519 133.207 200.919 135.199 194.8C137.343 192.4 140.01 191.067 143.199 190.8C143.747 187.955 143.347 185.289 141.999 182.8C142.096 181.685 142.363 180.618 142.799 179.6C151.313 175.892 151.313 172.026 142.799 168C141.199 167.734 139.599 167.466 137.999 167.2C137.512 165.642 136.979 164.174 136.399 162.8C134.213 156.362 129.68 153.429 122.799 154C121.704 152.367 120.371 150.901 118.799 149.6C115.303 149.097 111.836 149.23 108.399 150C108.45 156.07 106.583 161.403 102.799 166C101.868 171.046 101.735 176.113 102.399 181.2C106.491 183.179 110.624 185.046 114.799 186.8C115.277 196.136 116.077 205.203 117.199 214C114.833 217.701 111.9 220.901 108.399 223.6C105.788 223.234 103.922 221.901 102.799 219.6C72.9112 195.538 62.6444 164.604 71.9994 126.8C73.1803 123.898 74.3803 120.966 75.5994 118C75.9649 117.362 76.4983 117.095 77.1994 117.2C80.209 121.81 82.8762 126.61 85.1994 131.6C88.593 139.302 93.1266 146.369 98.7994 152.8C99.8338 153.192 100.901 153.326 101.999 153.2C103.626 146.422 102.692 140.022 99.1994 134C98.801 131.614 98.6674 129.214 98.7994 126.8C102.392 127.371 105.859 128.038 109.199 128.8C110.804 126.526 111.871 123.994 112.399 121.2C115.981 119.086 118.914 116.286 121.199 112.8C123.333 111.466 125.466 110.134 127.599 108.8C129.867 108.764 131.867 108.097 133.599 106.8C133.866 104.134 134.133 101.466 134.399 98.8C138.968 92.408 137.235 89.8744 129.199 91.2C127.311 92.5352 125.444 93.868 123.599 95.2C120.53 96 118.93 94.8 118.799 91.6C119.262 89.2952 120.062 87.1616 121.199 85.2C125.372 84.0616 129.639 83.3952 133.999 83.2C135.92 81.2048 135.92 79.3381 133.999 77.6C131.866 77.0666 129.733 77.0666 127.599 77.6C123.493 79.6265 119.227 81.2264 114.799 82.4C111.556 82.9552 108.356 82.8216 105.199 82C110.927 77.3978 117.327 73.7978 124.399 71.2C129.935 69.8289 135.402 68.3622 140.799 66.8C141.171 67.2755 141.304 67.8089 141.199 68.4C138.33 70.9562 137.396 74.1562 138.399 78C140.466 82.9304 142.732 87.7304 145.199 92.4C146.531 96.128 147.864 99.8616 149.199 103.6C149.999 103.6 150.799 103.6 151.599 103.6C152.571 100.08 153.771 96.6136 155.199 93.2C160.343 87.3784 162.21 80.712 160.799 73.2C160.263 72.5981 159.596 72.3314 158.799 72.4C157.483 69.7518 155.615 67.6186 153.199 66Z" fill="#FDFDFD"/>
<path fill-rule="evenodd" clip-rule="evenodd" d="M153.199 65.9999C155.615 67.6185 157.483 69.7518 158.799 72.3999C159.712 75.6995 159.312 78.8995 157.599 81.9999C155.255 86.9655 152.322 91.4991 148.799 95.5999C147.194 94.9247 145.994 93.8583 145.199 92.3999C142.732 87.7303 140.466 82.9303 138.399 77.9999C137.396 74.1561 138.33 70.9561 141.199 68.3999C142.263 67.3343 143.597 66.6675 145.199 66.3999C147.853 66.0013 150.519 65.8679 153.199 65.9999Z" fill="#597AF2"/>
<path fill-rule="evenodd" clip-rule="evenodd" d="M144.4 78C144.28 77.1584 144.413 76.3584 144.8 75.6C146.57 79.7357 149.236 80.536 152.8 78C153.936 74.7954 153.003 72.6621 150 71.6C148.92 70.6801 149.052 70.1467 150.4 70C154.51 71.181 155.844 73.8477 154.4 78C151.097 81.1064 147.764 81.1064 144.4 78Z" fill="#1D2234"/>
<path fill-rule="evenodd" clip-rule="evenodd" d="M186.799 72.4001C179.902 70.6758 172.969 68.9425 165.999 67.2001C161.753 66.5358 157.486 66.1358 153.199 66.0001C150.519 65.8681 147.853 66.0014 145.199 66.4001C143.597 66.6677 142.263 67.3344 141.199 68.4001C141.304 67.809 141.17 67.2756 140.799 66.8001C135.401 68.3623 129.935 69.829 124.399 71.2001C117.326 73.7978 110.926 77.3978 105.199 82.0001C104.133 82.2665 103.065 82.5337 101.999 82.8001C105.193 79.4495 108.927 76.6495 113.199 74.4001C133.437 64.8262 154.504 62.6928 176.399 68.0001C180.104 69.1133 183.57 70.58 186.799 72.4001Z" fill="#B3C4F9"/>
<path fill-rule="evenodd" clip-rule="evenodd" d="M300.4 94.8001C300.4 95.0665 300.4 95.3337 300.4 95.6001C300.4 105.466 300.4 115.334 300.4 125.2C291.437 124.518 282.637 123.452 274 122C279.967 111.282 276.767 106.616 264.4 108C260.428 111.186 255.894 112.786 250.8 112.8C247.742 113.91 245.608 115.91 244.4 118.8C239.455 118.087 234.522 117.287 229.6 116.4C229.377 117.133 228.977 117.666 228.4 118C228.091 111.609 225.957 105.875 222 100.8C224.8 98.0001 227.6 95.2001 230.4 92.4001C230.62 88.2841 228.753 85.8841 224.8 85.2001C212.381 86.5169 199.981 87.9841 187.6 89.6001C186.412 90.1297 185.346 90.7969 184.4 91.6001C183.998 90.3321 183.198 89.9321 182 90.4001C180.713 93.0177 179.113 95.4177 177.2 97.6001C176.4 98.1337 175.6 98.1337 174.8 97.6001C173.192 93.9129 172.792 90.0465 173.6 86.0001C173.759 84.4785 174.426 83.2785 175.6 82.4001C178.051 82.2809 180.451 82.6809 182.8 83.6001C187.771 82.7145 190.037 79.781 189.6 74.8001C188.385 74.2694 187.452 73.4694 186.8 72.4001C216.436 70.0501 245.236 73.7835 273.2 83.6001C282.283 87.3329 291.35 91.0665 300.4 94.8001Z" fill="#C9DBFB"/>
<path fill-rule="evenodd" clip-rule="evenodd" d="M150 71.5999C153.003 72.662 153.937 74.7953 152.8 77.9999C149.237 80.5359 146.57 79.7356 144.8 75.5999C144.413 76.3583 144.281 77.1583 144.4 77.9999C143.219 73.564 145.085 71.4307 150 71.5999Z" fill="#F1F2F3"/>
<path fill-rule="evenodd" clip-rule="evenodd" d="M85.1996 131.6C86.7116 131.762 87.9116 131.23 88.7996 130C93.042 123.046 96.3756 115.712 98.7996 108C96.7484 100.222 91.682 96.6224 83.5996 97.2C84.4868 96.568 85.5532 96.168 86.7996 96C91.0876 91.712 95.3548 87.4448 99.5996 83.2C100.358 82.8136 101.158 82.6808 102 82.8C103.066 82.5336 104.133 82.2664 105.2 82C108.356 82.8216 111.556 82.9552 114.8 82.4C119.227 81.2264 123.493 79.6265 127.6 77.6C129.733 77.0666 131.866 77.0666 134 77.6C135.92 79.3381 135.92 81.2048 134 83.2C129.639 83.3952 125.372 84.0616 121.2 85.2C120.062 87.1616 119.262 89.2952 118.8 91.6C118.93 94.8 120.53 96 123.6 95.2C125.444 93.868 127.311 92.5352 129.2 91.2C137.235 89.8744 138.968 92.408 134.4 98.8C134.133 101.466 133.866 104.134 133.6 106.8C131.867 108.097 129.867 108.764 127.6 108.8C125.466 110.134 123.333 111.466 121.2 112.8C118.914 116.286 115.981 119.086 112.4 121.2C111.871 123.994 110.804 126.526 109.2 128.8C105.86 128.038 102.392 127.371 98.7996 126.8C98.6676 129.214 98.8012 131.614 99.1996 134C102.692 140.022 103.626 146.422 102 153.2C100.901 153.326 99.834 153.192 98.7996 152.8C93.1268 146.369 88.5932 139.302 85.1996 131.6Z" fill="#CADCFC"/>
<path fill-rule="evenodd" clip-rule="evenodd" d="M242.8 88.4001C244.307 88.5697 245.373 89.3697 246 90.8001C244.175 91.4097 243.109 90.6097 242.8 88.4001Z" fill="#384153"/>
<path fill-rule="evenodd" clip-rule="evenodd" d="M308.4 89.2C344.935 89.0664 381.468 89.2 418 89.6C419.503 90.8344 420.703 92.3008 421.6 94C422 120.666 422.134 147.332 422 174C420.454 175.677 418.587 176.877 416.4 177.6C396.936 178 377.469 178.134 358 178C358 177.734 358 177.466 358 177.2C358.267 176.134 358.534 175.066 358.8 174C377.927 174.262 396.993 173.995 416 173.2C416.653 166.337 416.52 159.537 415.6 152.8C404.38 152.161 393.18 152.294 382 153.2C378.557 152.632 375.091 152.232 371.6 152C372.202 151.463 372.469 150.797 372.4 150C372.888 149.287 373.155 148.487 373.2 147.6C375.615 147.732 378.015 147.598 380.4 147.2C381.07 146.391 381.336 145.458 381.2 144.4C378.098 144.244 375.165 144.244 372.4 144.4C371.867 144.4 371.334 144.4 370.8 144.4C370.004 144.469 369.337 144.202 368.8 143.6C364.734 144.246 360.6 144.646 356.4 144.8C355.206 145.725 355.34 146.392 356.8 146.8C359.965 146.988 362.765 147.788 365.2 149.2C364.4 150.534 363.334 151.6 362 152.4C359.905 152.186 357.905 152.452 356 153.2C355.602 155.854 355.468 158.52 355.6 161.2C354.572 163.294 353.238 165.16 351.6 166.8C351.052 162.213 350.519 157.546 350 152.8C335.6 152.266 321.2 152.266 306.8 152.8C306.251 157.442 305.717 162.108 305.2 166.8C306.868 168.318 306.868 169.918 305.2 171.6C304.134 170.8 303.067 170 302 169.2C301.867 144.132 302 119.066 302.4 94C303.584 91.3464 305.584 89.7464 308.4 89.2Z" fill="#FBFCFD"/>
<path fill-rule="evenodd" clip-rule="evenodd" d="M250.799 88.3999C252.707 89.4935 252.441 90.5607 249.999 91.5999C249.733 91.3335 249.466 91.0663 249.199 90.7999C249.754 89.9855 250.286 89.1855 250.799 88.3999Z" fill="#333C4C"/>
<path fill-rule="evenodd" clip-rule="evenodd" d="M415.599 87.6002C379.866 88.1338 344.133 88.6666 308.399 89.2002C305.583 89.7466 303.583 91.3466 302.399 94.0002C301.999 119.066 301.866 144.132 301.999 169.2C301.466 144.667 300.933 120.134 300.399 95.6002C300.399 95.3338 300.399 95.0666 300.399 94.8002C301.286 91.3794 303.419 89.113 306.799 88.0002C343.065 87.6002 379.331 87.4666 415.599 87.6002Z" fill="#8595F1"/>
<path fill-rule="evenodd" clip-rule="evenodd" d="M244.4 94.8C246.308 95.8936 246.041 96.9608 243.6 98C243.333 97.7336 243.066 97.4664 242.8 97.2C243.354 96.3856 243.887 95.5856 244.4 94.8Z" fill="#313B4D"/>
<path fill-rule="evenodd" clip-rule="evenodd" d="M249.199 94.8C250.706 94.9696 251.773 95.7696 252.399 97.2C250.574 97.8096 249.508 97.0096 249.199 94.8Z" fill="#384351"/>
<path fill-rule="evenodd" clip-rule="evenodd" d="M158.799 72.4002C159.596 72.3315 160.262 72.5983 160.799 73.2002C162.21 80.7122 160.343 87.3786 155.199 93.2002C153.771 96.6138 152.571 100.08 151.599 103.6C150.799 103.6 149.999 103.6 149.199 103.6C147.864 99.8618 146.531 96.1282 145.199 92.4002C145.994 93.8586 147.194 94.925 148.799 95.6002C152.322 91.4994 155.255 86.9658 157.599 82.0002C159.312 78.8998 159.712 75.6998 158.799 72.4002Z" fill="#CADCFB"/>
<path fill-rule="evenodd" clip-rule="evenodd" d="M311.599 96.3999C319.07 96.2671 326.537 96.3999 333.999 96.7999C335.065 97.5999 335.065 98.3999 333.999 99.1999C326.27 99.5999 318.536 99.7327 310.799 99.5999C310.745 98.4327 311.012 97.3663 311.599 96.3999Z" fill="#D1E1FA"/>
<path fill-rule="evenodd" clip-rule="evenodd" d="M415.599 87.6001C419.071 88.2017 421.605 90.0689 423.199 93.2001C423.733 119.6 423.733 146 423.199 172.4C422.977 173.133 422.577 173.666 421.999 174C422.133 147.332 421.999 120.666 421.599 94.0001C420.702 92.3009 419.502 90.8345 417.999 89.6001C381.467 89.2001 344.934 89.0665 308.399 89.2001C344.133 88.6665 379.866 88.1337 415.599 87.6001Z" fill="#93ADF9"/>
<path fill-rule="evenodd" clip-rule="evenodd" d="M416.4 102C392.664 102.134 368.932 102 345.2 101.6C368.671 101.467 392.137 101.067 415.6 100.4C391.947 99.8641 368.347 99.3305 344.8 98.8001C344.4 108.93 344.266 119.063 344.4 129.2C343.336 118.479 343.336 107.679 344.4 96.8001C368.133 96.2665 391.866 96.2665 415.6 96.8001C416.338 98.4329 416.604 100.167 416.4 102Z" fill="#99BBF5"/>
<path fill-rule="evenodd" clip-rule="evenodd" d="M416.4 102C416.632 111.107 416.365 120.174 415.6 129.2C392.153 129.974 368.686 130.241 345.2 130C345.2 129.466 344.933 129.2 344.4 129.2C344.266 119.063 344.4 108.93 344.8 98.8C368.347 99.3304 391.947 99.864 415.6 100.4C392.137 101.066 368.671 101.466 345.2 101.6C368.932 102 392.665 102.134 416.4 102Z" fill="#98B8FD"/>
<path fill-rule="evenodd" clip-rule="evenodd" d="M228.4 118C227.57 119.144 227.037 120.478 226.8 122C225.549 123.156 224.483 124.489 223.6 126C221.179 128.156 218.779 130.29 216.4 132.4C213.865 133.534 211.465 134.866 209.2 136.4C205.601 137.596 202.134 138.93 198.8 140.4C196.911 140.539 195.045 140.806 193.2 141.2C189.567 141.558 186.101 141.025 182.8 139.6C182.533 140 182.266 140.4 182 140.8C183.903 145.945 184.703 151.145 184.4 156.4C181.841 156.829 179.708 156.295 178 154.8C177.614 147.07 177.214 139.336 176.8 131.6C175.969 129.803 175.035 128.07 174 126.4C172.965 126.008 171.898 125.874 170.8 126C167.321 126.327 163.855 126.461 160.4 126.4C158.908 124.33 158.241 122.062 158.4 119.6C167.231 110.371 175.897 101.038 184.4 91.6C185.346 90.7968 186.413 90.1296 187.6 89.6C199.981 87.984 212.381 86.5168 224.8 85.2C228.753 85.884 230.621 88.284 230.4 92.4C227.6 95.2 224.8 98 222 100.8C225.957 105.875 228.091 111.609 228.4 118Z" fill="#192031"/>
<path fill-rule="evenodd" clip-rule="evenodd" d="M202 89.2C201.665 89.7776 201.132 90.1776 200.4 90.4C197.478 90.7992 194.545 90.932 191.6 90.8C194.911 89.9496 198.377 89.416 202 89.2Z" fill="#4153A7"/>
<path fill-rule="evenodd" clip-rule="evenodd" d="M191.6 90.8C194.545 90.932 197.478 90.7992 200.4 90.4C201.133 90.1776 201.665 89.7776 202 89.2C202.8 89.2 203.6 89.2 204.4 89.2C208.867 89.396 213.133 88.8624 217.2 87.6C219.877 86.9832 222.677 86.4496 225.6 86C226.605 86.28 226.873 86.8136 226.4 87.6C217.757 97.0432 208.824 106.243 199.6 115.2C193.038 116.854 186.372 117.654 179.6 117.6C184.293 113.175 188.693 108.508 192.8 103.6C193.35 102.934 193.217 102.402 192.4 102C187.233 107.424 182.166 112.89 177.2 118.4C171.405 119.173 165.671 120.106 160 121.2C159.466 120.666 159.466 120.134 160 119.6C168.927 110.138 177.861 100.672 186.8 91.2C188.378 90.804 189.978 90.6704 191.6 90.8Z" fill="#597CF5"/>
<path fill-rule="evenodd" clip-rule="evenodd" d="M217.199 87.6001C213.133 88.8625 208.867 89.3961 204.399 89.2001C208.492 88.1553 212.759 87.6217 217.199 87.6001Z" fill="#4353AA"/>
<path fill-rule="evenodd" clip-rule="evenodd" d="M306.8 102.8C317.733 102.8 328.666 102.8 339.6 102.8C339.6 103.866 339.6 104.934 339.6 106C328.666 106 317.733 106 306.8 106C306.8 104.934 306.8 103.866 306.8 102.8Z" fill="#D1E1FB"/>
<path fill-rule="evenodd" clip-rule="evenodd" d="M189.2 122C187.668 121.773 186.335 122.039 185.2 122.8C182.785 122.963 180.385 123.23 178 123.6C178.119 122.759 177.986 121.959 177.6 121.2C177.345 122.449 176.679 123.383 175.6 124C170.791 124.535 165.991 124.802 161.2 124.8C160.53 123.991 160.264 123.058 160.4 122C173.774 120.604 187.107 118.871 200.4 116.8C209.365 107.17 218.432 97.7033 227.6 88.4001C229.529 89.8553 229.662 91.4553 228 93.2001C219.311 102.155 210.645 111.088 202 120C197.834 121.188 193.567 121.855 189.2 122Z" fill="#92AEEA"/>
<path fill-rule="evenodd" clip-rule="evenodd" d="M273.999 122C271.068 123.69 271.068 125.557 273.999 127.6C274.266 128.133 274.533 128.666 274.799 129.2C274.533 129.2 274.266 129.2 273.999 129.2C272.964 128.568 272.03 127.768 271.199 126.8C270.678 123.49 269.211 120.69 266.799 118.4C265.999 117.866 265.199 117.866 264.399 118.4C263.736 119.853 263.069 121.319 262.399 122.8C258.398 122.927 257.198 124.794 258.799 128.4C258.042 129.92 256.842 130.986 255.199 131.6C254.446 133.591 254.846 135.191 256.399 136.4C256.644 138.708 256.378 140.841 255.599 142.8C252.168 142.201 250.568 140.067 250.799 136.4C249.999 136.4 249.199 136.4 248.399 136.4C246.985 134.27 246.451 131.87 246.799 129.2C246.992 127.281 246.458 125.681 245.199 124.4C244.504 122.626 244.238 120.76 244.399 118.8C245.608 115.909 247.742 113.909 250.799 112.8C255.894 112.786 260.427 111.186 264.399 108C276.766 106.616 279.966 111.282 273.999 122Z" fill="#08080A"/>
<path fill-rule="evenodd" clip-rule="evenodd" d="M181.999 124.4C185.431 124.642 188.631 124.109 191.599 122.8C195.371 122.795 199.105 122.395 202.799 121.6C208.725 115.174 214.725 108.907 220.799 102.8C221.417 102.916 221.95 103.182 222.399 103.6C223.151 107.238 224.751 110.438 227.199 113.2C226.788 118.667 224.521 123.334 220.399 127.2C210.31 136.163 198.576 140.163 185.199 139.2C184.133 138.666 183.066 138.134 181.999 137.6C179.492 133.571 178.426 129.171 178.799 124.4C179.866 124.4 180.933 124.4 181.999 124.4Z" fill="#597AF2"/>
<path fill-rule="evenodd" clip-rule="evenodd" d="M306.8 109.2C311.075 109.067 315.341 109.201 319.6 109.6C320.778 110.168 321.312 111.101 321.2 112.4C316.4 112.4 311.6 112.4 306.8 112.4C306.8 111.334 306.8 110.266 306.8 109.2Z" fill="#D1DFFD"/>
<path fill-rule="evenodd" clip-rule="evenodd" d="M325.999 109.2C330.533 109.2 335.065 109.2 339.599 109.2C339.599 110.266 339.599 111.334 339.599 112.4C335.065 112.4 330.533 112.4 325.999 112.4C325.999 111.334 325.999 110.266 325.999 109.2Z" fill="#D1E1FC"/>
<path fill-rule="evenodd" clip-rule="evenodd" d="M83.6 97.2C91.6824 96.6224 96.7488 100.222 98.8 108C96.376 115.712 93.0424 123.046 88.8 130C87.912 131.23 86.712 131.762 85.2 131.6C82.8768 126.61 80.2096 121.81 77.2 117.2C76.6666 116.4 76.1333 115.6 75.6 114.8C73.6436 108.855 74.7103 103.655 78.8 99.2C80.1736 97.9528 81.7736 97.2864 83.6 97.2Z" fill="#5679F3"/>
<path fill-rule="evenodd" clip-rule="evenodd" d="M82.7998 110.8C85.9382 113.914 89.1382 113.914 92.3998 110.8C92.3406 112.329 91.5406 113.262 89.9998 113.6C88.1518 113.998 86.2854 114.13 84.3998 114C83.5198 113.116 82.9862 112.05 82.7998 110.8Z" fill="#12171D"/>
<path fill-rule="evenodd" clip-rule="evenodd" d="M81.1991 108.4C82.4375 108.657 82.9711 109.457 82.7991 110.8C82.9855 112.05 83.5191 113.116 84.3991 114C81.6095 113.244 80.5431 111.378 81.1991 108.4Z" fill="#727F9E"/>
<path fill-rule="evenodd" clip-rule="evenodd" d="M92.3996 110.8C93.3196 106.662 91.7196 104.262 87.5996 103.6C89.2732 101.755 91.006 102.021 92.7996 104.4C94.5068 106.794 94.374 108.927 92.3996 110.8Z" fill="#111D36"/>
<path fill-rule="evenodd" clip-rule="evenodd" d="M87.5992 103.6C91.7192 104.262 93.3192 106.662 92.3992 110.8C89.1376 113.915 85.9376 113.915 82.7992 110.8C82.9712 109.457 82.4376 108.657 81.1992 108.4C81.7008 104.705 83.8344 103.105 87.5992 103.6Z" fill="#EEEEF0"/>
<path fill-rule="evenodd" clip-rule="evenodd" d="M244.4 118.8C244.238 120.76 244.505 122.627 245.2 124.4C239.133 123.142 232.999 122.342 226.8 122C227.037 120.478 227.57 119.144 228.4 118C228.977 117.666 229.377 117.133 229.6 116.4C234.522 117.287 239.455 118.087 244.4 118.8Z" fill="#9FBBF8"/>
<path fill-rule="evenodd" clip-rule="evenodd" d="M306.8 115.6C317.733 115.6 328.666 115.6 339.6 115.6C339.6 116.666 339.6 117.734 339.6 118.8C328.666 118.8 317.733 118.8 306.8 118.8C306.8 117.734 306.8 116.666 306.8 115.6Z" fill="#D2E0FA"/>
<path fill-rule="evenodd" clip-rule="evenodd" d="M226.8 122C232.999 122.342 239.132 123.142 245.2 124.4C246.459 125.682 246.992 127.282 246.8 129.2C238.914 128.449 231.18 127.382 223.6 126C224.483 124.489 225.549 123.156 226.8 122Z" fill="#F4F6F9"/>
<path fill-rule="evenodd" clip-rule="evenodd" d="M185.199 122.8C186.334 122.039 187.667 121.773 189.199 122C189.766 122.723 190.566 122.99 191.599 122.8C188.631 124.109 185.431 124.642 181.999 124.4C183.704 123.749 185.57 123.349 187.599 123.2C186.841 122.814 186.041 122.681 185.199 122.8Z" fill="#354481"/>
<path fill-rule="evenodd" clip-rule="evenodd" d="M306.8 121.2C317.466 121.2 328.133 121.2 338.8 121.2C338.8 122.266 338.8 123.334 338.8 124.4C328.133 124.4 317.466 124.4 306.8 124.4C306.8 123.334 306.8 122.266 306.8 121.2Z" fill="#D0E1FC"/>
<path fill-rule="evenodd" clip-rule="evenodd" d="M273.999 122C282.637 123.452 291.437 124.519 300.399 125.2C300.399 127.067 300.399 128.934 300.399 130.8C291.587 129.799 282.787 128.732 273.999 127.6C271.068 125.557 271.068 123.691 273.999 122Z" fill="#9CBAF8"/>
<path fill-rule="evenodd" clip-rule="evenodd" d="M223.599 126C231.18 127.382 238.914 128.449 246.799 129.2C246.451 131.87 246.985 134.27 248.399 136.4C237.43 135.994 226.763 134.661 216.399 132.4C218.779 130.29 221.179 128.156 223.599 126Z" fill="#9BB9FA"/>
<path fill-rule="evenodd" clip-rule="evenodd" d="M75.599 114.8C76.1324 115.6 76.6656 116.4 77.199 117.2C76.4979 117.095 75.9645 117.362 75.599 118C74.3799 120.966 73.1799 123.898 71.999 126.8C62.644 164.604 72.9108 195.538 102.799 219.6C102.918 220.442 102.785 221.242 102.399 222C96.023 216.425 89.8902 210.558 83.999 204.4C80.1214 197.498 76.5214 190.565 73.199 183.6C70.77 177.224 69.0367 170.558 67.999 163.6C66.2307 148.53 67.8307 133.863 72.799 119.6C73.6647 117.906 74.598 116.306 75.599 114.8Z" fill="#B1C6F6"/>
<path fill-rule="evenodd" clip-rule="evenodd" d="M306.8 127.6C317.466 127.6 328.133 127.6 338.8 127.6C338.8 128.666 338.8 129.734 338.8 130.8C328.133 130.8 317.466 130.8 306.8 130.8C306.8 129.734 306.8 128.666 306.8 127.6Z" fill="#CCDEFA"/>
<path fill-rule="evenodd" clip-rule="evenodd" d="M273.999 127.6C282.787 128.732 291.587 129.798 300.399 130.8C300.399 132.4 300.399 134 300.399 135.6C291.605 134.734 282.805 133.934 273.999 133.2C274.683 132.375 275.217 131.442 275.599 130.4C275.543 129.788 275.277 129.388 274.799 129.2C274.533 128.666 274.265 128.134 273.999 127.6Z" fill="#F7F9FB"/>
<path fill-rule="evenodd" clip-rule="evenodd" d="M415.599 129.2C404.145 130.266 392.412 130.799 380.399 130.8C368.53 130.8 356.796 130.534 345.199 130C368.686 130.241 392.153 129.974 415.599 129.2Z" fill="#ADC3F2"/>
<path fill-rule="evenodd" clip-rule="evenodd" d="M170.8 126C171.899 125.875 172.966 126.008 174 126.4C175.036 128.07 175.969 129.803 176.8 131.6C177.215 139.336 177.615 147.07 178 154.8C173.844 155.209 169.976 154.409 166.4 152.4C165.167 145.517 164.9 138.584 165.6 131.6C166.927 129.341 168.66 127.474 170.8 126Z" fill="#CADCFB"/>
<path fill-rule="evenodd" clip-rule="evenodd" d="M216.399 132.4C226.763 134.661 237.429 135.995 248.399 136.4C249.199 136.4 249.999 136.4 250.799 136.4C250.568 140.067 252.168 142.201 255.599 142.8C255.884 147.572 253.75 150.505 249.199 151.6C241.058 152.314 233.592 154.847 226.799 159.2C224.533 162.534 221.733 165.334 218.399 167.6C215.345 173.966 212.545 180.366 209.999 186.8C209.245 170.011 208.978 153.211 209.199 136.4C211.464 134.867 213.864 133.534 216.399 132.4Z" fill="#C9DBFC"/>
<path fill-rule="evenodd" clip-rule="evenodd" d="M306.8 134C317.466 134 328.133 134 338.8 134C338.8 134.8 338.8 135.6 338.8 136.4C328.133 136.4 317.466 136.4 306.8 136.4C306.8 135.6 306.8 134.8 306.8 134Z" fill="#CADCFC"/>
<path fill-rule="evenodd" clip-rule="evenodd" d="M274 129.2C272.964 132.781 271.897 136.381 270.8 140C266.718 141.621 263.252 140.687 260.4 137.2C260.133 137.466 259.866 137.734 259.6 138C261.444 140.388 263.844 141.722 266.8 142C266.192 146.251 267.792 149.318 271.6 151.2C265.085 154.572 258.419 154.838 251.6 152C253.866 150.8 255.6 149.066 256.8 146.8C257.451 143.184 257.317 139.717 256.4 136.4C254.847 135.191 254.447 133.591 255.2 131.6C256.842 130.986 258.042 129.92 258.8 128.4C257.198 124.794 258.398 122.927 262.4 122.8C263.069 121.319 263.736 119.853 264.4 118.4C265.2 117.866 266 117.866 266.8 118.4C269.212 120.69 270.679 123.49 271.2 126.8C272.031 127.768 272.964 128.568 274 129.2Z" fill="#F5F5F5"/>
<path fill-rule="evenodd" clip-rule="evenodd" d="M393.2 138C400.933 138 408.666 138 416.4 138C416.536 139.058 416.269 139.991 415.6 140.8C408.4 141.334 401.2 141.334 394 140.8C393.33 139.991 393.064 139.058 393.2 138Z" fill="#D1E0FA"/>
<path fill-rule="evenodd" clip-rule="evenodd" d="M273.999 133.2C282.805 133.934 291.605 134.734 300.399 135.6C300.399 138 300.399 140.4 300.399 142.8C291.044 142.143 281.711 141.343 272.399 140.4C273.542 138.158 274.075 135.758 273.999 133.2Z" fill="#9BBAFB"/>
<path fill-rule="evenodd" clip-rule="evenodd" d="M198.799 140.4C200.263 181.992 200.93 223.859 200.799 266C201.687 267.395 202.887 268.461 204.399 269.2C208.775 270.007 213.042 270.807 217.199 271.6C209.733 271.6 202.266 271.6 194.799 271.6C193.35 266.679 192.816 261.612 193.199 256.4C194.266 222.534 194.266 188.667 193.199 154.8C193.199 150.267 193.199 145.734 193.199 141.2C195.044 140.806 196.91 140.539 198.799 140.4Z" fill="#F9FBFB"/>
<path fill-rule="evenodd" clip-rule="evenodd" d="M306.8 139.6C317.469 139.467 328.137 139.6 338.8 140C339.469 140.809 339.736 141.743 339.6 142.8C328.666 142.8 317.733 142.8 306.8 142.8C306.8 141.734 306.8 140.667 306.8 139.6Z" fill="#D0DFFC"/>
<path fill-rule="evenodd" clip-rule="evenodd" d="M272.4 140.4C281.712 141.343 291.044 142.143 300.4 142.8C300.532 150.805 300.4 158.805 300 166.8C295.384 161.751 290.184 157.351 284.4 153.6C281.143 151.908 277.676 150.975 274 150.8C269.999 149.203 267.865 146.269 267.6 142C269.486 142.198 271.086 141.665 272.4 140.4Z" fill="#C7DAFC"/>
<path fill-rule="evenodd" clip-rule="evenodd" d="M193.199 141.2C193.199 145.734 193.199 150.266 193.199 154.8C192.4 188.53 192.133 222.398 192.399 256.4C191.603 247.477 191.337 238.41 191.599 229.2C191.599 220.666 191.599 212.134 191.599 203.6C191.599 195.866 191.599 188.134 191.599 180.4C191.729 177.458 190.929 174.791 189.199 172.4C188.665 167.334 188.133 162.266 187.599 157.2C186.61 156.603 185.543 156.337 184.399 156.4C184.702 151.145 183.902 145.945 181.999 140.8C182.265 140.4 182.533 140 182.799 139.6C186.1 141.025 189.566 141.558 193.199 141.2Z" fill="#C2D0EB"/>
<path fill-rule="evenodd" clip-rule="evenodd" d="M370.8 144.4C368.953 145.977 367.086 147.577 365.2 149.2C362.764 147.788 359.964 146.988 356.8 146.8C355.339 146.392 355.205 145.725 356.4 144.8C360.6 144.646 364.733 144.246 368.8 143.6C369.336 144.202 370.003 144.469 370.8 144.4Z" fill="#D0DEF4"/>
<path fill-rule="evenodd" clip-rule="evenodd" d="M373.199 147.6C373.253 146.433 372.987 145.366 372.399 144.4C375.164 144.244 378.097 144.244 381.199 144.4C381.335 145.458 381.069 146.391 380.399 147.2C378.014 147.598 375.614 147.732 373.199 147.6Z" fill="#CEDCF9"/>
<path fill-rule="evenodd" clip-rule="evenodd" d="M383.599 144.4C394.265 144.4 404.933 144.4 415.599 144.4C415.599 145.734 415.599 147.067 415.599 148.4C405.196 148.534 394.796 148.4 384.399 148C383.695 146.915 383.428 145.715 383.599 144.4Z" fill="#D4E2FB"/>
<path fill-rule="evenodd" clip-rule="evenodd" d="M273.999 129.2C274.266 129.2 274.533 129.2 274.799 129.2C275.277 129.388 275.543 129.788 275.599 130.4C275.217 131.442 274.683 132.375 273.999 133.2C274.075 135.758 273.542 138.158 272.399 140.4C271.086 141.665 269.486 142.198 267.599 142C267.865 146.269 269.998 149.202 273.999 150.8C267.798 155.592 260.865 156.792 253.199 154.4C251.391 153.961 250.058 153.027 249.199 151.6C253.75 150.505 255.884 147.572 255.599 142.8C256.378 140.842 256.644 138.708 256.399 136.4C257.317 139.717 257.45 143.184 256.799 146.8C255.599 149.066 253.866 150.8 251.599 152C258.418 154.838 265.085 154.572 271.599 151.2C267.791 149.318 266.191 146.251 266.799 142C263.844 141.722 261.444 140.388 259.599 138C259.866 137.734 260.133 137.466 260.399 137.2C263.251 140.687 266.718 141.621 270.799 140C271.897 136.381 272.964 132.781 273.999 129.2Z" fill="#26282F"/>
<path fill-rule="evenodd" clip-rule="evenodd" d="M351.599 166.8C349.199 169.734 346.533 172.4 343.599 174.8C333.95 173.991 323.817 173.857 313.199 174.4C311.866 174.667 310.533 174.934 309.199 175.2C309.801 175.737 310.068 176.403 309.999 177.2C307.839 175.813 306.239 173.946 305.199 171.6C306.867 169.918 306.867 168.318 305.199 166.8C305.716 162.108 306.25 157.442 306.799 152.8C321.199 152.267 335.599 152.267 349.999 152.8C350.518 157.547 351.05 162.213 351.599 166.8Z" fill="#CADCFD"/>
<path fill-rule="evenodd" clip-rule="evenodd" d="M361.999 152.4C360.052 155.506 357.918 158.438 355.599 161.2C355.467 158.52 355.601 155.854 355.999 153.2C357.904 152.452 359.904 152.186 361.999 152.4Z" fill="#C8D7F1"/>
<path fill-rule="evenodd" clip-rule="evenodd" d="M178.8 134.8C180.892 140.97 182.492 147.37 183.6 154C182.364 154.762 181.03 155.028 179.6 154.8C178.969 148.153 178.703 141.486 178.8 134.8Z" fill="#93AFED"/>
<path fill-rule="evenodd" clip-rule="evenodd" d="M300.4 95.6001C300.933 120.134 301.466 144.667 302 169.2C303.066 170 304.133 170.8 305.2 171.6C306.24 173.946 307.84 175.813 310 177.2C310 177.467 310 177.734 310 178C309.466 178.534 308.933 179.067 308.4 179.6C308.4 180.134 308.4 180.667 308.4 181.2C307.606 181.063 307.073 181.33 306.8 182C306.02 183.836 304.953 185.436 303.6 186.8C303.6 185.734 303.6 184.667 303.6 183.6C291.207 182.803 278.673 182.536 266 182.8C266 183.6 266 184.4 266 185.2C264.464 192.211 262.597 199.145 260.4 206C259.52 207.422 258.853 209.022 258.4 210.8C252.336 213.019 246.069 213.686 239.6 212.8C235.179 211.579 232.379 208.779 231.2 204.4C231.025 202.059 230.625 199.792 230 197.6C223.577 197.602 217.177 198.135 210.8 199.2C209.81 199.386 209.01 199.786 208.4 200.4C207.602 200.424 207.069 200.024 206.8 199.2C207.789 195.035 208.856 190.901 210 186.8C212.546 180.366 215.346 173.966 218.4 167.6C221 164.5 223.5 162 226.8 159.2C233.593 154.847 241.059 152.314 249.2 151.6C250.059 153.027 251.392 153.961 253.2 154.4C260.865 156.792 267.799 155.592 274 150.8C277.676 150.975 281.143 151.908 284.4 153.6C290.184 157.351 295.384 161.751 300 166.8C300.4 158.805 300.533 150.805 300.4 142.8C300.4 140.4 300.4 138 300.4 135.6C300.4 134 300.4 132.4 300.4 130.8C300.4 128.934 300.4 127.067 300.4 125.2C300.4 115.334 300.4 105.466 300.4 95.6001Z" fill="#5479F5"/>
<path fill-rule="evenodd" clip-rule="evenodd" d="M372.4 150C372.469 150.797 372.201 151.463 371.6 152C375.09 152.232 378.557 152.632 382 153.2C393.179 152.294 404.379 152.161 415.6 152.8C416.519 159.537 416.653 166.337 416 173.2C396.993 173.995 377.926 174.262 358.8 174C359.441 172.766 359.707 171.434 359.6 170C368.973 168.671 371.641 163.871 367.6 155.6C369.241 153.698 370.841 151.831 372.4 150Z" fill="#CADCFC"/>
<path fill-rule="evenodd" clip-rule="evenodd" d="M298.8 202.8C299.921 197.231 301.521 191.898 303.6 186.8C304.953 185.436 306.02 183.836 306.8 182C317.742 186.666 328.409 186 338.8 180C348.864 172.867 356.997 163.934 363.2 153.2C372.769 144.423 373.702 145.223 366 155.6C370.325 163.475 367.925 167.742 358.8 168.4C355.722 183.082 347.989 194.682 335.6 203.2C323.138 209.179 310.872 209.046 298.8 202.8Z" fill="#F9F9F9"/>
<path fill-rule="evenodd" clip-rule="evenodd" d="M370.8 144.4C371.333 144.4 371.866 144.4 372.4 144.4C372.987 145.367 373.253 146.433 373.2 147.6C373.154 148.487 372.888 149.287 372.4 150C370.841 151.831 369.241 153.698 367.6 155.6C371.64 163.871 368.973 168.671 359.6 170C359.707 171.434 359.44 172.767 358.8 174C358.533 175.067 358.266 176.134 358 177.2C346.616 204.891 326.616 214.224 298 205.2C297.81 204.167 298.076 203.367 298.8 202.8C310.872 209.046 323.138 209.179 335.6 203.2C347.988 194.683 355.722 183.083 358.8 168.4C367.925 167.742 370.325 163.475 366 155.6C373.702 145.223 372.768 144.423 363.2 153.2C356.997 163.934 348.864 172.867 338.8 180C328.408 186 317.742 186.667 306.8 182C307.073 181.33 307.606 181.063 308.4 181.2C314.552 183.546 320.952 184.212 327.6 183.2C330.611 182.519 333.277 181.319 335.6 179.6C336.922 179.472 337.988 178.939 338.8 178C340.617 177.247 342.217 176.181 343.6 174.8C346.533 172.4 349.2 169.734 351.6 166.8C353.237 165.16 354.571 163.294 355.6 161.2C357.919 158.439 360.052 155.506 362 152.4C363.333 151.6 364.4 150.534 365.2 149.2C367.086 147.577 368.953 145.977 370.8 144.4Z" fill="#26292F"/>
<path fill-rule="evenodd" clip-rule="evenodd" d="M122.799 154C129.68 153.429 134.213 156.362 136.399 162.8C136.531 165.214 136.398 167.614 135.999 170C133.131 176.01 129.664 181.61 125.599 186.8C120.085 180.602 116.485 173.402 114.799 165.2C114.723 159.482 117.389 155.748 122.799 154Z" fill="#577AF2"/>
<path fill-rule="evenodd" clip-rule="evenodd" d="M126 160.4C130.391 161.065 131.724 163.465 130 167.6C126.31 170.222 123.643 169.422 122 165.2C121.514 165.299 121.248 165.566 121.2 166C120.325 162.323 121.925 160.457 126 160.4Z" fill="#F0F1F1"/>
<path fill-rule="evenodd" clip-rule="evenodd" d="M121.199 166C121.247 165.566 121.514 165.299 121.999 165.2C123.642 169.422 126.31 170.222 129.999 167.6C131.724 163.465 130.39 161.065 125.999 160.4C127.673 158.554 129.406 158.821 131.199 161.2C133.196 166.015 131.729 169.215 126.799 170.8C123.917 170.314 122.05 168.714 121.199 166Z" fill="#1B2238"/>
<path fill-rule="evenodd" clip-rule="evenodd" d="M122.8 154C117.389 155.748 114.723 159.482 114.8 165.2C116.485 173.402 120.085 180.602 125.6 186.8C129.664 181.61 133.131 176.01 136 170C136.398 167.614 136.532 165.214 136.4 162.8C136.979 164.174 137.512 165.642 138 167.2C139.6 167.466 141.2 167.734 142.8 168C151.313 172.026 151.313 175.892 142.8 179.6C142.363 180.618 142.096 181.685 142 182.8C143.348 185.289 143.748 187.955 143.2 190.8C140.01 191.067 137.344 192.4 135.2 194.8C133.207 200.919 130.407 206.519 126.8 211.6C123.276 211.224 120.076 212.024 117.2 214C116.077 205.203 115.277 196.136 114.8 186.8C110.624 185.046 106.491 183.179 102.4 181.2C101.735 176.113 101.868 171.046 102.8 166C106.584 161.403 108.45 156.07 108.4 150C111.836 149.23 115.303 149.097 118.8 149.6C120.371 150.901 121.704 152.367 122.8 154Z" fill="#C9DBFC"/>
<path fill-rule="evenodd" clip-rule="evenodd" d="M343.599 174.8C342.217 176.181 340.617 177.247 338.799 178C329.199 178 319.599 178 309.999 178C309.999 177.734 309.999 177.467 309.999 177.2C310.068 176.403 309.801 175.737 309.199 175.2C310.533 174.934 311.866 174.667 313.199 174.4C323.817 173.857 333.95 173.991 343.599 174.8Z" fill="#F4F8F9"/>
<path fill-rule="evenodd" clip-rule="evenodd" d="M421.999 174C421.199 176.4 419.599 178 417.199 178.8C415.388 179.375 413.521 179.642 411.599 179.6C409.199 179.6 406.799 179.6 404.399 179.6C401.733 179.6 399.065 179.6 396.399 179.6C383.305 180.121 370.505 179.588 357.999 178C377.468 178.134 396.934 178 416.399 177.6C418.585 176.877 420.453 175.677 421.999 174Z" fill="#7D91F9"/>
<path fill-rule="evenodd" clip-rule="evenodd" d="M309.999 178C319.599 178 329.199 178 338.799 178C337.988 178.939 336.922 179.472 335.599 179.6C326.533 179.6 317.466 179.6 308.399 179.6C308.933 179.066 309.466 178.534 309.999 178Z" fill="#768CF5"/>
<path fill-rule="evenodd" clip-rule="evenodd" d="M358 177.2C358 177.466 358 177.734 358 178C370.505 179.588 383.305 180.121 396.4 179.6C395.741 214.5 395.341 249.434 395.2 284.4C394.684 285.317 394.017 286.117 393.2 286.8C390.033 287.728 386.833 287.862 383.6 287.2C354.707 283.855 325.907 279.989 297.2 275.6C297.462 266.657 297.196 257.857 296.4 249.2C296.572 238.374 296.039 227.708 294.8 217.2C295.741 213.166 296.809 209.166 298 205.2C326.617 214.224 346.617 204.89 358 177.2Z" fill="#C9DCFD"/>
<path fill-rule="evenodd" clip-rule="evenodd" d="M411.6 182.8C412.133 182.8 412.4 183.066 412.4 183.6C411.866 220.4 411.333 257.2 410.8 294C410.534 256.798 410.8 219.731 411.6 182.8Z" fill="#5F5F58"/>
<path fill-rule="evenodd" clip-rule="evenodd" d="M412.4 183.6C412.4 220.4 412.4 257.2 412.4 294C412.133 294.534 411.866 295.066 411.6 295.6C411.066 295.6 410.8 295.334 410.8 294.8C410.8 294.534 410.8 294.267 410.8 294C411.333 257.2 411.866 220.4 412.4 183.6Z" fill="#020B1C"/>
<path fill-rule="evenodd" clip-rule="evenodd" d="M73.1994 183.6C76.5218 190.565 80.1218 197.498 83.9994 204.4C89.8906 210.558 96.0234 216.425 102.399 222C102.786 221.242 102.919 220.442 102.799 219.6C103.922 221.901 105.788 223.234 108.399 223.6C105.588 226.466 102.122 227.8 97.9994 227.6C93.8754 227.436 89.8754 226.636 85.9994 225.2C75.1227 228.266 70.7227 235.466 72.7994 246.8C73.8868 250.738 75.3535 254.471 77.1994 258C74.7135 257.881 72.3135 258.281 69.9994 259.2C68.6722 261.475 67.0722 263.475 65.1994 265.2C65.0661 254.797 65.1995 244.397 65.5994 234C68.0106 217.162 70.5439 200.362 73.1994 183.6Z" fill="#CADBFA"/>
<path fill-rule="evenodd" clip-rule="evenodd" d="M191.6 180.4C191.6 188.134 191.6 195.866 191.6 203.6C190.285 203.771 189.085 203.504 188 202.8C185.546 194.615 186.746 187.149 191.6 180.4Z" fill="#CDDEFC"/>
<path fill-rule="evenodd" clip-rule="evenodd" d="M193.199 154.8C194.266 188.666 194.266 222.534 193.199 256.4C192.933 256.4 192.666 256.4 192.399 256.4C192.134 222.398 192.4 188.53 193.199 154.8Z" fill="#606160"/>
<path fill-rule="evenodd" clip-rule="evenodd" d="M126.799 211.6C131.34 211.467 135.874 211.601 140.399 212C147.505 217.99 148.572 224.79 143.599 232.4C143.066 233.466 142.533 234.534 141.999 235.6C141.999 233.2 141.999 230.8 141.999 228.4C138.818 227.735 135.618 227.602 132.399 228C131.962 228.74 131.429 229.406 130.799 230C129.81 229.403 128.743 229.137 127.599 229.2C127.282 231.586 127.816 233.719 129.199 235.6C125.982 239.083 122.782 242.55 119.599 246C119.074 245.378 118.408 244.845 117.599 244.4C116.987 244.456 116.587 244.722 116.399 245.2C115.066 245.2 113.733 245.2 112.399 245.2C106.518 244.403 101.985 246.537 98.7992 251.6C95.9632 257.39 94.8968 263.523 95.5992 270C87.5152 268.826 81.3824 264.826 77.1992 258C75.3533 254.471 73.8866 250.738 72.7992 246.8C70.7225 235.466 75.1225 228.266 85.9992 225.2C89.8752 226.636 93.8752 227.436 97.9992 227.6C102.122 227.8 105.588 226.466 108.399 223.6C111.9 220.901 114.833 217.701 117.199 214C120.075 212.024 123.275 211.224 126.799 211.6Z" fill="#040405"/>
<path fill-rule="evenodd" clip-rule="evenodd" d="M81.9999 211.6C82.8471 212.856 82.4471 213.922 80.7999 214.8C80.5599 213.547 80.9599 212.481 81.9999 211.6Z" fill="#0F1926"/>
<path fill-rule="evenodd" clip-rule="evenodd" d="M74.7998 213.2C76.0557 212.353 77.1224 212.753 77.9998 214.4C76.7472 214.64 75.6806 214.24 74.7998 213.2Z" fill="#111B2D"/>
<path fill-rule="evenodd" clip-rule="evenodd" d="M80.3994 218C81.6554 217.153 82.7218 217.553 83.5994 219.2C82.3466 219.44 81.2802 219.04 80.3994 218Z" fill="#111623"/>
<path fill-rule="evenodd" clip-rule="evenodd" d="M77.1998 217.2C77.6343 217.248 77.9009 217.514 77.9998 218C77.1998 219.066 76.3998 220.134 75.5998 221.2C75.3332 220.8 75.0664 220.4 74.7998 220C75.6352 219.061 76.4352 218.127 77.1998 217.2Z" fill="#4A5665"/>
<path fill-rule="evenodd" clip-rule="evenodd" d="M141.999 235.6C140.752 237.677 139.419 239.81 137.999 242C135.085 243.386 132.951 242.586 131.599 239.6C130.896 242.079 130.096 244.479 129.199 246.8C129.149 248.385 129.683 249.718 130.799 250.8C126.299 253.374 122.431 252.574 119.199 248.4C118.823 247.538 118.957 246.738 119.599 246C122.782 242.55 125.982 239.083 129.199 235.6C127.816 233.719 127.283 231.586 127.599 229.2C128.743 229.137 129.811 229.403 130.799 230C131.429 229.406 131.962 228.74 132.399 228C135.619 227.602 138.819 227.735 141.999 228.4C141.999 230.8 141.999 233.2 141.999 235.6Z" fill="#F4F4F3"/>
<path fill-rule="evenodd" clip-rule="evenodd" d="M191.6 229.2C191.337 238.41 191.604 247.477 192.4 256.4C192.666 256.4 192.933 256.4 193.2 256.4C192.816 261.612 193.35 266.678 194.8 271.6C190.791 271.467 186.791 271.601 182.8 272C182.153 272.246 181.62 272.646 181.2 273.2C178.557 280.054 176.424 286.987 174.8 294C173.516 294.63 172.983 295.696 173.2 297.2C169.279 295.803 165.279 294.737 161.2 294C154.276 288.54 148.276 282.14 143.2 274.8C142.666 273.2 142.133 271.6 141.6 270C141.333 263.866 141.066 257.734 140.8 251.6C139.703 249.302 137.969 247.702 135.6 246.8C134.842 244.994 135.642 244.06 138 244C139.531 242.87 140.597 241.402 141.2 239.6C141.86 238.891 142.66 238.625 143.6 238.8C143.6 238 143.6 237.2 143.6 236.4C152.152 237.45 160.686 237.184 169.2 235.6C176.638 233.298 184.104 231.164 191.6 229.2Z" fill="#C9DCFC"/>
<path fill-rule="evenodd" clip-rule="evenodd" d="M417.2 178.8C417.333 216.401 417.2 254.001 416.8 291.6C415.968 292.568 415.035 293.368 414 294C413.466 294 412.933 294 412.4 294C412.4 257.2 412.4 220.4 412.4 183.6C412.4 183.066 412.133 182.8 411.6 182.8C411.6 181.734 411.6 180.666 411.6 179.6C413.522 179.642 415.388 179.375 417.2 178.8Z" fill="#96B7F8"/>
<path fill-rule="evenodd" clip-rule="evenodd" d="M143.599 232.4C143.599 233.734 143.599 235.066 143.599 236.4C143.599 237.2 143.599 238 143.599 238.8C142.659 238.625 141.859 238.891 141.199 239.6C140.597 241.402 139.531 242.87 137.999 244C135.642 244.06 134.842 244.994 135.599 246.8C134.799 246.8 133.999 246.8 133.199 246.8C132.345 246.053 131.279 245.786 129.999 246C130.067 247.943 130.867 249.543 132.399 250.8C131.145 252.895 129.278 253.962 126.799 254C122.357 253.415 119.157 251.149 117.199 247.2C118.478 245.819 118.211 245.153 116.399 245.2C116.587 244.722 116.987 244.456 117.599 244.4C118.408 244.845 119.075 245.378 119.599 246C118.957 246.738 118.823 247.538 119.199 248.4C122.431 252.574 126.299 253.374 130.799 250.8C129.683 249.718 129.149 248.385 129.199 246.8C130.096 244.479 130.896 242.079 131.599 239.6C132.951 242.586 135.085 243.386 137.999 242C139.419 239.81 140.752 237.677 141.999 235.6C142.533 234.534 143.066 233.466 143.599 232.4Z" fill="#212124"/>
<path fill-rule="evenodd" clip-rule="evenodd" d="M112.399 245.2C113.651 247.132 115.118 248.998 116.799 250.8C119.527 258.582 122.327 266.316 125.199 274C125.199 274.534 125.466 274.8 125.999 274.8C127.839 281.198 128.905 287.73 129.199 294.4C129.184 297.002 128.651 299.268 127.599 301.2C123.979 297.699 121.579 293.433 120.399 288.4C119.866 287.334 119.333 287.334 118.799 288.4C119.765 291.43 120.965 294.363 122.399 297.2C123.524 299.527 125.257 301.127 127.599 302C129.835 303.137 132.235 303.937 134.799 304.4C136.094 298.995 136.761 293.395 136.799 287.6C137.066 289.734 137.333 291.866 137.599 294C138.133 287.6 138.133 281.2 137.599 274.8C137.675 278.106 137.007 281.039 135.599 283.6C134.534 271.353 133.734 259.086 133.199 246.8C133.999 246.8 134.799 246.8 135.599 246.8C137.969 247.702 139.703 249.302 140.799 251.6C141.066 257.734 141.333 263.866 141.599 270C142.133 271.6 142.666 273.2 143.199 274.8C148.275 282.14 154.275 288.54 161.199 294C160.237 295.707 158.77 296.774 156.799 297.2C156.407 298.234 156.274 299.302 156.399 300.4C154.748 300.25 153.148 299.85 151.599 299.2C148.726 296.312 145.526 294.046 141.999 292.4C141.999 297.2 141.999 302 141.999 306.8C143.599 306.8 145.199 306.8 146.799 306.8C144.822 307.714 144.022 309.314 144.399 311.6C142.091 311.355 139.958 311.622 137.999 312.4C129.583 313.106 121.849 311.106 114.799 306.4C111.693 302.447 108.893 298.314 106.399 294C109.219 304.971 116.286 311.504 127.599 313.6C131.056 313.999 134.523 314.133 137.999 314C161.466 314 184.933 314 208.399 314C228.399 314 248.399 314 268.399 314C217.334 314.932 166.134 315.066 114.799 314.4C116.204 314.238 117.537 313.838 118.799 313.2C117.279 312.615 115.679 312.615 113.999 313.2C113.999 314 113.999 314.8 113.999 315.6C113.466 315.6 113.199 315.866 113.199 316.4C111.991 317.469 110.658 318.402 109.199 319.2C105.903 319.397 102.703 319.53 99.5994 319.6C103.371 321.337 107.238 321.604 111.199 320.4C111.385 321.39 111.785 322.19 112.399 322.8C113.203 334.558 114.269 346.292 115.599 358C115.599 360.134 115.599 362.267 115.599 364.4C114.226 358.182 113.426 351.782 113.199 345.2C110.139 344.741 107.207 343.807 104.399 342.4C100.163 340.013 96.029 337.479 91.9994 334.8C91.3586 328.889 91.6258 323.022 92.7994 317.2C97.7682 308.961 101.102 300.027 102.799 290.4C101.067 283.326 98.6674 276.526 95.5994 270C94.897 263.523 95.9634 257.39 98.7994 251.6C101.985 246.537 106.518 244.403 112.399 245.2Z" fill="#FE7062"/>
<path fill-rule="evenodd" clip-rule="evenodd" d="M112.399 245.2C113.733 245.2 115.066 245.2 116.399 245.2C118.211 245.153 118.478 245.819 117.199 247.2C119.157 251.149 122.357 253.415 126.799 254C129.278 253.962 131.145 252.895 132.399 250.8C130.867 249.543 130.067 247.943 129.999 246C131.279 245.786 132.345 246.053 133.199 246.8C133.734 259.086 134.534 271.353 135.599 283.6C135.532 290.542 135.266 297.476 134.799 304.4C132.235 303.937 129.835 303.137 127.599 302C127.599 301.734 127.599 301.466 127.599 301.2C128.651 299.268 129.184 297.002 129.199 294.4C128.905 287.73 127.839 281.198 125.999 274.8C129.942 271.436 131.409 267.17 130.399 262C129.943 266.638 128.209 270.638 125.199 274C122.327 266.316 119.527 258.582 116.799 250.8C115.118 248.998 113.651 247.132 112.399 245.2Z" fill="#F4F6F8"/>
<path fill-rule="evenodd" clip-rule="evenodd" d="M77.1994 258C81.3826 264.827 87.5154 268.827 95.5994 270C98.6674 276.526 101.067 283.326 102.799 290.4C101.102 300.027 97.7682 308.961 92.7994 317.2C91.6258 323.022 91.3586 328.889 91.9994 334.8C96.029 337.479 100.163 340.013 104.399 342.4C107.207 343.807 110.139 344.741 113.199 345.2C113.426 351.782 114.226 358.182 115.599 364.4C116.743 382.881 118.61 401.281 121.199 419.6C108.462 418.813 95.6618 418.547 82.7994 418.8C82.5986 413.829 84.7314 410.629 89.1994 409.2C89.1994 408.4 89.1994 407.6 89.1994 406.8C96.6338 406.066 104.101 405.799 111.599 406C111.599 394 111.599 382 111.599 370C111.599 366.267 111.599 362.534 111.599 358.8C109.811 359.036 108.211 358.769 106.799 358C108.399 358 109.999 358 111.599 358C111.599 355.867 111.599 353.734 111.599 351.6C110.32 351.815 109.254 351.547 108.399 350.8C109.466 350.8 110.533 350.8 111.599 350.8C111.599 349.467 111.599 348.134 111.599 346.8C104.661 346.933 97.7274 346.8 90.7994 346.4C86.2498 344.891 82.5162 342.358 79.5994 338.8C76.584 332.815 74.584 326.415 73.5994 319.6C71.7917 308.071 69.6584 296.603 67.1994 285.2C65.8523 278.599 65.1857 271.932 65.1994 265.2C67.0722 263.475 68.6722 261.475 69.9994 259.2C72.3135 258.281 74.7135 257.881 77.1994 258Z" fill="#98B9FC"/>
<path fill-rule="evenodd" clip-rule="evenodd" d="M125.999 274.8C125.466 274.8 125.199 274.534 125.199 274C128.209 270.638 129.942 266.638 130.399 262C131.409 267.17 129.942 271.436 125.999 274.8Z" fill="#2F2F30"/>
<path fill-rule="evenodd" clip-rule="evenodd" d="M194.799 271.6C202.265 271.6 209.733 271.6 217.199 271.6C218.633 271.493 219.965 271.759 221.199 272.4C221.199 273.2 221.199 274 221.199 274.8C220.452 275.654 220.185 276.721 220.399 278C219.652 278.854 219.385 279.921 219.599 281.2C217.931 282.947 217.131 285.081 217.199 287.6C214.075 296.268 211.141 305.068 208.399 314C184.933 314 161.465 314 137.999 314C137.999 313.466 137.999 312.934 137.999 312.4C140.569 312.648 142.969 312.382 145.199 311.6C150.265 311.6 155.333 311.6 160.399 311.6C160.933 311.6 161.465 311.6 161.999 311.6C164.133 311.6 166.265 311.6 168.399 311.6C169.2 308.93 170 306.263 170.799 303.6C171.546 302.746 171.813 301.679 171.599 300.4C172.499 299.722 172.499 298.922 171.599 298C172.665 298 173.733 298 174.799 298C174.799 296.666 174.799 295.334 174.799 294C176.424 286.987 178.557 280.054 181.199 273.2C181.619 272.646 182.153 272.246 182.799 272C186.79 271.601 190.79 271.467 194.799 271.6Z" fill="#030304"/>
<path fill-rule="evenodd" clip-rule="evenodd" d="M141.199 274C142.785 279.435 143.052 285.035 141.999 290.8C141.202 285.226 140.935 279.626 141.199 274Z" fill="black"/>
<path fill-rule="evenodd" clip-rule="evenodd" d="M134.8 304.4C135.266 297.476 135.533 290.542 135.6 283.6C137.008 281.039 137.675 278.106 137.6 274.8C138.133 281.2 138.133 287.6 137.6 294C137.333 291.866 137.066 289.734 136.8 287.6C136.761 293.395 136.094 298.995 134.8 304.4Z" fill="#FE7062"/>
<path fill-rule="evenodd" clip-rule="evenodd" d="M209.2 136.4C208.979 153.211 209.245 170.011 210 186.8C208.856 190.901 207.789 195.035 206.8 199.2C207.069 200.024 207.602 200.424 208.4 200.4C208.249 205.029 208.782 209.563 210 214C209.467 221.863 209.2 229.863 209.2 238C209.273 247.143 209.805 256.21 210.8 265.2C214.504 265.783 218.237 266.051 222 266C221.745 262.375 222.012 258.907 222.8 255.6C222.8 259.334 222.8 263.067 222.8 266.8C247.349 269.202 271.881 271.868 296.4 274.8C296.4 266.267 296.4 257.734 296.4 249.2C297.196 257.857 297.462 266.657 297.2 275.6C325.907 279.989 354.707 283.855 383.6 287.2C386.833 287.862 390.033 287.728 393.2 286.8C394.017 286.117 394.684 285.317 395.2 284.4C395.341 249.434 395.741 214.5 396.4 179.6C399.066 179.6 401.733 179.6 404.4 179.6C404.533 216.668 404.4 253.735 404 290.8C403.701 291.533 403.301 292.2 402.8 292.8C399.431 294.027 395.965 294.294 392.4 293.6C335.668 286.075 278.868 278.742 222 271.6C221.514 271.699 221.248 271.966 221.2 272.4C219.966 271.759 218.633 271.493 217.2 271.6C213.042 270.807 208.776 270.007 204.4 269.2C202.888 268.461 201.688 267.395 200.8 266C200.93 223.859 200.264 181.992 198.8 140.4C202.134 138.93 205.601 137.596 209.2 136.4Z" fill="#9ABAFB"/>
<path fill-rule="evenodd" clip-rule="evenodd" d="M294.8 217.2C296.039 227.708 296.572 238.374 296.4 249.2C296.4 257.734 296.4 266.266 296.4 274.8C271.882 271.868 247.349 269.202 222.8 266.8C222.8 263.066 222.8 259.334 222.8 255.6C222.594 247.569 222.861 239.569 223.6 231.6C236.266 236.36 247.732 234.36 258 225.6C259.307 225.205 260.641 225.072 262 225.2C272.4 225.2 282.8 225.2 293.2 225.2C293.402 222.368 293.935 219.702 294.8 217.2Z" fill="#5479F5"/>
<path fill-rule="evenodd" clip-rule="evenodd" d="M277.2 234C278.058 234.601 278.192 235.401 277.6 236.4C268.579 250.838 255.646 258.838 238.8 260.4C251.273 257.826 262.073 251.96 271.2 242.8C273.604 240.121 275.604 237.187 277.2 234Z" fill="#121E3A"/>
<path fill-rule="evenodd" clip-rule="evenodd" d="M209.999 214C212.238 221.698 216.772 227.564 223.599 231.6C222.86 239.569 222.593 247.569 222.799 255.6C222.011 258.907 221.745 262.375 221.999 266C218.237 266.051 214.503 265.783 210.799 265.2C209.805 256.21 209.272 247.143 209.199 238C209.199 229.863 209.466 221.863 209.999 214Z" fill="#C8DBFB"/>
<path fill-rule="evenodd" clip-rule="evenodd" d="M259.599 211.6C261.461 211.468 263.194 210.935 264.799 210C264.603 206.55 264.603 203.082 264.799 199.6C266.293 201.446 267.093 203.58 267.199 206C270.104 207.48 273.17 207.88 276.399 207.2C280.294 205.412 284.294 205.012 288.399 206C283.088 210.657 276.954 213.857 269.999 215.6C269.048 215.395 268.114 215.129 267.199 214.8C263.987 217.878 260.921 221.078 257.999 224.4C252.681 228.258 246.814 231.058 240.399 232.8C219.235 232.565 209.102 221.765 209.999 200.4C216.411 199.998 222.811 199.465 229.199 198.8C230.076 211.253 236.743 216.453 249.199 214.4C252.887 213.909 256.354 212.976 259.599 211.6Z" fill="#F8F8F7"/>
<path fill-rule="evenodd" clip-rule="evenodd" d="M260.4 206C260.261 207.889 259.994 209.755 259.6 211.6C256.354 212.976 252.888 213.909 249.2 214.4C236.744 216.453 230.077 211.253 229.2 198.8C222.812 199.465 216.412 199.998 210 200.4C209.102 221.765 219.236 232.565 240.4 232.8C246.815 231.058 252.681 228.258 258 224.4C259.532 224.173 260.865 224.439 262 225.2C260.641 225.072 259.307 225.205 258 225.6C247.732 234.36 236.265 236.36 223.6 231.6C216.773 227.564 212.239 221.698 210 214C208.782 209.562 208.249 205.029 208.4 200.4C209.01 199.786 209.81 199.386 210.8 199.2C217.177 198.135 223.577 197.602 230 197.6C230.625 199.792 231.025 202.059 231.2 204.4C232.379 208.779 235.179 211.579 239.6 212.8C246.069 213.686 252.336 213.019 258.4 210.8C258.853 209.022 259.52 207.422 260.4 206Z" fill="#1C212F"/>
<path fill-rule="evenodd" clip-rule="evenodd" d="M303.599 183.6C303.599 184.667 303.599 185.734 303.599 186.8C301.521 191.899 299.921 197.231 298.799 202.8C298.076 203.367 297.809 204.167 297.999 205.2C296.808 209.166 295.741 213.166 294.799 217.2C293.934 219.702 293.401 222.368 293.199 225.2C282.799 225.2 272.399 225.2 261.999 225.2C260.864 224.439 259.531 224.173 257.999 224.4C260.921 221.079 263.987 217.879 267.199 214.8C268.114 215.129 269.048 215.395 269.999 215.6C276.954 213.857 283.088 210.657 288.399 206C284.294 205.012 280.294 205.412 276.399 207.2C273.17 207.88 270.104 207.48 267.199 206C267.093 203.58 266.293 201.447 264.799 199.6C264.603 203.083 264.603 206.55 264.799 210C263.193 210.935 261.461 211.468 259.599 211.6C259.993 209.755 260.26 207.889 260.399 206C262.596 199.145 264.463 192.211 265.999 185.2C278.34 183.632 290.873 183.099 303.599 183.6Z" fill="#040405"/>
<path fill-rule="evenodd" clip-rule="evenodd" d="M303.599 183.6C290.873 183.098 278.34 183.632 265.999 185.2C265.999 184.4 265.999 183.6 265.999 182.8C278.673 182.536 291.206 182.803 303.599 183.6Z" fill="#2F4082"/>
<path fill-rule="evenodd" clip-rule="evenodd" d="M308.399 179.6C317.466 179.6 326.533 179.6 335.599 179.6C333.277 181.318 330.611 182.518 327.599 183.2C320.951 184.212 314.551 183.546 308.399 181.2C308.399 180.666 308.399 180.134 308.399 179.6Z" fill="#C5D7F2"/>
<path fill-rule="evenodd" clip-rule="evenodd" d="M217.199 287.6C255.867 292.267 294.533 296.934 333.199 301.6C350.275 304.046 367.341 306.579 384.399 309.2C385.145 312.232 383.945 314.366 380.799 315.6C376.006 316.976 371.606 318.976 367.599 321.6C361.632 326.129 355.232 329.995 348.399 333.2C340.737 339.435 331.937 341.702 321.999 340C306.315 337.539 290.582 335.406 274.799 333.6C273.775 332.473 272.975 331.273 272.399 330C272.742 325.459 272.875 320.926 272.799 316.4C271.788 314.714 270.322 313.914 268.399 314C248.399 314 228.399 314 208.399 314C211.142 305.068 214.075 296.268 217.199 287.6Z" fill="#98B9FD"/>
<path fill-rule="evenodd" clip-rule="evenodd" d="M127.6 301.2C127.6 301.466 127.6 301.734 127.6 302C125.257 301.127 123.525 299.527 122.4 297.2C120.965 294.363 119.765 291.43 118.8 288.4C119.333 287.334 119.866 287.334 120.4 288.4C121.579 293.433 123.979 297.699 127.6 301.2Z" fill="black"/>
<path fill-rule="evenodd" clip-rule="evenodd" d="M410.8 294.8C410.8 295.334 411.066 295.6 411.6 295.6C410.658 297.74 409.058 299.206 406.8 300C403.333 300.534 399.866 300.534 396.4 300C342 293.066 287.6 286.134 233.2 279.2C232.21 279.014 231.41 278.614 230.8 278C285.845 284.362 341.045 291.162 396.4 298.4C400.133 298.934 403.866 298.934 407.6 298.4C408.856 297.282 409.923 296.082 410.8 294.8Z" fill="#282C32"/>
<path fill-rule="evenodd" clip-rule="evenodd" d="M76.3994 274.8C78.3353 282.107 80.069 289.574 81.5994 297.2C82.2538 299.382 82.121 301.515 81.1994 303.6C78.9099 294.13 77.3099 284.53 76.3994 274.8Z" fill="#BBD5FE"/>
<path fill-rule="evenodd" clip-rule="evenodd" d="M194.799 289.2C198.661 289.108 199.728 290.842 197.999 294.4C194.055 294.742 192.988 293.008 194.799 289.2Z" fill="#C3D4EF"/>
<path fill-rule="evenodd" clip-rule="evenodd" d="M221.199 274.8C221.087 276.099 221.62 277.032 222.799 277.6C225.452 277.998 228.119 278.132 230.799 278C231.409 278.614 232.209 279.014 233.199 279.2C287.599 286.134 341.999 293.066 396.399 300C399.865 300.534 403.332 300.534 406.799 300C409.057 299.206 410.657 297.74 411.599 295.6C411.865 295.066 412.132 294.534 412.399 294C412.932 294 413.465 294 413.999 294C412.736 297.346 411.669 300.814 410.799 304.4C350.668 295.852 290.402 287.986 229.999 280.8C226.532 280.41 223.332 279.476 220.399 278C220.184 276.721 220.452 275.654 221.199 274.8Z" fill="#C5D7F5"/>
<path fill-rule="evenodd" clip-rule="evenodd" d="M404.399 179.6C406.799 179.6 409.199 179.6 411.599 179.6C411.599 180.666 411.599 181.734 411.599 182.8C410.8 219.731 410.534 256.798 410.799 294C410.799 294.267 410.799 294.534 410.799 294.8C409.922 296.082 408.855 297.283 407.599 298.4C403.866 298.934 400.133 298.934 396.399 298.4C341.045 291.162 285.845 284.363 230.799 278C228.119 278.132 225.453 277.998 222.799 277.6C221.621 277.032 221.087 276.099 221.199 274.8C221.199 274 221.199 273.2 221.199 272.4C221.247 271.966 221.514 271.699 221.999 271.6C278.867 278.742 335.667 286.075 392.399 293.6C395.964 294.294 399.43 294.027 402.799 292.8C403.3 292.2 403.7 291.533 403.999 290.8C404.399 253.734 404.533 216.668 404.399 179.6Z" fill="#F6F7F8"/>
<path fill-rule="evenodd" clip-rule="evenodd" d="M220.399 278C223.333 279.476 226.533 280.41 229.999 280.8C290.402 287.986 350.669 295.852 410.799 304.4C411.522 304.967 411.789 305.767 411.599 306.8C411.065 307.6 410.533 308.4 409.999 309.2C410.17 307.885 409.903 306.685 409.199 305.6C346.015 297.439 282.815 289.306 219.599 281.2C219.385 279.921 219.652 278.855 220.399 278Z" fill="#A9C3F8"/>
<path fill-rule="evenodd" clip-rule="evenodd" d="M171.599 298C172.499 298.922 172.499 299.722 171.599 300.4C166.754 300.836 161.954 300.836 157.199 300.4C158.412 297.57 160.679 295.97 163.999 295.6C166.512 296.482 169.045 297.282 171.599 298Z" fill="#EAEAE7"/>
<path fill-rule="evenodd" clip-rule="evenodd" d="M156.399 300.4C158.498 301.195 160.631 301.995 162.799 302.8C160.657 304.135 158.524 305.467 156.399 306.8C154.906 306.389 153.439 305.856 151.999 305.2C150.361 306.087 148.629 306.621 146.799 306.8C145.199 306.8 143.599 306.8 141.999 306.8C141.999 302 141.999 297.2 141.999 292.4C145.525 294.046 148.725 296.312 151.599 299.2C153.148 299.851 154.748 300.251 156.399 300.4Z" fill="#C5D8F9"/>
<path fill-rule="evenodd" clip-rule="evenodd" d="M161.2 294C165.279 294.737 169.279 295.803 173.2 297.2C172.983 295.696 173.517 294.63 174.8 294C174.8 295.334 174.8 296.666 174.8 298C173.734 298 172.667 298 171.6 298C169.046 297.282 166.513 296.482 164 295.6C160.68 295.97 158.413 297.57 157.2 300.4C161.955 300.836 166.755 300.836 171.6 300.4C171.815 301.679 171.547 302.746 170.8 303.6C168.405 300.94 165.739 300.674 162.8 302.8C160.632 301.995 158.499 301.195 156.4 300.4C156.275 299.302 156.408 298.234 156.8 297.2C158.771 296.774 160.238 295.707 161.2 294Z" fill="#20242D"/>
<path fill-rule="evenodd" clip-rule="evenodd" d="M170.799 303.6C170 306.263 169.2 308.93 168.399 311.6C166.266 311.6 164.133 311.6 161.999 311.6C161.991 310.386 161.458 309.453 160.399 308.8C158.947 308.194 157.615 307.528 156.399 306.8C158.524 305.467 160.658 304.134 162.799 302.8C165.738 300.674 168.404 300.94 170.799 303.6Z" fill="#97B6F3"/>
<path fill-rule="evenodd" clip-rule="evenodd" d="M156.399 306.8C157.614 307.528 158.947 308.194 160.399 308.8C161.457 309.453 161.99 310.386 161.999 311.6C161.465 311.6 160.933 311.6 160.399 311.6C160.504 310.899 160.237 310.366 159.599 310C157.098 308.855 154.565 307.789 151.999 306.8C149.835 307.951 147.569 308.751 145.199 309.2C145.199 310 145.199 310.8 145.199 311.6C142.969 312.382 140.569 312.648 137.999 312.4C139.957 311.622 142.091 311.355 144.399 311.6C144.021 309.314 144.821 307.714 146.799 306.8C148.629 306.621 150.361 306.087 151.999 305.2C153.439 305.856 154.906 306.389 156.399 306.8Z" fill="#212433"/>
<path fill-rule="evenodd" clip-rule="evenodd" d="M137.999 312.4C137.999 312.934 137.999 313.466 137.999 314C134.523 314.133 131.056 313.999 127.599 313.6C116.286 311.504 109.219 304.971 106.399 294C108.893 298.314 111.693 302.447 114.799 306.4C121.849 311.106 129.583 313.106 137.999 312.4Z" fill="black"/>
<path fill-rule="evenodd" clip-rule="evenodd" d="M160.399 311.6C155.333 311.6 150.266 311.6 145.199 311.6C145.199 310.8 145.199 310 145.199 309.2C147.569 308.751 149.835 307.951 151.999 306.8C154.565 307.789 157.098 308.855 159.599 310C160.238 310.366 160.504 310.899 160.399 311.6Z" fill="#E6E5E4"/>
<path fill-rule="evenodd" clip-rule="evenodd" d="M268.399 314C270.321 313.914 271.788 314.714 272.799 316.4C272.875 320.926 272.741 325.459 272.399 330C270.795 341.569 269.195 353.035 267.599 364.4C268.015 350.042 269.348 335.775 271.599 321.6C271.78 319.463 271.246 317.597 269.999 316C218 315.6 166 315.466 113.999 315.6C113.999 314.8 113.999 314 113.999 313.2C115.678 312.615 117.278 312.615 118.799 313.2C117.537 313.838 116.204 314.238 114.799 314.4C166.133 315.066 217.333 314.932 268.399 314Z" fill="#7590F3"/>
<path fill-rule="evenodd" clip-rule="evenodd" d="M405.999 311.6C402.146 314.918 397.879 317.586 393.199 319.6C396.921 316.135 401.188 313.468 405.999 311.6Z" fill="#98B4FB"/>
<path fill-rule="evenodd" clip-rule="evenodd" d="M113.999 315.6C166 315.467 218 315.6 269.999 316C271.247 317.597 271.78 319.463 271.599 321.6C269.348 335.775 268.015 350.043 267.599 364.4C266.555 368.493 266.021 372.759 265.999 377.2C263.879 391.432 262.279 405.832 261.199 420.4C259.066 420.4 256.933 420.4 254.799 420.4C255.666 408.142 256.466 395.875 257.199 383.6C257.199 381.467 257.199 379.334 257.199 377.2C259.052 360.016 260.252 342.683 260.799 325.2C260.077 324.239 259.144 323.572 257.999 323.2C213.065 322.535 168.265 322.668 123.599 323.6C122.968 324.732 122.435 325.932 121.999 327.2C122.495 333.315 123.029 339.315 123.599 345.2C123.343 349.621 123.609 353.888 124.399 358C125.367 374.275 126.433 390.541 127.599 406.8C127.41 407.833 127.676 408.633 128.399 409.2C128.399 412.667 128.399 416.134 128.399 419.6C126.266 419.6 124.133 419.6 121.999 419.6C120.179 398.92 118.045 378.387 115.599 358C114.269 346.292 113.203 334.559 112.399 322.8C112.32 320.611 112.587 318.477 113.199 316.4C113.199 315.867 113.466 315.6 113.999 315.6Z" fill="#F9FBFB"/>
<path fill-rule="evenodd" clip-rule="evenodd" d="M113.2 316.4C112.588 318.477 112.32 320.61 112.4 322.8C111.785 322.19 111.385 321.39 111.2 320.4C107.238 321.604 103.372 321.337 99.5996 319.6C102.704 319.53 105.904 319.397 109.2 319.2C110.658 318.402 111.992 317.469 113.2 316.4Z" fill="black"/>
<path fill-rule="evenodd" clip-rule="evenodd" d="M123.6 323.6C168.265 322.668 213.065 322.534 258 323.2C259.144 323.572 260.077 324.239 260.8 325.2C260.252 342.682 259.052 360.016 257.2 377.2C257.2 375.066 257.2 372.934 257.2 370.8C257.2 370.266 257.2 369.734 257.2 369.2C257.534 359.054 258.067 348.922 258.8 338.8C259.72 334.68 259.853 330.413 259.2 326C258.8 325.6 258.4 325.2 258 324.8C241.202 324.4 224.402 324.266 207.6 324.4C197.733 324.4 187.866 324.4 178 324.4C176.133 324.4 174.266 324.4 172.4 324.4C171.6 324.4 170.8 324.4 170 324.4C154.672 323.602 139.205 323.336 123.6 323.6Z" fill="#728CF2"/>
<path fill-rule="evenodd" clip-rule="evenodd" d="M169.999 324.4C170.497 325.302 171.163 326.102 171.999 326.8C172.533 330.267 172.533 333.734 171.999 337.2C169.752 344.074 167.752 351.007 165.999 358C164.479 360.415 163.413 363.081 162.799 366C160.723 371.827 158.723 377.694 156.799 383.6C155.956 385.851 154.756 387.718 153.199 389.2C149.999 389.2 146.799 389.2 143.599 389.2C142.799 389.2 141.999 389.2 141.199 389.2C141.306 380.127 141.573 371.061 141.999 362C142.71 359.957 142.976 357.823 142.799 355.6C142.799 354.267 142.799 352.934 142.799 351.6C143.472 347.992 144.006 344.259 144.399 340.4C137.999 340.4 131.599 340.4 125.199 340.4C125.733 335.067 126.266 329.734 126.799 324.4C141.199 324.4 155.599 324.4 169.999 324.4Z" fill="#030305"/>
<path fill-rule="evenodd" clip-rule="evenodd" d="M172.4 324.4C174.266 324.4 176.133 324.4 178 324.4C181.925 336.704 185.659 348.97 189.2 361.2C189.2 361.466 189.2 361.734 189.2 362C189.608 364.431 190.141 366.831 190.8 369.2C192.479 375.545 193.812 381.945 194.8 388.4C194.533 388.4 194.266 388.4 194 388.4C192.378 388.27 190.778 388.404 189.2 388.8C188.755 389.106 188.488 389.506 188.4 390C187.367 389.81 186.567 390.077 186 390.8C184.32 391.385 182.72 391.385 181.2 390.8C177.883 382.445 174.416 374.178 170.8 366C169.728 363.598 168.662 361.198 167.6 358.8C169.499 351.091 171.499 343.358 173.6 335.6C174.372 331.688 173.972 327.954 172.4 324.4Z" fill="#060609"/>
<path fill-rule="evenodd" clip-rule="evenodd" d="M177.999 324.4C187.865 324.4 197.733 324.4 207.599 324.4C224.423 327.464 241.489 329.864 258.799 331.6C258.799 334 258.799 336.4 258.799 338.8C258.066 348.922 257.533 359.055 257.199 369.2C253.199 369.2 249.199 369.2 245.199 369.2C242.985 368.914 240.853 368.38 238.799 367.6C238.081 367.074 237.281 366.541 236.399 366C238.485 365.346 240.618 364.946 242.799 364.8C234.274 365.053 225.741 365.053 217.199 364.8C207.924 363.037 198.591 361.837 189.199 361.2C185.658 348.971 181.925 336.704 177.999 324.4Z" fill="#C9DCFD"/>
<path fill-rule="evenodd" clip-rule="evenodd" d="M207.6 324.4C224.402 324.266 241.202 324.4 258 324.8C258.4 325.2 258.8 325.6 259.2 326C259.853 330.413 259.72 334.68 258.8 338.8C258.8 336.4 258.8 334 258.8 331.6C241.49 329.864 224.424 327.464 207.6 324.4Z" fill="#99B9FC"/>
<path fill-rule="evenodd" clip-rule="evenodd" d="M388.399 322C385.25 325.147 381.517 327.281 377.199 328.4C380.435 325.447 384.168 323.314 388.399 322Z" fill="#88A5FA"/>
<path fill-rule="evenodd" clip-rule="evenodd" d="M219.599 281.2C282.815 289.306 346.015 297.438 409.199 305.6C409.903 306.685 410.171 307.885 409.999 309.2C408.59 309.85 407.257 310.65 405.999 311.6C401.188 313.468 396.921 316.135 393.199 319.6C391.403 320.077 389.803 320.877 388.399 322C384.168 323.314 380.435 325.447 377.199 328.4C374.977 329.615 372.843 330.949 370.799 332.4C363.612 334.683 357.212 338.15 351.599 342.8C348.933 344.4 346.266 346 343.599 347.6C338.187 350.174 332.854 352.974 327.599 356C326.998 356.537 326.731 357.203 326.799 358C326.533 358 326.266 358 325.999 358C318.869 360.274 312.469 363.741 306.799 368.4C306.437 369.166 305.904 369.834 305.199 370.4C303.421 370.853 301.821 371.52 300.399 372.4C294.023 373.058 287.623 373.325 281.199 373.2C276.689 372.624 272.156 372.358 267.599 372.4C267.599 369.734 267.599 367.066 267.599 364.4C269.195 353.035 270.795 341.569 272.399 330C272.975 331.273 273.775 332.473 274.799 333.6C290.582 335.406 306.315 337.539 321.999 340C331.937 341.702 340.737 339.435 348.399 333.2C355.232 329.995 361.632 326.129 367.599 321.6C371.606 318.976 376.006 316.976 380.799 315.6C383.945 314.366 385.145 312.232 384.399 309.2C367.341 306.579 350.275 304.046 333.199 301.6C294.533 296.934 255.867 292.267 217.199 287.6C217.131 285.081 217.931 282.947 219.599 281.2Z" fill="#C8DBFD"/>
<path fill-rule="evenodd" clip-rule="evenodd" d="M123.599 323.6C139.205 323.336 154.672 323.603 169.999 324.4C155.599 324.4 141.199 324.4 126.799 324.4C126.265 329.734 125.733 335.067 125.199 340.4C124.665 342 124.133 343.6 123.599 345.2C123.029 339.315 122.495 333.315 121.999 327.2C122.434 325.932 122.968 324.732 123.599 323.6Z" fill="#5574EA"/>
<path fill-rule="evenodd" clip-rule="evenodd" d="M411.599 306.8C411.599 310 411.599 313.2 411.599 316.4C409.315 317.878 406.915 319.212 404.399 320.4C369.469 340.408 334.269 360.274 298.799 380C289.45 381.499 280.117 381.366 270.799 379.6C268.924 379.248 267.324 378.448 265.999 377.2C266.021 372.759 266.554 368.493 267.599 364.4C267.599 367.066 267.599 369.734 267.599 372.4C272.156 372.358 276.689 372.624 281.199 373.2C287.667 375.39 294.067 375.124 300.399 372.4C301.821 371.52 303.421 370.853 305.199 370.4C305.904 369.834 306.437 369.166 306.799 368.4C307.897 368.526 308.965 368.392 309.999 368C315.523 364.845 320.857 361.512 325.999 358C326.265 358 326.533 358 326.799 358C333.046 355.545 338.646 352.078 343.599 347.6C346.265 346 348.933 344.4 351.599 342.8C355.057 341.338 358.523 339.872 361.999 338.4C364.997 336.27 367.931 334.27 370.799 332.4C372.843 330.949 374.977 329.615 377.199 328.4C381.517 327.281 385.25 325.147 388.399 322C389.803 320.877 391.403 320.077 393.199 319.6C397.879 317.586 402.145 314.918 405.999 311.6C407.257 310.65 408.59 309.85 409.999 309.2C410.533 308.4 411.065 307.6 411.599 306.8Z" fill="#597CF5"/>
<path fill-rule="evenodd" clip-rule="evenodd" d="M370.8 332.4C367.932 334.27 364.998 336.27 362 338.4C358.524 339.872 355.057 341.338 351.6 342.8C357.212 338.15 363.612 334.683 370.8 332.4Z" fill="#9BB6FB"/>
<path fill-rule="evenodd" clip-rule="evenodd" d="M79.5994 338.8C82.5162 342.358 86.2498 344.891 90.7994 346.4C97.7274 346.8 104.661 346.933 111.599 346.8C111.599 348.134 111.599 349.466 111.599 350.8C110.533 350.8 109.466 350.8 108.399 350.8C98.5042 349.861 88.637 348.661 78.7994 347.2C77.8903 346.284 77.0903 345.35 76.3994 344.4C78.1637 342.91 79.2304 341.042 79.5994 338.8Z" fill="#C7D9FC"/>
<path fill-rule="evenodd" clip-rule="evenodd" d="M125.199 340.4C131.599 340.4 137.999 340.4 144.399 340.4C144.006 344.259 143.472 347.992 142.799 351.6C142.799 350.267 142.799 348.934 142.799 347.6C136.933 347.6 131.066 347.6 125.199 347.6C125.199 345.2 125.199 342.8 125.199 340.4Z" fill="#99B8F9"/>
<path fill-rule="evenodd" clip-rule="evenodd" d="M125.199 347.6C131.066 347.6 136.933 347.6 142.799 347.6C142.799 348.934 142.799 350.266 142.799 351.6C142.799 352.934 142.799 354.266 142.799 355.6C139.904 355.005 136.971 354.738 133.999 354.8C131.066 354.266 128.133 353.734 125.199 353.2C125.199 351.334 125.199 349.466 125.199 347.6Z" fill="#C8DAFC"/>
<path fill-rule="evenodd" clip-rule="evenodd" d="M76.3994 344.4C77.0903 345.35 77.8903 346.284 78.7994 347.2C88.637 348.661 98.5042 349.861 108.399 350.8C109.254 351.547 110.32 351.814 111.599 351.6C111.599 353.734 111.599 355.866 111.599 358C109.999 358 108.399 358 106.799 358C106.266 358 105.733 358 105.199 358C102.809 356.688 100.143 356.021 97.1994 356C98.8858 355.712 100.486 355.178 101.999 354.4C93.4762 355.58 84.9426 355.18 76.3994 353.2C76.3994 350.266 76.3994 347.334 76.3994 344.4Z" fill="#5479F5"/>
<path fill-rule="evenodd" clip-rule="evenodd" d="M125.199 340.4C125.199 342.8 125.199 345.2 125.199 347.6C125.199 349.466 125.199 351.334 125.199 353.2C124.431 354.612 124.163 356.212 124.399 358C123.609 353.888 123.343 349.621 123.599 345.2C124.133 343.6 124.666 342 125.199 340.4Z" fill="#7F9CF4"/>
<path fill-rule="evenodd" clip-rule="evenodd" d="M404.4 320.4C402.983 326.429 399.916 331.496 395.2 335.6C394.933 336.934 394.666 338.266 394.4 339.6C389.749 345.687 385.483 352.087 381.6 358.8C379.297 360.834 377.297 363.102 375.6 365.6C374.841 365.986 374.041 366.119 373.2 366C373.289 366.494 373.555 366.894 374 367.2C366.617 374.75 358.885 381.95 350.8 388.8C341.893 394.843 332.827 400.443 323.6 405.6C315.319 408.63 307.053 411.83 298.8 415.2C286.87 417.844 274.87 420.11 262.8 422C263.409 407.791 264.743 393.658 266.8 379.6C268.133 379.6 269.466 379.6 270.8 379.6C280.117 381.366 289.451 381.499 298.8 380C334.269 360.274 369.469 340.408 404.4 320.4Z" fill="#C9DBFB"/>
<path fill-rule="evenodd" clip-rule="evenodd" d="M169.999 324.4C170.799 324.4 171.599 324.4 172.399 324.4C173.972 327.955 174.372 331.688 173.599 335.6C171.498 343.359 169.498 351.091 167.599 358.8C166.805 358.938 166.273 358.671 165.999 358C167.752 351.007 169.752 344.074 171.999 337.2C172.533 333.734 172.533 330.267 171.999 326.8C171.163 326.102 170.497 325.302 169.999 324.4Z" fill="#A0AAC2"/>
<path fill-rule="evenodd" clip-rule="evenodd" d="M343.599 347.6C338.646 352.078 333.046 355.545 326.799 358C326.73 357.203 326.997 356.537 327.599 356C332.853 352.974 338.186 350.174 343.599 347.6Z" fill="#83A3F7"/>
<path fill-rule="evenodd" clip-rule="evenodd" d="M76.3994 353.2C84.9426 355.18 93.4762 355.58 101.999 354.4C100.486 355.178 98.8858 355.712 97.1994 356C100.143 356.021 102.809 356.688 105.199 358C103.311 357.861 101.444 357.594 99.5994 357.2C93.4802 356.469 87.3466 355.802 81.1994 355.2C79.2203 355.17 77.6203 354.504 76.3994 353.2Z" fill="#6985EE"/>
<path fill-rule="evenodd" clip-rule="evenodd" d="M134 354.8C136.972 354.738 139.905 355.005 142.8 355.6C142.977 357.823 142.711 359.957 142 362C139.167 362.25 136.5 361.983 134 361.2C132.025 360.546 129.892 360.146 127.6 360C126.862 358.367 126.595 356.634 126.8 354.8C129.2 354.8 131.6 354.8 134 354.8Z" fill="#5578F4"/>
<path fill-rule="evenodd" clip-rule="evenodd" d="M166 358C166.273 358.67 166.806 358.938 167.6 358.8C168.662 361.198 169.729 363.598 170.8 366C168.133 366 165.466 366 162.8 366C163.413 363.081 164.48 360.414 166 358Z" fill="#516DD2"/>
<path fill-rule="evenodd" clip-rule="evenodd" d="M125.199 353.2C128.133 353.734 131.066 354.266 133.999 354.8C131.599 354.8 129.199 354.8 126.799 354.8C126.595 356.634 126.861 358.367 127.599 360C129.891 360.146 132.024 360.546 133.999 361.2C131.333 361.2 128.666 361.2 125.999 361.2C126.244 368.955 126.777 376.689 127.599 384.4C128.165 390.517 128.431 396.65 128.399 402.8C128.627 404.332 128.36 405.665 127.599 406.8C126.433 390.541 125.367 374.274 124.399 358C124.163 356.212 124.431 354.612 125.199 353.2Z" fill="#6B85F3"/>
<path fill-rule="evenodd" clip-rule="evenodd" d="M99.5996 357.2C101.444 357.594 103.311 357.861 105.2 358C105.733 358 106.266 358 106.8 358C108.212 358.769 109.812 359.036 111.6 358.8C111.6 362.534 111.6 366.266 111.6 370C107.586 365.721 103.586 361.454 99.5996 357.2Z" fill="#CBDDFC"/>
<path fill-rule="evenodd" clip-rule="evenodd" d="M133.999 361.2C136.499 361.983 139.165 362.25 141.999 362C141.573 371.061 141.306 380.127 141.199 389.2C141.999 389.2 142.799 389.2 143.599 389.2C143.599 390.534 143.599 391.866 143.599 393.2C142.712 393.246 141.912 393.512 141.199 394C136.836 390.614 132.303 387.414 127.599 384.4C126.777 376.689 126.244 368.955 125.999 361.2C128.665 361.2 131.333 361.2 133.999 361.2Z" fill="#C8DAFB"/>
<path fill-rule="evenodd" clip-rule="evenodd" d="M189.199 362C189.199 361.734 189.199 361.466 189.199 361.2C198.591 361.837 207.924 363.037 217.199 364.8C225.742 365.053 234.274 365.053 242.799 364.8C240.618 364.946 238.485 365.346 236.399 366C237.281 366.541 238.081 367.074 238.799 367.6C222.154 366.784 205.621 364.918 189.199 362Z" fill="#B2CAFD"/>
<path fill-rule="evenodd" clip-rule="evenodd" d="M370.799 350.8C371.619 351.118 371.753 351.65 371.199 352.4C356.636 368.559 339.702 381.759 320.399 392C319.491 392.599 318.691 392.466 317.999 391.6C338.218 381.479 355.818 367.879 370.799 350.8Z" fill="#202633"/>
<path fill-rule="evenodd" clip-rule="evenodd" d="M326 358C320.857 361.512 315.524 364.845 310 368C308.965 368.392 307.898 368.526 306.8 368.4C312.469 363.741 318.869 360.274 326 358Z" fill="#8BA9F9"/>
<path fill-rule="evenodd" clip-rule="evenodd" d="M162.799 366C165.466 366 168.133 366 170.799 366C174.416 374.179 177.882 382.445 181.199 390.8C182.72 391.385 184.32 391.385 185.999 390.8C186.266 391.867 186.533 392.934 186.799 394C183.362 395.677 181.896 398.344 182.399 402C184.466 407.475 187.533 412.275 191.599 416.4C185.152 414.2 178.752 411.8 172.399 409.2C172.974 407.891 173.106 406.558 172.799 405.2C171.333 403.734 169.866 402.267 168.399 400.8C163.28 397.448 158.214 394.115 153.199 390.8C153.199 390.267 153.199 389.734 153.199 389.2C154.756 387.718 155.956 385.851 156.799 383.6C158.723 377.694 160.723 371.827 162.799 366Z" fill="#C7D9F8"/>
<path fill-rule="evenodd" clip-rule="evenodd" d="M189.199 362C205.621 364.918 222.154 366.784 238.799 367.6C240.853 368.38 242.986 368.914 245.199 369.2C249.014 370.311 253.014 370.845 257.199 370.8C257.199 372.934 257.199 375.067 257.199 377.2C257.199 379.334 257.199 381.467 257.199 383.6C256.452 382.746 256.185 381.679 256.399 380.4C256.399 379.334 256.399 378.267 256.399 377.2C234.522 374.608 212.656 371.942 190.799 369.2C190.141 366.831 189.607 364.431 189.199 362Z" fill="#587CF5"/>
<path fill-rule="evenodd" clip-rule="evenodd" d="M245.199 369.2C249.199 369.2 253.199 369.2 257.199 369.2C257.199 369.734 257.199 370.266 257.199 370.8C253.014 370.845 249.014 370.311 245.199 369.2Z" fill="#8DAFF9"/>
<path fill-rule="evenodd" clip-rule="evenodd" d="M190.8 369.2C212.657 371.942 234.523 374.608 256.4 377.2C256.4 378.266 256.4 379.334 256.4 380.4C255.09 394.126 254.023 407.993 253.2 422C256.133 422 259.066 422 262 422C245.558 423.176 229.025 422.776 212.4 420.8C210.416 420.032 208.416 419.366 206.4 418.8C206.177 419.533 205.777 420.066 205.2 420.4C204.641 411.922 202.374 403.922 198.4 396.4C197.747 395.342 196.813 394.809 195.6 394.8C194.889 392.757 194.623 390.623 194.8 388.4C193.812 381.945 192.479 375.545 190.8 369.2Z" fill="#C9DCFD"/>
<path fill-rule="evenodd" clip-rule="evenodd" d="M300.399 372.4C294.067 375.124 287.667 375.391 281.199 373.2C287.622 373.325 294.022 373.059 300.399 372.4Z" fill="#98B7FA"/>
<path fill-rule="evenodd" clip-rule="evenodd" d="M373.2 366C366.401 372.131 359.467 378.131 352.4 384C351.866 384.534 351.333 384.534 350.8 384C358.929 376.76 366.929 369.96 374.8 363.6C374.245 364.414 373.713 365.214 373.2 366Z" fill="#1F2633"/>
<path fill-rule="evenodd" clip-rule="evenodd" d="M265.999 377.2C267.324 378.448 268.924 379.248 270.799 379.6C269.466 379.6 268.133 379.6 266.799 379.6C264.742 393.658 263.409 407.791 262.799 422C262.533 422 262.266 422 261.999 422C259.066 422 256.133 422 253.199 422C254.022 407.993 255.09 394.126 256.399 380.4C256.185 381.679 256.452 382.746 257.199 383.6C256.466 395.874 255.666 408.142 254.799 420.4C256.933 420.4 259.066 420.4 261.199 420.4C262.279 405.832 263.879 391.432 265.999 377.2Z" fill="#748DF3"/>
<path fill-rule="evenodd" clip-rule="evenodd" d="M143.6 389.2C146.8 389.2 150 389.2 153.2 389.2C153.2 389.734 153.2 390.266 153.2 390.8C149.71 390.693 146.51 391.493 143.6 393.2C143.6 391.866 143.6 390.534 143.6 389.2Z" fill="#4D68D2"/>
<path fill-rule="evenodd" clip-rule="evenodd" d="M193.999 388.4C192.274 389.126 190.407 389.658 188.399 390C188.488 389.506 188.755 389.106 189.199 388.8C190.778 388.404 192.378 388.27 193.999 388.4Z" fill="#29356C"/>
<path fill-rule="evenodd" clip-rule="evenodd" d="M193.999 388.4C194.265 388.4 194.533 388.4 194.799 388.4C194.622 390.623 194.889 392.757 195.599 394.8C194.078 394.747 192.612 395.014 191.199 395.6C189.945 394.515 188.479 393.982 186.799 394C186.533 392.934 186.265 391.867 185.999 390.8C186.566 390.077 187.366 389.811 188.399 390C190.407 389.659 192.273 389.126 193.999 388.4Z" fill="#5674E3"/>
<path fill-rule="evenodd" clip-rule="evenodd" d="M309.199 392.4C314.385 392.589 315.717 394.855 313.199 399.2C310.221 400.25 308.354 399.316 307.599 396.4C307.549 394.789 308.081 393.455 309.199 392.4Z" fill="#232B39"/>
<path fill-rule="evenodd" clip-rule="evenodd" d="M309.199 394C313.739 394.288 314.273 395.888 310.799 398.8C309.373 397.582 308.84 395.982 309.199 394Z" fill="#C0CEE8"/>
<path fill-rule="evenodd" clip-rule="evenodd" d="M153.199 390.8C158.214 394.115 163.28 397.448 168.399 400.8C169.866 402.267 171.333 403.734 172.799 405.2C173.106 406.558 172.974 407.891 172.399 409.2C163.412 411.643 154.612 410.977 145.999 407.2C143.83 406.191 142.097 404.725 140.799 402.8C140.257 399.823 140.39 396.89 141.199 394C141.912 393.512 142.712 393.246 143.599 393.2C146.51 391.493 149.71 390.693 153.199 390.8Z" fill="#28292D"/>
<path fill-rule="evenodd" clip-rule="evenodd" d="M149.199 391.6C152.339 392.206 155.006 393.673 157.199 396C156.412 397.326 155.612 398.658 154.799 400C155.333 400.534 155.866 400.534 156.399 400C157.043 398.583 157.976 397.383 159.199 396.4C159.753 396.82 160.153 397.354 160.399 398C159.1 399.095 158.7 400.429 159.199 402C160.067 401.068 160.733 400.002 161.199 398.8C161.601 397.983 162.134 397.85 162.799 398.4C165.673 400.57 168.473 402.838 171.199 405.2C171.591 406.234 171.725 407.302 171.599 408.4C162.109 410.298 153.043 409.098 144.399 404.8C142.057 402.194 141.39 399.127 142.399 395.6C144.055 394.989 145.788 394.589 147.599 394.4C148.243 393.51 148.777 392.577 149.199 391.6Z" fill="#EDEDED"/>
<path fill-rule="evenodd" clip-rule="evenodd" d="M186.8 394C188.48 393.982 189.947 394.515 191.2 395.6C192.613 395.014 194.079 394.746 195.6 394.8C196.814 394.809 197.747 395.342 198.4 396.4C202.375 403.922 204.641 411.922 205.2 420.4C205.269 421.197 205.002 421.863 204.4 422.4C202.8 422.934 201.2 422.934 199.6 422.4C196.579 420.842 193.912 418.842 191.6 416.4C187.534 412.274 184.467 407.474 182.4 402C181.897 398.344 183.363 395.677 186.8 394Z" fill="#24262B"/>
<path fill-rule="evenodd" clip-rule="evenodd" d="M185.999 395.6C187.861 395.398 189.461 395.931 190.799 397.2C192.505 395.906 194.371 395.506 196.399 396C197.677 398.022 198.743 400.155 199.599 402.4C198.298 403.855 196.698 404.922 194.799 405.6C196.987 405.442 199.12 405.575 201.199 406C199.742 407.208 198.142 408.274 196.399 409.2C196.666 409.466 196.933 409.734 197.199 410C198.658 409.002 200.258 408.469 201.999 408.4C203.343 412.582 204.01 416.848 203.999 421.2C203.55 421.618 203.017 421.884 202.399 422C193.83 417.963 187.696 411.563 183.999 402.8C183.141 399.92 183.807 397.52 185.999 395.6Z" fill="#EEEDED"/>
<path fill-rule="evenodd" clip-rule="evenodd" d="M185.199 400.4C188.338 406.097 192.338 411.297 197.199 416C199.11 417.489 201.242 418.555 203.599 419.2C201.264 419.642 199.13 419.108 197.199 417.6C191.756 412.832 187.756 407.099 185.199 400.4Z" fill="#252526"/>
<path fill-rule="evenodd" clip-rule="evenodd" d="M144.399 402.8C144.587 402.322 144.987 402.056 145.599 402C153.551 406.178 161.683 407.511 169.999 406C161.068 408.77 152.535 407.704 144.399 402.8Z" fill="#2A2A2A"/>
<path fill-rule="evenodd" clip-rule="evenodd" d="M128.399 402.8C129.146 403.654 129.414 404.721 129.199 406C134.339 405.704 139.406 406.104 144.399 407.2C149.337 409.469 152.004 413.336 152.399 418.8C144.933 418.8 137.466 418.8 129.999 418.8C129.718 415.453 129.185 412.253 128.399 409.2C127.676 408.633 127.41 407.833 127.599 406.8C128.36 405.665 128.626 404.332 128.399 402.8Z" fill="#9BBAFB"/>
<path fill-rule="evenodd" clip-rule="evenodd" d="M115.6 358C118.045 378.387 120.179 398.92 122 419.6C124.133 419.6 126.266 419.6 128.4 419.6C128.4 416.134 128.4 412.666 128.4 409.2C129.185 412.253 129.719 415.453 130 418.8C130 419.6 130 420.4 130 421.2C126.68 421.664 123.747 421.131 121.2 419.6C118.61 401.281 116.744 382.881 115.6 364.4C115.6 362.266 115.6 360.134 115.6 358Z" fill="#718AF4"/>
</svg>
