<svg width="605" height="605" viewBox="0 0 605 605" fill="none" xmlns="http://www.w3.org/2000/svg">
<path opacity="0.7" d="M82.1671 202.107C82.1671 202.107 48.4471 289.184 95.8319 376.898C143.217 464.613 240.838 510.924 318.966 550.534C397.094 590.143 478.223 570.854 516.776 505.975C555.33 441.095 502.449 394.778 502.386 302.256C502.324 209.734 516.232 185.237 466.142 107.07C416.053 28.9022 293.098 11.6025 200.151 69.5774C107.206 127.552 82.1671 202.107 82.1671 202.107Z" fill="white"/>
<path d="M502.386 314.353C502.324 221.831 516.232 197.334 466.143 119.167C416.053 40.9994 293.098 23.6997 200.151 81.6746C107.205 139.65 82.1671 214.204 82.1671 214.204C82.1671 214.204 48.447 301.281 95.8319 388.995C139.168 469.217 224.522 514.805 298.557 552.309H487.844C499.035 542.917 508.816 531.469 516.778 518.072C555.33 453.192 502.449 406.874 502.386 314.353Z" fill="#92E3A9"/>
<path opacity="0.7" d="M502.386 314.353C502.324 221.831 516.232 197.334 466.143 119.167C416.053 40.9994 293.098 23.6997 200.151 81.6746C107.205 139.65 82.1671 214.204 82.1671 214.204C82.1671 214.204 48.447 301.281 95.8319 388.995C139.168 469.217 224.522 514.805 298.557 552.309H487.844C499.035 542.917 508.816 531.469 516.778 518.072C555.33 453.192 502.449 406.874 502.386 314.353Z" fill="white"/>
<path d="M277.957 61.3486C279.591 67.8224 278.787 55.9054 281.991 41.3261C285.196 26.7456 290.683 32.6593 290.683 32.6593" stroke="#263238" stroke-width="1.2096" stroke-miterlimit="10" stroke-linecap="round" stroke-linejoin="round"/>
<path d="M276.951 46.4536L286.997 42.3337" stroke="#263238" stroke-width="1.2096" stroke-miterlimit="10" stroke-linecap="round" stroke-linejoin="round"/>
<path d="M295.303 37.3961C295.303 37.3961 289.298 49.8126 298.35 55.0913" stroke="#263238" stroke-width="1.2096" stroke-miterlimit="10" stroke-linecap="round" stroke-linejoin="round"/>
<path d="M303.823 33.904C303.823 33.904 313.735 39.4101 307.526 51.3307" stroke="#263238" stroke-width="1.2096" stroke-miterlimit="10" stroke-linecap="round" stroke-linejoin="round"/>
<path d="M297.027 41.6031L304.129 46.7886" stroke="#263238" stroke-width="1.2096" stroke-miterlimit="10" stroke-linecap="round" stroke-linejoin="round"/>
<path d="M302.599 39.3181L297.042 48.164" stroke="#263238" stroke-width="1.2096" stroke-miterlimit="10" stroke-linecap="round" stroke-linejoin="round"/>
<path d="M86.2494 353.713C86.2494 353.713 69.4009 353.463 69.3779 368.01" stroke="#263238" stroke-width="1.2096" stroke-miterlimit="10" stroke-linecap="round" stroke-linejoin="round"/>
<path d="M84.8553 362.868C84.5033 360.729 77.1646 358.079 75.8994 363.624C74.6329 369.168 83.7364 365.852 86.556 363.243C86.556 363.243 81.3353 368.327 82.9756 369.758" stroke="#263238" stroke-width="1.2096" stroke-miterlimit="10" stroke-linecap="round" stroke-linejoin="round"/>
<path d="M85.9037 371.365C85.9037 371.365 83.6841 374.141 81.2891 372.824" stroke="#263238" stroke-width="1.2096" stroke-miterlimit="10" stroke-linecap="round" stroke-linejoin="round"/>
<path d="M100.625 361.615L87.9912 374.51C87.9912 374.51 94.309 368.063 98.0357 370.111C102.627 372.636 96.6725 379.528 91.7627 374.585" stroke="#263238" stroke-width="1.2096" stroke-miterlimit="10" stroke-linecap="round" stroke-linejoin="round"/>
<path d="M107.013 365.126C107.013 365.126 110.358 380.483 93.0703 381.033" stroke="#263238" stroke-width="1.2096" stroke-miterlimit="10" stroke-linecap="round" stroke-linejoin="round"/>
<path d="M332.678 104.187L338.77 105.188L338.86 119.04L352.209 94.6839L373.276 98.1506" stroke="#263238" stroke-width="1.2096" stroke-miterlimit="10" stroke-linecap="round" stroke-linejoin="round"/>
<path d="M354.521 105.35L363.791 121.708" stroke="#263238" stroke-width="1.2096" stroke-miterlimit="10" stroke-linecap="round" stroke-linejoin="round"/>
<path d="M366.165 107.266L349.583 119.369" stroke="#263238" stroke-width="1.2096" stroke-miterlimit="10" stroke-linecap="round" stroke-linejoin="round"/>
<path d="M249.371 128.833C247.811 126.847 238.827 128.26 240.648 134.633C242.467 141.007 249.902 132.509 251.319 128.26C251.319 128.26 248.84 136.384 251.319 136.924" stroke="#263238" stroke-width="1.2096" stroke-miterlimit="10" stroke-linecap="round" stroke-linejoin="round"/>
<path d="M256.256 122.294L254.247 129.48C254.247 129.48 255.251 125.888 257.01 125.888C259.175 125.888 258.391 129.57 255.628 128.757" stroke="#263238" stroke-width="1.2096" stroke-miterlimit="10" stroke-linecap="round" stroke-linejoin="round"/>
<path d="M425.691 210.259L421.454 225.56L430.716 235.687" stroke="#263238" stroke-width="1.2096" stroke-miterlimit="10" stroke-linecap="round" stroke-linejoin="round"/>
<path d="M430.989 216.475L441.593 225.341" stroke="#263238" stroke-width="1.2096" stroke-miterlimit="10" stroke-linecap="round" stroke-linejoin="round"/>
<path d="M438.288 214.292L433.701 225.551" stroke="#263238" stroke-width="1.2096" stroke-miterlimit="10" stroke-linecap="round" stroke-linejoin="round"/>
<path d="M445.737 224.103C445.737 224.103 445.833 227.298 444.451 227.711" stroke="#263238" stroke-width="1.2096" stroke-miterlimit="10" stroke-linecap="round" stroke-linejoin="round"/>
<path d="M447.085 212.951L453.475 217.704" stroke="#263238" stroke-width="1.2096" stroke-miterlimit="10" stroke-linecap="round" stroke-linejoin="round"/>
<path d="M455.855 209.04L449.538 231.779" stroke="#263238" stroke-width="1.2096" stroke-miterlimit="10" stroke-linecap="round" stroke-linejoin="round"/>
<path d="M456.161 201.147L466.42 212.759L462.049 225.459" stroke="#263238" stroke-width="1.2096" stroke-miterlimit="10" stroke-linecap="round" stroke-linejoin="round"/>
<path d="M173.673 500.785L188.509 456.614L206.509 476.702L173.673 500.785Z" stroke="#263238" stroke-width="1.2096" stroke-miterlimit="10" stroke-linecap="round" stroke-linejoin="round"/>
<path d="M202.102 479.934L198.302 475.587L202.349 472.079" stroke="#263238" stroke-width="1.2096" stroke-miterlimit="10" stroke-linecap="round" stroke-linejoin="round"/>
<path d="M85.9489 252.605C93.6603 249.411 97.3221 240.57 94.1279 232.858C90.9337 225.147 82.093 221.485 74.3816 224.679C66.6702 227.874 63.0084 236.714 66.2026 244.426C69.3968 252.137 78.2375 255.799 85.9489 252.605Z" stroke="#263238" stroke-width="1.2096" stroke-miterlimit="10" stroke-linecap="round" stroke-linejoin="round"/>
<path d="M96.9291 242.181C106.191 242.181 113.699 234.673 113.699 225.411C113.699 216.15 106.191 208.642 96.9291 208.642C87.6673 208.642 80.1592 216.15 80.1592 225.411C80.1592 234.673 87.6673 242.181 96.9291 242.181Z" stroke="#263238" stroke-width="1.2096" stroke-miterlimit="10" stroke-linecap="round" stroke-linejoin="round"/>
<path d="M83.135 223.82L81.0908 230.93" stroke="#263238" stroke-width="1.2096" stroke-miterlimit="10" stroke-linecap="round" stroke-linejoin="round"/>
<path d="M86.0337 224.71L83.1367 234.944" stroke="#263238" stroke-width="1.2096" stroke-miterlimit="10" stroke-linecap="round" stroke-linejoin="round"/>
<path d="M89.0574 226.425L86.0322 237.997" stroke="#263238" stroke-width="1.2096" stroke-miterlimit="10" stroke-linecap="round" stroke-linejoin="round"/>
<path d="M92.4345 229.826L90.2754 240.806" stroke="#263238" stroke-width="1.2096" stroke-miterlimit="10" stroke-linecap="round" stroke-linejoin="round"/>
<path d="M94.3392 233.404L92.4316 241.567" stroke="#263238" stroke-width="1.2096" stroke-miterlimit="10" stroke-linecap="round" stroke-linejoin="round"/>
<path d="M65.7216 219.282C64.3983 218.872 60.7852 222.308 63.5915 224.617C66.3978 226.926 67.1066 220.775 66.4219 218.416C66.4219 218.416 67.8336 222.854 69.1206 222.327" stroke="#263238" stroke-width="1.2096" stroke-miterlimit="10" stroke-linecap="round" stroke-linejoin="round"/>
<path d="M85.2168 199.882L90.0238 208.691C90.0238 208.691 87.6203 204.286 89.3137 202.637C91.4003 200.605 94.0989 204.889 90.6757 206.698" stroke="#263238" stroke-width="1.2096" stroke-miterlimit="10" stroke-linecap="round" stroke-linejoin="round"/>
<path d="M173.624 198.838L180.458 205.304" stroke="#263238" stroke-width="1.2096" stroke-miterlimit="10" stroke-linecap="round" stroke-linejoin="round"/>
<path d="M180.459 197.148L174.736 205.696" stroke="#263238" stroke-width="1.2096" stroke-miterlimit="10" stroke-linecap="round" stroke-linejoin="round"/>
<path d="M187.181 199.602L194.016 197.061" stroke="#263238" stroke-width="1.2096" stroke-miterlimit="10" stroke-linecap="round" stroke-linejoin="round"/>
<path d="M197.295 189.933L201.452 193.612" stroke="#263238" stroke-width="1.2096" stroke-miterlimit="10" stroke-linecap="round" stroke-linejoin="round"/>
<path d="M204.639 185.509L199.374 203.579" stroke="#263238" stroke-width="1.2096" stroke-miterlimit="10" stroke-linecap="round" stroke-linejoin="round"/>
<path d="M503.357 181.873L503.076 168.064H513.513C513.513 168.064 507.729 171.25 510.385 178.686C513.04 186.121 517.335 181.872 517.335 181.872" stroke="#263238" stroke-width="1.2096" stroke-miterlimit="10" stroke-linecap="round" stroke-linejoin="round"/>
<path d="M485.675 417.514L497.551 409.343L513.279 410.445L514.262 430.381L502.718 438.635L488.471 437.597L485.675 417.514Z" stroke="#263238" stroke-width="1.2096" stroke-miterlimit="10" stroke-linecap="round" stroke-linejoin="round"/>
<path d="M488.471 437.597L499.968 429.319L514.262 430.381" stroke="#263238" stroke-width="1.2096" stroke-miterlimit="10" stroke-linecap="round" stroke-linejoin="round"/>
<path d="M499.969 429.319L497.551 409.343" stroke="#263238" stroke-width="1.2096" stroke-miterlimit="10" stroke-linecap="round" stroke-linejoin="round"/>
<path d="M485.675 417.514L501.369 419.331L513.279 410.445" stroke="#263238" stroke-width="1.2096" stroke-miterlimit="10" stroke-linecap="round" stroke-linejoin="round"/>
<path d="M501.37 419.331L502.719 438.635" stroke="#263238" stroke-width="1.2096" stroke-miterlimit="10" stroke-linecap="round" stroke-linejoin="round"/>
<path d="M487.836 267.791L487.33 294.373L510.62 283.795L487.836 267.791Z" stroke="#263238" stroke-width="1.2096" stroke-miterlimit="10" stroke-linecap="round" stroke-linejoin="round"/>
<path d="M487.835 267.791L498.932 288.943" stroke="#263238" stroke-width="1.2096" stroke-miterlimit="10" stroke-linecap="round" stroke-linejoin="round"/>
<path d="M497.154 285.553L499.857 284.249L501.666 287.862" stroke="#263238" stroke-width="1.2096" stroke-miterlimit="10" stroke-linecap="round" stroke-linejoin="round"/>
<path d="M284.823 265.274L294.452 275.593" stroke="#263238" stroke-width="1.2096" stroke-miterlimit="10" stroke-linecap="round" stroke-linejoin="round"/>
<path d="M294.531 263.886L286.438 274.963" stroke="#263238" stroke-width="1.2096" stroke-miterlimit="10" stroke-linecap="round" stroke-linejoin="round"/>
<path d="M298.463 258.483C298.463 258.483 300.706 257.613 301.178 259.933C301.649 262.253 297.838 265.275 297.838 265.275H303.274" stroke="#263238" stroke-width="1.2096" stroke-miterlimit="10" stroke-linecap="round" stroke-linejoin="round"/>
<path d="M134.913 110.681C135.9 98.326 143.179 87.9815 153.355 82.5432" stroke="#263238" stroke-width="1.2096" stroke-miterlimit="10" stroke-linecap="round" stroke-linejoin="round"/>
<path d="M161.667 147.553C152.657 145.402 145.097 139.813 140.315 132.342" stroke="#263238" stroke-width="1.2096" stroke-miterlimit="10" stroke-linecap="round" stroke-linejoin="round"/>
<path d="M204.783 116.26C203.242 135.554 186.353 149.946 167.06 148.405" stroke="#263238" stroke-width="1.2096" stroke-miterlimit="10" stroke-linecap="round" stroke-linejoin="round"/>
<path d="M172.636 78.5345C189.358 79.8699 202.399 92.7365 204.574 108.706" stroke="#263238" stroke-width="1.2096" stroke-miterlimit="10" stroke-linecap="round" stroke-linejoin="round"/>
<path d="M184.966 140.446C179.797 143.349 173.741 144.799 167.388 144.292C150.365 142.932 137.668 128.033 139.027 111.01" stroke="#263238" stroke-width="1.2096" stroke-miterlimit="10" stroke-linecap="round" stroke-linejoin="round"/>
<path d="M140.993 102.343C145.788 89.8927 158.334 81.5332 172.311 82.6484C189.334 84.008 202.031 98.9079 200.671 115.931C200.112 122.931 197.264 129.199 192.92 134.059" stroke="#263238" stroke-width="1.2096" stroke-miterlimit="10" stroke-linecap="round" stroke-linejoin="round"/>
<path d="M166.813 91.2197L169.848 113.47L186.958 108.154" stroke="#263238" stroke-width="1.2096" stroke-miterlimit="10" stroke-linecap="round" stroke-linejoin="round"/>
<path d="M436.54 156.728C426.45 156.824 416.966 150.567 413.428 140.518C410.091 131.04 412.992 120.878 419.982 114.513" stroke="#263238" stroke-width="1.2096" stroke-miterlimit="10" stroke-linecap="round" stroke-linejoin="round"/>
<path d="M459.275 140.291C456.955 147.08 451.661 152.779 444.368 155.345" stroke="#263238" stroke-width="1.2096" stroke-miterlimit="10" stroke-linecap="round" stroke-linejoin="round"/>
<path d="M428.256 109.579C440.894 105.13 454.746 111.768 459.195 124.406" stroke="#263238" stroke-width="1.2096" stroke-miterlimit="10" stroke-linecap="round" stroke-linejoin="round"/>
<path d="M448.289 114.723C451.969 117.204 454.912 120.846 456.499 125.355C460.424 136.505 454.567 148.725 443.417 152.65C435.055 155.595 426.09 153.036 420.475 146.869" stroke="#263238" stroke-width="1.2096" stroke-miterlimit="10" stroke-linecap="round" stroke-linejoin="round"/>
<path d="M416.124 139.57C412.198 128.42 418.055 116.199 429.205 112.274C433.387 110.802 437.719 110.705 441.707 111.748" stroke="#263238" stroke-width="1.2096" stroke-miterlimit="10" stroke-linecap="round" stroke-linejoin="round"/>
<path d="M428.137 119.241L436.311 132.462L428.86 142.134" stroke="#263238" stroke-width="1.2096" stroke-miterlimit="10" stroke-linecap="round" stroke-linejoin="round"/>
<path d="M264.863 494.036C264.863 487.333 268.253 481.423 273.41 477.924" stroke="#263238" stroke-width="1.2096" stroke-miterlimit="10" stroke-linecap="round" stroke-linejoin="round"/>
<path d="M298.423 507.439C294.879 511.167 289.871 513.491 284.32 513.491C275.767 513.491 268.503 507.973 265.896 500.302" stroke="#263238" stroke-width="1.2096" stroke-miterlimit="10" stroke-linecap="round" stroke-linejoin="round"/>
<path d="M284.319 474.578C295.065 474.578 303.776 483.29 303.776 494.035" stroke="#263238" stroke-width="1.2096" stroke-miterlimit="10" stroke-linecap="round" stroke-linejoin="round"/>
<path d="M284.318 511.201C274.837 511.201 267.152 503.515 267.152 494.036" stroke="#263238" stroke-width="1.2096" stroke-miterlimit="10" stroke-linecap="round" stroke-linejoin="round"/>
<path d="M270.952 483.266C274.098 479.365 278.917 476.87 284.319 476.87C293.8 476.87 301.485 484.556 301.485 494.036C301.485 500.485 297.929 506.104 292.669 509.037" stroke="#263238" stroke-width="1.2096" stroke-miterlimit="10" stroke-linecap="round" stroke-linejoin="round"/>
<path d="M281.655 505.702L284.319 494.036L280.597 484.501" stroke="#263238" stroke-width="1.2096" stroke-miterlimit="10" stroke-linecap="round" stroke-linejoin="round"/>
<path d="M57.7158 552.727H547.086" stroke="#263238" stroke-width="1.2096" stroke-miterlimit="10" stroke-linecap="round" stroke-linejoin="round"/>
<path d="M306.015 297.654L298.046 449.431L197.059 444.124L197.899 428.038L205.027 292.347L268.619 295.686L306.015 297.654Z" fill="white"/>
<mask id="mask0_470_37" style="mask-type:luminance" maskUnits="userSpaceOnUse" x="197" y="292" width="110" height="158">
<path d="M306.014 297.654L298.045 449.431L197.058 444.124L197.898 428.038L205.026 292.347L268.618 295.686L306.014 297.654Z" fill="white"/>
</mask>
<g mask="url(#mask0_470_37)">
<path opacity="0.2" d="M274.495 386.575L251.743 388.451L258.38 417.106L197.897 428.038L205.026 292.347L268.617 295.685L274.495 386.575Z" fill="black" fill-opacity="0.7"/>
</g>
<path d="M306.015 297.654L298.046 449.43L197.059 444.124L197.899 428.038L205.027 292.347L268.619 295.686L306.015 297.654Z" stroke="#263238" stroke-width="1.2096" stroke-miterlimit="10" stroke-linecap="round" stroke-linejoin="round"/>
<path d="M212.159 302.73L238.438 304.11" stroke="#263238" stroke-width="2.4192" stroke-miterlimit="10" stroke-linecap="round" stroke-linejoin="round"/>
<path d="M211.894 307.775L229.763 308.714" stroke="#263238" stroke-width="2.4192" stroke-miterlimit="10" stroke-linecap="round" stroke-linejoin="round"/>
<path d="M217.67 320.021L293.263 323.993" stroke="#263238" stroke-width="2.4192" stroke-miterlimit="10" stroke-linecap="round" stroke-linejoin="round"/>
<path d="M217.407 325.067L293 329.038" stroke="#263238" stroke-width="2.4192" stroke-miterlimit="10" stroke-linecap="round" stroke-linejoin="round"/>
<path d="M217.098 330.953L281.569 334.339" stroke="#263238" stroke-width="2.4192" stroke-miterlimit="10" stroke-linecap="round" stroke-linejoin="round"/>
<path d="M223.277 336.651L217.123 336.327L216.8 342.481L222.954 342.804L223.277 336.651Z" stroke="#263238" stroke-width="1.2096" stroke-miterlimit="10" stroke-linecap="round" stroke-linejoin="round"/>
<path d="M234.423 337.237L228.269 336.913L227.945 343.068L234.099 343.391L234.423 337.237Z" stroke="#263238" stroke-width="1.2096" stroke-miterlimit="10" stroke-linecap="round" stroke-linejoin="round"/>
<path d="M245.592 337.802L239.438 337.479L239.115 343.633L245.269 343.956L245.592 337.802Z" stroke="#263238" stroke-width="1.2096" stroke-miterlimit="10" stroke-linecap="round" stroke-linejoin="round"/>
<path d="M256.737 338.387L250.583 338.064L250.26 344.218L256.414 344.541L256.737 338.387Z" stroke="#263238" stroke-width="1.2096" stroke-miterlimit="10" stroke-linecap="round" stroke-linejoin="round"/>
<path d="M213.646 319.811C213.601 320.661 212.876 321.313 212.026 321.269C211.177 321.224 210.524 320.499 210.569 319.649C210.613 318.8 211.338 318.147 212.188 318.191C213.039 318.236 213.691 318.961 213.646 319.811Z" fill="#263238"/>
<path d="M216.125 349.451L291.718 353.422" stroke="#263238" stroke-width="2.4192" stroke-miterlimit="10" stroke-linecap="round" stroke-linejoin="round"/>
<path d="M215.862 354.496L291.455 358.467" stroke="#263238" stroke-width="2.4192" stroke-miterlimit="10" stroke-linecap="round" stroke-linejoin="round"/>
<path d="M215.553 360.382L280.024 363.769" stroke="#263238" stroke-width="2.4192" stroke-miterlimit="10" stroke-linecap="round" stroke-linejoin="round"/>
<path d="M221.758 366.061L215.604 365.738L215.281 371.893L221.435 372.216L221.758 366.061Z" stroke="#263238" stroke-width="1.2096" stroke-miterlimit="10" stroke-linecap="round" stroke-linejoin="round"/>
<path d="M232.899 366.646L226.745 366.323L226.422 372.478L232.576 372.8L232.899 366.646Z" stroke="#263238" stroke-width="1.2096" stroke-miterlimit="10" stroke-linecap="round" stroke-linejoin="round"/>
<path d="M244.043 367.231L237.889 366.908L237.566 373.062L243.72 373.385L244.043 367.231Z" stroke="#263238" stroke-width="1.2096" stroke-miterlimit="10" stroke-linecap="round" stroke-linejoin="round"/>
<path d="M255.188 367.816L249.034 367.493L248.711 373.647L254.866 373.97L255.188 367.816Z" stroke="#263238" stroke-width="1.2096" stroke-miterlimit="10" stroke-linecap="round" stroke-linejoin="round"/>
<path d="M212.103 349.241C212.058 350.09 211.334 350.743 210.483 350.698C209.634 350.653 208.981 349.929 209.026 349.078C209.07 348.229 209.795 347.576 210.645 347.621C211.494 347.666 212.148 348.39 212.103 349.241Z" fill="#263238"/>
<path d="M214.579 378.881L290.172 382.85" stroke="#263238" stroke-width="2.4192" stroke-miterlimit="10" stroke-linecap="round" stroke-linejoin="round"/>
<path d="M214.316 383.926L289.909 387.896" stroke="#263238" stroke-width="2.4192" stroke-miterlimit="10" stroke-linecap="round" stroke-linejoin="round"/>
<path d="M214.007 389.812L278.478 393.199" stroke="#263238" stroke-width="2.4192" stroke-miterlimit="10" stroke-linecap="round" stroke-linejoin="round"/>
<path d="M220.184 395.508L214.029 395.185L213.706 401.339L219.86 401.663L220.184 395.508Z" stroke="#263238" stroke-width="1.2096" stroke-miterlimit="10" stroke-linecap="round" stroke-linejoin="round"/>
<path d="M231.328 396.094L225.174 395.771L224.85 401.925L231.005 402.249L231.328 396.094Z" stroke="#263238" stroke-width="1.2096" stroke-miterlimit="10" stroke-linecap="round" stroke-linejoin="round"/>
<path d="M242.501 396.66L236.347 396.337L236.024 402.491L242.178 402.814L242.501 396.66Z" stroke="#263238" stroke-width="1.2096" stroke-miterlimit="10" stroke-linecap="round" stroke-linejoin="round"/>
<path d="M253.612 397.266L247.458 396.942L247.135 403.095L253.289 403.419L253.612 397.266Z" stroke="#263238" stroke-width="1.2096" stroke-miterlimit="10" stroke-linecap="round" stroke-linejoin="round"/>
<path d="M210.555 378.669C210.51 379.518 209.786 380.171 208.935 380.126C208.086 380.082 207.433 379.357 207.478 378.507C207.523 377.658 208.247 377.004 209.097 377.049C209.947 377.095 210.6 377.82 210.555 378.669Z" fill="#263238"/>
<path d="M212.99 409.151L288.583 413.122" stroke="#263238" stroke-width="2.4192" stroke-miterlimit="10" stroke-linecap="round" stroke-linejoin="round"/>
<path d="M212.725 414.196L288.317 418.167" stroke="#263238" stroke-width="2.4192" stroke-miterlimit="10" stroke-linecap="round" stroke-linejoin="round"/>
<path d="M212.416 420.082L276.889 423.469" stroke="#263238" stroke-width="2.4192" stroke-miterlimit="10" stroke-linecap="round" stroke-linejoin="round"/>
<path d="M218.628 425.76L212.474 425.437L212.151 431.591L218.305 431.914L218.628 425.76Z" stroke="#263238" stroke-width="1.2096" stroke-miterlimit="10" stroke-linecap="round" stroke-linejoin="round"/>
<path d="M229.739 426.364L223.585 426.04L223.261 432.193L229.416 432.517L229.739 426.364Z" stroke="#263238" stroke-width="1.2096" stroke-miterlimit="10" stroke-linecap="round" stroke-linejoin="round"/>
<path d="M240.879 426.949L234.725 426.626L234.401 432.779L240.555 433.103L240.879 426.949Z" stroke="#263238" stroke-width="1.2096" stroke-miterlimit="10" stroke-linecap="round" stroke-linejoin="round"/>
<path d="M252.025 427.535L245.872 427.212L245.549 433.366L251.702 433.689L252.025 427.535Z" stroke="#263238" stroke-width="1.2096" stroke-miterlimit="10" stroke-linecap="round" stroke-linejoin="round"/>
<path d="M208.966 408.939C208.921 409.788 208.197 410.441 207.346 410.397C206.497 410.352 205.844 409.627 205.889 408.777C205.934 407.928 206.658 407.275 207.509 407.319C208.359 407.365 209.011 408.09 208.966 408.939Z" fill="#263238"/>
<path d="M219.219 338.894L220.017 340.27L223.293 336.651" stroke="#263238" stroke-width="2.4192" stroke-miterlimit="10" stroke-linecap="round" stroke-linejoin="round"/>
<path d="M239.98 369.125L240.779 370.502L244.054 366.883" stroke="#263238" stroke-width="2.4192" stroke-miterlimit="10" stroke-linecap="round" stroke-linejoin="round"/>
<path d="M250.394 400.182L251.193 401.557L254.467 397.939" stroke="#263238" stroke-width="2.4192" stroke-miterlimit="10" stroke-linecap="round" stroke-linejoin="round"/>
<path d="M225.719 427.904L226.517 429.281L229.793 425.663" stroke="#263238" stroke-width="2.4192" stroke-miterlimit="10" stroke-linecap="round" stroke-linejoin="round"/>
<path d="M238.913 406.476L141.481 433.552L100.79 287.108L141.13 275.901L198.223 260.041L235.142 392.908L238.913 406.476Z" fill="white"/>
<mask id="mask1_470_37" style="mask-type:luminance" maskUnits="userSpaceOnUse" x="100" y="260" width="139" height="174">
<path d="M238.913 406.476L141.481 433.552L100.79 287.108L141.13 275.901L198.223 260.041L235.142 392.908L238.913 406.476Z" fill="white"/>
</mask>
<g mask="url(#mask1_470_37)">
<path opacity="0.2" d="M235.14 392.908L159.804 397.781L141.129 275.901L198.222 260.041L235.14 392.908Z" fill="black" fill-opacity="0.7"/>
</g>
<path d="M238.913 406.476L141.481 433.552L100.79 287.108L141.13 275.901L198.223 260.041L235.142 392.908L238.913 406.476Z" stroke="#263238" stroke-width="1.2096" stroke-miterlimit="10" stroke-linecap="round" stroke-linejoin="round"/>
<path d="M110.845 294.689L136.198 287.643" stroke="#263238" stroke-width="2.4192" stroke-miterlimit="10" stroke-linecap="round" stroke-linejoin="round"/>
<path d="M112.197 299.556L129.439 294.765" stroke="#263238" stroke-width="2.4192" stroke-miterlimit="10" stroke-linecap="round" stroke-linejoin="round"/>
<path d="M121.567 309.331L194.501 289.064" stroke="#263238" stroke-width="2.4192" stroke-miterlimit="10" stroke-linecap="round" stroke-linejoin="round"/>
<path d="M122.918 314.198L195.852 293.932" stroke="#263238" stroke-width="2.4192" stroke-miterlimit="10" stroke-linecap="round" stroke-linejoin="round"/>
<path d="M124.499 319.876L186.703 302.592" stroke="#263238" stroke-width="2.4192" stroke-miterlimit="10" stroke-linecap="round" stroke-linejoin="round"/>
<path d="M132.174 323.317L126.236 324.967L127.886 330.905L133.824 329.255L132.174 323.317Z" stroke="#263238" stroke-width="1.2096" stroke-miterlimit="10" stroke-linecap="round" stroke-linejoin="round"/>
<path d="M142.932 320.326L136.994 321.975L138.644 327.913L144.582 326.264L142.932 320.326Z" stroke="#263238" stroke-width="1.2096" stroke-miterlimit="10" stroke-linecap="round" stroke-linejoin="round"/>
<path d="M153.683 317.338L147.745 318.988L149.395 324.926L155.333 323.276L153.683 317.338Z" stroke="#263238" stroke-width="1.2096" stroke-miterlimit="10" stroke-linecap="round" stroke-linejoin="round"/>
<path d="M164.436 314.351L158.498 316L160.148 321.937L166.085 320.287L164.436 314.351Z" stroke="#263238" stroke-width="1.2096" stroke-miterlimit="10" stroke-linecap="round" stroke-linejoin="round"/>
<path d="M117.686 310.409C117.913 311.229 117.434 312.078 116.614 312.305C115.794 312.533 114.945 312.054 114.718 311.234C114.49 310.414 114.969 309.564 115.789 309.337C116.609 309.11 117.459 309.59 117.686 310.409Z" fill="#263238"/>
<path d="M129.458 337.724L202.391 317.458" stroke="#263238" stroke-width="2.4192" stroke-miterlimit="10" stroke-linecap="round" stroke-linejoin="round"/>
<path d="M130.811 342.593L203.743 322.326" stroke="#263238" stroke-width="2.4192" stroke-miterlimit="10" stroke-linecap="round" stroke-linejoin="round"/>
<path d="M132.39 348.27L194.593 330.986" stroke="#263238" stroke-width="2.4192" stroke-miterlimit="10" stroke-linecap="round" stroke-linejoin="round"/>
<path d="M140.069 351.709L134.131 353.359L135.781 359.297L141.719 357.647L140.069 351.709Z" stroke="#263238" stroke-width="1.2096" stroke-miterlimit="10" stroke-linecap="round" stroke-linejoin="round"/>
<path d="M150.816 348.724L144.878 350.374L146.528 356.312L152.466 354.662L150.816 348.724Z" stroke="#263238" stroke-width="1.2096" stroke-miterlimit="10" stroke-linecap="round" stroke-linejoin="round"/>
<path d="M161.568 345.737L155.63 347.387L157.28 353.325L163.218 351.675L161.568 345.737Z" stroke="#263238" stroke-width="1.2096" stroke-miterlimit="10" stroke-linecap="round" stroke-linejoin="round"/>
<path d="M172.325 342.745L166.387 344.395L168.037 350.333L173.974 348.683L172.325 342.745Z" stroke="#263238" stroke-width="1.2096" stroke-miterlimit="10" stroke-linecap="round" stroke-linejoin="round"/>
<path d="M125.578 338.803C125.805 339.623 125.326 340.472 124.506 340.7C123.686 340.927 122.837 340.448 122.609 339.628C122.382 338.808 122.862 337.959 123.681 337.731C124.501 337.504 125.35 337.984 125.578 338.803Z" fill="#263238"/>
<path d="M137.35 366.119L210.282 345.852" stroke="#263238" stroke-width="2.4192" stroke-miterlimit="10" stroke-linecap="round" stroke-linejoin="round"/>
<path d="M138.702 370.987L211.635 350.72" stroke="#263238" stroke-width="2.4192" stroke-miterlimit="10" stroke-linecap="round" stroke-linejoin="round"/>
<path d="M140.279 376.666L202.484 359.381" stroke="#263238" stroke-width="2.4192" stroke-miterlimit="10" stroke-linecap="round" stroke-linejoin="round"/>
<path d="M147.954 380.106L142.016 381.756L143.665 387.694L149.603 386.044L147.954 380.106Z" stroke="#263238" stroke-width="1.2096" stroke-miterlimit="10" stroke-linecap="round" stroke-linejoin="round"/>
<path d="M158.708 377.116L152.771 378.766L154.42 384.702L160.358 383.053L158.708 377.116Z" stroke="#263238" stroke-width="1.2096" stroke-miterlimit="10" stroke-linecap="round" stroke-linejoin="round"/>
<path d="M169.456 374.132L163.518 375.782L165.167 381.72L171.105 380.07L169.456 374.132Z" stroke="#263238" stroke-width="1.2096" stroke-miterlimit="10" stroke-linecap="round" stroke-linejoin="round"/>
<path d="M180.207 371.145L174.27 372.794L175.919 378.732L181.857 377.083L180.207 371.145Z" stroke="#263238" stroke-width="1.2096" stroke-miterlimit="10" stroke-linecap="round" stroke-linejoin="round"/>
<path d="M133.467 367.197C133.695 368.017 133.216 368.866 132.396 369.094C131.575 369.321 130.726 368.842 130.499 368.022C130.272 367.202 130.751 366.353 131.571 366.125C132.39 365.898 133.239 366.378 133.467 367.197Z" fill="#263238"/>
<path d="M145.465 395.324L218.398 375.058" stroke="#263238" stroke-width="2.4192" stroke-miterlimit="10" stroke-linecap="round" stroke-linejoin="round"/>
<path d="M146.817 400.191L219.75 379.926" stroke="#263238" stroke-width="2.4192" stroke-miterlimit="10" stroke-linecap="round" stroke-linejoin="round"/>
<path d="M148.395 405.87L210.599 388.586" stroke="#263238" stroke-width="2.4192" stroke-miterlimit="10" stroke-linecap="round" stroke-linejoin="round"/>
<path d="M156.071 409.31L150.134 410.959L151.784 416.897L157.72 415.248L156.071 409.31Z" stroke="#263238" stroke-width="1.2096" stroke-miterlimit="10" stroke-linecap="round" stroke-linejoin="round"/>
<path d="M166.823 406.322L160.885 407.972L162.535 413.91L168.473 412.26L166.823 406.322Z" stroke="#263238" stroke-width="1.2096" stroke-miterlimit="10" stroke-linecap="round" stroke-linejoin="round"/>
<path d="M177.573 403.335L171.636 404.984L173.286 410.922L179.222 409.273L177.573 403.335Z" stroke="#263238" stroke-width="1.2096" stroke-miterlimit="10" stroke-linecap="round" stroke-linejoin="round"/>
<path d="M188.326 400.347L182.388 401.997L184.038 407.935L189.975 406.285L188.326 400.347Z" stroke="#263238" stroke-width="1.2096" stroke-miterlimit="10" stroke-linecap="round" stroke-linejoin="round"/>
<path d="M141.583 396.403C141.81 397.223 141.33 398.072 140.511 398.3C139.691 398.527 138.842 398.048 138.614 397.228C138.387 396.408 138.866 395.559 139.686 395.331C140.506 395.104 141.355 395.583 141.583 396.403Z" fill="#263238"/>
<path d="M139.159 323.903L140.354 324.954L142.309 320.482" stroke="#263238" stroke-width="2.4192" stroke-miterlimit="10" stroke-linecap="round" stroke-linejoin="round"/>
<path d="M136.238 355.586L137.433 356.637L139.388 352.165" stroke="#263238" stroke-width="2.4192" stroke-miterlimit="10" stroke-linecap="round" stroke-linejoin="round"/>
<path d="M144.122 383.686L145.317 384.737L147.273 380.264" stroke="#263238" stroke-width="2.4192" stroke-miterlimit="10" stroke-linecap="round" stroke-linejoin="round"/>
<path d="M173.727 406.705L174.922 407.756L176.876 403.284" stroke="#263238" stroke-width="2.4192" stroke-miterlimit="10" stroke-linecap="round" stroke-linejoin="round"/>
<path d="M248.416 226.232L147.758 235.899L162.288 387.186L262.946 377.519L248.416 226.232Z" fill="white" stroke="#263238" stroke-width="1.2096" stroke-miterlimit="10" stroke-linecap="round" stroke-linejoin="round"/>
<path d="M156.347 245.115L182.541 242.599" stroke="#263238" stroke-width="2.4192" stroke-miterlimit="10" stroke-linecap="round" stroke-linejoin="round"/>
<path d="M156.828 250.144L174.641 248.433" stroke="#263238" stroke-width="2.4192" stroke-miterlimit="10" stroke-linecap="round" stroke-linejoin="round"/>
<path d="M164.351 261.403L239.7 254.165" stroke="#263238" stroke-width="2.4192" stroke-miterlimit="10" stroke-linecap="round" stroke-linejoin="round"/>
<path d="M164.833 266.431L240.183 259.194" stroke="#263238" stroke-width="2.4192" stroke-miterlimit="10" stroke-linecap="round" stroke-linejoin="round"/>
<path d="M165.396 272.299L229.662 266.125" stroke="#263238" stroke-width="2.4192" stroke-miterlimit="10" stroke-linecap="round" stroke-linejoin="round"/>
<path d="M172.354 277.02L166.221 277.609L166.81 283.744L172.943 283.155L172.354 277.02Z" stroke="#263238" stroke-width="1.2096" stroke-miterlimit="10" stroke-linecap="round" stroke-linejoin="round"/>
<path d="M183.47 275.949L177.335 276.539L177.924 282.673L184.059 282.084L183.47 275.949Z" stroke="#263238" stroke-width="1.2096" stroke-miterlimit="10" stroke-linecap="round" stroke-linejoin="round"/>
<path d="M194.575 274.883L188.441 275.472L189.031 281.606L195.164 281.017L194.575 274.883Z" stroke="#263238" stroke-width="1.2096" stroke-miterlimit="10" stroke-linecap="round" stroke-linejoin="round"/>
<path d="M205.681 273.816L199.547 274.405L200.136 280.538L206.27 279.949L205.681 273.816Z" stroke="#263238" stroke-width="1.2096" stroke-miterlimit="10" stroke-linecap="round" stroke-linejoin="round"/>
<path d="M160.34 261.788C160.421 262.634 159.801 263.387 158.954 263.469C158.107 263.55 157.355 262.93 157.274 262.083C157.193 261.236 157.813 260.484 158.66 260.403C159.505 260.32 160.258 260.941 160.34 261.788Z" fill="#263238"/>
<path d="M167.167 290.738L242.517 283.5" stroke="#263238" stroke-width="2.4192" stroke-miterlimit="10" stroke-linecap="round" stroke-linejoin="round"/>
<path d="M167.649 295.767L243 288.53" stroke="#263238" stroke-width="2.4192" stroke-miterlimit="10" stroke-linecap="round" stroke-linejoin="round"/>
<path d="M168.213 301.634L232.479 295.461" stroke="#263238" stroke-width="2.4192" stroke-miterlimit="10" stroke-linecap="round" stroke-linejoin="round"/>
<path d="M175.178 306.35L169.043 306.939L169.632 313.074L175.767 312.485L175.178 306.35Z" stroke="#263238" stroke-width="1.2096" stroke-miterlimit="10" stroke-linecap="round" stroke-linejoin="round"/>
<path d="M186.285 305.284L180.15 305.873L180.74 312.008L186.874 311.419L186.285 305.284Z" stroke="#263238" stroke-width="1.2096" stroke-miterlimit="10" stroke-linecap="round" stroke-linejoin="round"/>
<path d="M197.397 304.213L191.264 304.802L191.853 310.937L197.986 310.348L197.397 304.213Z" stroke="#263238" stroke-width="1.2096" stroke-miterlimit="10" stroke-linecap="round" stroke-linejoin="round"/>
<path d="M208.492 303.155L202.357 303.744L202.946 309.878L209.081 309.288L208.492 303.155Z" stroke="#263238" stroke-width="1.2096" stroke-miterlimit="10" stroke-linecap="round" stroke-linejoin="round"/>
<path d="M163.157 291.123C163.238 291.97 162.617 292.722 161.77 292.804C160.924 292.885 160.171 292.265 160.089 291.418C160.008 290.571 160.629 289.819 161.475 289.737C162.323 289.656 163.076 290.276 163.157 291.123Z" fill="#263238"/>
<path d="M169.987 320.073L245.337 312.835" stroke="#263238" stroke-width="2.4192" stroke-miterlimit="10" stroke-linecap="round" stroke-linejoin="round"/>
<path d="M170.47 325.102L245.819 317.864" stroke="#263238" stroke-width="2.4192" stroke-miterlimit="10" stroke-linecap="round" stroke-linejoin="round"/>
<path d="M171.035 330.968L235.3 324.796" stroke="#263238" stroke-width="2.4192" stroke-miterlimit="10" stroke-linecap="round" stroke-linejoin="round"/>
<path d="M177.992 335.686L171.858 336.275L172.448 342.41L178.581 341.82L177.992 335.686Z" stroke="#263238" stroke-width="1.2096" stroke-miterlimit="10" stroke-linecap="round" stroke-linejoin="round"/>
<path d="M189.094 334.623L182.961 335.212L183.55 341.347L189.683 340.758L189.094 334.623Z" stroke="#263238" stroke-width="1.2096" stroke-miterlimit="10" stroke-linecap="round" stroke-linejoin="round"/>
<path d="M200.213 333.548L194.078 334.137L194.667 340.271L200.802 339.682L200.213 333.548Z" stroke="#263238" stroke-width="1.2096" stroke-miterlimit="10" stroke-linecap="round" stroke-linejoin="round"/>
<path d="M211.315 332.485L205.181 333.074L205.77 339.209L211.904 338.62L211.315 332.485Z" stroke="#263238" stroke-width="1.2096" stroke-miterlimit="10" stroke-linecap="round" stroke-linejoin="round"/>
<path d="M165.977 320.458C166.058 321.305 165.438 322.057 164.591 322.139C163.744 322.221 162.992 321.6 162.909 320.753C162.828 319.907 163.449 319.154 164.296 319.072C165.142 318.991 165.895 319.611 165.977 320.458Z" fill="#263238"/>
<path d="M172.884 350.246L248.233 343.009" stroke="#263238" stroke-width="2.4192" stroke-miterlimit="10" stroke-linecap="round" stroke-linejoin="round"/>
<path d="M173.368 355.275L248.718 348.037" stroke="#263238" stroke-width="2.4192" stroke-miterlimit="10" stroke-linecap="round" stroke-linejoin="round"/>
<path d="M173.931 361.142L238.196 354.969" stroke="#263238" stroke-width="2.4192" stroke-miterlimit="10" stroke-linecap="round" stroke-linejoin="round"/>
<path d="M180.893 365.858L174.759 366.448L175.348 372.581L181.482 371.992L180.893 365.858Z" stroke="#263238" stroke-width="1.2096" stroke-miterlimit="10" stroke-linecap="round" stroke-linejoin="round"/>
<path d="M192.002 364.792L185.867 365.381L186.456 371.515L192.591 370.926L192.002 364.792Z" stroke="#263238" stroke-width="1.2096" stroke-miterlimit="10" stroke-linecap="round" stroke-linejoin="round"/>
<path d="M203.11 363.725L196.976 364.314L197.565 370.449L203.699 369.86L203.11 363.725Z" stroke="#263238" stroke-width="1.2096" stroke-miterlimit="10" stroke-linecap="round" stroke-linejoin="round"/>
<path d="M214.223 362.653L208.089 363.242L208.678 369.377L214.813 368.788L214.223 362.653Z" stroke="#263238" stroke-width="1.2096" stroke-miterlimit="10" stroke-linecap="round" stroke-linejoin="round"/>
<path d="M168.874 350.632C168.956 351.478 168.335 352.231 167.488 352.312C166.642 352.393 165.889 351.772 165.807 350.926C165.726 350.079 166.346 349.326 167.193 349.244C168.04 349.163 168.792 349.785 168.874 350.632Z" fill="#263238"/>
<path d="M168.668 279.839L169.661 281.082L172.367 277.02" stroke="#263238" stroke-width="2.4192" stroke-miterlimit="10" stroke-linecap="round" stroke-linejoin="round"/>
<path d="M193.665 306.672L194.659 307.916L197.364 303.854" stroke="#263238" stroke-width="2.4192" stroke-miterlimit="10" stroke-linecap="round" stroke-linejoin="round"/>
<path d="M185.436 337.686L186.429 338.93L189.133 334.867" stroke="#263238" stroke-width="2.4192" stroke-miterlimit="10" stroke-linecap="round" stroke-linejoin="round"/>
<path d="M210.389 365.495L211.382 366.737L214.086 362.676" stroke="#263238" stroke-width="2.4192" stroke-miterlimit="10" stroke-linecap="round" stroke-linejoin="round"/>
<path d="M371.525 166.576H309.035C304.438 166.576 300.713 170.303 300.713 174.898V228.576C300.713 233.172 304.44 236.899 309.035 236.899H336.734L352.6 256.03L348.623 236.899H371.525C376.122 236.899 379.847 233.172 379.847 228.576V174.898C379.847 170.302 376.122 166.576 371.525 166.576Z" fill="white" stroke="#263238" stroke-width="1.2096" stroke-miterlimit="10" stroke-linecap="round" stroke-linejoin="round"/>
<path d="M345.279 196.045V190.36L341.02 189.993C340.766 189.094 340.414 188.239 339.966 187.441L342.715 184.174L338.696 180.154L335.429 182.904C334.63 182.456 333.775 182.104 332.877 181.85L332.51 177.591H326.825L326.458 181.85C325.56 182.104 324.705 182.456 323.906 182.904L320.639 180.154L316.62 184.174L319.369 187.441C318.921 188.239 318.569 189.094 318.317 189.993L314.058 190.36V196.045L318.317 196.411C318.571 197.31 318.923 198.165 319.369 198.963L316.62 202.231L320.639 206.25L323.906 203.501C324.705 203.948 325.56 204.3 326.458 204.553L326.825 208.812H332.51L332.877 204.553C333.775 204.299 334.63 203.947 335.429 203.501L338.696 206.25L342.715 202.231L339.966 198.963C340.414 198.165 340.766 197.31 341.02 196.411L345.279 196.045ZM329.666 199.808C326.018 199.808 323.061 196.85 323.061 193.201C323.061 189.553 326.018 186.594 329.666 186.594C333.314 186.594 336.273 189.552 336.273 193.201C336.273 196.85 333.316 199.808 329.666 199.808Z" fill="#92E3A9"/>
<path d="M364.089 208.735V204.69L361.059 204.428C360.879 203.788 360.628 203.18 360.309 202.613L362.265 200.288L359.404 197.427L357.079 199.383C356.512 199.065 355.902 198.815 355.264 198.633L355.002 195.603H350.957L350.696 198.633C350.056 198.813 349.448 199.064 348.88 199.383L346.556 197.427L343.695 200.288L345.651 202.613C345.333 203.18 345.082 203.79 344.902 204.428L341.872 204.69V208.735L344.902 208.996C345.082 209.636 345.333 210.244 345.651 210.811L343.695 213.136L346.556 215.997L348.88 214.041C349.448 214.359 350.057 214.61 350.696 214.79L350.957 217.82H355.002L355.264 214.79C355.903 214.61 356.512 214.359 357.079 214.041L359.404 215.997L362.265 213.136L360.309 210.811C360.627 210.244 360.877 209.634 361.059 208.996L364.089 208.735ZM352.98 211.413C350.384 211.413 348.279 209.308 348.279 206.712C348.279 204.116 350.384 202.012 352.98 202.012C355.576 202.012 357.68 204.116 357.68 206.712C357.68 209.308 355.576 211.413 352.98 211.413Z" fill="#92E3A9"/>
<path d="M344.299 218.157V215.278L342.142 215.092C342.014 214.637 341.835 214.204 341.609 213.8L343.001 212.146L340.966 210.11L339.311 211.502C338.907 211.276 338.474 211.097 338.019 210.969L337.833 208.812H334.954L334.768 210.969C334.313 211.097 333.88 211.276 333.476 211.502L331.821 210.11L329.785 212.146L331.177 213.8C330.951 214.204 330.772 214.637 330.644 215.092L328.487 215.278V218.157L330.644 218.344C330.772 218.798 330.951 219.231 331.177 219.635L329.785 221.29L331.821 223.326L333.476 221.934C333.88 222.16 334.313 222.339 334.768 222.467L334.954 224.624H337.833L338.019 222.467C338.474 222.339 338.907 222.161 339.311 221.934L340.966 223.326L343.001 221.29L341.609 219.635C341.835 219.231 342.014 218.798 342.142 218.344L344.299 218.157ZM336.394 220.062C334.547 220.062 333.05 218.565 333.05 216.718C333.05 214.871 334.547 213.373 336.394 213.373C338.242 213.373 339.739 214.871 339.739 216.718C339.739 218.565 338.243 220.062 336.394 220.062Z" fill="#92E3A9"/>
<path d="M338.611 373.001L387.329 552.727H394.616L345.898 373.001H338.611Z" fill="#757575" stroke="#263238" stroke-width="1.2096" stroke-miterlimit="10" stroke-linecap="round" stroke-linejoin="round"/>
<path d="M448.341 501.776H355.985V509.295H448.341V501.776Z" fill="#999999" stroke="#263238" stroke-width="1.2096" stroke-miterlimit="10" stroke-linecap="round" stroke-linejoin="round"/>
<path d="M497.606 332.628L437.945 552.727H430.658L490.319 332.628C492.519 324.51 487.474 317.912 479.065 317.912H427.655C419.261 317.912 410.623 324.51 408.423 332.628L348.762 552.727H341.477L401.138 332.628C404.394 320.613 417.116 310.878 429.562 310.878H480.972C493.417 310.878 500.862 320.614 497.606 332.628Z" fill="#757575" stroke="#263238" stroke-width="1.2096" stroke-miterlimit="10" stroke-linecap="round" stroke-linejoin="round"/>
<path d="M498.55 332.7L483.745 387.35C482.523 391.862 477.745 395.515 473.076 395.515H388.598C383.929 395.515 381.134 391.862 382.356 387.35L397.174 332.7C398.395 328.201 403.173 324.536 407.842 324.536H492.309C496.978 324.536 499.772 328.201 498.55 332.7Z" fill="#92E3A9"/>
<mask id="mask2_470_37" style="mask-type:luminance" maskUnits="userSpaceOnUse" x="382" y="324" width="117" height="72">
<path d="M498.547 332.7L483.742 387.35C482.52 391.862 477.742 395.515 473.073 395.515H388.595C383.926 395.515 381.131 391.862 382.353 387.35L397.171 332.7C398.392 328.201 403.17 324.536 407.839 324.536H492.306C496.975 324.536 499.769 328.201 498.547 332.7Z" fill="white"/>
</mask>
<g mask="url(#mask2_470_37)">
<path opacity="0.2" d="M498.548 332.7L483.743 387.35C482.521 391.862 477.743 395.515 473.074 395.515H388.596C383.927 395.515 381.132 391.862 382.354 387.35L397.172 332.7C398.393 328.201 403.171 324.536 407.84 324.536H451.519C470.401 343.926 467.994 379.56 466.76 390.326C470.631 389.406 474.163 386.225 475.191 382.439L490.009 327.789C490.323 326.628 490.371 325.527 490.19 324.536H492.307C496.976 324.536 499.77 328.201 498.548 332.7Z" fill="black" fill-opacity="0.7"/>
</g>
<path d="M498.55 332.7L483.745 387.35C482.523 391.862 477.745 395.515 473.076 395.515H388.598C383.929 395.515 381.134 391.862 382.356 387.35L397.174 332.7C398.395 328.201 403.173 324.536 407.842 324.536H492.309C496.978 324.536 499.772 328.201 498.55 332.7Z" stroke="#263238" stroke-width="1.2096" stroke-miterlimit="10" stroke-linecap="round" stroke-linejoin="round"/>
<path d="M448.89 450.826L476.512 552.727H483.798L456.176 450.826H448.89Z" fill="#757575" stroke="#263238" stroke-width="1.2096" stroke-miterlimit="10" stroke-linecap="round" stroke-linejoin="round"/>
<path d="M456.202 439.133V449.1H347.435V439.133C347.435 435.081 350.713 431.803 354.765 431.803H448.859C452.246 431.803 455.101 434.089 455.948 437.21C456.117 437.815 456.202 438.468 456.202 439.133Z" fill="#92E3A9"/>
<mask id="mask3_470_37" style="mask-type:luminance" maskUnits="userSpaceOnUse" x="347" y="431" width="110" height="19">
<path d="M456.203 439.133V449.1H347.436V439.133C347.436 435.081 350.714 431.803 354.766 431.803H448.86C452.247 431.803 455.102 434.089 455.949 437.21C456.118 437.815 456.203 438.468 456.203 439.133Z" fill="white"/>
</mask>
<g mask="url(#mask3_470_37)">
<path opacity="0.2" d="M455.949 437.21C452.429 441.347 446.115 445.556 435.252 449.1H347.436V439.133C347.436 435.081 350.714 431.803 354.766 431.803H448.86C452.247 431.803 455.102 434.089 455.949 437.21Z" fill="black" fill-opacity="0.7"/>
</g>
<path d="M456.202 439.133V449.1H347.435V439.133C347.435 435.081 350.713 431.803 354.765 431.803H448.859C452.246 431.803 455.101 434.089 455.948 437.21C456.117 437.815 456.202 438.468 456.202 439.133Z" stroke="#263238" stroke-width="1.2096" stroke-miterlimit="10" stroke-linecap="round" stroke-linejoin="round"/>
<path d="M459.9 455.397H344.69C343.55 455.397 342.626 454.473 342.626 453.334V448.11C342.626 446.97 343.55 446.046 344.69 446.046H459.9C461.04 446.046 461.964 446.97 461.964 448.11V453.334C461.964 454.473 461.04 455.397 459.9 455.397Z" fill="#999999" stroke="#263238" stroke-width="1.2096" stroke-miterlimit="10" stroke-linecap="round" stroke-linejoin="round"/>
<path d="M343.905 446.391C338.692 451.701 363.961 535.139 363.961 535.139C361.203 537.534 357.138 538.671 353.292 539.179C347.728 539.917 342.635 539.336 342.635 539.336C342.635 539.336 306.42 451.495 316.387 429.698C326.354 407.901 388.201 397.922 388.201 397.922L390.838 391.39L422.832 386.891L428.118 426.069C428.118 426.069 422.868 426.578 414.969 427.594C393.789 430.315 353.485 436.641 343.905 446.391Z" fill="#263238"/>
<mask id="mask4_470_37" style="mask-type:luminance" maskUnits="userSpaceOnUse" x="314" y="386" width="115" height="154">
<path d="M343.905 446.391C338.692 451.701 363.961 535.139 363.961 535.139C361.203 537.534 357.138 538.671 353.292 539.179C347.728 539.917 342.635 539.336 342.635 539.336C342.635 539.336 306.42 451.495 316.387 429.698C326.354 407.901 388.201 397.922 388.201 397.922L390.838 391.39L422.832 386.891L428.118 426.069C428.118 426.069 422.868 426.578 414.969 427.594C393.789 430.315 353.485 436.641 343.905 446.391Z" fill="white"/>
</mask>
<g mask="url(#mask4_470_37)">
<path opacity="0.3" d="M363.959 535.139C361.201 537.534 357.137 538.671 353.291 539.179C346.263 513.052 328.373 443.33 335.159 434.803C343.517 424.279 384.885 414.711 384.885 414.711C385.055 409.341 399.558 404.502 399.558 404.502L414.968 427.594C393.788 430.315 353.484 436.641 343.904 446.391C338.691 451.701 363.959 535.139 363.959 535.139Z" fill="black"/>
</g>
<path d="M343.905 446.391C338.692 451.701 363.961 535.139 363.961 535.139C361.203 537.534 357.138 538.671 353.292 539.179C347.728 539.917 342.635 539.336 342.635 539.336C342.635 539.336 306.42 451.495 316.387 429.698C326.354 407.901 388.201 397.922 388.201 397.922L390.838 391.39L422.832 386.891L428.118 426.069C428.118 426.069 422.868 426.578 414.969 427.594C393.789 430.315 353.485 436.641 343.905 446.391Z" stroke="#263238" stroke-width="1.2096" stroke-miterlimit="10" stroke-linecap="round" stroke-linejoin="round"/>
<path d="M326.008 367.372C320.693 366.456 358.497 333.317 358.497 333.317L376.721 345.586C376.721 345.586 345.703 367.427 340.832 368.026C335.96 368.624 326.008 367.372 326.008 367.372Z" fill="white"/>
<mask id="mask5_470_37" style="mask-type:luminance" maskUnits="userSpaceOnUse" x="325" y="333" width="52" height="36">
<path d="M326.008 367.372C320.693 366.456 358.497 333.317 358.497 333.317L376.721 345.586C376.721 345.586 345.703 367.427 340.832 368.026C335.96 368.624 326.008 367.372 326.008 367.372Z" fill="white"/>
</mask>
<g mask="url(#mask5_470_37)">
<path opacity="0.2" d="M326.008 367.372C320.693 366.456 358.497 333.317 358.497 333.317L376.721 345.586C376.721 345.586 345.703 367.427 340.832 368.026C335.96 368.624 326.008 367.372 326.008 367.372Z" fill="black" fill-opacity="0.7"/>
</g>
<path d="M326.008 367.372C320.693 366.456 358.497 333.317 358.497 333.317L376.721 345.586C376.721 345.586 345.703 367.427 340.832 368.026C335.96 368.624 326.008 367.372 326.008 367.372Z" stroke="#263238" stroke-width="1.2096" stroke-miterlimit="10" stroke-linecap="round" stroke-linejoin="round"/>
<path d="M332.669 353.431C332.669 353.431 340.593 355.401 343.013 357.092C345.434 358.783 344.752 364.744 344.752 364.744C344.752 364.744 334.166 361.726 332.669 353.431Z" fill="white" stroke="#263238" stroke-width="1.2096" stroke-miterlimit="10" stroke-linecap="round" stroke-linejoin="round"/>
<path d="M327.587 338.259L342.315 366.506H344.06L330.07 336.864L327.587 338.259Z" fill="#263238"/>
<path d="M340.867 358.681C340.867 358.681 331.577 352.076 329.307 352.076C327.036 352.076 320.224 360.123 320.224 364.15C320.224 368.177 335.069 370.417 337.977 366.99C339.422 365.287 336.55 361.176 336.55 361.176C336.55 361.176 340.867 365.649 342.105 366.319C343.344 366.99 345.614 366.112 345.614 366.112C345.614 366.112 342.518 361.176 340.867 358.681Z" fill="white" stroke="#263238" stroke-width="1.2096" stroke-miterlimit="10" stroke-linecap="round" stroke-linejoin="round"/>
<path d="M336.549 367.946C336.549 367.946 333.021 363.36 328.789 361.176" stroke="#263238" stroke-width="1.2096" stroke-miterlimit="10" stroke-linecap="round" stroke-linejoin="round"/>
<path d="M336.548 361.176C336.548 361.176 333.331 358.372 331.163 357.753" stroke="#263238" stroke-width="1.2096" stroke-miterlimit="10" stroke-linecap="round" stroke-linejoin="round"/>
<path d="M326.423 364.745C326.423 364.745 331.628 367.481 332.918 368.644" stroke="#263238" stroke-width="1.2096" stroke-miterlimit="10" stroke-linecap="round" stroke-linejoin="round"/>
<path d="M370.339 318.825C365.577 322.147 344.232 344.095 344.232 344.095C344.232 344.095 354.236 355.471 363.002 357.125L386.768 345.588L370.339 318.825Z" fill="#92E3A9" stroke="#263238" stroke-width="1.2096" stroke-miterlimit="10" stroke-linecap="round" stroke-linejoin="round"/>
<path opacity="0.4" d="M370.339 318.825C365.577 322.147 344.232 344.095 344.232 344.095C344.232 344.095 354.236 355.471 363.002 357.125L386.768 345.588L370.339 318.825Z" fill="white" stroke="#263238" stroke-width="1.2096" stroke-miterlimit="10" stroke-linecap="round" stroke-linejoin="round"/>
<path d="M358.855 526.282L368.904 552.727C368.904 552.727 370.58 559.539 340.193 557.386L323.445 555.95L358.855 526.282Z" fill="#92E3A9"/>
<mask id="mask6_470_37" style="mask-type:luminance" maskUnits="userSpaceOnUse" x="323" y="526" width="46" height="32">
<path d="M358.858 526.282L368.907 552.727C368.907 552.727 370.583 559.539 340.196 557.386L323.448 555.95L358.858 526.282Z" fill="white"/>
</mask>
<g mask="url(#mask6_470_37)">
<path opacity="0.3" d="M358.858 526.282L368.907 552.727C368.907 552.727 370.583 559.539 340.196 557.386L323.448 555.95L358.858 526.282Z" fill="black"/>
</g>
<path d="M358.855 526.282L368.904 552.727C368.904 552.727 370.58 559.539 340.193 557.386L323.445 555.95L358.855 526.282Z" stroke="#263238" stroke-width="1.2096" stroke-miterlimit="10" stroke-linecap="round" stroke-linejoin="round"/>
<path d="M355.026 538.963C355.026 538.963 357.179 549.25 355.026 556.907C355.026 556.907 322.966 561.932 315.787 560.017C308.609 558.103 304.262 554.527 304.043 552.726C304.043 552.726 304.303 547.815 311.481 546.379C318.659 544.943 332.962 543.986 338.611 535.852C344.26 527.718 355.026 538.963 355.026 538.963Z" fill="#92E3A9" stroke="#263238" stroke-width="1.2096" stroke-miterlimit="10" stroke-linecap="round" stroke-linejoin="round"/>
<path d="M397.344 390.367C407.592 375.753 454.687 393.34 454.687 393.34C454.687 393.34 459.181 428.515 440.421 437.896C421.661 447.276 394.613 446.777 387.307 454.385L357.573 542.181C357.573 542.181 346.895 546.649 331.359 539.613C331.359 539.613 350.24 473.312 355.779 449.774C361.26 426.483 396.743 410.666 396.743 410.666C396.743 410.666 393.758 407.288 392.657 403.315" fill="#263238"/>
<path d="M397.344 390.367C407.592 375.753 454.687 393.34 454.687 393.34C454.687 393.34 459.181 428.515 440.421 437.896C421.661 447.276 394.613 446.777 387.307 454.385L357.573 542.181C357.573 542.181 346.895 546.649 331.359 539.613C331.359 539.613 350.24 473.312 355.779 449.774C361.259 426.483 396.743 410.666 396.743 410.666C396.743 410.666 393.758 407.288 392.657 403.315" stroke="#263238" stroke-width="1.2096" stroke-miterlimit="10" stroke-linecap="round" stroke-linejoin="round"/>
<path d="M445.033 423.989C443.526 425.326 441.936 426.569 440.28 427.718" stroke="white" stroke-width="1.2096" stroke-miterlimit="10" stroke-linecap="round" stroke-linejoin="round"/>
<path d="M448.889 394.199C452.729 402.54 453.032 413.144 447.646 420.868" stroke="white" stroke-width="1.2096" stroke-miterlimit="10" stroke-linecap="round" stroke-linejoin="round"/>
<path d="M438.158 395.515C438.158 395.515 437.173 401.945 440.044 404.497C442.916 407.05 451.706 408.354 451.706 408.354" stroke="white" stroke-width="1.2096" stroke-miterlimit="10" stroke-linecap="round" stroke-linejoin="round"/>
<path d="M399.54 395.826C399.54 395.826 399.943 402.243 397.343 401.934C394.743 401.627 394.613 404.498 394.613 404.498" stroke="white" stroke-width="1.2096" stroke-miterlimit="10" stroke-linecap="round" stroke-linejoin="round"/>
<path d="M370.958 323.755C370.565 322.052 370.338 320.39 370.338 318.825C370.338 318.825 384.887 306.588 403.537 306.652C425.791 306.728 439.396 313.728 444.849 323.453C453.479 338.843 454.686 393.34 454.686 393.34C454.686 393.34 398.845 401.954 390.831 391.385C389.442 389.554 390.507 376.567 390.507 376.567C390.507 376.567 384.254 360.171 382.935 347.447C382.935 347.447 380.529 344.207 377.819 339.587C376.033 336.539 374.113 332.89 372.666 329.173" fill="#92E3A9"/>
<path d="M370.958 323.755C370.565 322.052 370.338 320.39 370.338 318.825C370.338 318.825 384.887 306.588 403.537 306.652C425.791 306.728 439.396 313.728 444.849 323.453C453.479 338.843 454.686 393.34 454.686 393.34C454.686 393.34 398.845 401.954 390.831 391.385C389.442 389.554 390.507 376.567 390.507 376.567C390.507 376.567 384.254 360.171 382.935 347.447C382.935 347.447 380.529 344.207 377.819 339.587C376.033 336.539 374.113 332.89 372.666 329.173" stroke="#263238" stroke-width="1.2096" stroke-miterlimit="10" stroke-linecap="round" stroke-linejoin="round"/>
<g opacity="0.6">
<path d="M370.958 323.755C370.565 322.052 370.338 320.39 370.338 318.825C370.338 318.825 384.887 306.588 403.537 306.652C425.791 306.728 439.396 313.728 444.849 323.453C453.479 338.843 454.686 393.34 454.686 393.34C454.686 393.34 398.845 401.954 390.831 391.385C389.442 389.554 390.507 376.567 390.507 376.567C390.507 376.567 384.254 360.171 382.935 347.447C382.935 347.447 380.529 344.207 377.819 339.587C376.033 336.539 374.113 332.89 372.666 329.173" fill="white"/>
<path d="M370.958 323.755C370.565 322.052 370.338 320.39 370.338 318.825C370.338 318.825 384.887 306.588 403.537 306.652C425.791 306.728 439.396 313.728 444.849 323.453C453.479 338.843 454.686 393.34 454.686 393.34C454.686 393.34 398.845 401.954 390.831 391.385C389.442 389.554 390.507 376.567 390.507 376.567C390.507 376.567 384.254 360.171 382.935 347.447C382.935 347.447 380.529 344.207 377.819 339.587C376.033 336.539 374.113 332.89 372.666 329.173" stroke="#263238" stroke-width="1.2096" stroke-miterlimit="10" stroke-linecap="round" stroke-linejoin="round"/>
</g>
<path d="M392.349 336.864C392.349 336.864 400.876 369.949 399.563 377.222C398.913 380.823 400.805 384.562 400.805 384.562C400.805 384.562 396.912 388.393 399.563 393.493" stroke="#263238" stroke-width="1.2096" stroke-miterlimit="10" stroke-linecap="round" stroke-linejoin="round"/>
<path d="M414.972 364.23C413.307 364.09 411.782 363.693 410.687 362.88L408.158 351.8C408.158 351.8 415.957 352.658 423.134 350.753L425.847 362.88C425.847 362.88 423.837 363.467 421.205 363.884" stroke="#263238" stroke-width="1.2096" stroke-miterlimit="10" stroke-linecap="round" stroke-linejoin="round"/>
<path d="M386.289 341.164C386.289 341.164 379.082 310.247 397.343 306.652C415.601 303.057 419.419 311.616 418.338 317.415C416.898 325.139 401.725 344.095 401.725 344.095L392.347 336.864L386.289 341.164Z" fill="#92E3A9" stroke="#263238" stroke-width="1.2096" stroke-miterlimit="10" stroke-linecap="round" stroke-linejoin="round"/>
<path opacity="0.4" d="M386.289 341.164C386.289 341.164 379.082 310.247 397.343 306.652C415.601 303.057 419.419 311.616 418.338 317.415C416.898 325.139 401.725 344.095 401.725 344.095L392.347 336.864L386.289 341.164Z" fill="white" stroke="#263238" stroke-width="1.2096" stroke-miterlimit="10" stroke-linecap="round" stroke-linejoin="round"/>
<path d="M362.271 436.61C362.271 436.61 374.093 422.949 400.805 412.633C400.805 412.633 393.882 410.512 392.348 407.64" stroke="white" stroke-width="1.2096" stroke-miterlimit="10" stroke-linecap="round" stroke-linejoin="round"/>
<path d="M348.359 478.461L337.535 517.72" stroke="white" stroke-width="1.2096" stroke-miterlimit="10" stroke-linecap="round" stroke-linejoin="round"/>
<path d="M431.908 365.297C431.908 365.297 436.776 373.469 456.674 372.714C456.674 372.714 451.209 366.486 443.074 364.277C434.938 362.07 431.908 365.297 431.908 365.297Z" fill="#92E3A9" stroke="#263238" stroke-width="1.2096" stroke-miterlimit="10" stroke-linecap="round" stroke-linejoin="round"/>
<path d="M354.615 368.582C354.615 368.582 359.237 361.418 363.478 359.982C367.719 358.546 380.146 358.421 382.061 358.371C383.976 358.32 418.164 367.005 434.194 372.346L432.798 345.586L454.348 347.283C454.348 347.283 453.478 379.955 450.129 388.597C446.78 397.24 441.98 395.14 433.787 391.61C401.572 377.731 382.7 368.064 380.952 368.582C379.204 369.101 354.615 368.582 354.615 368.582Z" fill="white" stroke="#263238" stroke-width="1.2096" stroke-miterlimit="10" stroke-linecap="round" stroke-linejoin="round"/>
<path d="M427.418 330.031C426.855 332.369 426.645 334.731 426.885 336.825C427.842 345.199 431.91 365.298 431.91 365.298C431.91 365.298 452.009 368.17 456.675 372.715C456.675 372.715 459.983 346.073 453.244 332.596C446.506 319.12 439.512 317.593 439.512 317.593C435.099 316.5 431.095 320.62 428.803 325.899" fill="#92E3A9"/>
<path d="M427.418 330.031C426.855 332.369 426.645 334.731 426.885 336.825C427.842 345.199 431.91 365.298 431.91 365.298C431.91 365.298 452.009 368.17 456.675 372.715C456.675 372.715 459.983 346.073 453.244 332.596C446.506 319.12 439.512 317.593 439.512 317.593C435.099 316.5 431.095 320.62 428.803 325.899" stroke="#263238" stroke-width="1.2096" stroke-miterlimit="10" stroke-linecap="round" stroke-linejoin="round"/>
<g opacity="0.4">
<path d="M427.418 330.031C426.855 332.369 426.645 334.731 426.885 336.825C427.842 345.199 431.91 365.298 431.91 365.298C431.91 365.298 452.009 368.17 456.675 372.715C456.675 372.715 459.983 346.073 453.244 332.596C446.506 319.12 439.512 317.593 439.512 317.593C435.099 316.5 431.095 320.62 428.803 325.899" fill="white"/>
<path d="M427.418 330.031C426.855 332.369 426.645 334.731 426.885 336.825C427.842 345.199 431.91 365.298 431.91 365.298C431.91 365.298 452.009 368.17 456.675 372.715C456.675 372.715 459.983 346.073 453.244 332.596C446.506 319.12 439.512 317.593 439.512 317.593C435.099 316.5 431.095 320.62 428.803 325.899" stroke="#263238" stroke-width="1.2096" stroke-miterlimit="10" stroke-linecap="round" stroke-linejoin="round"/>
</g>
<path d="M368.386 340.377C368.386 340.377 372.331 343.939 378.673 345.588" stroke="#263238" stroke-width="1.2096" stroke-miterlimit="10" stroke-linecap="round" stroke-linejoin="round"/>
<path d="M431.908 340.377C431.908 340.377 439.209 354.093 448.337 357.125" stroke="#263238" stroke-width="1.2096" stroke-miterlimit="10" stroke-linecap="round" stroke-linejoin="round"/>
<path d="M384.89 446.046C384.89 446.046 386.23 447.06 386.769 450.722" stroke="white" stroke-width="1.2096" stroke-miterlimit="10" stroke-linecap="round" stroke-linejoin="round"/>
<path d="M379.91 450.722C379.91 450.722 383.613 450.951 385.829 454.137" stroke="white" stroke-width="1.2096" stroke-miterlimit="10" stroke-linecap="round" stroke-linejoin="round"/>
<path d="M339.914 436.61C339.914 436.61 343.79 438.567 342.949 444.117" stroke="white" stroke-width="1.2096" stroke-miterlimit="10" stroke-linecap="round" stroke-linejoin="round"/>
<path d="M335.826 441.379C335.826 441.379 341.113 444.512 341.491 447.328" stroke="white" stroke-width="1.2096" stroke-miterlimit="10" stroke-linecap="round" stroke-linejoin="round"/>
<path d="M397.087 407.534C397.087 407.534 408.859 409.187 411.491 407.534" stroke="white" stroke-width="1.2096" stroke-miterlimit="10" stroke-linecap="round" stroke-linejoin="round"/>
<path d="M392.348 335.531C392.348 335.531 390.848 331.963 391.114 326.544C391.162 325.564 391.259 324.536 391.441 323.459L389.396 320.217L386.771 316.044L389.808 303.888C389.808 303.888 409.137 307.613 410.613 313.008C412.076 318.427 392.348 335.531 392.348 335.531Z" fill="white"/>
<mask id="mask7_470_37" style="mask-type:luminance" maskUnits="userSpaceOnUse" x="386" y="303" width="25" height="33">
<path d="M392.349 335.531C392.349 335.531 390.849 331.963 391.115 326.544C391.163 325.564 391.26 324.536 391.441 323.459L389.397 320.217L386.772 316.044L389.809 303.888C389.809 303.888 409.138 307.613 410.614 313.008C412.077 318.427 392.349 335.531 392.349 335.531Z" fill="white"/>
</mask>
<g mask="url(#mask7_470_37)">
<path opacity="0.2" d="M391.115 326.544C391.163 325.564 391.26 324.536 391.442 323.459L389.397 320.217C392.748 319.552 396.413 318.064 398.844 314.919C398.844 314.919 399.486 323.302 391.115 326.544Z" fill="black" fill-opacity="0.7"/>
</g>
<path d="M392.348 335.531C392.348 335.531 390.848 331.963 391.114 326.544C391.162 325.564 391.259 324.536 391.441 323.459L389.396 320.217L386.771 316.044L389.808 303.888C389.808 303.888 409.137 307.613 410.613 313.008C412.076 318.427 392.348 335.531 392.348 335.531Z" stroke="#263238" stroke-width="1.2096" stroke-miterlimit="10" stroke-linecap="round" stroke-linejoin="round"/>
<path d="M404.495 304.966C410.478 289.194 406.526 262.471 377.488 267.602C360.395 270.623 358.407 291.214 364.115 300.351C369.823 309.487 363.758 309.788 372.321 316.567C375.783 319.308 378.587 323.973 382.721 324.266C387.638 324.613 393.947 319.951 398.648 314.925" fill="white"/>
<path d="M404.495 304.966C410.478 289.194 406.526 262.471 377.488 267.602C360.395 270.623 358.407 291.214 364.115 300.351C369.823 309.487 363.758 309.788 372.321 316.567C375.783 319.308 378.587 323.973 382.721 324.266C387.638 324.613 393.947 319.951 398.648 314.925" stroke="#263238" stroke-width="1.2096" stroke-miterlimit="10" stroke-linecap="round" stroke-linejoin="round"/>
<path d="M375.888 300.351C375.888 300.351 380.168 296.466 385.252 298.071" stroke="#263238" stroke-width="1.2096" stroke-miterlimit="10" stroke-linecap="round" stroke-linejoin="round"/>
<path d="M367.86 300.351C367.86 300.351 366.404 297.271 362.315 296.601" stroke="#263238" stroke-width="1.2096" stroke-miterlimit="10" stroke-linecap="round" stroke-linejoin="round"/>
<path d="M370.69 305.963C370.69 305.963 370.079 309.104 369.27 312.274C368.485 315.351 374.344 313.712 374.081 313.221" fill="white"/>
<path d="M370.69 305.963C370.69 305.963 370.079 309.104 369.27 312.274C368.485 315.351 374.344 313.712 374.081 313.221" stroke="#263238" stroke-width="1.2096" stroke-miterlimit="10" stroke-linecap="round" stroke-linejoin="round"/>
<path d="M377.14 317.245C377.14 317.245 380.893 316.348 383.511 313.067" stroke="#263238" stroke-width="1.2096" stroke-miterlimit="10" stroke-linecap="round" stroke-linejoin="round"/>
<path d="M381.842 304.335C382.082 305.215 381.72 306.08 381.033 306.266C380.346 306.453 379.595 305.892 379.355 305.013C379.116 304.133 379.477 303.268 380.164 303.082C380.85 302.895 381.601 303.456 381.842 304.335Z" fill="#263238"/>
<path d="M368.897 304.064C369.137 304.944 368.96 305.758 368.502 305.882C368.043 306.007 367.478 305.396 367.238 304.517C366.998 303.637 367.175 302.823 367.633 302.699C368.092 302.574 368.657 303.185 368.897 304.064Z" fill="#263238"/>
<path d="M386.591 284.157C386.591 284.157 382.086 295.93 370.959 295.663C370.959 295.663 374.818 292.723 375.887 289.912C375.887 289.912 367.324 298.391 358.762 294.084C350.199 289.777 354.361 269.765 367.533 261.834C380.704 253.902 394.082 256.038 398.631 263.594C398.631 263.594 407.83 262.748 411.876 276.263C415.488 288.329 409.709 306.688 404.026 306.901C395.235 307.23 393.465 297.683 393.465 297.683C393.465 297.683 388.196 292.987 386.591 284.157Z" fill="#263238" stroke="#263238" stroke-width="1.2096" stroke-miterlimit="10" stroke-linecap="round" stroke-linejoin="round"/>
<path d="M396.224 305.027C396.224 305.027 395.957 293.923 402.244 295.261C408.533 296.599 403.983 309.442 399.234 309.309" fill="white"/>
<path d="M396.224 305.027C396.224 305.027 395.957 293.923 402.244 295.261C408.533 296.599 403.983 309.442 399.234 309.309" stroke="#263238" stroke-width="1.2096" stroke-miterlimit="10" stroke-linecap="round" stroke-linejoin="round"/>
<path d="M376.7 374.71H279.163C278.075 374.71 277.192 373.828 277.192 372.739V369.343C277.192 368.254 278.074 367.372 279.163 367.372H376.7C377.789 367.372 378.671 368.254 378.671 369.343V372.739C378.671 373.828 377.789 374.71 376.7 374.71Z" fill="#92E3A9" stroke="#263238" stroke-width="1.2096" stroke-miterlimit="10" stroke-linecap="round" stroke-linejoin="round"/>
<path d="M135.225 515.124H94.0869L98.3955 552.727H130.916L135.225 515.124Z" fill="#263238" stroke="#263238" stroke-width="1.2096" stroke-miterlimit="10" stroke-linecap="round" stroke-linejoin="round"/>
<path d="M140.096 488.941C140.096 488.941 122.13 490.359 121.38 503.615C121.38 503.615 139.573 511.991 140.096 488.941Z" fill="#92E3A9" stroke="#263238" stroke-width="1.2096" stroke-miterlimit="10" stroke-linecap="round" stroke-linejoin="round"/>
<path d="M104.555 492.232C104.555 492.232 94.5181 478.662 78.2998 485.621C78.2998 485.621 88.204 502.028 104.555 492.232Z" fill="#92E3A9" stroke="#263238" stroke-width="1.2096" stroke-miterlimit="10" stroke-linecap="round" stroke-linejoin="round"/>
<path d="M79.6747 449.387C79.6747 449.387 76.7886 475.495 100.552 468.305C100.552 468.305 93.0057 449.111 79.6747 449.387Z" fill="#92E3A9" stroke="#263238" stroke-width="1.2096" stroke-miterlimit="10" stroke-linecap="round" stroke-linejoin="round"/>
<path d="M108.852 434.854C108.852 434.854 90.0588 444.989 103.877 460.368C103.877 460.368 117.058 449.383 108.852 434.854Z" fill="#92E3A9" stroke="#263238" stroke-width="1.2096" stroke-miterlimit="10" stroke-linecap="round" stroke-linejoin="round"/>
<path d="M131.978 458.183C131.978 458.183 111.544 456.122 111.544 475.038C111.544 475.038 131.978 475.842 131.978 458.183Z" fill="#92E3A9" stroke="#263238" stroke-width="1.2096" stroke-miterlimit="10" stroke-linecap="round" stroke-linejoin="round"/>
<path d="M112.707 530.615C112.707 530.615 122.023 511.064 113.08 491.152C104.138 471.24 101.114 454.472 105.787 442.652" stroke="#263238" stroke-width="1.2096" stroke-miterlimit="10" stroke-linecap="round" stroke-linejoin="round"/>
<path d="M125.264 463.268C125.264 463.268 113.016 468.135 108.853 480.752" stroke="#263238" stroke-width="1.2096" stroke-miterlimit="10" stroke-linecap="round" stroke-linejoin="round"/>
<path d="M86.1338 459.832C86.1338 459.832 93.2124 469.474 105.204 468.432" stroke="#263238" stroke-width="1.2096" stroke-miterlimit="10" stroke-linecap="round" stroke-linejoin="round"/>
<path d="M86.1338 488.394C86.1338 488.394 105.738 494.042 113.528 492.193" stroke="#263238" stroke-width="1.2096" stroke-miterlimit="10" stroke-linecap="round" stroke-linejoin="round"/>
<path d="M134.238 494.91C134.238 494.91 125.475 504.528 116.662 504.378" stroke="#263238" stroke-width="1.2096" stroke-miterlimit="10" stroke-linecap="round" stroke-linejoin="round"/>
<path d="M92.319 519.598H136.993V514.294H92.319V519.598Z" fill="#263238" stroke="#263238" stroke-width="1.2096" stroke-miterlimit="10" stroke-linecap="round" stroke-linejoin="round"/>
<path d="M461.151 480.176C461.151 480.176 446.163 489.024 435.513 506.808C424.864 524.591 416.421 549.605 429.534 552.726L441.999 552.255L465.999 544.012L463.484 539.142C463.484 539.142 442.467 550.278 438.875 550.278C435.282 550.278 430.612 551.177 428.635 549.74C426.659 548.303 435.546 515.969 454.545 505.191C473.545 494.414 461.151 480.176 461.151 480.176Z" fill="#92E3A9"/>
<mask id="mask8_470_37" style="mask-type:luminance" maskUnits="userSpaceOnUse" x="422" y="480" width="44" height="73">
<path d="M461.152 480.176C461.152 480.176 446.164 489.024 435.514 506.808C424.865 524.591 416.422 549.605 429.535 552.726L442 552.255L466 544.012L463.485 539.142C463.485 539.142 442.468 550.278 438.876 550.278C435.283 550.278 430.613 551.177 428.636 549.74C426.66 548.303 435.547 515.969 454.546 505.191C473.546 494.414 461.152 480.176 461.152 480.176Z" fill="white"/>
</mask>
<g mask="url(#mask8_470_37)">
<path opacity="0.5" d="M461.151 480.176C461.151 480.176 446.163 489.024 435.513 506.808C424.864 524.591 416.421 549.605 429.534 552.726L441.999 552.255L465.999 544.012L463.484 539.142C463.484 539.142 442.467 550.278 438.875 550.278C435.282 550.278 430.612 551.177 428.635 549.74C426.659 548.303 435.546 515.969 454.545 505.191C473.545 494.414 461.151 480.176 461.151 480.176Z" fill="black" fill-opacity="0.7"/>
</g>
<path d="M461.151 480.176C461.151 480.176 446.163 489.024 435.513 506.808C424.864 524.591 416.421 549.605 429.534 552.726L441.999 552.255L465.999 544.012L463.484 539.142C463.484 539.142 442.467 550.278 438.875 550.278C435.282 550.278 430.612 551.177 428.635 549.74C426.659 548.303 435.546 515.969 454.545 505.191C473.545 494.414 461.151 480.176 461.151 480.176Z" stroke="#263238" stroke-width="1.2096" stroke-miterlimit="10" stroke-linecap="round" stroke-linejoin="round"/>
<path d="M474.803 468.547C474.803 468.547 474.803 463.337 482.706 462.619C490.61 461.9 491.725 469.517 491.725 469.517H489.003C489.003 469.517 489.07 464.957 483.264 464.606C477.458 464.255 477.677 469.517 477.677 469.517L474.803 468.547Z" fill="#92E3A9" stroke="#263238" stroke-width="1.2096" stroke-miterlimit="10" stroke-linecap="round" stroke-linejoin="round"/>
<path d="M463.127 552.727C446.422 552.727 449.592 477.81 451.509 474.076C453.427 470.342 501.896 468.51 506.674 470.081C511.452 471.652 530.615 546.327 520.044 552.255L463.127 552.727Z" fill="#92E3A9"/>
<mask id="mask9_470_37" style="mask-type:luminance" maskUnits="userSpaceOnUse" x="449" y="469" width="75" height="84">
<path d="M463.128 552.727C446.423 552.727 449.593 477.81 451.51 474.076C453.428 470.342 501.897 468.51 506.675 470.081C511.453 471.652 530.616 546.327 520.045 552.255L463.128 552.727Z" fill="white"/>
</mask>
<g mask="url(#mask9_470_37)">
<path opacity="0.2" d="M463.128 552.727C446.423 552.727 449.593 477.81 451.51 474.076C453.428 470.342 501.897 468.51 506.675 470.081C511.453 471.652 530.616 546.327 520.045 552.255L463.128 552.727Z" fill="black" fill-opacity="0.7"/>
</g>
<path d="M463.127 552.727C446.422 552.727 449.592 477.81 451.509 474.076C453.427 470.342 501.896 468.51 506.674 470.081C511.452 471.652 530.615 546.327 520.044 552.255L463.127 552.727Z" stroke="#263238" stroke-width="1.2096" stroke-miterlimit="10" stroke-linecap="round" stroke-linejoin="round"/>
<path d="M451.508 474.076C457.557 475.372 461.038 499.89 469.178 506.133C477.317 512.376 515.704 511.027 520.043 506.133C524.381 501.239 515.898 473.72 509.721 469.516C503.544 465.311 499.166 469.397 481.812 467.467C456.076 464.606 451.508 474.076 451.508 474.076Z" fill="#92E3A9" stroke="#263238" stroke-width="1.2096" stroke-miterlimit="10" stroke-linecap="round" stroke-linejoin="round"/>
<path d="M495.561 488.172L502.673 493.981C503.095 494.326 503.138 494.955 502.768 495.355L497.239 501.33C496.881 501.715 496.278 501.736 495.895 501.373L488.835 494.678C488.439 494.303 488.442 493.67 488.842 493.3L494.322 488.21C494.666 487.89 495.196 487.873 495.561 488.172Z" fill="#92E3A9"/>
<mask id="mask10_470_37" style="mask-type:luminance" maskUnits="userSpaceOnUse" x="488" y="487" width="16" height="15">
<path d="M495.559 488.172L502.67 493.981C503.092 494.326 503.135 494.955 502.765 495.355L497.236 501.33C496.878 501.715 496.275 501.736 495.892 501.373L488.832 494.678C488.436 494.303 488.439 493.67 488.839 493.3L494.319 488.21C494.663 487.89 495.193 487.873 495.559 488.172Z" fill="white"/>
</mask>
<g mask="url(#mask10_470_37)">
<path opacity="0.2" d="M495.559 488.172L502.67 493.981C503.092 494.326 503.135 494.955 502.765 495.355L497.236 501.33C496.878 501.715 496.275 501.736 495.892 501.373L488.832 494.678C488.436 494.303 488.439 493.67 488.839 493.3L494.319 488.21C494.663 487.89 495.193 487.873 495.559 488.172Z" fill="black" fill-opacity="0.7"/>
</g>
<path d="M495.561 488.172L502.673 493.981C503.095 494.326 503.138 494.955 502.768 495.355L497.239 501.33C496.881 501.715 496.278 501.736 495.895 501.373L488.835 494.678C488.439 494.303 488.442 493.67 488.842 493.3L494.322 488.21C494.666 487.89 495.196 487.873 495.561 488.172Z" stroke="#263238" stroke-width="1.2096" stroke-miterlimit="10" stroke-linecap="round" stroke-linejoin="round"/>
<path d="M472.109 518.664C472.109 518.664 504.257 521.31 520.043 517.227C520.043 517.227 523.124 519.383 524.563 523.694C526 528.005 528.998 542.735 520.043 546.507C511.09 550.28 478.935 549.561 474.624 545.249C470.313 540.939 472.109 518.664 472.109 518.664Z" fill="#92E3A9"/>
<mask id="mask11_470_37" style="mask-type:luminance" maskUnits="userSpaceOnUse" x="471" y="517" width="56" height="32">
<path d="M472.113 518.664C472.113 518.664 504.261 521.31 520.047 517.227C520.047 517.227 523.128 519.383 524.566 523.694C526.003 528.005 529.002 542.735 520.047 546.507C511.094 550.28 478.939 549.561 474.628 545.249C470.317 540.939 472.113 518.664 472.113 518.664Z" fill="white"/>
</mask>
<g mask="url(#mask11_470_37)">
<path opacity="0.4" d="M472.111 518.664C472.111 518.664 504.259 521.31 520.045 517.227C520.045 517.227 523.126 519.383 524.564 523.694C526.001 528.005 529 542.735 520.045 546.507C511.092 550.28 478.937 549.561 474.626 545.249C470.315 540.939 472.111 518.664 472.111 518.664Z" fill="black" fill-opacity="0.7"/>
</g>
<path d="M472.109 518.664C472.109 518.664 504.257 521.31 520.043 517.227C520.043 517.227 523.124 519.383 524.563 523.694C526 528.005 528.998 542.735 520.043 546.507C511.09 550.28 478.935 549.561 474.624 545.249C470.313 540.939 472.109 518.664 472.109 518.664Z" stroke="#263238" stroke-width="1.2096" stroke-miterlimit="10" stroke-linecap="round" stroke-linejoin="round"/>
<path d="M472.109 518.664C472.109 518.664 475.882 528.842 477.857 530.4C479.834 531.958 521.593 531.958 526.221 528.185C530.849 524.412 524.507 517.587 520.043 517.227C520.043 517.227 490.79 520.641 472.109 518.664Z" fill="#92E3A9" stroke="#263238" stroke-width="1.2096" stroke-miterlimit="10" stroke-linecap="round" stroke-linejoin="round"/>
<path d="M458.636 516.509C458.636 516.509 459.714 537.885 461.869 542.735C461.869 542.735 456.956 545.609 451.509 542.735C446.062 539.861 446.96 521.445 448.038 521.492C449.115 521.538 458.636 516.509 458.636 516.509Z" fill="#92E3A9"/>
<mask id="mask12_470_37" style="mask-type:luminance" maskUnits="userSpaceOnUse" x="447" y="516" width="15" height="29">
<path d="M458.637 516.509C458.637 516.509 459.715 537.885 461.87 542.735C461.87 542.735 456.957 545.609 451.51 542.735C446.063 539.861 446.961 521.445 448.039 521.492C449.116 521.538 458.637 516.509 458.637 516.509Z" fill="white"/>
</mask>
<g mask="url(#mask12_470_37)">
<path opacity="0.4" d="M458.636 516.509C458.636 516.509 459.714 537.885 461.869 542.735C461.869 542.735 456.956 545.609 451.509 542.735C446.062 539.861 446.96 521.445 448.038 521.492C449.115 521.538 458.636 516.509 458.636 516.509Z" fill="black" fill-opacity="0.7"/>
</g>
<path d="M458.636 516.509C458.636 516.509 459.714 537.885 461.869 542.735C461.869 542.735 456.956 545.609 451.509 542.735C446.062 539.861 446.96 521.445 448.038 521.492C449.115 521.538 458.636 516.509 458.636 516.509Z" stroke="#263238" stroke-width="1.2096" stroke-miterlimit="10" stroke-linecap="round" stroke-linejoin="round"/>
<path d="M458.635 516.509L450.542 518.126C450.542 518.126 442.827 524.053 446.241 526.03C449.653 528.005 458.455 523.156 458.635 516.509Z" fill="#92E3A9" stroke="#263238" stroke-width="1.2096" stroke-miterlimit="10" stroke-linecap="round" stroke-linejoin="round"/>
</svg>
