<svg width="500" height="500" viewBox="0 0 500 500" fill="none" xmlns="http://www.w3.org/2000/svg">
<path d="M460.779 397.506C468.115 381.734 471.359 364.182 473.608 347.135C479.815 300.109 477.336 251.773 463.762 206.041C432.809 101.762 373.286 39.495 297.889 32.743C222.492 25.991 150.27 66.502 122.492 143.023C94.7139 219.544 16.1429 283.312 29.6349 345.579C43.1269 407.846 101.857 450.607 217.73 464.861C268.206 471.07 321.644 473.869 371.349 461.385C399.722 454.259 427.613 440.47 446.775 419.035C452.655 412.459 457.203 405.194 460.779 397.506Z" fill="#92E3A9"/>
<path opacity="0.7" d="M460.779 397.506C468.115 381.734 471.359 364.182 473.608 347.135C479.815 300.109 477.336 251.773 463.762 206.041C432.809 101.762 373.286 39.495 297.889 32.743C222.492 25.991 150.27 66.502 122.492 143.023C94.7139 219.544 16.1429 283.312 29.6349 345.579C43.1269 407.846 101.857 450.607 217.73 464.861C268.206 471.07 321.644 473.869 371.349 461.385C399.722 454.259 427.613 440.47 446.775 419.035C452.655 412.459 457.203 405.194 460.779 397.506Z" fill="white"/>
<path d="M470.231 421H483" stroke="#263238" stroke-miterlimit="10" stroke-linecap="round" stroke-linejoin="round"/>
<path d="M97.0068 421H462.527" stroke="#263238" stroke-miterlimit="10" stroke-linecap="round" stroke-linejoin="round"/>
<path d="M23 421H85.879" stroke="#263238" stroke-miterlimit="10" stroke-linecap="round" stroke-linejoin="round"/>
<path d="M264.916 116.245H250.102V131.059H264.916V116.245Z" fill="#92E3A9" stroke="#263238" stroke-miterlimit="10" stroke-linecap="round" stroke-linejoin="round"/>
<path d="M291.557 137.851L280.396 147.593L290.138 158.754L301.299 149.012L291.557 137.851Z" fill="#92E3A9" stroke="#263238" stroke-miterlimit="10" stroke-linecap="round" stroke-linejoin="round"/>
<path d="M208.213 71.8767L197.052 81.6169L206.792 92.7778L217.953 83.0376L208.213 71.8767Z" fill="#263238" stroke="#263238" stroke-miterlimit="10" stroke-linecap="round" stroke-linejoin="round"/>
<path d="M208.21 131.876L197.049 141.616L206.789 152.777L217.95 143.037L208.21 131.876Z" fill="white" stroke="#263238" stroke-miterlimit="10" stroke-linecap="round" stroke-linejoin="round"/>
<path d="M274.22 71.187L263.06 80.9287L272.801 92.0896L283.962 82.3479L274.22 71.187Z" fill="#92E3A9" stroke="#263238" stroke-miterlimit="10" stroke-linecap="round" stroke-linejoin="round"/>
<path d="M263.395 141.125L266.535 147.487L273.556 148.507L268.475 153.459L269.675 160.451L263.395 157.15L257.116 160.451L258.315 153.459L253.235 148.507L260.255 147.487L263.395 141.125Z" fill="#263238" stroke="#263238" stroke-miterlimit="10" stroke-linecap="round" stroke-linejoin="round"/>
<path d="M209.92 95.999L213.059 102.361L220.08 103.381L215 108.333L216.199 115.326L209.92 112.024L203.64 115.326L204.839 108.333L199.759 103.381L206.78 102.361L209.92 95.999Z" fill="#92E3A9" stroke="#263238" stroke-miterlimit="10" stroke-linecap="round" stroke-linejoin="round"/>
<path d="M302.634 60.713L300.472 67.47L304.812 73.082L297.717 73.113L293.721 78.975L291.499 72.238L284.689 70.248L290.41 66.053L290.198 58.962L295.956 63.107L302.634 60.713Z" fill="white" stroke="#263238" stroke-miterlimit="10" stroke-linecap="round" stroke-linejoin="round"/>
<path d="M255.322 172.81L262.363 173.684L267.074 168.379L268.419 175.345L274.919 178.186L268.71 181.618L268.017 188.678L262.834 183.833L255.905 185.356L258.911 178.93L255.322 172.81Z" fill="#92E3A9" stroke="#263238" stroke-miterlimit="10" stroke-linecap="round" stroke-linejoin="round"/>
<path d="M294.885 123.819C296.212 118.224 292.752 112.612 287.157 111.285C281.562 109.958 275.95 113.417 274.623 119.013C273.296 124.608 276.755 130.219 282.351 131.547C287.946 132.874 293.557 129.414 294.885 123.819Z" fill="white" stroke="#263238" stroke-miterlimit="10" stroke-linecap="round" stroke-linejoin="round"/>
<path d="M251.693 195.03C255.759 190.964 255.759 184.371 251.693 180.305C247.627 176.239 241.034 176.239 236.968 180.305C232.902 184.371 232.902 190.964 236.968 195.03C241.034 199.096 247.627 199.096 251.693 195.03Z" fill="white" stroke="#263238" stroke-miterlimit="10" stroke-linecap="round" stroke-linejoin="round"/>
<path d="M320.647 98.9898C326.033 96.9749 328.765 90.9754 326.75 85.5896C324.735 80.2037 318.736 77.4711 313.35 79.486C307.964 81.501 305.232 87.5005 307.247 92.8863C309.261 98.2721 315.261 101.005 320.647 98.9898Z" fill="#263238" stroke="#263238" stroke-miterlimit="10" stroke-linecap="round" stroke-linejoin="round"/>
<path d="M249.552 105.152C250.879 99.5572 247.419 93.9456 241.824 92.6184C236.229 91.2912 230.617 94.751 229.29 100.346C227.963 105.941 231.422 111.553 237.018 112.88C242.613 114.207 248.224 110.747 249.552 105.152Z" fill="white" stroke="#263238" stroke-miterlimit="10" stroke-linecap="round" stroke-linejoin="round"/>
<path d="M239.952 134.52L223.312 124.064L222.576 143.702L239.952 134.52Z" fill="#263238" stroke="#263238" stroke-miterlimit="10" stroke-linecap="round" stroke-linejoin="round"/>
<path d="M317.874 127.481L314.687 108.088L299.486 120.545L317.874 127.481Z" fill="#263238" stroke="#263238" stroke-miterlimit="10" stroke-linecap="round" stroke-linejoin="round"/>
<path d="M246.272 171.101L247.063 151.465L229.662 160.598L246.272 171.101Z" fill="#92E3A9" stroke="#263238" stroke-miterlimit="10" stroke-linecap="round" stroke-linejoin="round"/>
<path d="M297.034 105.07L297.825 85.433L280.424 94.566L297.034 105.07Z" fill="#92E3A9" stroke="#263238" stroke-miterlimit="10" stroke-linecap="round" stroke-linejoin="round"/>
<path d="M229.094 67.478L239.341 84.248L248.741 66.989L229.094 67.478Z" fill="#92E3A9" stroke="#263238" stroke-miterlimit="10" stroke-linecap="round" stroke-linejoin="round"/>
<g opacity="0.3">
<path d="M392.561 153.104C392.431 153.104 392.305 153.053 392.212 152.962C392.115 152.868 392.061 152.739 392.061 152.604V146.111C392.061 142.789 391.747 131.091 391.744 130.973C391.737 130.703 391.944 130.476 392.214 130.46C392.293 130.455 400.258 129.977 406.875 130.219C413.448 130.455 416.954 130.222 416.99 130.22C417.121 130.216 417.257 130.256 417.357 130.346C417.458 130.436 417.517 130.562 417.524 130.697L418.477 152.342C418.483 152.478 418.433 152.611 418.338 152.71C418.243 152.809 418.113 152.864 417.977 152.864H406.54C402.149 152.864 392.669 153.102 392.574 153.104C392.57 153.104 392.565 153.104 392.561 153.104ZM392.757 131.432C392.817 133.69 393.062 143.166 393.062 146.111V152.092C395.105 152.042 402.73 151.864 406.541 151.864H417.456L416.548 131.245C415.343 131.301 412.03 131.407 406.841 131.219C401.201 131.014 394.576 131.333 392.757 131.432Z" fill="black"/>
<path d="M408.753 132.534C408.753 131.616 408.008 130.871 407.09 130.871C406.172 130.871 405.427 131.615 405.427 132.534C405.427 133.452 406.172 134.197 407.09 134.197C408.008 134.196 408.753 133.452 408.753 132.534Z" fill="black"/>
<path d="M409.03 133.056C409.948 133.056 410.693 132.311 410.693 131.393C410.693 130.475 409.948 129.73 409.03 129.73C408.111 129.73 407.367 130.475 407.367 131.393C407.367 132.311 408.111 133.056 409.03 133.056Z" fill="black"/>
<path d="M405.039 134.615C404.902 134.615 404.767 134.559 404.668 134.45C404.482 134.245 404.499 133.929 404.704 133.744L405.845 132.717C406.049 132.531 406.366 132.549 406.551 132.754C406.737 132.959 406.72 133.275 406.515 133.46L405.374 134.487C405.278 134.572 405.158 134.615 405.039 134.615Z" fill="black"/>
<path d="M410.754 139.129H397.856C397.58 139.129 397.356 138.905 397.356 138.629C397.356 138.353 397.58 138.129 397.856 138.129H410.754C411.03 138.129 411.254 138.353 411.254 138.629C411.254 138.906 411.03 139.129 410.754 139.129Z" fill="black"/>
<path d="M411.513 143.429H397.856C397.58 143.429 397.356 143.205 397.356 142.929C397.356 142.653 397.58 142.429 397.856 142.429H411.513C411.789 142.429 412.013 142.653 412.013 142.929C412.013 143.205 411.789 143.429 411.513 143.429Z" fill="black"/>
<path d="M411.766 147.476H397.856C397.58 147.476 397.356 147.252 397.356 146.976C397.356 146.7 397.58 146.476 397.856 146.476H411.766C412.042 146.476 412.266 146.7 412.266 146.976C412.266 147.252 412.042 147.476 411.766 147.476Z" fill="black"/>
</g>
<g opacity="0.3">
<path d="M456.05 226.388C455.92 226.388 455.794 226.337 455.701 226.246C455.604 226.152 455.55 226.023 455.55 225.888V219.395C455.55 216.073 455.236 204.375 455.233 204.257C455.226 203.987 455.433 203.76 455.703 203.744C455.782 203.739 463.747 203.261 470.364 203.503C476.937 203.739 480.443 203.506 480.479 203.503C480.61 203.499 480.746 203.539 480.846 203.629C480.947 203.719 481.006 203.845 481.013 203.98L481.966 225.625C481.972 225.761 481.922 225.894 481.827 225.993C481.732 226.092 481.602 226.147 481.466 226.147H470.028C465.637 226.147 456.157 226.385 456.062 226.387C456.059 226.388 456.054 226.388 456.05 226.388ZM456.245 204.716C456.305 206.974 456.55 216.45 456.55 219.395V225.376C458.593 225.326 466.218 225.148 470.029 225.148H480.944L480.036 204.529C478.831 204.585 475.518 204.691 470.329 204.503C464.69 204.298 458.065 204.618 456.245 204.716Z" fill="black"/>
<path d="M472.241 205.818C472.241 204.9 471.497 204.155 470.578 204.155C469.659 204.155 468.915 204.899 468.915 205.818C468.915 206.737 469.659 207.481 470.578 207.481C471.497 207.481 472.241 206.736 472.241 205.818Z" fill="black"/>
<path d="M474.181 204.677C474.181 203.759 473.437 203.014 472.518 203.014C471.599 203.014 470.855 203.759 470.855 204.677C470.855 205.595 471.599 206.34 472.518 206.34C473.437 206.34 474.181 205.595 474.181 204.677Z" fill="black"/>
<path d="M468.528 207.899C468.391 207.899 468.256 207.843 468.157 207.734C467.971 207.529 467.988 207.213 468.193 207.028L469.334 206.001C469.538 205.815 469.856 205.832 470.04 206.038C470.225 206.243 470.209 206.559 470.004 206.744L468.863 207.771C468.767 207.856 468.647 207.899 468.528 207.899Z" fill="black"/>
<path d="M474.242 212.414H461.344C461.068 212.414 460.844 212.19 460.844 211.914C460.844 211.638 461.068 211.414 461.344 211.414H474.242C474.518 211.414 474.742 211.638 474.742 211.914C474.742 212.19 474.519 212.414 474.242 212.414Z" fill="black"/>
<path d="M475.001 216.713H461.344C461.068 216.713 460.844 216.489 460.844 216.213C460.844 215.937 461.068 215.713 461.344 215.713H475.001C475.277 215.713 475.501 215.937 475.501 216.213C475.501 216.489 475.278 216.713 475.001 216.713Z" fill="black"/>
<path d="M475.254 220.76H461.344C461.068 220.76 460.844 220.536 460.844 220.26C460.844 219.984 461.068 219.76 461.344 219.76H475.254C475.53 219.76 475.754 219.984 475.754 220.26C475.754 220.536 475.531 220.76 475.254 220.76Z" fill="black"/>
</g>
<g opacity="0.3">
<path d="M161.011 190.351C160.881 190.351 160.755 190.3 160.662 190.209C160.565 190.115 160.511 189.986 160.511 189.851V183.358C160.511 180.036 160.197 168.338 160.194 168.22C160.187 167.95 160.394 167.723 160.664 167.707C160.743 167.702 168.708 167.224 175.325 167.466C181.898 167.702 185.404 167.469 185.44 167.467C185.571 167.463 185.707 167.503 185.807 167.593C185.908 167.683 185.967 167.809 185.974 167.944L186.927 189.589C186.933 189.725 186.883 189.858 186.788 189.957C186.693 190.056 186.563 190.111 186.427 190.111H174.989C170.598 190.111 161.118 190.349 161.023 190.351C161.02 190.351 161.015 190.351 161.011 190.351ZM161.206 168.679C161.265 170.937 161.511 180.413 161.511 183.358V189.339C163.554 189.289 171.179 189.111 174.99 189.111H185.905L184.997 168.492C183.792 168.548 180.479 168.654 175.29 168.466C169.65 168.261 163.025 168.581 161.206 168.679Z" fill="black"/>
<path d="M177.202 169.781C177.202 168.863 176.458 168.118 175.539 168.118C174.621 168.118 173.876 168.863 173.876 169.781C173.876 170.699 174.62 171.444 175.539 171.444C176.457 171.443 177.202 170.699 177.202 169.781Z" fill="black"/>
<path d="M179.142 168.639C179.142 167.721 178.397 166.976 177.479 166.976C176.561 166.976 175.816 167.72 175.816 168.639C175.816 169.557 176.56 170.302 177.479 170.302C178.397 170.302 179.142 169.558 179.142 168.639Z" fill="black"/>
<path d="M173.488 171.862C173.351 171.862 173.215 171.806 173.117 171.697C172.931 171.492 172.948 171.176 173.153 170.991L174.294 169.964C174.498 169.778 174.815 169.795 175 170.001C175.186 170.206 175.169 170.522 174.964 170.707L173.823 171.734C173.727 171.819 173.607 171.862 173.488 171.862Z" fill="black"/>
<path d="M179.203 176.376H166.305C166.029 176.376 165.805 176.152 165.805 175.876C165.805 175.6 166.029 175.376 166.305 175.376H179.203C179.479 175.376 179.703 175.6 179.703 175.876C179.703 176.153 179.479 176.376 179.203 176.376Z" fill="black"/>
<path d="M179.962 180.676H166.305C166.029 180.676 165.805 180.452 165.805 180.176C165.805 179.9 166.029 179.676 166.305 179.676H179.962C180.238 179.676 180.462 179.9 180.462 180.176C180.462 180.452 180.238 180.676 179.962 180.676Z" fill="black"/>
<path d="M180.215 184.723H166.305C166.029 184.723 165.805 184.499 165.805 184.223C165.805 183.947 166.029 183.723 166.305 183.723H180.215C180.491 183.723 180.715 183.947 180.715 184.223C180.715 184.499 180.491 184.723 180.215 184.723Z" fill="black"/>
</g>
<g opacity="0.3">
<path d="M357.865 186.045C357.735 186.045 357.609 185.994 357.516 185.903C357.419 185.809 357.365 185.68 357.365 185.545V179.052C357.365 175.73 357.051 164.032 357.048 163.914C357.041 163.644 357.248 163.417 357.518 163.401C357.597 163.396 365.562 162.918 372.179 163.16C378.752 163.396 382.258 163.163 382.294 163.161C382.425 163.157 382.561 163.197 382.661 163.287C382.762 163.377 382.821 163.503 382.828 163.638L383.781 185.283C383.787 185.419 383.737 185.552 383.642 185.651C383.547 185.75 383.417 185.805 383.281 185.805H371.843C367.452 185.805 357.972 186.043 357.877 186.045C357.874 186.045 357.869 186.045 357.865 186.045ZM358.06 164.372C358.12 166.63 358.365 176.106 358.365 179.051V185.032C360.408 184.982 368.033 184.804 371.844 184.804H382.759L381.851 164.185C380.646 164.241 377.333 164.347 372.144 164.159C366.504 163.955 359.879 164.274 358.06 164.372Z" fill="black"/>
<path d="M374.056 165.475C374.056 164.557 373.312 163.812 372.393 163.812C371.475 163.812 370.73 164.557 370.73 165.475C370.73 166.393 371.474 167.138 372.393 167.138C373.312 167.137 374.056 166.393 374.056 165.475Z" fill="black"/>
<path d="M375.996 164.333C375.996 163.415 375.251 162.67 374.333 162.67C373.415 162.67 372.67 163.414 372.67 164.333C372.67 165.252 373.414 165.996 374.333 165.996C375.252 165.996 375.996 165.252 375.996 164.333Z" fill="black"/>
<path d="M370.342 167.556C370.205 167.556 370.07 167.5 369.971 167.391C369.785 167.186 369.802 166.87 370.007 166.685L371.148 165.658C371.352 165.472 371.669 165.49 371.854 165.695C372.039 165.9 372.023 166.216 371.818 166.401L370.677 167.428C370.582 167.513 370.461 167.556 370.342 167.556Z" fill="black"/>
<path d="M376.057 172.07H363.159C362.883 172.07 362.659 171.846 362.659 171.57C362.659 171.294 362.883 171.07 363.159 171.07H376.057C376.333 171.07 376.557 171.294 376.557 171.57C376.557 171.847 376.334 172.07 376.057 172.07Z" fill="black"/>
<path d="M376.816 176.37H363.159C362.883 176.37 362.659 176.146 362.659 175.87C362.659 175.594 362.883 175.37 363.159 175.37H376.816C377.092 175.37 377.316 175.594 377.316 175.87C377.316 176.146 377.092 176.37 376.816 176.37Z" fill="black"/>
<path d="M377.069 180.416H363.159C362.883 180.416 362.659 180.192 362.659 179.916C362.659 179.64 362.883 179.416 363.159 179.416H377.069C377.345 179.416 377.569 179.64 377.569 179.916C377.569 180.193 377.345 180.416 377.069 180.416Z" fill="black"/>
</g>
<g opacity="0.3">
<path d="M419.198 186.045C419.068 186.045 418.942 185.994 418.849 185.903C418.752 185.809 418.698 185.68 418.698 185.545V179.052C418.698 175.73 418.384 164.032 418.381 163.914C418.374 163.644 418.581 163.417 418.851 163.401C418.93 163.396 426.895 162.918 433.512 163.16C440.085 163.396 443.591 163.163 443.627 163.161C443.758 163.157 443.894 163.197 443.994 163.287C444.095 163.377 444.154 163.503 444.161 163.638L445.114 185.283C445.12 185.419 445.07 185.552 444.975 185.651C444.88 185.75 444.75 185.805 444.614 185.805H433.176C428.785 185.805 419.305 186.043 419.21 186.045C419.207 186.045 419.202 186.045 419.198 186.045ZM419.393 164.372C419.453 166.63 419.698 176.106 419.698 179.051V185.032C421.741 184.982 429.366 184.804 433.177 184.804H444.092L443.184 164.185C441.979 164.241 438.666 164.347 433.477 164.159C427.838 163.955 421.213 164.274 419.393 164.372Z" fill="black"/>
<path d="M435.389 165.475C435.389 164.557 434.645 163.812 433.726 163.812C432.807 163.812 432.063 164.557 432.063 165.475C432.063 166.393 432.807 167.138 433.726 167.138C434.645 167.138 435.389 166.393 435.389 165.475Z" fill="black"/>
<path d="M437.329 164.333C437.329 163.415 436.585 162.67 435.666 162.67C434.747 162.67 434.003 163.414 434.003 164.333C434.003 165.252 434.748 165.996 435.666 165.996C436.584 165.996 437.329 165.252 437.329 164.333Z" fill="black"/>
<path d="M431.676 167.556C431.539 167.556 431.404 167.5 431.305 167.391C431.119 167.186 431.136 166.87 431.341 166.685L432.482 165.658C432.686 165.472 433.004 165.49 433.188 165.695C433.374 165.9 433.357 166.216 433.152 166.401L432.011 167.428C431.915 167.513 431.795 167.556 431.676 167.556Z" fill="black"/>
<path d="M437.391 172.07H424.493C424.217 172.07 423.993 171.846 423.993 171.57C423.993 171.294 424.217 171.07 424.493 171.07H437.391C437.667 171.07 437.891 171.294 437.891 171.57C437.891 171.847 437.667 172.07 437.391 172.07Z" fill="black"/>
<path d="M438.149 176.37H424.492C424.216 176.37 423.992 176.146 423.992 175.87C423.992 175.594 424.216 175.37 424.492 175.37H438.149C438.425 175.37 438.649 175.594 438.649 175.87C438.649 176.146 438.426 176.37 438.149 176.37Z" fill="black"/>
<path d="M438.402 180.416H424.492C424.216 180.416 423.992 180.192 423.992 179.916C423.992 179.64 424.216 179.416 424.492 179.416H438.402C438.678 179.416 438.902 179.64 438.902 179.916C438.902 180.193 438.679 180.416 438.402 180.416Z" fill="black"/>
</g>
<g opacity="0.3">
<path d="M430.38 134.645C430.25 134.645 430.124 134.594 430.031 134.503C429.934 134.409 429.88 134.28 429.88 134.145V127.652C429.88 124.33 429.566 112.632 429.563 112.514C429.556 112.244 429.763 112.017 430.033 112.001C430.112 111.996 438.077 111.518 444.694 111.76C451.267 111.996 454.773 111.764 454.809 111.761C454.94 111.757 455.076 111.797 455.176 111.887C455.277 111.977 455.336 112.103 455.343 112.238L456.296 133.883C456.302 134.019 456.252 134.152 456.157 134.251C456.062 134.35 455.932 134.405 455.796 134.405H444.358C439.967 134.405 430.487 134.643 430.392 134.645C430.389 134.645 430.384 134.645 430.38 134.645ZM430.576 112.973C430.636 115.231 430.881 124.707 430.881 127.652V133.633C432.924 133.583 440.549 133.405 444.36 133.405H455.275L454.367 112.786C453.162 112.842 449.849 112.948 444.66 112.76C439.02 112.555 432.395 112.874 430.576 112.973Z" fill="black"/>
<path d="M446.571 114.075C446.571 113.157 445.826 112.412 444.908 112.412C443.99 112.412 443.245 113.156 443.245 114.075C443.245 114.994 443.989 115.738 444.908 115.738C445.827 115.737 446.571 114.993 446.571 114.075Z" fill="black"/>
<path d="M446.849 114.597C447.767 114.597 448.512 113.852 448.512 112.934C448.512 112.016 447.767 111.271 446.849 111.271C445.931 111.271 445.186 112.016 445.186 112.934C445.186 113.852 445.931 114.597 446.849 114.597Z" fill="black"/>
<path d="M442.858 116.156C442.721 116.156 442.586 116.1 442.487 115.99C442.301 115.785 442.318 115.469 442.523 115.284L443.664 114.257C443.868 114.071 444.185 114.089 444.37 114.294C444.556 114.499 444.539 114.815 444.334 115L443.193 116.027C443.097 116.113 442.977 116.156 442.858 116.156Z" fill="black"/>
<path d="M448.573 120.67H435.675C435.399 120.67 435.175 120.446 435.175 120.17C435.175 119.894 435.399 119.67 435.675 119.67H448.573C448.849 119.67 449.073 119.894 449.073 120.17C449.073 120.447 448.849 120.67 448.573 120.67Z" fill="black"/>
<path d="M449.331 124.97H435.674C435.398 124.97 435.174 124.746 435.174 124.47C435.174 124.194 435.398 123.97 435.674 123.97H449.331C449.607 123.97 449.831 124.194 449.831 124.47C449.831 124.746 449.608 124.97 449.331 124.97Z" fill="black"/>
<path d="M449.584 129.017H435.674C435.398 129.017 435.174 128.793 435.174 128.517C435.174 128.241 435.398 128.017 435.674 128.017H449.584C449.86 128.017 450.084 128.241 450.084 128.517C450.084 128.793 449.861 129.017 449.584 129.017Z" fill="black"/>
</g>
<g opacity="0.3">
<path d="M353.714 129.312C353.584 129.312 353.458 129.261 353.365 129.17C353.268 129.076 353.214 128.947 353.214 128.812V122.319C353.214 118.997 352.9 107.299 352.897 107.181C352.89 106.911 353.097 106.684 353.367 106.668C353.446 106.663 361.411 106.185 368.028 106.427C374.601 106.663 378.107 106.43 378.143 106.428C378.274 106.424 378.41 106.464 378.51 106.554C378.611 106.644 378.67 106.77 378.677 106.905L379.63 128.55C379.636 128.686 379.586 128.819 379.491 128.918C379.396 129.017 379.266 129.072 379.13 129.072H367.692C363.301 129.072 353.821 129.31 353.726 129.312C353.722 129.312 353.717 129.312 353.714 129.312ZM353.909 107.639C353.968 109.897 354.214 119.373 354.214 122.318V128.299C356.257 128.249 363.882 128.071 367.693 128.071H378.608L377.7 107.452C376.495 107.508 373.182 107.614 367.993 107.426C362.353 107.222 355.728 107.541 353.909 107.639Z" fill="black"/>
<path d="M368.242 110.404C369.161 110.404 369.905 109.659 369.905 108.741C369.905 107.823 369.161 107.078 368.242 107.078C367.324 107.078 366.579 107.823 366.579 108.741C366.579 109.659 367.324 110.404 368.242 110.404Z" fill="black"/>
<path d="M371.845 107.6C371.845 106.682 371.1 105.937 370.182 105.937C369.264 105.937 368.519 106.681 368.519 107.6C368.519 108.518 369.263 109.263 370.182 109.263C371.1 109.263 371.845 108.519 371.845 107.6Z" fill="black"/>
<path d="M366.191 110.822C366.054 110.822 365.918 110.766 365.82 110.656C365.634 110.451 365.651 110.135 365.856 109.95L366.997 108.923C367.201 108.737 367.518 108.754 367.703 108.96C367.889 109.165 367.872 109.481 367.667 109.666L366.526 110.693C366.43 110.78 366.31 110.822 366.191 110.822Z" fill="black"/>
<path d="M371.906 115.337H359.008C358.732 115.337 358.508 115.113 358.508 114.837C358.508 114.561 358.732 114.337 359.008 114.337H371.906C372.182 114.337 372.406 114.561 372.406 114.837C372.406 115.113 372.182 115.337 371.906 115.337Z" fill="black"/>
<path d="M372.665 119.636H359.008C358.732 119.636 358.508 119.412 358.508 119.136C358.508 118.86 358.732 118.636 359.008 118.636H372.665C372.941 118.636 373.165 118.86 373.165 119.136C373.165 119.413 372.941 119.636 372.665 119.636Z" fill="black"/>
<path d="M372.918 123.683H359.008C358.732 123.683 358.508 123.459 358.508 123.183C358.508 122.907 358.732 122.683 359.008 122.683H372.918C373.194 122.683 373.418 122.907 373.418 123.183C373.418 123.46 373.194 123.683 372.918 123.683Z" fill="black"/>
</g>
<g opacity="0.3">
<path d="M73.438 129.333H60.333V142.438H73.438V129.333Z" stroke="black" stroke-miterlimit="10" stroke-linecap="round" stroke-linejoin="round"/>
<path d="M79.4438 135.886H117.667" stroke="black" stroke-miterlimit="10" stroke-linecap="round" stroke-linejoin="round"/>
<path d="M73.438 149.333H60.333V162.438H73.438V149.333Z" stroke="black" stroke-miterlimit="10" stroke-linecap="round" stroke-linejoin="round"/>
<path d="M79.4438 155.886H117.667" stroke="black" stroke-miterlimit="10" stroke-linecap="round" stroke-linejoin="round"/>
<path d="M73.438 169.333H60.333V182.438H73.438V169.333Z" stroke="black" stroke-miterlimit="10" stroke-linecap="round" stroke-linejoin="round"/>
<path d="M79.4438 175.886H117.667" stroke="black" stroke-miterlimit="10" stroke-linecap="round" stroke-linejoin="round"/>
<path d="M73.438 189.333H60.333V202.438H73.438V189.333Z" stroke="black" stroke-miterlimit="10" stroke-linecap="round" stroke-linejoin="round"/>
<path d="M79.4438 195.886H117.667" stroke="black" stroke-miterlimit="10" stroke-linecap="round" stroke-linejoin="round"/>
<path d="M63.667 173.333L65.667 178.667L79.667 169.333" stroke="black" stroke-miterlimit="10" stroke-linecap="round" stroke-linejoin="round"/>
<path d="M63.667 132.667L65.667 138L79.667 128.667" stroke="black" stroke-miterlimit="10" stroke-linecap="round" stroke-linejoin="round"/>
</g>
<g opacity="0.3">
<path d="M134.627 226.456H125.667V235.416H134.627V226.456Z" stroke="black" stroke-miterlimit="10" stroke-linecap="round" stroke-linejoin="round"/>
<path d="M138.733 230.936H164.866" stroke="black" stroke-miterlimit="10" stroke-linecap="round" stroke-linejoin="round"/>
<path d="M134.627 240.13H125.667V249.09H134.627V240.13Z" stroke="black" stroke-miterlimit="10" stroke-linecap="round" stroke-linejoin="round"/>
<path d="M138.733 244.61H164.866" stroke="black" stroke-miterlimit="10" stroke-linecap="round" stroke-linejoin="round"/>
<path d="M134.627 253.804H125.667V262.764H134.627V253.804Z" stroke="black" stroke-miterlimit="10" stroke-linecap="round" stroke-linejoin="round"/>
<path d="M138.733 258.284H164.866" stroke="black" stroke-miterlimit="10" stroke-linecap="round" stroke-linejoin="round"/>
<path d="M134.627 267.478H125.667V276.438H134.627V267.478Z" stroke="black" stroke-miterlimit="10" stroke-linecap="round" stroke-linejoin="round"/>
<path d="M138.733 271.958H164.866" stroke="black" stroke-miterlimit="10" stroke-linecap="round" stroke-linejoin="round"/>
<path d="M127.946 256.539L129.313 260.185L138.885 253.804" stroke="black" stroke-miterlimit="10" stroke-linecap="round" stroke-linejoin="round"/>
<path d="M127.946 228.735L129.313 232.381L138.885 226" stroke="black" stroke-miterlimit="10" stroke-linecap="round" stroke-linejoin="round"/>
</g>
<path opacity="0.3" d="M174.111 94.726V89.667L168.499 88.794C168.222 87.801 167.833 86.858 167.337 85.979L170.685 81.397L167.107 77.819L162.525 81.168C161.647 80.672 160.703 80.283 159.71 80.006L158.837 74.394H153.778L152.905 80.006C151.912 80.283 150.968 80.672 150.09 81.168L145.508 77.819L141.93 81.397L145.278 85.979C144.782 86.857 144.393 87.801 144.116 88.794L138.504 89.667V94.726L144.116 95.599C144.393 96.592 144.782 97.536 145.278 98.414L141.93 102.996L145.508 106.574L150.09 103.225C150.968 103.721 151.912 104.111 152.905 104.387L153.778 109.999H158.837L159.71 104.387C160.703 104.11 161.646 103.721 162.525 103.225L167.107 106.574L170.685 102.996L167.337 98.414C167.833 97.536 168.223 96.592 168.499 95.599L174.111 94.726ZM156.309 100.197C151.891 100.197 148.309 96.615 148.309 92.197C148.309 87.779 151.891 84.197 156.309 84.197C160.727 84.197 164.309 87.779 164.309 92.197C164.309 96.615 160.727 100.197 156.309 100.197Z" stroke="black" stroke-miterlimit="10" stroke-linecap="round" stroke-linejoin="round"/>
<path opacity="0.3" d="M141 110.197V106.811L137.244 106.227C137.059 105.563 136.799 104.931 136.466 104.343L138.707 101.277L136.313 98.8831L133.247 101.124C132.659 100.792 132.028 100.531 131.363 100.346L130.779 96.5901H127.393L126.809 100.346C126.145 100.531 125.513 100.792 124.925 101.124L121.859 98.8831L119.465 101.277L121.706 104.343C121.374 104.931 121.114 105.562 120.928 106.227L117.173 106.811V110.197L120.928 110.781C121.113 111.445 121.374 112.077 121.706 112.665L119.465 115.731L121.859 118.125L124.925 115.884C125.513 116.216 126.144 116.477 126.809 116.662L127.393 120.417H130.779L131.363 116.662C132.027 116.477 132.659 116.216 133.247 115.884L136.313 118.125L138.707 115.731L136.466 112.665C136.798 112.077 137.059 111.446 137.244 110.781L141 110.197ZM129.086 113.857C126.129 113.857 123.732 111.46 123.732 108.503C123.732 105.546 126.129 103.149 129.086 103.149C132.043 103.149 134.44 105.546 134.44 108.503C134.44 111.46 132.043 113.857 129.086 113.857Z" stroke="black" stroke-miterlimit="10" stroke-linecap="round" stroke-linejoin="round"/>
<path opacity="0.3" d="M319.321 321.551L316.633 325.837L320.923 329.558C320.63 330.546 320.458 331.552 320.412 332.56L315.141 334.663L316.271 339.595L321.932 339.193C322.412 340.08 323.005 340.911 323.699 341.673L321.457 346.891L325.743 349.579L329.464 345.289C330.452 345.582 331.458 345.754 332.466 345.8L334.569 351.071L339.501 349.941L339.099 344.28C339.986 343.8 340.817 343.207 341.579 342.513L346.797 344.755L349.485 340.469L345.195 336.748C345.488 335.76 345.66 334.754 345.706 333.746L350.977 331.643L349.847 326.711L344.186 327.113C343.706 326.226 343.113 325.395 342.419 324.633L344.661 319.415L340.375 316.727L336.654 321.017C335.666 320.724 334.66 320.552 333.652 320.506L331.549 315.235L326.617 316.365L327.019 322.026C326.132 322.506 325.301 323.099 324.539 323.793L319.321 321.551ZM337.309 326.375C341.052 328.722 342.183 333.66 339.836 337.403C337.488 341.146 332.551 342.277 328.808 339.93C325.065 337.583 323.933 332.645 326.281 328.902C328.629 325.159 333.566 324.027 337.309 326.375Z" stroke="black" stroke-miterlimit="10" stroke-linecap="round" stroke-linejoin="round"/>
<path opacity="0.3" d="M355.592 326.037L353.793 328.905L356.664 331.395C356.468 332.056 356.353 332.73 356.322 333.404L352.795 334.811L353.551 338.111L357.339 337.842C357.66 338.436 358.057 338.992 358.521 339.502L357.021 342.994L359.889 344.793L362.379 341.922C363.04 342.118 363.714 342.233 364.388 342.264L365.795 345.791L369.095 345.035L368.826 341.247C369.42 340.925 369.976 340.529 370.486 340.064L373.978 341.564L375.777 338.696L372.906 336.206C373.102 335.545 373.217 334.871 373.248 334.197L376.775 332.79L376.019 329.49L372.231 329.759C371.909 329.165 371.513 328.609 371.049 328.099L372.549 324.607L369.681 322.808L367.191 325.679C366.53 325.483 365.856 325.368 365.182 325.337L363.775 321.81L360.475 322.566L360.744 326.354C360.15 326.676 359.594 327.072 359.084 327.537L355.592 326.037ZM367.63 329.265C370.135 330.836 370.892 334.14 369.321 336.645C367.75 339.15 364.446 339.907 361.941 338.336C359.436 336.765 358.679 333.461 360.25 330.956C361.821 328.451 365.125 327.694 367.63 329.265Z" stroke="black" stroke-miterlimit="10" stroke-linecap="round" stroke-linejoin="round"/>
<path d="M25.2288 304.624H109.612V257.871H25.2288V304.624Z" fill="white" stroke="#263238" stroke-miterlimit="10" stroke-linecap="round" stroke-linejoin="round"/>
<path d="M27.7942 304.624H112.177V257.871H27.7942V304.624Z" fill="white" stroke="#263238" stroke-miterlimit="10" stroke-linecap="round" stroke-linejoin="round"/>
<path d="M70.3311 265.095L56.3291 289.347H84.3331L70.3311 265.095Z" fill="#92E3A9" stroke="#263238" stroke-miterlimit="10" stroke-linecap="round" stroke-linejoin="round"/>
<path d="M482.123 341.871H397.74V388.624H482.123V341.871Z" fill="white" stroke="#263238" stroke-miterlimit="10" stroke-linecap="round" stroke-linejoin="round"/>
<path d="M479.557 341.871H395.174V388.624H479.557V341.871Z" fill="white" stroke="#263238" stroke-miterlimit="10" stroke-linecap="round" stroke-linejoin="round"/>
<path d="M435.855 350.753L440.329 359.818L450.333 361.272L443.094 368.328L444.803 378.292L435.855 373.588L426.907 378.292L428.616 368.328L421.376 361.272L431.381 359.818L435.855 350.753Z" fill="#92E3A9" stroke="#263238" stroke-miterlimit="10" stroke-linecap="round" stroke-linejoin="round"/>
<path d="M236.64 258.767C236.64 258.767 204.017 267.845 202.598 270.965C201.18 274.085 182.74 307.56 182.74 307.56L199.193 331.389L213.377 312.95L218.483 356.637C218.483 356.637 212.242 366.849 214.512 371.388C216.782 375.927 220.753 377.629 220.753 377.629H295.077C295.077 377.629 299.616 372.239 298.481 365.147C297.346 358.055 295.36 349.261 295.36 349.261L295.076 324.297L303.586 298.199L345.287 297.915L338.195 268.696C338.195 268.696 309.26 262.455 307.274 261.32C305.288 260.185 295.36 258.2 290.537 258.2C285.715 258.2 276.92 258.2 276.92 258.2L239.191 257.916L236.64 258.767Z" fill="#92E3A9" stroke="#263238" stroke-miterlimit="10" stroke-linecap="round" stroke-linejoin="round"/>
<path d="M207.317 289.539L213.379 312.95L202.031 292.525" stroke="#263238" stroke-miterlimit="10" stroke-linecap="round" stroke-linejoin="round"/>
<path d="M205.152 281.178L206.145 285.015" stroke="#263238" stroke-miterlimit="10" stroke-linecap="round" stroke-linejoin="round"/>
<path d="M196.328 303.428L191.535 300.752" stroke="#263238" stroke-miterlimit="10" stroke-linecap="round" stroke-linejoin="round"/>
<path d="M213.379 312.95L198.891 304.86" stroke="#263238" stroke-miterlimit="10" stroke-linecap="round" stroke-linejoin="round"/>
<path d="M309.83 274.937L303.589 298.199L316.071 274.937" stroke="#263238" stroke-miterlimit="10" stroke-linecap="round" stroke-linejoin="round"/>
<path d="M326.706 284.085L330.538 281.746" stroke="#263238" stroke-miterlimit="10" stroke-linecap="round" stroke-linejoin="round"/>
<path d="M303.589 298.199L322.547 286.624" stroke="#263238" stroke-miterlimit="10" stroke-linecap="round" stroke-linejoin="round"/>
<path d="M272.577 334.683L276.072 331.957" stroke="#263238" stroke-miterlimit="10" stroke-linecap="round" stroke-linejoin="round"/>
<path d="M233.52 365.147L269.873 336.792" stroke="#263238" stroke-miterlimit="10" stroke-linecap="round" stroke-linejoin="round"/>
<path d="M253.945 345.573L233.52 360.041" stroke="#263238" stroke-miterlimit="10" stroke-linecap="round" stroke-linejoin="round"/>
<path d="M243.449 238.342L241.747 260.753L258.484 279.476L272.951 261.604L268.413 239.477L243.449 238.342Z" fill="white" stroke="#263238" stroke-miterlimit="10" stroke-linecap="round" stroke-linejoin="round"/>
<path d="M268.413 239.477L243.449 238.342L243.02 243.991C246.751 248.316 254.217 257.793 257.24 258.548C259.774 259.181 266.285 251.915 269.89 246.678L268.413 239.477Z" fill="#263238" stroke="#263238" stroke-miterlimit="10" stroke-linecap="round" stroke-linejoin="round"/>
<path d="M238.91 247.137L254.512 266.994L243.732 287.703L233.804 259.051L238.91 247.137Z" fill="white" stroke="#263238" stroke-miterlimit="10" stroke-linecap="round" stroke-linejoin="round"/>
<path d="M275.504 247.137L259.902 266.994L270.682 287.703L280.611 259.051L275.504 247.137Z" fill="white" stroke="#263238" stroke-miterlimit="10" stroke-linecap="round" stroke-linejoin="round"/>
<path d="M233.534 209.123C233.534 209.123 230.414 202.598 227.577 207.705C224.74 212.811 233.818 223.024 234.953 223.024C236.087 223.024 233.534 209.123 233.534 209.123Z" fill="white" stroke="#263238" stroke-miterlimit="10" stroke-linecap="round" stroke-linejoin="round"/>
<path d="M278.639 209.123C278.639 209.123 281.76 202.598 284.596 207.705C287.432 212.812 278.355 223.024 277.22 223.024C276.086 223.024 278.639 209.123 278.639 209.123Z" fill="white" stroke="#263238" stroke-miterlimit="10" stroke-linecap="round" stroke-linejoin="round"/>
<path d="M231.575 187.564C231.798 192.21 233.453 224.969 236.087 231.818C238.924 239.194 251.973 251.108 258.214 250.541C264.455 249.974 275.519 236.073 276.937 230.967C278.212 226.376 279.258 194.044 279.456 187.564H231.575Z" fill="white" stroke="#263238" stroke-miterlimit="10" stroke-linecap="round" stroke-linejoin="round"/>
<path d="M238.924 213.662C238.924 213.662 242.896 217.917 250.271 213.378" stroke="#263238" stroke-miterlimit="10" stroke-linecap="round" stroke-linejoin="round"/>
<path d="M274.1 213.662C274.1 213.662 270.128 217.917 262.753 213.378" stroke="#263238" stroke-miterlimit="10" stroke-linecap="round" stroke-linejoin="round"/>
<path d="M253.108 224.726C253.108 224.726 255.945 230.116 262.186 224.726" stroke="#263238" stroke-miterlimit="10" stroke-linecap="round" stroke-linejoin="round"/>
<path d="M254.81 234.371H259.916" stroke="#263238" stroke-miterlimit="10" stroke-linecap="round" stroke-linejoin="round"/>
<path d="M237.222 206.003C237.222 206.003 239.208 204.017 249.42 205.719" stroke="#263238" stroke-width="2" stroke-miterlimit="10" stroke-linecap="round" stroke-linejoin="round"/>
<path d="M274.384 206.003C274.384 206.003 272.398 204.017 262.186 205.719" stroke="#263238" stroke-width="2" stroke-miterlimit="10" stroke-linecap="round" stroke-linejoin="round"/>
<path d="M345.006 267.845C345.006 267.845 375.643 203.45 378.764 203.166C381.884 202.882 385.572 207.137 384.438 212.811C383.304 218.485 367.701 272.951 364.297 284.298C360.893 295.645 356.354 300.184 352.666 298.766C348.978 297.348 345.006 267.845 345.006 267.845Z" fill="white" stroke="#263238" stroke-miterlimit="10" stroke-linecap="round" stroke-linejoin="round"/>
<path d="M171.215 307.498C171.215 307.498 186.882 343.075 190.515 342.445C194.149 341.815 204.945 331.019 205.445 328.917C205.944 326.815 198.733 315.109 191.47 309.746C184.207 304.383 181.862 302.486 180.744 302.68C179.626 302.873 173.026 306.32 171.215 307.498Z" fill="white" stroke="#263238" stroke-miterlimit="10" stroke-linecap="round" stroke-linejoin="round"/>
<path d="M335.645 265.859C335.645 265.859 332.808 284.866 335.361 292.525C337.914 300.184 340.467 301.319 344.722 301.603C348.977 301.887 355.218 300.752 356.353 297.915C357.488 295.078 347.275 267.278 346.14 265.292C345.006 263.306 339.332 263.59 335.645 265.859Z" fill="white" stroke="#263238" stroke-miterlimit="10" stroke-linecap="round" stroke-linejoin="round"/>
<path d="M117.62 298.936C114.34 296.625 110.55 294.691 110.55 294.691C110.55 294.691 106.018 293.461 105.012 289.317C104.006 285.173 109.827 283.876 109.827 283.876C113.558 283.805 177.021 311.098 177.021 311.098C187.78 323.341 189.691 337.693 190.031 339.65C190.37 341.607 188.79 342.456 187.672 342.65C186.554 342.844 167.495 334.38 161.808 331.297C149.733 324.752 121.179 301.198 121.179 301.198L117.62 298.936Z" fill="white" stroke="#263238" stroke-miterlimit="10" stroke-linecap="round" stroke-linejoin="round"/>
<path d="M88.8672 308.123C88.8672 308.123 86.1552 312.291 83.3002 314.107C80.4452 315.923 76.6872 317.102 77.8902 317.95C79.0942 318.798 80.5092 319.345 83.4532 318.042C86.3972 316.739 89.8542 315.348 89.8542 315.348C89.8542 315.348 92.9252 307.156 88.8672 308.123Z" fill="white" stroke="#263238" stroke-miterlimit="10" stroke-linecap="round" stroke-linejoin="round"/>
<path d="M88.3192 309.539C88.3192 309.539 85.7612 317.643 82.5262 320.317C79.2912 322.991 74.6412 325.118 77.6392 325.655C80.6382 326.192 82.5122 324.811 86.5602 322.26C90.6092 319.709 91.8362 317.647 91.2482 312.73C90.6622 307.812 90.0162 307.132 88.3192 309.539Z" fill="white" stroke="#263238" stroke-miterlimit="10" stroke-linecap="round" stroke-linejoin="round"/>
<path d="M88.6 306.585C88.6 306.585 88.36 315.872 87.745 319.941C87.13 324.01 79.476 331.676 82.687 331.912C85.898 332.148 91.578 323.767 92.884 320.635C94.19 317.503 95.127 316.812 94.125 314.08C93.124 311.348 89.393 303.541 88.6 306.585Z" fill="white" stroke="#263238" stroke-miterlimit="10" stroke-linecap="round" stroke-linejoin="round"/>
<path d="M115.214 340.303C120.335 334.738 119.976 326.075 114.411 320.953C108.846 315.831 100.183 316.191 95.0617 321.755C89.94 327.32 90.2993 335.983 95.8641 341.105C101.429 346.227 110.092 345.867 115.214 340.303Z" fill="#263238" stroke="#263238" stroke-miterlimit="10" stroke-linecap="round" stroke-linejoin="round"/>
<path d="M115.727 286.298C115.727 286.298 107.267 281.688 103.308 284.752C99.3484 287.816 90.4544 302.037 87.5204 304.923C84.5864 307.809 90.0674 315.048 91.9484 321.326C93.8294 327.604 92.3214 332.62 95.5664 331.53C98.8114 330.439 97.4644 327.239 97.6804 320.862C97.8964 314.485 95.3354 308.853 95.4584 308.039C95.5814 307.225 101.972 302.948 106.13 304.076C110.288 305.205 112.36 308.015 112.124 311.226C111.888 314.437 109.508 323.567 110.722 325.998C111.936 328.429 114.165 329.1 115.506 324.641C116.847 320.182 120.43 311.9 121.179 308.601C121.928 305.301 114.6 290.457 114.6 290.457" fill="white"/>
<path d="M115.727 286.298C115.727 286.298 107.267 281.688 103.308 284.752C99.3484 287.816 90.4544 302.037 87.5204 304.923C84.5864 307.809 90.0674 315.048 91.9484 321.326C93.8294 327.604 92.3214 332.62 95.5664 331.53C98.8114 330.439 97.4644 327.239 97.6804 320.862C97.8964 314.485 95.3354 308.853 95.4584 308.039C95.5814 307.225 101.972 302.948 106.13 304.076C110.288 305.205 112.36 308.015 112.124 311.226C111.888 314.437 109.508 323.567 110.722 325.998C111.936 328.429 114.165 329.1 115.506 324.641C116.847 320.182 120.43 311.9 121.179 308.601C121.928 305.301 114.6 290.457 114.6 290.457" stroke="#263238" stroke-miterlimit="10" stroke-linecap="round" stroke-linejoin="round"/>
<path d="M97.9902 342.701C94.0652 340.293 91.4482 335.962 91.4482 331.02C91.4482 323.618 97.3202 317.588 104.66 317.334" fill="#263238"/>
<path d="M97.9902 342.701C94.0652 340.293 91.4482 335.962 91.4482 331.02C91.4482 323.618 97.3202 317.588 104.66 317.334" stroke="#263238" stroke-miterlimit="10" stroke-linecap="round" stroke-linejoin="round"/>
<path d="M409.585 213.385C409.585 213.385 413.943 215.78 417.317 216.033C420.691 216.286 424.561 215.552 423.9 216.868C423.239 218.184 422.249 219.334 419.039 219.575C415.828 219.816 412.124 220.221 412.124 220.221C412.124 220.221 405.55 214.447 409.585 213.385Z" fill="white" stroke="#263238" stroke-miterlimit="10" stroke-linecap="round" stroke-linejoin="round"/>
<path d="M410.736 214.375C410.736 214.375 416.816 220.313 420.93 221.143C425.044 221.974 430.148 221.654 427.757 223.542C425.367 225.431 423.062 225.097 418.289 224.759C413.516 224.421 411.46 223.183 409.658 218.57C407.855 213.958 408.104 213.053 410.736 214.375Z" fill="white" stroke="#263238" stroke-miterlimit="10" stroke-linecap="round" stroke-linejoin="round"/>
<path d="M409.094 211.902C409.094 211.902 413.689 219.977 416.152 223.274C418.615 226.571 428.981 229.718 426.261 231.441C423.542 233.165 414.578 228.457 411.948 226.312C409.318 224.167 408.166 224 407.76 221.119C407.354 218.237 406.958 209.594 409.094 211.902Z" fill="white" stroke="#263238" stroke-miterlimit="10" stroke-linecap="round" stroke-linejoin="round"/>
<path d="M414.039 231.904H392.93V253.013H414.039V231.904Z" fill="#92E3A9" stroke="#263238" stroke-miterlimit="10" stroke-linecap="round" stroke-linejoin="round"/>
<path d="M375.603 206.82C375.603 206.82 380.886 198.763 385.823 199.595C390.76 200.427 405.314 208.767 409.263 209.927C413.212 211.087 411.796 220.056 413.101 226.478C414.406 232.901 418.104 236.611 414.728 237.181C411.352 237.751 411.029 234.293 407.829 228.773C404.629 223.252 404.229 217.078 403.736 216.419C403.243 215.76 395.59 215.005 392.457 217.962C389.324 220.92 388.824 224.376 390.547 227.095C392.27 229.814 398.678 236.74 398.756 239.457C398.833 242.173 397.184 243.817 393.898 240.518C390.612 237.219 383.543 231.609 381.325 229.054C379.107 226.498 378.561 209.953 378.561 209.953" fill="white"/>
<path d="M375.603 206.82C375.603 206.82 380.886 198.763 385.823 199.595C390.76 200.427 405.314 208.767 409.263 209.927C413.212 211.087 411.796 220.056 413.101 226.478C414.406 232.901 418.104 236.611 414.728 237.181C411.352 237.751 411.029 234.293 407.829 228.773C404.629 223.252 404.229 217.078 403.736 216.419C403.243 215.76 395.59 215.005 392.457 217.962C389.324 220.92 388.824 224.376 390.547 227.095C392.27 229.814 398.678 236.74 398.756 239.457C398.833 242.173 397.184 243.817 393.898 240.518C390.612 237.219 383.543 231.609 381.325 229.054C379.107 226.498 378.561 209.953 378.561 209.953" stroke="#263238" stroke-miterlimit="10" stroke-linecap="round" stroke-linejoin="round"/>
<path d="M403.53 231.906H414.039V242.57" fill="#92E3A9"/>
<path d="M403.53 231.906H414.039V242.57" stroke="#263238" stroke-miterlimit="10" stroke-linecap="round" stroke-linejoin="round"/>
<path d="M220.754 377.629L215.726 396.386L162.068 394.07C162.068 394.07 194.494 420.706 210.321 426.11C226.148 431.514 247.765 437.305 265.909 435.761C284.052 434.217 301.809 430.743 319.953 421.864C338.097 412.985 348.905 395.614 348.905 395.614H297.564L295.078 377.629H220.754Z" fill="#263238" stroke="#263238" stroke-miterlimit="10" stroke-linecap="round" stroke-linejoin="round"/>
<path d="M297.228 420.813C297.228 420.813 309.572 421.721 318.456 419.429C327.341 417.137 333.755 421.52 334.569 429.814C335.383 438.107 331.226 445.721 320.203 446.552C309.18 447.383 293.414 440.163 293.414 440.163C293.414 440.163 289.089 429.051 297.228 420.813Z" fill="white" stroke="#263238" stroke-miterlimit="10" stroke-linecap="round" stroke-linejoin="round"/>
<path d="M309.722 445.197C309.722 445.197 319.934 447.648 324.84 442.623C329.746 437.598 330.737 430.35 329.195 424.655C328.121 420.689 324.961 419.304 323.138 418.827C329.534 418.905 333.907 423.063 334.57 429.814C335.384 438.107 331.227 445.721 320.204 446.552C316.297 446.847 311.796 446.128 307.611 445.08L309.722 445.197Z" fill="white" stroke="#263238" stroke-miterlimit="10" stroke-linecap="round" stroke-linejoin="round"/>
<path d="M293.812 424.248C293.812 424.248 299.977 426.989 305.06 426.84C310.143 426.691 312.269 431.201 309.096 434.353C305.923 437.505 292.717 433.802 291.56 433.011C290.402 432.22 290.752 426.572 293.812 424.248Z" fill="white" stroke="#263238" stroke-miterlimit="10" stroke-linecap="round" stroke-linejoin="round"/>
<path d="M236.192 391.921C216.815 383.302 197.657 373.352 180.264 361.889C171.068 355.828 161.872 353.529 153.929 360.008C145.987 366.487 146.405 380.699 152.884 388.015C159.363 395.33 179.428 402.645 198.447 410.587C217.466 418.529 255.923 427.725 267 430.651C278.077 433.577 281.212 435.458 283.929 437.966C286.646 440.474 293.414 440.162 293.414 440.162C293.414 440.162 293.335 431.696 295.216 427.725C297.097 423.754 298.351 421.037 298.351 421.037C298.351 421.037 295.007 418.529 291.872 416.23C288.737 413.931 287.901 415.603 281.421 411.422C274.26 406.803 265.482 404.03 257.608 400.908C250.491 398.087 243.327 395.094 236.192 391.921Z" fill="#263238" stroke="#263238" stroke-miterlimit="10" stroke-linecap="round" stroke-linejoin="round"/>
<path d="M202.216 423.022C202.216 423.022 189.863 422.25 181.371 418.776C172.878 415.302 165.93 418.776 164 426.883C162.07 434.99 165.158 443.096 175.967 445.412C186.776 447.728 203.375 442.71 203.375 442.71C203.375 442.71 209.164 432.287 202.216 423.022Z" fill="white" stroke="#263238" stroke-miterlimit="10" stroke-linecap="round" stroke-linejoin="round"/>
<path d="M186.534 445.49C186.534 445.49 176.084 446.535 171.904 440.892C167.724 435.249 167.724 427.934 170.023 422.5C171.624 418.716 174.943 417.772 176.814 417.546C170.467 416.757 165.57 420.285 163.999 426.883C162.069 434.99 165.157 443.096 175.966 445.412C179.797 446.233 184.354 446.131 188.642 445.659L186.534 445.49Z" fill="white" stroke="#263238" stroke-miterlimit="10" stroke-linecap="round" stroke-linejoin="round"/>
<path d="M205.135 426.889C205.135 426.889 198.656 428.77 193.64 427.934C188.624 427.098 185.907 431.278 188.624 434.831C191.341 438.384 204.926 436.503 206.18 435.876C207.435 435.249 207.853 429.606 205.135 426.889Z" stroke="#263238" stroke-miterlimit="10" stroke-linecap="round" stroke-linejoin="round"/>
<path d="M217.271 419.934C217.271 419.934 288.686 390.596 314.163 376.699C339.641 362.802 358.17 367.048 358.17 382.103C358.17 397.158 337.325 407.195 320.725 414.529C304.126 421.864 239.66 436.919 232.325 438.077C224.99 439.235 223.832 439.621 223.832 439.621C223.832 439.621 219.972 443.867 218.814 444.253C217.656 444.639 201.829 441.937 201.829 441.937C201.829 441.937 205.689 433.83 204.531 430.356C203.373 426.882 202.215 423.021 202.215 423.021C202.215 423.021 211.094 416.46 217.271 419.934Z" fill="#263238" stroke="#263238" stroke-miterlimit="10" stroke-linecap="round" stroke-linejoin="round"/>
<path d="M482.123 262.717H439.646V299.207H482.123V262.717Z" fill="#263238" stroke="#263238" stroke-miterlimit="10" stroke-linecap="round" stroke-linejoin="round"/>
<path d="M482.123 270.068H439.646V299.207H482.123V270.068Z" fill="#B0B0B0" stroke="#263238" stroke-miterlimit="10" stroke-linecap="round" stroke-linejoin="round"/>
<path d="M447.913 257.871H363.53V304.624H447.913V257.871Z" fill="white" stroke="#263238" stroke-miterlimit="10" stroke-linecap="round" stroke-linejoin="round"/>
<path d="M445.347 257.871H360.964V304.624H445.347V257.871Z" fill="white" stroke="#263238" stroke-miterlimit="10" stroke-linecap="round" stroke-linejoin="round"/>
<path d="M410.372 269.132H389.263V290.241H410.372V269.132Z" fill="#92E3A9" stroke="#263238" stroke-miterlimit="10" stroke-linecap="round" stroke-linejoin="round"/>
<path d="M25.2286 383.208H67.7056V346.718H25.2286L25.2286 383.208Z" fill="#263238" stroke="#263238" stroke-miterlimit="10" stroke-linecap="round" stroke-linejoin="round"/>
<path d="M25.2286 383.208H67.7056V354.069H25.2286L25.2286 383.208Z" fill="#B0B0B0" stroke="#263238" stroke-miterlimit="10" stroke-linecap="round" stroke-linejoin="round"/>
<path d="M59.4393 388.624H143.822V341.871H59.4393V388.624Z" fill="white" stroke="#263238" stroke-miterlimit="10" stroke-linecap="round" stroke-linejoin="round"/>
<path d="M62.0047 388.624H146.388V341.871H62.0047V388.624Z" fill="white" stroke="#263238" stroke-miterlimit="10" stroke-linecap="round" stroke-linejoin="round"/>
<path d="M115.422 375.593C120.905 370.55 121.263 362.018 116.22 356.534C111.178 351.051 102.645 350.693 97.1619 355.736C91.6785 360.778 91.3211 369.311 96.3634 374.794C101.406 380.278 109.939 380.635 115.422 375.593Z" fill="#92E3A9" stroke="#263238" stroke-miterlimit="10" stroke-linecap="round" stroke-linejoin="round"/>
</svg>
