<svg width="1000" height="628" viewBox="0 0 1000 628" fill="none" xmlns="http://www.w3.org/2000/svg">
<g opacity="0.3">
<path d="M928.995 237.128C925.827 231.754 922.503 226.482 919.021 221.322C872.655 152.63 792.879 105.646 714.397 84.4061C680.029 75.1041 644.537 70.2281 608.975 69.0221C375.747 61.1161 282.851 244.932 205.767 292.368C128.683 339.804 10.091 420.842 17.997 590.822C25.903 760.802 148.447 920.9 385.629 930.782C622.811 940.664 638.623 833.934 771.049 794.402C858.687 768.242 920.953 679.882 951.443 598.226C992.993 486.942 991.035 342.394 928.995 237.128Z" fill="#92E3A9"/>
<path opacity="0.7" d="M928.995 237.128C925.827 231.754 922.503 226.482 919.021 221.322C872.655 152.63 792.879 105.646 714.397 84.4061C680.029 75.1041 644.537 70.2281 608.975 69.0221C375.747 61.1161 282.851 244.932 205.767 292.368C128.683 339.804 10.091 420.842 17.997 590.822C25.903 760.802 148.447 920.9 385.629 930.782C622.811 940.664 638.623 833.934 771.049 794.402C858.687 768.242 920.953 679.882 951.443 598.226C992.993 486.942 991.035 342.394 928.995 237.128Z" fill="white"/>
<path opacity="0.2" d="M924 576.101H840V610.101H924V576.101Z" fill="black"/>
<path opacity="0.2" d="M650.75 301.594H566.75V335.594H650.75V301.594Z" fill="black"/>
<path opacity="0.2" d="M599.023 352.97H515.023V386.97H599.023V352.97Z" fill="black"/>
<path opacity="0.2" d="M655.928 127.282H571.928V161.282H655.928V127.282Z" fill="black"/>
<path opacity="0.2" d="M588 539.615H504V573.615H588V539.615Z" fill="black"/>
<path opacity="0.2" d="M422.404 236.013H338.404V270.013H422.404V236.013Z" fill="black"/>
<path opacity="0.2" d="M514.404 236.013H430.404V270.013H514.404V236.013Z" fill="black"/>
<path opacity="0.1" d="M553.023 399.971H469.023V433.971H553.023V399.971Z" fill="black"/>
<path opacity="0.1" d="M428.762 151.445H344.762V185.445H428.762V151.445Z" fill="black"/>
<path opacity="0.1" d="M649.023 399.971H565.023V433.971H649.023V399.971Z" fill="black"/>
<path opacity="0.2" d="M284.783 406.436H200.783V440.436H284.783V406.436Z" fill="black"/>
<path opacity="0.1" d="M238.783 453.436H154.783V487.436H238.783V453.436Z" fill="black"/>
<path opacity="0.1" d="M334.783 453.436H250.783V487.436H334.783V453.436Z" fill="black"/>
<path opacity="0.1" d="M624 497.034H540V531.034H624V497.034Z" fill="black"/>
<path opacity="0.1" d="M470.404 194.013H386.404V228.013H470.404V194.013Z" fill="black"/>
<path opacity="0.2" d="M204 547.034H120V581.034H204V547.034Z" fill="black"/>
<path opacity="0.1" d="M252 505.034H168V539.034H252V505.034Z" fill="black"/>
<path opacity="0.1" d="M466 300.615H382V334.615H466V300.615Z" fill="black"/>
<path opacity="0.1" d="M343.543 320.58H259.543V354.58H343.543V320.58Z" fill="black"/>
<path opacity="0.2" d="M758 576.101H674V610.101H758V576.101Z" fill="black"/>
<path opacity="0.1" d="M108.783 286.436H24.7832V320.436H108.783V286.436Z" fill="black"/>
<path opacity="0.1" d="M204.783 286.436H120.783V320.436H204.783V286.436Z" fill="black"/>
<path opacity="0.1" d="M212.783 238.436H128.783V272.436H212.783V238.436Z" fill="black"/>
<path opacity="0.1" d="M150 375.036H66V409.036H150V375.036Z" fill="black"/>
<g opacity="0.3">
<path d="M654.594 26.9905V506.659H956.528V26.9905H654.594ZM945.536 142.22H812.448V44.4525H945.536V142.22ZM812.448 272.516H945.536V377.266H812.448V272.516ZM812.448 259.744V154.992H945.536V259.742L812.448 259.744ZM665.586 44.4525H798.674V142.22H666.264V154.992H798.674V259.742H666.264V272.514H798.674V377.264H666.264V390.036H798.674V489.194H665.586V44.4525ZM812.448 489.196V390.038H945.536V489.196H812.448Z" stroke="black" stroke-width="2" stroke-miterlimit="10" stroke-linecap="round" stroke-linejoin="round"/>
<path d="M779.599 73.6865L712.453 129.254" stroke="black" stroke-width="2" stroke-miterlimit="10" stroke-linecap="round" stroke-linejoin="round"/>
<path d="M912.732 182.508L845.588 238.076" stroke="black" stroke-width="2" stroke-miterlimit="10" stroke-linecap="round" stroke-linejoin="round"/>
<path d="M761.076 417.517L693.932 473.085" stroke="black" stroke-width="2" stroke-miterlimit="10" stroke-linecap="round" stroke-linejoin="round"/>
<path d="M744.387 89.8945L713.611 115.362" stroke="black" stroke-width="2" stroke-miterlimit="10" stroke-linecap="round" stroke-linejoin="round"/>
<path d="M907.62 169.773L876.844 195.243" stroke="black" stroke-width="2" stroke-miterlimit="10" stroke-linecap="round" stroke-linejoin="round"/>
<path d="M757.122 434.882L726.346 460.35" stroke="black" stroke-width="2" stroke-miterlimit="10" stroke-linecap="round" stroke-linejoin="round"/>
<path d="M747.86 312.168L717.086 337.636" stroke="black" stroke-width="2" stroke-miterlimit="10" stroke-linecap="round" stroke-linejoin="round"/>
<path d="M905.303 419.833L874.529 445.301" stroke="black" stroke-width="2" stroke-miterlimit="10" stroke-linecap="round" stroke-linejoin="round"/>
<path d="M975.247 506.341H637.205V548.334H975.247V506.341Z" stroke="black" stroke-width="2" stroke-miterlimit="10" stroke-linecap="round" stroke-linejoin="round"/>
</g>
<g opacity="0.3">
<path d="M157.674 211.565L158.922 199.479H78.8535L80.1015 211.565H157.674Z" stroke="black" stroke-width="2" stroke-miterlimit="10" stroke-linecap="round" stroke-linejoin="round"/>
<path d="M154.392 243.343H83.3838L74.5078 157.395H163.268L154.392 243.343Z" stroke="black" stroke-width="2" stroke-miterlimit="10" stroke-linecap="round" stroke-linejoin="round"/>
<path d="M89.0099 156.779C89.0099 156.779 77.7299 155.167 67.2579 146.305C56.7839 137.443 38.2539 135.025 31.8099 139.859C25.3639 144.693 18.9199 151.139 18.9199 151.139C18.9199 151.139 23.7539 133.415 36.6439 129.387C49.5339 125.359 57.5919 129.387 64.8419 132.609C72.0919 135.831 75.3159 138.249 83.3719 143.083C91.4279 147.917 96.2619 151.945 96.2619 151.945C96.2619 151.945 93.8459 141.471 89.0119 136.637C84.1779 131.803 55.1739 110.857 55.1739 110.857C55.1739 110.857 71.2879 114.885 81.7599 119.719C92.2339 124.553 100.29 133.415 101.096 137.443C101.902 141.471 105.124 148.723 105.124 148.723L108.346 156.779C108.346 156.779 107.54 144.695 106.734 135.833C105.928 126.971 104.318 121.331 105.122 112.469C105.928 103.607 107.538 97.9671 107.538 93.1331C107.538 88.2991 109.954 83.4651 109.954 83.4651C109.954 83.4651 113.176 106.023 114.788 113.275C116.4 120.525 116.4 130.193 117.204 135.027C118.01 139.861 120.426 154.363 120.426 154.363C120.426 154.363 118.814 142.279 123.648 135.833C128.482 129.387 130.094 124.553 133.316 119.719C136.538 114.885 140.566 106.829 140.566 106.829C140.566 106.829 140.566 119.719 137.344 127.777C134.122 135.833 131.704 139.861 131.704 143.085C131.704 146.307 131.704 154.365 131.704 154.365C131.704 154.365 139.76 139.863 144.594 135.835C149.428 131.807 152.65 131.807 154.262 129.389C155.874 126.973 165.542 121.333 165.542 121.333C165.542 121.333 159.902 134.223 158.292 136.641C156.68 139.057 148.624 146.309 148.624 146.309C148.624 146.309 158.292 141.475 166.348 139.057C174.404 136.641 186.49 134.223 191.324 134.223C196.158 134.223 212.27 131.807 212.27 131.807C212.27 131.807 197.768 138.253 188.906 141.475C180.044 144.697 174.404 146.309 171.182 147.115C167.96 147.921 167.96 147.921 167.96 147.921C167.96 147.921 179.24 149.533 190.518 153.561C201.798 157.589 205.02 160.813 206.63 163.229C208.242 165.645 209.048 169.675 209.048 169.675C209.048 169.675 213.882 173.703 213.882 176.925C213.882 180.147 192.13 161.617 184.072 159.201C176.016 156.783 163.264 157.399 163.264 157.399" stroke="black" stroke-width="2" stroke-miterlimit="10" stroke-linecap="round" stroke-linejoin="round"/>
</g>
<g opacity="0.3">
<path d="M208.086 272.403L207.24 264.215H261.492L260.646 272.403H208.086Z" stroke="black" stroke-width="2" stroke-miterlimit="10" stroke-linecap="round" stroke-linejoin="round"/>
<path d="M210.311 293.934H258.423L264.437 235.698H204.297L210.311 293.934Z" stroke="black" stroke-width="2" stroke-miterlimit="10" stroke-linecap="round" stroke-linejoin="round"/>
<path d="M254.61 235.282C254.61 235.282 262.252 234.19 269.348 228.186C276.444 222.182 289 220.544 293.366 223.818C297.734 227.094 302.1 231.46 302.1 231.46C302.1 231.46 298.824 219.45 290.09 216.722C281.356 213.992 275.898 216.722 270.984 218.906C266.072 221.09 263.888 222.728 258.428 226.002C252.97 229.278 249.694 232.006 249.694 232.006C249.694 232.006 251.332 224.91 254.606 221.634C257.882 218.358 277.534 204.166 277.534 204.166C277.534 204.166 266.616 206.896 259.52 210.17C252.424 213.446 246.964 219.45 246.418 222.18C245.872 224.91 243.688 229.822 243.688 229.822L241.504 235.28C241.504 235.28 242.05 227.092 242.596 221.086C243.142 215.082 244.234 211.26 243.688 205.256C243.142 199.252 242.05 195.43 242.05 192.156C242.05 188.88 240.412 185.606 240.412 185.606C240.412 185.606 238.228 200.89 237.136 205.804C236.044 210.718 236.044 217.268 235.498 220.542C234.952 223.818 233.314 233.644 233.314 233.644C233.314 233.644 234.406 225.456 231.13 221.088C227.854 216.72 226.762 213.446 224.58 210.17C222.396 206.894 219.668 201.436 219.668 201.436C219.668 201.436 219.668 210.17 221.852 215.628C224.036 221.086 225.674 223.816 225.674 226C225.674 228.184 225.674 233.642 225.674 233.642C225.674 233.642 220.216 223.816 216.94 221.086C213.664 218.356 211.482 218.356 210.39 216.718C209.298 215.08 202.748 211.26 202.748 211.26C202.748 211.26 206.57 219.994 207.66 221.632C208.752 223.27 214.21 228.182 214.21 228.182C214.21 228.182 207.66 224.906 202.2 223.268C196.742 221.63 188.554 219.992 185.278 219.992C182.002 219.992 171.086 218.354 171.086 218.354C171.086 218.354 180.912 222.722 186.916 224.904C192.92 227.088 196.742 228.18 198.926 228.726C201.11 229.272 201.11 229.272 201.11 229.272C201.11 229.272 193.468 230.364 185.826 233.092C178.184 235.822 176 238.006 174.908 239.642C173.816 241.28 173.27 244.01 173.27 244.01C173.27 244.01 170 246.746 170 248.93C170 251.114 184.738 238.558 190.198 236.92C195.656 235.282 204.296 235.698 204.296 235.698" stroke="black" stroke-width="2" stroke-miterlimit="10" stroke-linecap="round" stroke-linejoin="round"/>
</g>
<g opacity="0.3">
<path d="M312.533 134.615L313.503 125.221H251.271L252.241 134.615H312.533Z" stroke="black" stroke-width="2" stroke-miterlimit="10" stroke-linecap="round" stroke-linejoin="round"/>
<path d="M309.983 159.315H254.793L247.893 92.5106H316.881L309.983 159.315Z" stroke="black" stroke-width="2" stroke-miterlimit="10" stroke-linecap="round" stroke-linejoin="round"/>
<path d="M247.893 92.5106C247.893 92.5106 240.223 84.9766 235.751 83.0606C231.279 81.1446 222.975 77.9506 222.975 77.9506C222.975 77.9506 233.197 77.9506 240.223 81.1446C247.251 84.3386 254.277 88.8106 254.277 88.8106C254.277 88.8106 247.889 79.8666 242.779 73.4786C237.669 67.0906 226.169 56.2306 225.531 53.0366C224.893 49.8426 240.863 63.8966 251.723 72.2006C262.583 80.5046 264.499 86.2546 264.499 86.2546C264.499 86.2546 256.195 70.9226 249.807 57.5086C243.419 44.0926 237.669 36.4266 235.753 33.8726C233.837 31.3166 254.279 54.9546 261.305 66.4526C268.333 77.9506 272.803 84.9786 272.803 84.9786C272.803 84.9786 265.137 46.6486 263.859 37.7066C262.581 28.7626 261.303 19.8186 261.303 19.8186C261.303 19.8186 273.441 54.9546 275.357 61.3426C277.273 67.7306 280.467 79.2286 280.467 79.2286C280.467 79.2286 284.301 60.7026 285.577 49.2046C286.853 37.7066 292.605 21.0966 292.605 21.0966C292.605 21.0966 290.049 56.8706 289.411 65.8146C288.773 74.7586 288.133 83.7006 288.133 83.7006C288.133 83.7006 294.521 67.0906 300.271 59.4246C306.021 51.7586 316.241 41.5386 316.241 41.5386C316.241 41.5386 305.381 61.9806 302.825 68.3686C300.269 74.7566 297.075 86.2546 297.075 86.2546C297.075 86.2546 309.851 66.4506 315.601 60.0626C321.351 53.6746 327.099 50.4806 332.211 47.2866C337.321 44.0926 316.241 69.6446 313.685 75.3946C311.129 81.1446 307.935 86.2546 307.935 86.2546C307.935 86.2546 311.767 81.1446 321.989 77.3106C332.209 73.4766 350.097 69.6446 352.653 69.6446C355.209 69.6446 336.683 77.3106 330.295 79.8646C323.907 82.4206 316.879 92.5086 316.879 92.5086" stroke="black" stroke-width="2" stroke-miterlimit="10" stroke-linecap="round" stroke-linejoin="round"/>
</g>
<path d="M772.957 333.212C780.242 303.64 754.549 271.883 715.569 262.281C676.59 252.679 639.086 268.867 631.801 298.439C624.516 328.011 650.209 359.768 689.188 369.371C728.168 378.973 765.672 362.784 772.957 333.212Z" fill="#92E3A9" stroke="#263238" stroke-width="2" stroke-miterlimit="10" stroke-linecap="round" stroke-linejoin="round"/>
<path d="M661.286 339.712C661.286 339.712 646.858 343.646 640.3 335.778C633.742 327.908 643.58 304.954 654.4 294.462C665.22 283.968 695.716 279.378 711.456 281.018C727.196 282.658 745.886 294.462 748.51 306.922C751.134 319.382 745.886 331.516 745.558 335.45C745.23 339.384 736.048 339.384 734.738 337.418C733.426 335.45 713.752 306.594 709.816 305.282C705.882 303.97 703.258 306.594 698.996 308.89C694.734 311.186 662.27 324.958 662.27 324.958L661.286 339.712Z" fill="#263238" stroke="#263238" stroke-width="2" stroke-miterlimit="10" stroke-linecap="round" stroke-linejoin="round"/>
<path d="M709.041 668.816L702.565 626.72L687.669 677.882L687.671 677.886C684.071 684.04 679.811 691.988 677.863 698.16C674.169 709.87 692.811 746.808 694.043 742.904C695.275 739 702.295 688.894 702.295 688.894C702.295 688.894 703.597 680.29 703.027 673.54L709.041 668.816Z" fill="white" stroke="#263238" stroke-width="2" stroke-miterlimit="10" stroke-linecap="round" stroke-linejoin="round"/>
<path d="M714.217 410.314C714.217 410.314 679.117 440.218 671.511 448.412C663.623 456.908 666.907 503.734 676.989 536C687.071 568.266 697.769 618.15 698.273 628.234C698.777 638.316 700.401 698.61 700.401 698.61C700.401 698.61 763.035 723.314 801.351 717.264C839.667 711.214 866.891 695.082 866.891 695.082C866.891 695.082 860.841 591.73 860.841 569.044C860.841 546.358 855.799 471.238 850.757 445.022C845.715 418.806 828.071 403.178 814.963 401.664C801.855 400.152 752.823 397.952 752.823 397.952L714.217 410.314Z" fill="white" stroke="#263238" stroke-width="2" stroke-miterlimit="10" stroke-linecap="round" stroke-linejoin="round"/>
<path d="M696.489 403.232C696.489 403.232 712.333 447.682 714.973 448.122C717.613 448.562 724.655 441.52 724.655 441.52L752.821 397.95L741.621 357.748C741.621 357.748 735.217 379.026 722.893 392.67C710.573 406.312 696.489 403.232 696.489 403.232Z" fill="white" stroke="#263238" stroke-width="2" stroke-miterlimit="10" stroke-linecap="round" stroke-linejoin="round"/>
<path d="M727.099 394.546L706.327 426.708L696.489 403.232L727.099 394.546Z" fill="#263238" stroke="#263238" stroke-width="2" stroke-miterlimit="10" stroke-linecap="round" stroke-linejoin="round"/>
<path d="M708.833 293.148C708.833 293.148 690.798 307.576 676.37 312.822C661.942 318.068 654.728 320.036 654.728 320.036C654.728 320.036 659.318 349.22 660.63 357.418C661.942 365.616 664.892 379.388 670.796 385.29C676.698 391.192 691.126 405.292 697.684 408.9C704.242 412.506 715.389 409.556 718.669 407.916C721.947 406.276 740.968 377.42 741.952 373.486C742.936 369.552 741.624 357.746 741.624 357.746C741.624 357.746 750.149 353.156 751.461 348.564C752.773 343.974 749.822 326.922 747.2 324.626C744.576 322.33 740.314 324.954 739.658 327.578C739.002 330.202 737.034 334.136 737.034 334.136C737.034 334.136 736.705 327.25 734.081 322.988C731.457 318.726 731.458 317.086 725.228 312.166C718.998 307.25 708.833 293.148 708.833 293.148Z" fill="white" stroke="#263238" stroke-width="2" stroke-miterlimit="10" stroke-linecap="round" stroke-linejoin="round"/>
<path d="M686.864 357.748L687.848 366.602C687.848 366.602 698.67 366.274 703.588 361.028" stroke="#263238" stroke-width="2" stroke-miterlimit="10" stroke-linecap="round" stroke-linejoin="round"/>
<path d="M681.944 375.782C681.944 375.782 689.814 378.406 701.946 374.798C714.078 371.192 717.03 362.666 717.03 362.666" stroke="#263238" stroke-width="2" stroke-miterlimit="10" stroke-linecap="round" stroke-linejoin="round"/>
<path d="M679.65 335.778C679.65 335.778 665.55 331.188 661.288 339.712" stroke="#263238" stroke-width="2" stroke-miterlimit="10" stroke-linecap="round" stroke-linejoin="round"/>
<path d="M694.077 330.53C694.077 330.53 703.587 321.02 713.423 324.628" stroke="#263238" stroke-width="2" stroke-miterlimit="10" stroke-linecap="round" stroke-linejoin="round"/>
<path d="M678.188 348.378C679.12 350.93 678.842 353.376 677.566 353.842C676.29 354.308 674.5 352.618 673.568 350.066C672.636 347.514 672.914 345.068 674.19 344.602C675.466 344.136 677.256 345.826 678.188 348.378Z" fill="#263238"/>
<path d="M708.698 339.008C709.63 341.56 709.352 344.006 708.076 344.472C706.8 344.938 705.01 343.248 704.078 340.696C703.146 338.144 703.424 335.698 704.7 335.232C705.976 334.766 707.766 336.456 708.698 339.008Z" fill="#263238"/>
<path d="M783.202 457.119L811.938 559.967C811.938 559.967 810.426 565.009 811.434 568.033C812.442 571.057 812.946 573.579 812.946 573.579C812.946 573.579 804.88 613.911 797.822 638.615C790.764 663.319 765.556 717.263 766.564 723.313C767.572 729.363 761.522 774.737 764.548 776.753C767.572 778.769 774.632 781.795 776.648 781.795C778.664 781.795 787.74 782.803 790.764 782.803C793.79 782.803 804.88 782.299 806.896 778.265C808.912 774.231 808.408 771.711 805.384 772.719C802.358 773.727 797.318 774.231 797.318 774.231L795.302 770.197C795.302 770.197 797.822 752.551 795.302 739.443C792.782 726.335 791.774 721.797 791.774 721.797C791.774 721.797 854.794 619.453 857.314 600.295C859.834 581.137 863.868 559.963 863.868 550.383C863.868 540.805 853.784 454.593 850.76 445.015C847.736 435.437 846.222 425.857 838.156 417.791C830.09 409.725 824.544 409.725 820.51 409.725" fill="white"/>
<path d="M783.202 457.119L811.938 559.967C811.938 559.967 810.426 565.009 811.434 568.033C812.442 571.057 812.946 573.579 812.946 573.579C812.946 573.579 804.88 613.911 797.822 638.615C790.764 663.319 765.556 717.263 766.564 723.313C767.572 729.363 761.522 774.737 764.548 776.753C767.572 778.769 774.632 781.795 776.648 781.795C778.664 781.795 787.74 782.803 790.764 782.803C793.79 782.803 804.88 782.299 806.896 778.265C808.912 774.231 808.408 771.711 805.384 772.719C802.358 773.727 797.318 774.231 797.318 774.231L795.302 770.197C795.302 770.197 797.822 752.551 795.302 739.443C792.782 726.335 791.774 721.797 791.774 721.797C791.774 721.797 854.794 619.453 857.314 600.295C859.834 581.137 863.868 559.963 863.868 550.383C863.868 540.805 853.784 454.593 850.76 445.015C847.736 435.437 846.222 425.857 838.156 417.791C830.09 409.725 824.544 409.725 820.51 409.725" stroke="#263238" stroke-width="2" stroke-miterlimit="10" stroke-linecap="round" stroke-linejoin="round"/>
<path d="M816.997 570.829C816.997 570.829 831.801 564.661 844.447 570.211" stroke="#263238" stroke-width="2" stroke-miterlimit="10" stroke-linecap="round" stroke-linejoin="round"/>
<path d="M826.558 559.725C826.558 559.725 843.522 555.715 854.316 568.361" stroke="#263238" stroke-width="2" stroke-miterlimit="10" stroke-linecap="round" stroke-linejoin="round"/>
<path d="M802.586 620.411C801.014 626.841 799.394 633.117 797.822 638.615C790.764 663.319 765.556 717.263 766.564 723.313C767.572 729.363 761.522 774.737 764.548 776.753C767.574 778.769 774.632 781.795 776.648 781.795C778.664 781.795 787.74 782.803 790.764 782.803C793.79 782.803 804.88 782.299 806.896 778.265C808.912 774.231 808.408 771.711 805.384 772.719C802.358 773.727 797.318 774.231 797.318 774.231L795.302 770.197C795.302 770.197 797.822 752.551 795.302 739.443C792.782 726.335 791.774 721.797 791.774 721.797C791.774 721.797 822.052 672.623 841.474 636.065C828.916 623.001 813.08 620.415 802.586 620.411Z" fill="white" stroke="#263238" stroke-width="2" stroke-miterlimit="10" stroke-linecap="round" stroke-linejoin="round"/>
<path d="M593.64 611.943C588.528 602.135 550.494 467.361 550.494 467.361C543.332 486.975 538.756 583.711 538.756 583.711L542.918 635.015L542.172 644.631C552.108 637.827 576.45 624.375 592.63 642.285C592.886 641.343 593.072 640.545 593.172 639.919C595.27 626.991 598.752 621.749 593.64 611.943Z" fill="#92E3A9" stroke="#263238" stroke-width="2" stroke-miterlimit="10" stroke-linecap="round" stroke-linejoin="round"/>
<path d="M581.379 624.916C583.961 625.362 586.467 626.064 588.813 627.098" stroke="#263238" stroke-width="2" stroke-miterlimit="10" stroke-linecap="round" stroke-linejoin="round"/>
<path d="M545.723 629.667C545.723 629.667 558.511 624.655 572.083 624.307" stroke="#263238" stroke-width="2" stroke-miterlimit="10" stroke-linecap="round" stroke-linejoin="round"/>
<path d="M586.323 619.521C586.323 619.521 575.109 612.727 566.129 615.401" stroke="#263238" stroke-width="2" stroke-miterlimit="10" stroke-linecap="round" stroke-linejoin="round"/>
<path d="M412.765 448.193C412.765 448.193 338.733 467.807 334.223 470.037C329.711 472.265 339.669 539.579 346.651 564.099C353.635 588.617 370.619 678.667 370.619 678.667L369.485 743.753C369.485 743.753 442.105 745.537 471.169 741.969C500.231 738.403 532.077 730.379 532.077 730.379C532.077 730.379 542.387 672.873 538.849 634.981C535.311 597.089 545.617 503.027 545.769 496.787C545.921 490.545 550.495 467.365 550.495 467.365C550.495 467.365 495.183 450.425 480.961 448.643C466.737 446.855 433.325 445.963 412.765 448.193Z" fill="#92E3A9" stroke="#263238" stroke-width="2" stroke-miterlimit="10" stroke-linecap="round" stroke-linejoin="round"/>
<path d="M398.818 464.803C398.818 464.803 408.042 490.223 429.814 505.393" stroke="#263238" stroke-width="2" stroke-miterlimit="10" stroke-linecap="round" stroke-linejoin="round"/>
<path d="M475.19 460.293C475.19 460.293 471.262 470.133 464.852 480.793" stroke="#263238" stroke-width="2" stroke-miterlimit="10" stroke-linecap="round" stroke-linejoin="round"/>
<path d="M463.49 486.123L459.672 491.453" stroke="#263238" stroke-width="2" stroke-miterlimit="10" stroke-linecap="round" stroke-linejoin="round"/>
<path d="M402.289 422.579L405.397 458.371C405.397 458.371 416.345 484.303 441.793 482.629C466.749 480.989 470.441 449.225 470.441 449.225L465.393 411.445C465.393 411.445 443.475 429.737 431.185 428.147C418.895 426.555 402.289 422.579 402.289 422.579Z" fill="white" stroke="#263238" stroke-width="2" stroke-miterlimit="10" stroke-linecap="round" stroke-linejoin="round"/>
<path d="M376.931 380.193C376.931 380.193 372.393 374.413 368.963 379.643C365.533 384.873 369.597 398.909 375.853 401.935C382.109 404.963 383.761 404.963 383.761 404.963C383.761 404.963 390.851 418.999 394.605 423.127C398.357 427.255 425.681 446.795 432.259 447.897C438.837 448.999 448.241 447.071 451.913 443.219C455.585 439.367 467.235 412.945 469.039 406.615C470.843 400.285 471.153 398.909 471.247 395.057C471.341 391.203 471.145 387.901 471.145 387.901C471.145 387.901 477.709 378.269 478.445 370.563C479.183 362.857 477.397 357.077 473.295 355.977C469.193 354.877 464.589 363.133 464.589 363.133L450.755 320.749C450.755 320.749 446.081 309.189 441.987 307.813C437.891 306.437 408.357 310.015 395.845 315.243C383.333 320.473 371.091 325.977 370.125 331.757C369.159 337.535 376.931 380.193 376.931 380.193Z" fill="white" stroke="#263238" stroke-width="2" stroke-miterlimit="10" stroke-linecap="round" stroke-linejoin="round"/>
<path d="M399.571 320.873C399.571 320.873 375.945 325.575 374.569 329.423C373.193 333.271 371.307 340.537 373.737 346.095C376.167 351.653 378.893 380.295 378.893 380.295C378.893 380.295 382.523 389.273 379.989 387.989C377.455 386.707 375.577 376.019 374.753 374.737C373.929 373.455 363.313 352.935 360.079 345.239C356.845 337.545 363.863 330.277 365.613 328.567C367.365 326.857 369.137 324.293 369.137 324.293C369.137 324.293 367.301 311.895 372.993 306.339C378.685 300.781 419.931 292.231 423.383 290.949C426.835 289.667 430.431 282.399 433.465 280.689C436.499 278.979 445.373 283.255 450.671 293.941C455.969 304.629 455.469 307.621 453.707 309.759C451.945 311.897 451.945 311.897 451.945 311.897C451.945 311.897 457.909 312.753 460.277 320.875C462.645 328.997 465.879 336.691 465.723 343.105C465.567 349.517 464.623 361.849 464.591 363.131C464.559 364.413 463.097 363.197 461.919 358.923C460.741 354.649 449.955 323.441 448.329 320.021C446.703 316.601 444.647 313.181 443.823 311.899C442.995 310.615 407.911 311.897 399.571 320.873Z" fill="#263238" stroke="#263238" stroke-width="2" stroke-miterlimit="10" stroke-linecap="round" stroke-linejoin="round"/>
<path d="M432.257 447.895C438.835 448.995 448.239 447.069 451.911 443.217C455.583 439.365 467.233 412.943 469.037 406.613C470.841 400.283 471.151 398.907 471.245 395.053C471.339 391.201 471.143 387.897 471.143 387.897L465.337 361.911C465.131 362.229 464.965 362.495 464.841 362.701C465.497 370.727 466.709 386.221 466.451 388.449C466.103 391.477 462.719 394.779 459.403 395.329C456.087 395.879 440.459 393.403 433.565 393.953C426.671 394.503 424.409 396.981 419.113 399.733C413.817 402.485 402.923 409.091 400.151 409.917C397.379 410.743 392.197 408.817 390.061 406.065C387.927 403.313 378.889 380.297 378.889 380.297C378.891 381.775 377.373 384.599 377.373 384.599L383.759 404.965C383.759 404.965 390.849 419.001 394.603 423.129C398.357 427.255 425.679 446.795 432.257 447.895Z" fill="#263238" stroke="#263238" stroke-width="2" stroke-miterlimit="10" stroke-linecap="round" stroke-linejoin="round"/>
<path d="M429.002 355.149C429.002 355.149 424.472 360.379 425.258 362.029C426.044 363.681 436.318 393.953 435.962 397.257C435.606 400.559 431.164 402.211 427.612 401.109C424.062 400.009 421.824 390.101 421.824 390.101" fill="white"/>
<path d="M429.002 355.149C429.002 355.149 424.472 360.379 425.258 362.029C426.044 363.681 436.318 393.953 435.962 397.257C435.606 400.559 431.164 402.211 427.612 401.109C424.062 400.009 421.824 390.101 421.824 390.101" stroke="#263238" stroke-width="2" stroke-miterlimit="10" stroke-linecap="round" stroke-linejoin="round"/>
<path d="M433.748 352.395C433.748 352.395 443.548 345.514 452.24 350.192" stroke="#263238" stroke-width="6" stroke-miterlimit="10" stroke-linecap="round" stroke-linejoin="round"/>
<path d="M408.008 358.451C408.008 358.451 392.952 355.148 386.34 366.706" stroke="#263238" stroke-width="6" stroke-miterlimit="10" stroke-linecap="round" stroke-linejoin="round"/>
<path d="M406.478 372.509C407.024 374.787 406.326 376.933 404.92 377.301C403.514 377.669 401.934 376.121 401.388 373.843C400.844 371.565 401.54 369.419 402.946 369.051C404.352 368.681 405.932 370.231 406.478 372.509Z" fill="#263238" stroke="#263238" stroke-width="2" stroke-miterlimit="10" stroke-linecap="round" stroke-linejoin="round"/>
<path d="M442.638 363.016C443.182 365.294 442.486 367.44 441.08 367.808C439.674 368.176 438.094 366.628 437.548 364.348C437.004 362.07 437.7 359.924 439.106 359.556C440.512 359.188 442.092 360.738 442.638 363.016Z" fill="#263238" stroke="#263238" stroke-width="2" stroke-miterlimit="10" stroke-linecap="round" stroke-linejoin="round"/>
<path d="M417.109 414.319C417.109 414.319 436.287 417.897 447.603 405.237" stroke="#858585" stroke-width="2" stroke-miterlimit="10" stroke-linecap="round" stroke-linejoin="round"/>
<path d="M592.629 642.285C576.449 624.373 552.107 637.825 542.171 644.631L537.017 692.039L534.571 700.955C534.571 700.955 516.263 720.569 513.937 724.581C511.611 728.593 507.969 731.713 505.239 733.943C502.511 736.173 496.671 737.955 496.161 740.629C495.651 743.303 504.533 744.641 507.241 743.303C509.949 741.965 516.809 734.833 516.809 734.833L512.515 746.423L547.365 761.579C547.365 761.579 549.397 751.327 550.439 745.085C551.483 738.843 553.177 724.133 553.687 721.459C554.185 718.855 589.167 657.209 592.931 641.087C592.845 641.457 592.747 641.853 592.629 642.285Z" fill="white" stroke="#263238" stroke-width="2" stroke-miterlimit="10" stroke-linecap="round" stroke-linejoin="round"/>
<path d="M334.221 470.037C334.221 470.037 325.099 478.507 323.111 486.977C321.123 495.447 290.885 601.471 283.809 617.519C276.733 633.567 275.527 646.495 279.389 652.737C283.249 658.979 352.955 708.535 352.955 708.535C352.955 708.535 360.373 733.499 362.451 739.741C364.529 745.983 368.281 756.681 368.281 756.681L396.233 743.753C396.233 743.753 401.441 749.549 404.943 752.223C408.445 754.897 412.869 756.235 413.827 753.561C414.783 750.887 409.619 743.307 409.619 743.307C409.619 743.307 407.073 737.957 406.737 733.499C406.399 729.041 399.907 721.017 397.329 717.005C394.751 712.993 373.265 698.281 373.265 698.281L329.435 629.557L346.653 564.099C346.653 564.099 331.103 488.313 334.221 470.037Z" fill="white" stroke="#263238" stroke-width="2" stroke-miterlimit="10" stroke-linecap="round" stroke-linejoin="round"/>
<path d="M329.433 629.555L349.275 574.023C349.275 574.023 331.103 488.315 334.223 470.037C334.223 470.037 325.101 478.507 323.113 486.977C321.125 495.447 290.887 601.471 283.811 617.519C276.735 633.567 275.529 646.495 279.391 652.737C280.487 654.507 286.507 662.357 298.409 668.875C302.467 661.113 313.001 643.075 335.891 641.509L329.433 629.555Z" fill="#92E3A9" stroke="#263238" stroke-width="2" stroke-miterlimit="10" stroke-linecap="round" stroke-linejoin="round"/>
<path d="M296.521 626.432C296.521 626.432 309.937 624.648 322.301 629.552" stroke="#263238" stroke-width="2" stroke-miterlimit="10" stroke-linecap="round" stroke-linejoin="round"/>
<path d="M314.449 622.421C314.449 622.421 325.517 625.541 329.433 629.553" stroke="#263238" stroke-width="2" stroke-miterlimit="10" stroke-linecap="round" stroke-linejoin="round"/>
<path d="M626.663 485.613L565.953 505.707C565.953 505.707 587.757 540.337 595.025 589.931C602.293 639.525 599.301 689.973 599.301 689.973C599.301 689.973 615.119 699.379 645.047 695.959C674.975 692.539 683.953 675.865 683.953 675.865C683.953 675.865 681.815 592.923 670.699 560.003C659.583 527.083 626.663 485.613 626.663 485.613Z" fill="#92E3A9" stroke="#263238" stroke-width="2" stroke-miterlimit="10" stroke-linecap="round" stroke-linejoin="round"/>
<path d="M536.333 338.311C536.333 338.311 521.689 337.155 515.523 353.727C509.357 370.299 492.015 428.105 495.483 440.823C498.951 453.541 506.659 457.781 509.743 471.653C512.825 485.527 505.889 494.005 505.889 494.005C505.889 494.005 511.285 501.713 524.387 502.099C537.489 502.485 557.145 492.079 570.247 488.995C583.349 485.911 612.253 483.215 630.367 480.517C648.481 477.819 652.333 464.331 652.333 464.331C652.333 464.331 640.001 465.487 639.231 457.779C638.461 450.071 648.481 421.167 644.241 401.127C640.001 381.087 611.097 361.047 598.381 351.027C585.663 341.007 573.717 332.915 560.227 332.529C546.737 332.143 538.645 333.301 536.333 338.311Z" fill="#263238" stroke="#263238" stroke-width="2" stroke-miterlimit="10" stroke-linecap="round" stroke-linejoin="round"/>
<path d="M529.781 410.763C529.781 410.763 518.219 430.803 519.761 448.531C521.303 466.259 534.791 467.415 537.489 465.103" stroke="#858585" stroke-width="2" stroke-miterlimit="10" stroke-linecap="round" stroke-linejoin="round"/>
<path d="M603.775 381.473C603.775 381.473 631.523 407.293 635.761 434.657" stroke="#858585" stroke-width="2" stroke-miterlimit="10" stroke-linecap="round" stroke-linejoin="round"/>
<path d="M562.398 454.983L575.37 490.539C575.37 490.539 602.566 522.189 614.342 517.723C626.118 513.257 614.748 481.585 614.342 477.119C613.936 472.653 610.282 450.725 610.282 450.725C610.282 450.725 602.16 463.719 596.882 463.719C591.604 463.717 562.398 454.983 562.398 454.983Z" fill="white" stroke="#263238" stroke-width="2" stroke-miterlimit="10" stroke-linecap="round" stroke-linejoin="round"/>
<path d="M552.24 361.529C552.24 361.529 531.032 400.275 531.032 405.577C531.032 410.879 547.346 443.507 551.832 450.033C556.318 456.559 587.314 470.833 594.248 471.241C601.182 471.649 608.114 463.899 609.746 457.781C611.378 451.663 618.294 434.927 617.836 425.613C617.666 422.133 605.096 383.023 601.426 380.985C597.756 378.945 552.24 361.529 552.24 361.529Z" fill="white" stroke="#263238" stroke-width="2" stroke-miterlimit="10" stroke-linecap="round" stroke-linejoin="round"/>
<path d="M566.11 415.697C566.11 415.697 558.338 412.481 553.782 419.449" stroke="#263238" stroke-width="2" stroke-miterlimit="10" stroke-linecap="round" stroke-linejoin="round"/>
<path d="M586.747 408.191C586.747 408.191 588.355 399.883 598.003 402.295" stroke="#263238" stroke-width="2" stroke-miterlimit="10" stroke-linecap="round" stroke-linejoin="round"/>
<path d="M561.285 404.707C561.285 404.707 548.957 403.903 545.205 412.479" stroke="#263238" stroke-width="2" stroke-miterlimit="10" stroke-linecap="round" stroke-linejoin="round"/>
<path d="M577.903 396.934C577.903 396.934 584.603 387.822 593.983 391.038" stroke="#263238" stroke-width="2" stroke-miterlimit="10" stroke-linecap="round" stroke-linejoin="round"/>
<path d="M589.159 425.88C589.159 425.88 585.139 431.776 579.243 430.168" stroke="#263238" stroke-width="2" stroke-miterlimit="10" stroke-linecap="round" stroke-linejoin="round"/>
<path d="M600.684 429.632C600.684 429.632 592.912 441.156 571.47 442.764C571.47 442.764 585.674 452.948 593.984 450.268C602.292 447.588 600.684 429.632 600.684 429.632Z" fill="white" stroke="#263238" stroke-width="2" stroke-miterlimit="10" stroke-linecap="round" stroke-linejoin="round"/>
<path d="M538.773 426.149C538.773 426.149 531.805 422.933 530.733 431.509C529.661 440.085 547.619 443.033 547.619 443.033L538.773 426.149Z" fill="white" stroke="#263238" stroke-width="2" stroke-miterlimit="10" stroke-linecap="round" stroke-linejoin="round"/>
<path d="M608.14 395.249C608.14 395.249 608.214 391.755 611.628 392.629C615.044 393.503 620.77 403.759 620.168 409.895C619.566 416.029 615.512 416.171 615.512 416.171L608.14 395.249Z" fill="white" stroke="#263238" stroke-width="2" stroke-miterlimit="10" stroke-linecap="round" stroke-linejoin="round"/>
<path d="M553.844 490.111C553.844 490.111 506.336 521.783 504.306 527.467C502.276 533.151 536.79 701.661 536.79 701.661C536.79 701.661 490.906 804.797 502.276 822.663C513.646 840.529 565.212 857.583 567.65 860.831C570.088 864.079 590.794 775.155 599.728 741.453C608.662 707.751 623.278 646.845 624.09 618.015C624.902 589.185 613.126 551.017 609.066 538.431C605.006 525.843 597.696 503.917 597.696 503.917L553.844 490.111Z" fill="#A3A3A3" stroke="#263238" stroke-width="2" stroke-miterlimit="10" stroke-linecap="round" stroke-linejoin="round"/>
<path d="M565.898 470.032C565.898 470.032 599.32 502.29 597.696 503.914C596.072 505.538 576.988 533.962 576.988 533.962L547.752 491.328L565.898 470.032Z" fill="#A3A3A3" stroke="#263238" stroke-width="2" stroke-miterlimit="10" stroke-linecap="round" stroke-linejoin="round"/>
<path d="M620.027 502.29C620.027 502.29 649.263 538.022 661.443 563.602C673.625 589.182 679.309 634.66 679.309 652.526C679.309 670.392 679.309 686.228 679.309 686.228C679.309 686.228 691.897 771.498 695.957 785.71C700.017 799.922 706.515 826.314 706.515 826.314C706.515 826.314 711.387 824.69 710.981 806.824C710.575 788.958 704.079 716.276 698.393 687.446C692.709 658.616 690.347 610.816 686.691 602.29C683.037 593.764 683.037 593.764 683.037 593.764L726.419 581.17C726.419 581.17 699.365 556.672 690.571 519.156C686.571 502.088 677.683 492.954 672.405 489.3C667.127 485.646 628.553 481.586 622.055 481.992C615.561 482.394 620.027 502.29 620.027 502.29Z" fill="#A3A3A3" stroke="#263238" stroke-width="2" stroke-miterlimit="10" stroke-linecap="round" stroke-linejoin="round"/>
<path d="M620.028 502.291C620.028 502.291 621.246 497.013 623.682 497.825C626.118 498.637 646.826 510.413 648.856 509.195C650.886 507.977 627.742 479.959 623.276 475.899C618.81 471.839 614.344 469.403 614.344 469.403V477.117L620.028 502.291Z" fill="#A3A3A3" stroke="#263238" stroke-width="2" stroke-miterlimit="10" stroke-linecap="round" stroke-linejoin="round"/>
<path d="M659.416 502.697C659.416 502.697 673.628 548.581 675.252 568.477L659.416 502.697Z" fill="white"/>
<path d="M659.416 502.697C659.416 502.697 673.628 548.581 675.252 568.477" stroke="#263238" stroke-width="2" stroke-miterlimit="10" stroke-linecap="round" stroke-linejoin="round"/>
<path d="M667.517 594.517C667.517 594.517 675.783 561.455 677.767 559.471C679.751 557.487 695.951 550.543 697.275 550.213C698.597 549.883 709.177 557.487 710.831 559.141C712.485 560.795 719.759 565.423 718.435 568.069C717.113 570.715 712.815 568.731 710.499 568.731C708.183 568.731 697.273 575.675 696.613 576.665C695.951 577.657 692.315 585.923 690.993 588.237C689.669 590.549 667.517 594.517 667.517 594.517Z" fill="white" stroke="#263238" stroke-width="2" stroke-miterlimit="10" stroke-linecap="round" stroke-linejoin="round"/>
<path d="M713.846 561.819C713.846 561.819 709.496 560.079 708.19 560.731C706.886 561.383 691.442 568.561 690.572 569.649C689.702 570.737 688.614 572.477 688.614 572.477" stroke="#263238" stroke-width="2" stroke-miterlimit="10" stroke-linecap="round" stroke-linejoin="round"/>
<path d="M684.485 567.473C684.485 567.473 687.095 563.993 689.705 562.471C692.315 560.949 701.451 557.469 702.537 557.033C703.625 556.599 707.757 557.033 707.757 557.033" stroke="#263238" stroke-width="2" stroke-miterlimit="10" stroke-linecap="round" stroke-linejoin="round"/>
<path d="M701.014 553.119C701.014 553.119 683.614 559.427 682.526 560.949C681.438 562.471 681.438 562.471 681.438 562.471" stroke="#263238" stroke-width="2" stroke-miterlimit="10" stroke-linecap="round" stroke-linejoin="round"/>
<path d="M684.182 589.185C684.182 589.185 700.83 577.409 708.138 574.161C715.446 570.913 730.47 577.003 733.312 580.657C736.154 584.311 739.808 601.771 739.402 614.765C738.996 627.759 738.59 633.443 729.658 636.285C720.726 639.127 708.544 640.751 707.326 641.157C706.108 641.563 704.89 616.795 697.174 603.395C689.46 589.997 684.182 589.185 684.182 589.185Z" fill="#A3A3A3" stroke="#263238" stroke-width="2" stroke-miterlimit="10" stroke-linecap="round" stroke-linejoin="round"/>
<path d="M663.068 597.307C663.068 597.307 667.128 643.597 670.376 649.281C673.624 654.965 681.746 653.747 690.272 651.717C698.798 649.687 711.386 646.845 711.792 644.003C712.198 641.161 711.792 613.955 707.326 602.587C702.86 591.217 695.144 583.097 689.054 584.721C682.964 586.343 663.068 590.403 663.068 597.307Z" fill="#A3A3A3" stroke="#263238" stroke-width="2" stroke-miterlimit="10" stroke-linecap="round" stroke-linejoin="round"/>
<path d="M625.527 673.537L675.121 630.885L654.291 616.999L614.615 634.523C614.615 634.523 625.195 662.627 625.527 673.537Z" fill="white" stroke="#263238" stroke-width="2" stroke-miterlimit="10" stroke-linecap="round" stroke-linejoin="round"/>
<path d="M601.391 697.011C601.391 697.011 606.681 697.011 613.955 691.059C621.229 685.107 627.841 681.139 625.857 664.277C623.873 647.415 615.607 621.625 611.641 618.319C607.673 615.013 582.215 618.981 581.553 620.633C580.891 622.285 601.721 652.373 603.375 669.897C605.027 687.423 601.391 697.011 601.391 697.011Z" fill="#A3A3A3" stroke="#263238" stroke-width="2" stroke-miterlimit="10" stroke-linecap="round" stroke-linejoin="round"/>
<path d="M514.103 528.391C514.103 528.391 510.375 521.253 504.305 527.467C498.233 533.681 494.927 551.205 499.225 572.365C503.523 593.525 515.425 682.133 520.055 693.045C524.683 703.955 528.983 714.205 537.247 714.535C545.513 714.865 572.625 711.229 591.139 703.955C609.655 696.681 608.663 674.859 602.381 656.013C596.099 637.167 584.527 621.627 577.583 616.999C570.639 612.369 567.003 606.419 559.729 592.863C552.455 579.307 535.923 544.921 531.295 539.963" fill="#A3A3A3"/>
<path d="M514.103 528.391C514.103 528.391 510.375 521.253 504.305 527.467C498.233 533.681 494.927 551.205 499.225 572.365C503.523 593.525 515.425 682.133 520.055 693.045C524.683 703.955 528.983 714.205 537.247 714.535C545.513 714.865 572.625 711.229 591.139 703.955C609.655 696.681 608.663 674.859 602.381 656.013C596.099 637.167 584.527 621.627 577.583 616.999C570.639 612.369 567.003 606.419 559.729 592.863C552.455 579.307 535.923 544.921 531.295 539.963" stroke="#263238" stroke-width="2" stroke-miterlimit="10" stroke-linecap="round" stroke-linejoin="round"/>
<path d="M566.768 623.355C566.768 623.355 560.112 636.985 550.674 647.535" stroke="#263238" stroke-width="2" stroke-miterlimit="10" stroke-linecap="round" stroke-linejoin="round"/>
<path d="M672.145 602.45C672.145 602.45 623.543 607.078 610.979 606.748C598.415 606.418 580.561 599.804 580.561 599.804C580.561 599.804 559.069 590.876 554.441 588.562C549.813 586.248 538.901 586.248 535.925 587.57C532.949 588.892 526.337 594.182 527.329 597.49C528.321 600.796 532.289 598.482 534.273 596.828C536.257 595.176 539.563 593.852 539.563 593.852L550.143 596.166L552.127 598.812C552.127 598.812 537.579 601.458 535.595 602.45C533.611 603.442 527.991 616.006 526.999 618.65C526.007 621.294 526.999 620.964 528.983 620.964C530.967 620.964 530.967 620.964 530.967 620.964C530.967 620.964 529.975 626.254 531.959 626.916C533.943 627.578 536.587 626.254 536.587 626.254C536.587 626.254 538.901 628.568 539.893 628.568C540.885 628.568 551.135 622.948 552.787 621.956C554.441 620.964 568.657 623.94 572.295 623.94C575.933 623.94 589.819 623.61 589.819 623.61C589.819 623.61 656.607 642.786 665.533 644.11C674.461 645.432 680.411 645.102 683.717 635.182C687.023 625.264 679.749 603.774 672.145 602.45Z" fill="white" stroke="#263238" stroke-width="2" stroke-miterlimit="10" stroke-linecap="round" stroke-linejoin="round"/>
<path d="M536.586 626.256C536.586 626.256 545.514 616.336 547.828 615.014C550.142 613.692 554.772 612.038 554.772 612.038" stroke="#263238" stroke-width="2" stroke-miterlimit="10" stroke-linecap="round" stroke-linejoin="round"/>
<path d="M530.965 620.966L540.223 610.054L550.143 606.088" stroke="#263238" stroke-width="2" stroke-miterlimit="10" stroke-linecap="round" stroke-linejoin="round"/>
<path d="M294.297 336.116C294.297 336.116 297.011 337.744 301.355 339.374C305.699 341.002 316.559 344.804 321.445 350.234C326.331 355.664 324.703 368.696 324.703 368.696" stroke="#263238" stroke-width="2" stroke-miterlimit="10" stroke-linecap="round" stroke-linejoin="round"/>
<path d="M232.307 381.288L228.053 390.414" stroke="#263238" stroke-width="2" stroke-miterlimit="10" stroke-linecap="round" stroke-linejoin="round"/>
<path d="M198.014 352.626C198.014 352.626 195.052 366.614 192.06 369.82C189.068 373.026 184.314 376.814 185.892 383.808C187.47 390.802 196.69 395.174 196.662 396.34C196.634 397.506 179.946 400.712 180.4 405.956C180.856 411.202 185.362 417.612 185.362 417.612C185.362 417.612 173.024 421.692 171.98 428.686C170.936 435.68 175.138 442.674 175.074 445.296C175.01 447.918 167.584 453.748 169.802 458.41C172.02 463.072 177.28 462.49 177.55 463.364C177.82 464.238 174.522 468.026 174.466 470.358C174.41 472.69 176.108 474.73 176.108 474.73H274.608L246.67 329.02L209.604 343.3L198.014 352.626Z" fill="#92E3A9" stroke="#263238" stroke-width="2" stroke-miterlimit="10" stroke-linecap="round" stroke-linejoin="round"/>
<path d="M257.939 473.548L284.82 474.388L304.036 475.02L326.383 493.724C326.383 493.724 345.136 587.036 346.674 592.922C348.212 598.806 330.748 642.942 329.386 647.144C328.022 651.348 331.452 683.292 331.452 683.292C331.452 683.292 322.852 691.278 295.018 695.062C267.184 698.846 235.104 687.076 235.104 687.076C235.104 687.076 256.206 631.592 260.712 601.75C260.712 601.75 264.632 544.164 263.348 527.772C262.066 511.378 257.939 473.548 257.939 473.548Z" fill="#92E3A9" stroke="#263238" stroke-width="2" stroke-miterlimit="10" stroke-linecap="round" stroke-linejoin="round"/>
<path d="M324.993 611.664L281.477 633.738" stroke="#263238" stroke-width="2" stroke-miterlimit="10" stroke-linecap="round" stroke-linejoin="round"/>
<path d="M322.471 619.232L302.289 629.322" stroke="#263238" stroke-width="2" stroke-miterlimit="10" stroke-linecap="round" stroke-linejoin="round"/>
<path d="M250.575 442.648C250.575 442.648 266.743 498.624 268.835 508.534C270.927 518.442 291.625 530.1 304.311 523.688C316.997 517.276 312.923 505.038 310.775 497.46C308.627 489.884 304.035 475.02 304.035 475.02L308.927 429.558C308.927 429.558 293.569 449.958 287.975 452.288C282.383 454.622 250.575 442.648 250.575 442.648Z" fill="white" stroke="#263238" stroke-width="2" stroke-miterlimit="10" stroke-linecap="round" stroke-linejoin="round"/>
<path d="M280.825 457.376L302.011 477.82L307.215 433.96L280.825 457.376Z" fill="#263238" stroke="#263238" stroke-width="2" stroke-miterlimit="10" stroke-linecap="round" stroke-linejoin="round"/>
<path d="M302.755 475.59L301.641 495.66" stroke="#263238" stroke-width="2" stroke-miterlimit="10" stroke-linecap="round" stroke-linejoin="round"/>
<path d="M304.182 470.398C304.182 470.398 334.122 555.932 337.436 575.268C340.75 594.604 341.488 598.806 341.746 605.532C342.002 612.258 336.602 626.968 336.602 626.968C336.602 626.968 357.83 600.908 357.96 578.21C358.09 555.512 342.672 486.95 335.476 482.796C306.872 466.278 304.182 470.398 304.182 470.398Z" fill="#263238" stroke="#263238" stroke-width="2" stroke-miterlimit="10" stroke-linecap="round" stroke-linejoin="round"/>
<path d="M331.975 512.614C331.975 512.614 345.117 550.964 343.011 579.738" stroke="#A3A3A3" stroke-width="2" stroke-miterlimit="10" stroke-linecap="round" stroke-linejoin="round"/>
<path d="M230.387 375.648L243.967 356.414L306.821 420.234C306.821 420.234 303.001 457.536 302.973 458.702C302.945 459.868 306.869 466.278 306.869 466.278C306.869 466.278 308.581 467.736 309.989 469.776C311.397 471.816 309.939 471.816 309.577 474.73C309.215 477.644 311.219 479.102 312.641 480.558C314.063 482.016 317.525 483.472 319.535 484.638C321.547 485.804 319.735 488.426 318.213 491.05C316.693 493.672 314.533 498.626 317.027 503.872C319.523 509.118 321.001 508.244 325.273 512.322C329.545 516.402 323.333 520.19 323.333 520.19C323.333 520.19 326.559 519.316 329.203 518.442C331.847 517.568 333.083 514.654 331.967 512.614C330.851 510.574 328.681 503.872 329.585 502.706C330.487 501.54 338.747 497.46 341.155 494.254C343.565 491.048 340.955 490.466 343.023 489.3C345.091 488.134 349.235 485.512 350.207 481.432C351.181 477.352 346.347 472.398 347.839 470.942C349.331 469.484 354.935 460.512 354.999 457.89C355.062 455.268 351.741 450.832 351.741 450.832C351.741 450.832 353.907 449.088 355.277 440.636C356.647 432.184 350.009 429.562 349.539 424.9C349.069 420.238 355.927 413.826 356.033 397.506C356.137 381.186 329.155 376.232 328.331 374.192C327.507 372.152 328.459 368.946 327.981 364.576C327.505 360.204 316.905 352.628 316.905 352.628C316.905 352.628 318.177 348.256 319.121 345.342C320.067 342.428 318.673 339.806 313.541 335.142C308.409 330.48 283.585 308.622 273.151 306.292C262.717 303.96 245.247 315.326 243.179 316.492C241.111 317.658 224.599 313.578 219.545 317.658C214.491 321.738 212.865 328.732 211.629 331.646C210.393 334.56 206.021 334.56 203.327 337.474C200.633 340.388 196.229 365.742 196.229 365.742" fill="#92E3A9"/>
<path d="M230.387 375.648L243.967 356.414L306.821 420.234C306.821 420.234 303.001 457.536 302.973 458.702C302.945 459.868 306.869 466.278 306.869 466.278C306.869 466.278 308.581 467.736 309.989 469.776C311.397 471.816 309.939 471.816 309.577 474.73C309.215 477.644 311.219 479.102 312.641 480.558C314.063 482.016 317.525 483.472 319.535 484.638C321.547 485.804 319.735 488.426 318.213 491.05C316.693 493.672 314.533 498.626 317.027 503.872C319.523 509.118 321.001 508.244 325.273 512.322C329.545 516.402 323.333 520.19 323.333 520.19C323.333 520.19 326.559 519.316 329.203 518.442C331.847 517.568 333.083 514.654 331.967 512.614C330.851 510.574 328.681 503.872 329.585 502.706C330.487 501.54 338.747 497.46 341.155 494.254C343.565 491.048 340.955 490.466 343.023 489.3C345.091 488.134 349.235 485.512 350.207 481.432C351.181 477.352 346.347 472.398 347.839 470.942C349.331 469.484 354.935 460.512 354.999 457.89C355.063 455.268 351.741 450.832 351.741 450.832C351.741 450.832 353.907 449.088 355.277 440.636C356.647 432.184 350.009 429.562 349.539 424.9C349.069 420.238 355.927 413.826 356.033 397.506C356.137 381.186 329.155 376.232 328.331 374.192C327.507 372.152 328.459 368.946 327.981 364.576C327.505 360.204 316.905 352.628 316.905 352.628C316.905 352.628 318.177 348.256 319.121 345.342C320.067 342.428 318.673 339.806 313.541 335.142C308.409 330.48 283.585 308.622 273.151 306.292C262.717 303.96 245.247 315.326 243.179 316.492C241.111 317.658 224.599 313.578 219.545 317.658C214.491 321.738 212.865 328.732 211.629 331.646C210.393 334.56 206.021 334.56 203.327 337.474C200.633 340.388 196.229 365.742 196.229 365.742" stroke="#263238" stroke-width="2" stroke-miterlimit="10" stroke-linecap="round" stroke-linejoin="round"/>
<path d="M256.251 464.092C256.251 464.092 286.677 571.066 288.023 584.936C289.367 598.806 241.769 689.598 232.063 708.512C222.357 727.426 201.203 785.012 197.783 804.768C194.361 824.524 191.689 848.062 191.689 848.062C191.689 848.062 166.345 835.872 149.787 825.364C133.229 814.856 130.429 808.972 131.741 806.87C133.053 804.768 139.991 778.708 139.991 778.708C139.991 778.708 125.667 762.736 126.549 761.054C127.431 759.372 159.987 647.566 159.987 647.566C159.987 647.566 168.555 467.666 171.917 467.666C175.277 467.664 256.251 464.092 256.251 464.092Z" fill="#263238" stroke="#263238" stroke-width="2" stroke-miterlimit="10" stroke-linecap="round" stroke-linejoin="round"/>
<path d="M253.182 515.172L288.024 584.936" stroke="#A3A3A3" stroke-width="2" stroke-miterlimit="10" stroke-linecap="round" stroke-linejoin="round"/>
<path d="M192.061 468.924C192.061 468.924 166.963 463.88 162.597 470.606C158.231 477.332 119.739 591.24 117.383 601.748C115.027 612.256 187.117 690.016 187.117 690.016L224.287 665.216L180.391 603.428L204.389 515.16" fill="#263238"/>
<path d="M192.061 468.924C192.061 468.924 166.963 463.88 162.597 470.606C158.231 477.332 119.739 591.24 117.383 601.748C115.027 612.256 187.117 690.016 187.117 690.016L224.287 665.216L180.391 603.428L204.389 515.16" stroke="#263238" stroke-width="2" stroke-miterlimit="10" stroke-linecap="round" stroke-linejoin="round"/>
<path d="M198.084 542.594L180.166 597.978L220.256 658.072" stroke="#A3A3A3" stroke-width="2" stroke-miterlimit="10" stroke-linecap="round" stroke-linejoin="round"/>
<path d="M202.972 525.218L200.404 533.41" stroke="#A3A3A3" stroke-width="2" stroke-miterlimit="10" stroke-linecap="round" stroke-linejoin="round"/>
<path d="M185.792 438.303C185.792 438.303 183.008 456.949 184.602 463.365C186.288 470.155 199.95 468.937 197.148 477.953C196.246 480.859 192.714 483.959 193.82 487.257C194.952 490.635 199.398 490.827 201.866 492.745C206.404 496.271 204.78 500.053 206.322 505.041C207.438 508.649 211.276 509.895 212.316 512.755C213.548 516.143 211.184 518.259 214.944 521.941C221.492 528.353 226.416 529.519 227.306 528.935C228.194 528.353 226.482 526.895 230.61 524.855C234.74 522.815 242.7 519.027 241.32 515.821C239.962 512.665 238.604 509.511 238.572 509.433C240.494 513.859 246.462 509.391 248.094 507.059C251.816 501.741 246.122 496.017 246.788 490.269C247.526 483.903 254.696 480.621 255.498 474.205C256.284 467.921 249.758 463.593 251.178 457.827C251.824 455.205 252.186 452.291 252.186 452.291C252.186 452.291 250.288 446.463 247.422 444.423C244.558 442.383 243.59 434.223 243.368 431.309" fill="#92E3A9"/>
<path d="M185.792 438.303C185.792 438.303 183.008 456.949 184.602 463.365C186.288 470.155 199.95 468.937 197.148 477.953C196.246 480.859 192.714 483.959 193.82 487.257C194.952 490.635 199.398 490.827 201.866 492.745C206.404 496.271 204.78 500.053 206.322 505.041C207.438 508.649 211.276 509.895 212.316 512.755C213.548 516.143 211.184 518.259 214.944 521.941C221.492 528.353 226.416 529.519 227.306 528.935C228.194 528.353 226.482 526.895 230.61 524.855C234.74 522.815 242.7 519.027 241.32 515.821C239.962 512.665 238.604 509.511 238.572 509.433C240.494 513.859 246.462 509.391 248.094 507.059C251.816 501.741 246.122 496.017 246.788 490.269C247.526 483.903 254.696 480.621 255.498 474.205C256.284 467.921 249.758 463.593 251.178 457.827C251.824 455.205 252.186 452.291 252.186 452.291C252.186 452.291 250.288 446.463 247.422 444.423C244.558 442.383 243.59 434.223 243.368 431.309" stroke="#263238" stroke-width="2" stroke-miterlimit="10" stroke-linecap="round" stroke-linejoin="round"/>
<path d="M238.216 345.903C238.216 345.903 214.656 380.159 216.458 387.407C218.258 394.653 236.236 441.099 242.384 445.709C248.53 450.321 273.3 461.191 281.528 461.519C289.754 461.849 295.764 458.555 299.194 452.955C302.624 447.355 315.692 424.627 315.812 419.687C315.932 414.745 305.386 367.327 303.426 366.669C301.462 366.009 238.216 345.903 238.216 345.903Z" fill="white" stroke="black" stroke-width="2" stroke-miterlimit="10" stroke-linecap="round" stroke-linejoin="round"/>
<path d="M274.219 382.296C274.219 382.296 273.541 391.438 274.383 394.41C275.225 397.382 282.965 408.124 283.149 409.952C283.333 411.78 280.317 413.61 276.165 415.21" stroke="#263238" stroke-width="2" stroke-miterlimit="10" stroke-linecap="round" stroke-linejoin="round"/>
<path d="M221.055 401.568C221.055 401.568 215.897 396.956 213.125 402.556C210.355 408.156 212.475 415.732 221.217 421.99C229.959 428.248 231.935 428.248 231.935 428.248L221.055 401.568Z" fill="white" stroke="#263238" stroke-width="2" stroke-miterlimit="10" stroke-linecap="round" stroke-linejoin="round"/>
<path d="M307.256 378.511C307.256 378.511 311.924 376.205 314.086 382.135C316.248 388.063 312.916 403.217 312.916 403.217L307.256 378.511Z" fill="white" stroke="#263238" stroke-width="2" stroke-miterlimit="10" stroke-linecap="round" stroke-linejoin="round"/>
<path d="M262.582 427.187C262.582 427.187 277.798 426.037 281.524 424.195C285.25 422.355 291.754 414.851 291.754 414.851C291.754 414.851 291.738 431.337 283.706 434.163C278.062 436.147 262.582 427.187 262.582 427.187Z" fill="white" stroke="#263238" stroke-width="2" stroke-miterlimit="10" stroke-linecap="round" stroke-linejoin="round"/>
<path d="M237.66 391.211C237.66 391.211 238.786 382.525 253.91 380.925L237.66 391.211Z" fill="white"/>
<path d="M237.66 391.211C237.66 391.211 238.786 382.525 253.91 380.925" stroke="#263238" stroke-width="2" stroke-miterlimit="10" stroke-linecap="round" stroke-linejoin="round"/>
<path d="M273.994 374.823C273.994 374.823 283.282 366.753 293.328 376.583L273.994 374.823Z" fill="white"/>
<path d="M273.994 374.823C273.994 374.823 283.282 366.753 293.328 376.583" stroke="#263238" stroke-width="2" stroke-miterlimit="10" stroke-linecap="round" stroke-linejoin="round"/>
<path d="M256.426 395.626C257.222 398.308 256.366 400.96 254.512 401.55C252.658 402.14 250.51 400.446 249.714 397.764C248.918 395.082 249.774 392.43 251.628 391.838C253.48 391.25 255.628 392.944 256.426 395.626Z" fill="#263238"/>
<path d="M287.519 387.013C288.315 389.695 287.459 392.347 285.605 392.937C283.751 393.527 281.605 391.833 280.807 389.151C280.011 386.469 280.867 383.817 282.721 383.227C284.575 382.637 286.723 384.331 287.519 387.013Z" fill="#263238"/>
</g>
</svg>
