<svg width="500" height="500" viewBox="0 0 500 500" fill="none" xmlns="http://www.w3.org/2000/svg">
<path d="M452.282 118.763C450.623 116.001 448.898 113.291 447.096 110.641C423.099 75.381 383.149 51.241 344.323 40.308C327.314 35.511 309.851 33.002 292.418 32.361C178.074 28.206 136.068 122.485 99.2283 146.793C62.3883 171.102 5.85432 212.622 12.9483 299.842C18.3313 366.158 56.0573 429.568 124.957 458.423C132.546 461.611 140.52 464.378 148.869 466.674C164.4 470.947 181.232 473.629 199.369 474.436C251.461 476.757 293.758 464.2 335.132 432.579C344.749 425.229 354.315 416.938 366.796 416.03C375.868 415.37 384.469 418.629 374.986 427.396C363.841 437.701 376.701 457.968 404.992 443.887C452.243 420.37 471.681 369.631 480.838 318.037C492.078 254.708 486.629 175.952 452.282 118.763Z" fill="#92E3A9"/>
<path opacity="0.7" d="M452.282 118.763C450.623 116.001 448.898 113.291 447.096 110.641C423.099 75.381 383.149 51.241 344.323 40.308C327.314 35.511 309.851 33.002 292.418 32.361C178.074 28.206 136.068 122.485 99.2283 146.793C62.3883 171.102 5.85432 212.622 12.9483 299.842C18.3313 366.158 56.0573 429.568 124.957 458.423C132.546 461.611 140.52 464.378 148.869 466.674C164.4 470.947 181.232 473.629 199.369 474.436C251.461 476.757 293.758 464.2 335.132 432.579C344.749 425.229 354.315 416.938 366.796 416.03C375.868 415.37 384.469 418.629 374.986 427.396C363.841 437.701 376.701 457.968 404.992 443.887C452.243 420.37 471.681 369.631 480.838 318.037C492.078 254.708 486.629 175.952 452.282 118.763Z" fill="white"/>
<path d="M432.766 136.636C432.766 136.636 427.518 114.769 396.904 110.395C366.29 106.022 361.917 132.262 355.794 135.761C349.671 139.26 346.173 129.638 336.551 130.513C326.929 131.388 321.681 139.26 317.308 142.759C312.935 146.258 305.062 135.762 298.94 137.511C292.817 139.26 287.569 148.007 287.569 148.007H465.13C465.13 148.007 459.007 138.386 450.26 134.887C441.513 131.388 438.014 136.636 432.766 136.636Z" stroke="#263238" stroke-miterlimit="10" stroke-linecap="round" stroke-linejoin="round"/>
<path d="M137.986 202.3C137.986 202.3 134.224 186.626 112.28 183.491C90.3362 180.356 87.2012 199.165 82.8122 201.673C78.4232 204.181 75.9152 197.284 69.0192 197.911C62.1222 198.538 58.3602 204.181 55.2252 206.689C52.0902 209.197 46.4472 201.673 42.0582 202.927C37.6692 204.181 33.9072 210.451 33.9072 210.451H161.184C161.184 210.451 156.795 203.554 150.525 201.046C144.256 198.538 141.748 202.3 137.986 202.3Z" stroke="#263238" stroke-miterlimit="10" stroke-linecap="round" stroke-linejoin="round"/>
<path d="M195.215 69.848C195.215 69.848 192.831 59.916 178.927 57.93C165.023 55.944 163.036 67.862 160.255 69.451C157.474 71.04 155.885 66.67 151.515 67.067C147.145 67.464 144.761 71.04 142.775 72.629C140.789 74.218 137.213 69.451 134.432 70.245C131.651 71.04 129.267 75.012 129.267 75.012H209.915C209.915 75.012 207.134 70.642 203.161 69.053C199.188 67.465 197.598 69.848 195.215 69.848Z" stroke="#263238" stroke-miterlimit="10" stroke-linecap="round" stroke-linejoin="round"/>
<path d="M309.446 90.324C322.14 90.324 332.431 80.0333 332.431 67.339C332.431 54.6447 322.14 44.354 309.446 44.354C296.752 44.354 286.461 54.6447 286.461 67.339C286.461 80.0333 296.752 90.324 309.446 90.324Z" stroke="#263238" stroke-miterlimit="10" stroke-linecap="round" stroke-linejoin="round"/>
<path d="M309.445 28.771V38.12" stroke="#263238" stroke-miterlimit="10" stroke-linecap="round" stroke-linejoin="round"/>
<path d="M309.445 98.115V107.465" stroke="#263238" stroke-miterlimit="10" stroke-linecap="round" stroke-linejoin="round"/>
<path d="M337.269 40.295L330.658 46.907" stroke="#263238" stroke-miterlimit="10" stroke-linecap="round" stroke-linejoin="round"/>
<path d="M288.235 89.329L281.624 95.94" stroke="#263238" stroke-miterlimit="10" stroke-linecap="round" stroke-linejoin="round"/>
<path d="M348.792 68.118H339.442" stroke="#263238" stroke-miterlimit="10" stroke-linecap="round" stroke-linejoin="round"/>
<path d="M279.449 68.118H270.099" stroke="#263238" stroke-miterlimit="10" stroke-linecap="round" stroke-linejoin="round"/>
<path d="M337.269 95.94L330.658 89.329" stroke="#263238" stroke-miterlimit="10" stroke-linecap="round" stroke-linejoin="round"/>
<path d="M288.235 46.907L281.624 40.295" stroke="#263238" stroke-miterlimit="10" stroke-linecap="round" stroke-linejoin="round"/>
<path d="M364.867 195.22C364.867 195.22 369.484 194.066 370.868 194.527C372.253 194.989 369.95 196.625 369.95 196.625C369.95 196.625 371.099 197.297 371.792 198.912C372.484 200.528 369.492 199.832 369.492 199.832C369.492 199.832 370.407 200.99 369.484 201.913C368.561 202.836 364.406 198.22 364.406 198.22C364.406 198.22 361.405 200.067 358.635 199.836C355.865 199.605 354.249 198.913 352.403 196.143C350.557 193.373 349.171 191.988 349.171 191.988L347.324 191.296L350.094 189.68C350.094 189.68 352.402 187.603 354.71 187.833C357.018 188.064 357.942 188.756 357.942 188.756C357.942 188.756 359.327 185.063 361.404 183.678C363.481 182.293 369.945 180.446 372.022 179.292C374.099 178.138 373.638 179.985 372.945 181.139C372.252 182.293 370.175 183.216 369.252 183.678C368.329 184.14 374.099 184.371 373.176 185.525C372.253 186.679 368.79 187.141 368.79 187.141C368.79 187.141 372.022 188.295 371.329 189.218C370.636 190.141 367.867 190.141 367.867 190.141C367.867 190.141 368.79 192.449 367.405 192.449C366.02 192.449 366.02 192.449 366.02 192.449C366.02 192.449 366.714 195.682 364.867 195.22Z" fill="#92E3A9" stroke="#263238" stroke-miterlimit="10" stroke-linecap="round" stroke-linejoin="round"/>
<path d="M357.943 188.757C357.943 188.757 356.096 185.064 357.02 182.756C357.943 180.448 366.484 174.446 366.253 176.755C366.022 179.063 363.714 180.448 363.714 180.448C363.714 180.448 367.176 179.294 367.176 180.217C367.176 181.14 367.176 181.14 367.176 181.14C367.176 181.14 363.252 182.063 361.405 183.679C359.559 185.294 357.943 188.757 357.943 188.757Z" fill="#263238" stroke="#263238" stroke-miterlimit="10" stroke-linecap="round" stroke-linejoin="round"/>
<path d="M352.54 191.242C352.919 191.242 353.227 190.934 353.227 190.555C353.227 190.176 352.919 189.868 352.54 189.868C352.16 189.868 351.853 190.176 351.853 190.555C351.853 190.934 352.16 191.242 352.54 191.242Z" fill="#263238"/>
<path d="M361.811 197.61C361.396 199.01 359.195 199.591 356.895 198.909C354.595 198.227 353.068 196.539 353.484 195.139C353.899 193.739 356.1 193.158 358.4 193.84C360.699 194.522 362.226 196.21 361.811 197.61Z" fill="white" stroke="#263238" stroke-width="0.5" stroke-miterlimit="10" stroke-linecap="round" stroke-linejoin="round"/>
<path d="M135.272 136.058C135.272 136.058 130.655 134.904 129.27 135.365C127.885 135.827 130.189 137.463 130.189 137.463C130.189 137.463 129.04 138.135 128.347 139.75C127.655 141.366 130.647 140.67 130.647 140.67C130.647 140.67 129.732 141.828 130.655 142.751C131.578 143.674 135.733 139.058 135.733 139.058C135.733 139.058 138.734 140.905 141.504 140.674C144.274 140.443 145.89 139.751 147.736 136.981C149.582 134.211 150.968 132.826 150.968 132.826L152.815 132.133L150.045 130.517C150.045 130.517 147.737 128.44 145.428 128.67C143.12 128.901 142.196 129.593 142.196 129.593C142.196 129.593 140.811 125.9 138.734 124.515C136.657 123.13 130.193 121.283 128.116 120.129C126.039 118.975 126.5 120.821 127.193 121.976C127.885 123.13 129.963 124.053 130.886 124.515C131.809 124.977 126.039 125.207 126.962 126.362C127.885 127.516 131.348 127.978 131.348 127.978C131.348 127.978 128.116 129.132 128.809 130.055C129.502 130.978 132.271 130.978 132.271 130.978C132.271 130.978 131.348 133.286 132.733 133.286C134.118 133.286 134.118 133.286 134.118 133.286C134.118 133.286 133.426 136.52 135.272 136.058Z" fill="#92E3A9" stroke="#263238" stroke-miterlimit="10" stroke-linecap="round" stroke-linejoin="round"/>
<path d="M142.197 129.595C142.197 129.595 144.044 125.902 143.12 123.594C142.197 121.286 133.656 115.284 133.887 117.593C134.118 119.901 136.426 121.286 136.426 121.286C136.426 121.286 132.964 120.132 132.964 121.055C132.964 121.978 132.964 121.978 132.964 121.978C132.964 121.978 136.888 122.901 138.735 124.517C140.581 126.132 142.197 129.595 142.197 129.595Z" fill="#263238" stroke="#263238" stroke-miterlimit="10" stroke-linecap="round" stroke-linejoin="round"/>
<path d="M146.912 131.393C146.912 131.773 147.22 132.08 147.599 132.08C147.979 132.08 148.286 131.772 148.286 131.393C148.286 131.013 147.978 130.706 147.599 130.706C147.22 130.706 146.912 131.014 146.912 131.393Z" fill="#263238"/>
<path d="M138.328 138.448C138.743 139.848 140.944 140.429 143.244 139.747C145.543 139.064 147.071 137.377 146.655 135.977C146.24 134.577 144.039 133.996 141.739 134.678C139.44 135.36 137.913 137.048 138.328 138.448Z" fill="white" stroke="#263238" stroke-width="0.5" stroke-miterlimit="10" stroke-linecap="round" stroke-linejoin="round"/>
<path d="M122.877 307.967C122.877 307.967 113.75 293.454 97.2093 284.876C80.6683 276.299 73.6153 267.829 82.1993 268.334C92.6143 268.947 116.201 277.217 126.922 306.318C131.548 318.875 122.877 307.967 122.877 307.967Z" fill="#92E3A9" stroke="#263238" stroke-miterlimit="10" stroke-linecap="round" stroke-linejoin="round"/>
<path d="M122.328 304.175C122.328 304.175 114.057 287.633 98.4346 279.669" stroke="#263238" stroke-miterlimit="10" stroke-linecap="round" stroke-linejoin="round"/>
<path d="M132.824 318.002C132.824 318.002 127.607 303.411 130.75 286.865C133.893 270.32 131.813 260.578 127.378 266.96C121.997 274.704 114.701 296.085 129.394 319.956C135.733 330.256 132.824 318.002 132.824 318.002Z" fill="#92E3A9" stroke="#263238" stroke-miterlimit="10" stroke-linecap="round" stroke-linejoin="round"/>
<path d="M130.436 315.494C130.436 315.494 123.3 300.378 126.365 284.828" stroke="#263238" stroke-miterlimit="10" stroke-linecap="round" stroke-linejoin="round"/>
<path d="M123.554 300.669C123.554 300.669 118.337 286.078 121.48 269.532C124.623 252.987 122.543 243.245 118.108 249.627C112.727 257.37 105.431 278.752 120.124 302.623C126.463 312.923 123.554 300.669 123.554 300.669Z" fill="#92E3A9" stroke="#263238" stroke-miterlimit="10" stroke-linecap="round" stroke-linejoin="round"/>
<path d="M122.328 304.175C122.328 304.175 114.03 283.045 117.095 267.495" stroke="#263238" stroke-miterlimit="10" stroke-linecap="round" stroke-linejoin="round"/>
<path d="M331.196 289.89C331.196 289.89 340.323 275.377 356.864 266.799C373.406 258.222 380.458 249.753 371.874 250.257C361.459 250.87 337.872 259.14 327.15 288.241C322.525 300.798 331.196 289.89 331.196 289.89Z" fill="#92E3A9" stroke="#263238" stroke-miterlimit="10" stroke-linecap="round" stroke-linejoin="round"/>
<path d="M331.746 286.098C331.746 286.098 340.017 269.556 355.639 261.592" stroke="#263238" stroke-miterlimit="10" stroke-linecap="round" stroke-linejoin="round"/>
<path d="M321.249 299.925C321.249 299.925 326.466 285.333 323.323 268.788C320.18 252.243 322.26 242.501 326.695 248.883C332.076 256.626 339.372 278.008 324.679 301.879C318.34 312.179 321.249 299.925 321.249 299.925Z" fill="#92E3A9" stroke="#263238" stroke-miterlimit="10" stroke-linecap="round" stroke-linejoin="round"/>
<path d="M323.638 297.417C323.638 297.417 330.774 282.301 327.709 266.751" stroke="#263238" stroke-miterlimit="10" stroke-linecap="round" stroke-linejoin="round"/>
<path d="M330.521 282.592C330.521 282.592 335.738 268 332.595 251.455C329.452 234.91 331.532 225.168 335.967 231.55C341.348 239.294 348.644 260.675 333.951 284.546C327.612 294.846 330.521 282.592 330.521 282.592Z" fill="#92E3A9" stroke="#263238" stroke-miterlimit="10" stroke-linecap="round" stroke-linejoin="round"/>
<path d="M331.747 286.098C331.747 286.098 340.045 264.968 336.98 249.418" stroke="#263238" stroke-miterlimit="10" stroke-linecap="round" stroke-linejoin="round"/>
<path d="M335.361 238.144H240.302L187.12 153.576H282.179L335.361 238.144Z" fill="#263238" stroke="#263238" stroke-miterlimit="10" stroke-linecap="round" stroke-linejoin="round"/>
<path d="M227.074 235.238H129.644V321.301H227.074V235.238Z" fill="#C7C7C7" stroke="#263238" stroke-miterlimit="10" stroke-linecap="round" stroke-linejoin="round"/>
<path d="M324.503 321.301H227.073V235.238L276.6 156.482L324.503 235.238V321.301Z" fill="white" stroke="#263238" stroke-miterlimit="10" stroke-linecap="round" stroke-linejoin="round"/>
<path d="M248.183 250.664H238.44V279.893H248.183V250.664Z" fill="#C7C7C7" stroke="#263238" stroke-miterlimit="10" stroke-linecap="round" stroke-linejoin="round"/>
<path d="M257.927 250.664H248.184V279.893H257.927V250.664Z" fill="#263238" stroke="#263238" stroke-miterlimit="10" stroke-linecap="round" stroke-linejoin="round"/>
<path d="M267.67 250.664H257.927V279.893H267.67V250.664Z" fill="#C7C7C7" stroke="#263238" stroke-miterlimit="10" stroke-linecap="round" stroke-linejoin="round"/>
<path d="M203.529 250.664H195.41V279.893H203.529V250.664Z" fill="#919191" stroke="#263238" stroke-miterlimit="10" stroke-linecap="round" stroke-linejoin="round"/>
<path d="M211.648 250.664H203.529V279.893H211.648V250.664Z" fill="#263238" stroke="#263238" stroke-miterlimit="10" stroke-linecap="round" stroke-linejoin="round"/>
<path d="M219.767 250.664H211.648V279.893H219.767V250.664Z" fill="#919191" stroke="#263238" stroke-miterlimit="10" stroke-linecap="round" stroke-linejoin="round"/>
<path d="M143.447 250.664H135.328V279.893H143.447V250.664Z" fill="#919191" stroke="#263238" stroke-miterlimit="10" stroke-linecap="round" stroke-linejoin="round"/>
<path d="M151.566 250.664H143.447V279.893H151.566V250.664Z" fill="#263238" stroke="#263238" stroke-miterlimit="10" stroke-linecap="round" stroke-linejoin="round"/>
<path d="M159.685 250.664H151.566V279.893H159.685V250.664Z" fill="#919191" stroke="#263238" stroke-miterlimit="10" stroke-linecap="round" stroke-linejoin="round"/>
<path d="M297.711 250.664H287.968V279.893H297.711V250.664Z" fill="#C7C7C7" stroke="#263238" stroke-miterlimit="10" stroke-linecap="round" stroke-linejoin="round"/>
<path d="M307.454 250.664H297.711V279.893H307.454V250.664Z" fill="#263238" stroke="#263238" stroke-miterlimit="10" stroke-linecap="round" stroke-linejoin="round"/>
<path d="M317.197 250.664H307.454V279.893H317.197V250.664Z" fill="#C7C7C7" stroke="#263238" stroke-miterlimit="10" stroke-linecap="round" stroke-linejoin="round"/>
<path d="M274.976 202.761H268.481V220.623H274.976V202.761Z" fill="#C7C7C7" stroke="#263238" stroke-miterlimit="10" stroke-linecap="round" stroke-linejoin="round"/>
<path d="M281.472 202.761H274.977V220.623H281.472V202.761Z" fill="#263238" stroke="#263238" stroke-miterlimit="10" stroke-linecap="round" stroke-linejoin="round"/>
<path d="M287.968 202.761H281.473V220.623H287.968V202.761Z" fill="#C7C7C7" stroke="#263238" stroke-miterlimit="10" stroke-linecap="round" stroke-linejoin="round"/>
<path d="M124.222 238.144H228.842L282.024 153.576H177.404L124.222 238.144Z" fill="#92E3A9" stroke="#263238" stroke-miterlimit="10" stroke-linecap="round" stroke-linejoin="round"/>
<path d="M205.905 191.775H164.591V219.115H205.905V191.775Z" fill="#C7C7C7" stroke="#263238" stroke-miterlimit="10" stroke-linecap="round" stroke-linejoin="round"/>
<path d="M205.905 191.775L234.454 172.168L205.905 219.115V191.775Z" fill="white" stroke="#263238" stroke-miterlimit="10" stroke-linecap="round" stroke-linejoin="round"/>
<path d="M161.28 192.704H204.552L234.454 172.168H191.189L161.28 192.704Z" fill="#92E3A9" stroke="#263238" stroke-miterlimit="10" stroke-linecap="round" stroke-linejoin="round"/>
<path d="M181.202 197.58H174.707V215.442H181.202V197.58Z" fill="#919191" stroke="#263238" stroke-miterlimit="10" stroke-linecap="round" stroke-linejoin="round"/>
<path d="M187.697 197.58H181.202V215.442H187.697V197.58Z" fill="#263238" stroke="#263238" stroke-miterlimit="10" stroke-linecap="round" stroke-linejoin="round"/>
<path d="M194.193 197.58H187.698V215.442H194.193V197.58Z" fill="#919191" stroke="#263238" stroke-miterlimit="10" stroke-linecap="round" stroke-linejoin="round"/>
<path d="M256.836 140.75H253.203V167.285L256.836 161.418V140.75Z" fill="white" stroke="#263238" stroke-miterlimit="10" stroke-linecap="round" stroke-linejoin="round"/>
<path d="M253.371 140.75H242.633V167.285H253.371V140.75Z" fill="#C7C7C7" stroke="#263238" stroke-miterlimit="10" stroke-linecap="round" stroke-linejoin="round"/>
<path d="M190.862 255.578H165.855V321.301H190.862V255.578Z" fill="#263238" stroke="#263238" stroke-miterlimit="10" stroke-linecap="round" stroke-linejoin="round"/>
<path d="M189.542 288.355C189.542 287.133 188.551 286.142 187.329 286.142C186.107 286.142 185.116 287.133 185.116 288.355C185.116 289.577 186.107 290.568 187.329 290.568C188.551 290.569 189.542 289.578 189.542 288.355Z" fill="white" stroke="#263238" stroke-miterlimit="10" stroke-linecap="round" stroke-linejoin="round"/>
<path d="M124.487 307.553C124.487 307.553 103.544 296.092 83.9866 293.964C64.4296 291.836 53.1146 300.947 53.2116 304.904C53.3086 308.86 66.8816 309.156 69.4566 309.817C72.0316 310.478 87.7606 306.135 110.973 311.65C134.185 317.165 137.158 318.299 137.158 318.299L124.487 307.553Z" fill="white" stroke="#263238" stroke-miterlimit="10" stroke-linecap="round" stroke-linejoin="round"/>
<path d="M115.727 307.291C115.727 307.291 93.8747 297.676 74.2067 297.239C54.5397 296.802 44.0507 306.854 44.4877 310.787C44.9247 314.72 58.4737 313.846 61.0957 314.283C63.7177 314.72 79.0147 309.038 102.615 312.535C126.216 316.031 129.275 316.905 129.275 316.905L115.727 307.291Z" fill="white" stroke="#263238" stroke-miterlimit="10" stroke-linecap="round" stroke-linejoin="round"/>
<path d="M395.066 299.202L364.721 290.984C364.721 290.984 343.227 273.915 317.307 275.812C291.388 277.709 267.997 287.824 260.411 293.513C252.825 299.203 243.342 304.892 241.446 306.157C239.549 307.421 213.63 300.467 199.722 306.157C185.814 311.847 175.067 323.226 175.067 323.226C175.067 323.226 116.274 305.525 101.734 302.996C87.1941 300.467 70.1251 301.732 58.1131 310.582C46.1011 319.432 48.6301 325.122 54.9521 326.387C61.2741 327.651 62.5381 321.33 97.3081 330.812C132.078 340.295 174.434 364.95 191.503 374.433C208.572 383.916 237.02 397.192 255.986 391.502C274.951 385.812 326.791 366.215 338.802 366.215C350.813 366.215 389.377 368.744 389.377 368.744L395.066 299.202Z" fill="white" stroke="#263238" stroke-miterlimit="10" stroke-linecap="round" stroke-linejoin="round"/>
<path d="M378.562 341.023L352.482 366.06L389.375 368.742L378.562 341.023Z" fill="#263238" stroke="#263238" stroke-miterlimit="10" stroke-linecap="round" stroke-linejoin="round"/>
<path d="M175.065 323.225C175.065 323.225 169.193 330.942 171.668 340.944C173.197 347.121 180.409 345.752 193.52 343.129C206.631 340.507 194.394 338.759 224.987 338.322C255.58 337.885 288.359 337.011 290.107 337.011" stroke="#263238" stroke-miterlimit="10" stroke-linecap="round" stroke-linejoin="round"/>
<path d="M174.845 344.667C174.845 344.667 175.428 340.675 179.689 338.208C179.689 338.208 186.955 334.44 191.53 334.44C196.105 334.44 199.872 339.284 198.527 340.899" stroke="#263238" stroke-miterlimit="10" stroke-linecap="round" stroke-linejoin="round"/>
<path d="M214.135 337.132V331.749" stroke="#263238" stroke-miterlimit="10" stroke-linecap="round" stroke-linejoin="round"/>
<path d="M216.826 326.636C216.826 326.636 217.633 329.596 217.095 334.171" stroke="#263238" stroke-miterlimit="10" stroke-linecap="round" stroke-linejoin="round"/>
<path d="M421.66 397.9H380.887C378.408 397.9 376.398 395.89 376.398 393.411V291.116C376.398 288.637 378.408 286.627 380.887 286.627H421.66V397.9Z" fill="#92E3A9" stroke="#263238" stroke-miterlimit="10" stroke-linecap="round" stroke-linejoin="round"/>
<path d="M494.187 406.593H421.999C420.113 406.593 418.584 405.064 418.584 403.179V284.329C418.584 282.443 420.113 280.915 421.999 280.915H494.187V406.593Z" fill="#92E3A9" stroke="#263238" stroke-miterlimit="10" stroke-linecap="round" stroke-linejoin="round"/>
<path d="M382.674 296.823H416.324" stroke="#263238" stroke-miterlimit="10" stroke-linecap="round" stroke-linejoin="round"/>
<path d="M415.866 310.027H381.656" stroke="#263238" stroke-miterlimit="10" stroke-linecap="round" stroke-linejoin="round"/>
<path d="M380.456 334.034H403.863" stroke="#263238" stroke-miterlimit="10" stroke-linecap="round" stroke-linejoin="round"/>
<path d="M408.063 334.034H415.865" stroke="#263238" stroke-miterlimit="10" stroke-linecap="round" stroke-linejoin="round"/>
</svg>
