<svg width="500" height="500" viewBox="0 0 500 500" fill="none" xmlns="http://www.w3.org/2000/svg">
<path d="M59.7182 329.699C63.8772 361.303 83.9242 388.485 112.628 401.48C173.546 429.059 280.547 473.116 318.792 461.271C373.493 444.33 485.656 132.034 467.346 75.882C449.036 19.73 72.4822 57.698 55.6382 104.013C42.7772 139.378 50.1292 256.837 59.7182 329.699Z" fill="#92E3A9"/>
<path opacity="0.7" d="M59.7182 329.699C63.8772 361.303 83.9242 388.485 112.628 401.48C173.546 429.059 280.547 473.116 318.792 461.271C373.493 444.33 485.656 132.034 467.346 75.882C449.036 19.73 72.4822 57.698 55.6382 104.013C42.7772 139.378 50.1292 256.837 59.7182 329.699Z" fill="white"/>
<path d="M419.336 326.249L419.338 326.245C419.352 326.21 419.335 326.169 419.3 326.154C419.264 326.138 419.222 326.155 419.207 326.191C417.062 331.146 415.553 336.347 414.294 341.593C413.079 346.854 412.198 352.191 411.583 357.56L411.199 361.596C411.14 362.269 411.067 362.942 411.018 363.616L410.908 365.641C410.85 366.992 410.767 368.342 410.729 369.693L410.766 373.749L410.811 375.776C410.841 376.451 410.889 377.126 410.935 377.8C411.037 379.148 411.119 380.497 411.243 381.842C411.502 384.531 411.906 387.205 412.322 389.868C412.327 389.902 412.357 389.928 412.392 389.928C412.431 389.928 412.463 389.896 412.463 389.857V389.853C412.456 388.501 412.399 387.157 412.368 385.811C412.329 384.467 412.212 383.129 412.231 381.784C412.237 380.44 412.202 379.099 412.187 377.758L412.15 375.748L412.186 373.738L412.204 369.719L412.313 365.702L412.355 363.692C412.381 363.022 412.431 362.354 412.468 361.685L412.715 357.671C413.185 352.329 413.919 347.006 414.989 341.745C416.055 336.488 417.376 331.253 419.336 326.249Z" fill="#263238"/>
<path d="M419.912 347.264C419.922 347.228 419.904 347.188 419.868 347.175C419.831 347.162 419.79 347.182 419.778 347.219C418.621 350.558 417.698 353.974 416.917 357.426C416.171 360.884 415.585 364.387 415.228 367.916C414.871 371.433 414.478 374.954 414.43 378.49C414.376 382.024 414.432 385.563 414.806 389.094C414.81 389.127 414.836 389.154 414.869 389.157C414.908 389.161 414.943 389.133 414.948 389.094C415.356 385.573 415.606 382.061 415.849 378.55C416.098 375.041 416.132 371.521 416.361 368.01C416.573 364.51 417.012 361.024 417.615 357.561C418.204 354.099 418.94 350.648 419.912 347.264Z" fill="#263238"/>
<path d="M431.563 354.657C431.542 354.624 431.498 354.614 431.465 354.635C428.549 356.481 425.948 358.807 423.675 361.427C422.558 362.757 421.519 364.149 420.629 365.663L420.003 366.844L419.513 368.071C419.337 368.478 419.213 368.897 419.086 369.315C418.96 369.734 418.819 370.151 418.706 370.572C417.831 373.949 417.252 377.39 417.094 380.849C416.953 384.306 417.019 387.768 417.48 391.2C417.485 391.233 417.512 391.259 417.546 391.262C417.585 391.265 417.619 391.235 417.622 391.196L418.51 380.95C418.864 377.563 419.081 374.156 419.808 370.847C419.9 370.435 420.019 370.032 420.123 369.623C420.229 369.215 420.331 368.805 420.482 368.416L420.898 367.232L421.433 366.114C422.222 364.634 423.187 363.218 424.224 361.876C426.305 359.191 428.753 356.743 431.539 354.756L431.543 354.753C431.575 354.731 431.583 354.689 431.563 354.657Z" fill="#263238"/>
<path d="M425.923 367.82C424.335 368.845 423.273 370.457 422.38 372.079C421.529 373.737 420.858 375.494 420.395 377.296C420.256 377.742 420.146 378.195 420.048 378.649L419.727 380.011C419.563 380.926 419.435 381.851 419.383 382.778C419.371 383.708 419.344 384.636 419.407 385.563C419.484 386.489 419.589 387.414 419.772 388.33C419.779 388.356 419.8 388.381 419.829 388.387C419.868 388.395 419.906 388.369 419.914 388.33C420.138 387.416 420.285 386.51 420.405 385.606C420.549 384.704 420.689 383.808 420.797 382.911C420.929 382.018 421.047 381.127 421.117 380.226C421.242 379.338 421.307 378.43 421.502 377.553C421.814 375.777 422.327 374.043 423.021 372.385C423.712 370.74 424.612 369.101 425.995 367.943L426.006 367.934C426.033 367.912 426.04 367.872 426.02 367.842C426 367.809 425.956 367.799 425.923 367.82Z" fill="#263238"/>
<path d="M409.584 378.084C409.201 373.535 408.451 369.032 407.742 364.531C407.031 360.03 406.247 355.542 405.423 351.062C404.57 346.588 403.679 342.122 402.714 337.672C402.706 337.635 402.67 337.61 402.632 337.617C402.593 337.624 402.568 337.661 402.575 337.7C403.353 342.184 404.058 346.68 404.723 351.181C405.406 355.678 406.048 360.181 406.617 364.692C407.173 369.205 407.606 373.728 408.172 378.233L409.836 391.773C409.84 391.807 409.868 391.834 409.904 391.836C409.943 391.838 409.976 391.808 409.978 391.768C410.03 390.627 410.031 389.486 410.059 388.342C410.069 387.199 410.013 386.061 409.992 384.918C409.95 382.633 409.755 380.36 409.584 378.084Z" fill="#263238"/>
<path d="M406.857 378.018C406.614 376.216 406.283 374.425 405.939 372.64L405.3 369.984C405.091 369.099 404.893 368.211 404.633 367.337C403.725 363.813 402.566 360.35 401.156 356.993L400.611 355.741L400.005 354.516C399.62 353.691 399.153 352.906 398.711 352.111C397.76 350.562 396.773 349.014 395.428 347.758C395.401 347.733 395.358 347.733 395.33 347.759C395.302 347.786 395.301 347.831 395.328 347.859L395.335 347.866C396.578 349.155 397.484 350.746 398.338 352.318C398.734 353.127 399.152 353.922 399.49 354.757L400.024 355.995L400.498 357.259C401.758 360.626 402.769 364.087 403.529 367.606C403.943 369.356 404.218 371.14 404.557 372.904L404.983 375.57C405.137 376.456 405.327 377.337 405.452 378.229C405.736 380.007 406.063 381.781 406.373 383.561C406.649 385.345 406.975 387.126 407.351 388.909C407.358 388.941 407.387 388.968 407.421 388.968C407.46 388.968 407.492 388.937 407.493 388.897C407.501 387.08 407.459 385.261 407.366 383.446C407.261 381.632 407.046 379.827 406.857 378.018Z" fill="#263238"/>
<path d="M403.093 378.25C402.25 375.863 401.275 373.527 400.213 371.237C399.123 368.959 397.945 366.724 396.59 364.596C396.569 364.566 396.526 364.554 396.494 364.573C396.46 364.593 396.449 364.636 396.469 364.67C397.653 366.881 398.654 369.187 399.561 371.519C400.485 373.845 401.316 376.206 402.014 378.604C402.725 381 403.235 383.442 403.872 385.848C404.542 388.252 405.084 390.682 405.824 393.117C405.833 393.146 405.86 393.169 405.892 393.17C405.931 393.17 405.964 393.139 405.965 393.099C406.001 390.558 405.751 388.019 405.257 385.532C404.811 383.03 403.931 380.635 403.093 378.25Z" fill="#263238"/>
<path d="M402.937 386.2C402.506 384.706 401.77 383.313 400.935 382.001C400.114 380.682 399.162 379.436 398.021 378.38C397.433 377.871 396.832 377.38 396.167 376.982C395.512 376.573 394.818 376.227 394.064 376.031C394.031 376.022 393.996 376.039 393.982 376.071C393.966 376.107 393.982 376.149 394.018 376.164L394.026 376.168C395.389 376.774 396.54 377.778 397.514 378.878C398.5 379.979 399.288 381.242 399.944 382.557C400.634 383.864 400.991 385.308 401.591 386.653C401.856 387.343 402.119 388.037 402.425 388.727C402.685 389.43 402.973 390.131 403.339 390.829L403.341 390.833C403.353 390.855 403.376 390.871 403.402 390.872C403.442 390.874 403.476 390.843 403.478 390.802C403.511 390.024 403.465 389.249 403.391 388.477C403.281 387.712 403.12 386.954 402.937 386.2Z" fill="#263238"/>
<path d="M403.218 344.184C403.218 344.184 395.765 342.464 394.045 334.437C392.325 326.41 397.867 329.85 392.898 317.237C387.929 304.624 389.076 301.757 390.796 298.126C392.516 294.495 393.472 295.642 395 300.419C396.529 305.197 402.071 312.65 404.173 326.601C406.276 340.553 403.218 344.184 403.218 344.184Z" fill="#92E3A9"/>
<path d="M417.934 330.615C417.934 330.615 412.965 328.895 412.774 319.53C412.583 310.166 416.405 312.077 416.978 300.419C417.551 288.761 418.316 280.543 420.418 280.352C422.52 280.161 428.063 286.085 429.974 299.081C431.885 312.077 427.489 320.676 423.666 324.499C419.844 328.322 417.934 330.615 417.934 330.615Z" fill="#92E3A9"/>
<path d="M400.543 355.459C400.543 355.459 399.396 348.579 397.103 345.33C394.81 342.081 389.841 339.214 386.592 332.908C383.343 326.601 379.712 323.544 379.903 332.526C380.094 341.508 384.107 346.095 389.076 349.153C394.045 352.211 400.543 355.459 400.543 355.459Z" fill="#92E3A9"/>
<path d="M398.44 367.308C398.44 367.308 393.853 358.517 387.165 352.019C380.476 345.521 375.125 342.272 377.036 345.521C378.947 348.77 381.241 348.579 384.489 354.312C387.738 360.045 386.782 364.25 391.369 367.499C395.956 370.748 398.44 367.308 398.44 367.308Z" fill="#92E3A9"/>
<path d="M397.866 378.584C397.675 378.011 397.484 373.806 390.986 370.366C384.488 366.926 378.373 368.264 379.137 369.984C379.901 371.704 383.915 374.571 387.928 376.291C391.942 378.01 397.866 378.584 397.866 378.584Z" fill="#92E3A9"/>
<path d="M417.552 355.842C417.552 355.842 414.685 352.211 416.214 344.567C417.743 336.922 421.183 338.834 425.005 334.82C428.827 330.807 428.063 330.233 431.885 326.029C435.707 321.825 439.147 319.531 440.676 321.251C442.205 322.971 439.912 328.322 437.618 331.38C435.325 334.438 431.694 335.967 429.974 339.789C428.254 343.611 429.018 349.727 424.623 352.593C420.227 355.459 417.552 355.842 417.552 355.842Z" fill="#92E3A9"/>
<path d="M427.106 357.944C427.106 357.944 433.986 350.108 438.955 344.375C443.924 338.642 445.835 334.246 446.026 338.068C446.217 341.89 447.746 344.948 443.733 349.917C439.72 354.886 427.106 357.944 427.106 357.944Z" fill="#92E3A9"/>
<path d="M423.476 370.557C423.476 370.557 423.285 367.499 434.178 360.428C445.071 353.357 449.658 352.019 448.511 354.886C447.364 357.753 442.587 360.619 437.427 365.779C432.267 370.94 423.476 370.557 423.476 370.557Z" fill="#92E3A9"/>
<path d="M403.672 343.37C403.672 343.37 401.115 329.66 398.44 319.913C395.764 310.166 394.044 304.242 394.044 304.242" stroke="#263238" stroke-miterlimit="10" stroke-linecap="round" stroke-linejoin="round"/>
<path d="M417.493 330.759C417.493 330.759 422.138 315.899 423.667 306.917C425.196 297.935 423.476 291.246 422.711 287.232" stroke="#263238" stroke-miterlimit="10" stroke-linecap="round" stroke-linejoin="round"/>
<path d="M399.939 355.172C399.939 355.172 397.102 350.108 392.897 345.139C388.693 340.17 385.444 337.495 383.533 332.717" stroke="#263238" stroke-miterlimit="10" stroke-linecap="round" stroke-linejoin="round"/>
<path d="M417.552 355.842C417.552 355.842 419.081 346.669 422.712 341.891C426.343 337.113 433.605 329.66 436.472 324.882" stroke="#263238" stroke-miterlimit="10" stroke-linecap="round" stroke-linejoin="round"/>
<path d="M397.417 378.375C397.417 378.375 390.986 374.188 386.399 371.895" stroke="#263238" stroke-miterlimit="10" stroke-linecap="round" stroke-linejoin="round"/>
<path d="M434.24 416.896C433.81 405.299 420.925 397.568 420.925 397.568H412.773H409.328H401.176C401.176 397.568 388.291 405.299 387.861 416.896C387.431 428.493 402.464 471.015 402.464 471.015H409.327H412.772H419.635C419.637 471.015 434.67 428.493 434.24 416.896Z" fill="#263238" stroke="#263238" stroke-miterlimit="10" stroke-linecap="round" stroke-linejoin="round"/>
<path d="M423.468 386.165H398.269L401.176 397.568H420.56L423.468 386.165Z" fill="#263238" stroke="#263238" stroke-miterlimit="10" stroke-linecap="round" stroke-linejoin="round"/>
<g opacity="0.3">
<path d="M333.059 423.795L348.465 425.561L351.925 410.4L337.738 405.467C337.596 401.703 336.829 398.102 335.537 394.759L346.094 384.242L336.398 372.084L324.076 379.859C321.039 377.647 317.613 375.939 313.919 374.854L312.311 360.334H296.761L295.153 374.854C291.51 375.925 288.129 377.601 285.123 379.769L272.556 371.839L262.86 383.997L273.571 394.667C272.308 397.905 271.529 401.385 271.345 405.023L256.764 410.094L260.224 425.255L275.824 423.467C277.523 426.376 279.646 429.007 282.117 431.267L276.827 446.293L290.838 453.04L299.277 439.551C300.99 439.823 302.746 439.969 304.535 439.969C306.108 439.969 307.653 439.852 309.169 439.64L317.637 453.175L331.648 446.428L326.462 431.698C329.048 429.426 331.28 426.763 333.059 423.795ZM283.473 406.736C283.473 395.103 292.904 385.673 304.537 385.673C316.17 385.673 325.6 395.103 325.6 406.736C325.6 418.369 316.17 427.8 304.537 427.8C292.904 427.8 283.473 418.368 283.473 406.736Z" stroke="black" stroke-miterlimit="10"/>
<path d="M243.022 398.907L253.756 400.137L256.167 389.574L246.282 386.137C246.183 383.515 245.649 381.005 244.748 378.676L252.104 371.349L245.348 362.878L236.763 368.296C234.647 366.755 232.26 365.565 229.686 364.809L228.566 354.692H217.731L216.611 364.809C214.073 365.555 211.717 366.723 209.623 368.233L200.867 362.708L194.111 371.179L201.574 378.613C200.694 380.869 200.151 383.294 200.023 385.829L189.863 389.362L192.274 399.925L203.144 398.679C204.328 400.706 205.807 402.539 207.528 404.114L203.842 414.583L213.604 419.284L219.484 409.886C220.678 410.076 221.901 410.177 223.148 410.177C224.244 410.177 225.321 410.095 226.376 409.948L232.276 419.379L242.038 414.678L238.425 404.415C240.228 402.831 241.783 400.975 243.022 398.907ZM208.474 387.021C208.474 378.916 215.045 372.345 223.15 372.345C231.255 372.345 237.826 378.916 237.826 387.021C237.826 395.126 231.255 401.697 223.15 401.697C215.044 401.697 208.474 395.126 208.474 387.021Z" stroke="black" stroke-miterlimit="10"/>
</g>
<g opacity="0.3">
<path d="M289.842 330.119C301.089 318.872 301.089 300.637 289.842 289.39C278.595 278.143 260.36 278.143 249.113 289.39C237.867 300.637 237.867 318.872 249.114 330.119C260.361 341.366 278.595 341.366 289.842 330.119Z" stroke="black" stroke-miterlimit="10" stroke-linecap="round" stroke-linejoin="round"/>
<path d="M269.815 330.316V326.468C266.974 326.357 264.849 325.447 263.443 323.737C262.036 322.027 261.277 319.475 261.167 316.081L267.002 315.089C267.057 316.468 267.202 317.62 267.436 318.544C267.671 319.468 268.022 320.157 268.492 320.612C268.96 321.068 269.568 321.295 270.312 321.295C271.167 321.295 271.753 321.02 272.071 320.467C272.387 319.916 272.546 319.282 272.546 318.564C272.546 317.157 272.222 315.978 271.574 315.026C270.925 314.073 270.035 313.116 268.905 312.15L265.388 309.129C264.587 308.383 263.871 307.626 263.236 306.853C262.601 306.081 262.098 305.198 261.726 304.205C261.354 303.212 261.167 302.04 261.167 300.688C261.167 298.096 261.904 296.074 263.381 294.626C264.856 293.178 266.836 292.357 269.319 292.164V288.481H271.306V292.164C272.796 292.247 274.017 292.585 274.968 293.178C275.92 293.772 276.644 294.516 277.14 295.412C277.637 296.308 277.995 297.288 278.216 298.35C278.436 299.412 278.574 300.44 278.63 301.433L272.712 302.302C272.684 301.281 272.602 300.378 272.464 299.591C272.325 298.805 272.077 298.192 271.719 297.749C271.36 297.308 270.808 297.101 270.064 297.129C269.291 297.157 268.705 297.459 268.305 298.04C267.905 298.619 267.705 299.267 267.705 299.985C267.705 301.254 268.008 302.274 268.616 303.046C269.222 303.819 269.912 304.563 270.684 305.28L274.119 308.26C275.03 309.087 275.871 309.983 276.643 310.949C277.415 311.915 278.036 312.984 278.505 314.156C278.974 315.329 279.209 316.673 279.209 318.19C279.209 319.652 278.912 320.983 278.319 322.183C277.725 323.383 276.871 324.355 275.754 325.101C274.636 325.846 273.319 326.287 271.802 326.425V330.315H269.815V330.316Z" stroke="black" stroke-miterlimit="10" stroke-linecap="round" stroke-linejoin="round"/>
</g>
<g opacity="0.3">
<path d="M398.9 270.533C408.91 268.15 415.094 258.102 412.71 248.092C410.327 238.081 400.28 231.897 390.269 234.281C380.258 236.664 374.075 246.712 376.458 256.722C378.841 266.733 388.889 272.916 398.9 270.533Z" stroke="black" stroke-miterlimit="10" stroke-linecap="round" stroke-linejoin="round"/>
<path d="M394.805 265.712V263.223C392.967 263.151 391.592 262.563 390.683 261.456C389.773 260.35 389.282 258.699 389.21 256.503L392.985 255.861C393.021 256.753 393.114 257.499 393.266 258.096C393.418 258.694 393.645 259.14 393.949 259.434C394.252 259.729 394.645 259.876 395.127 259.876C395.68 259.876 396.059 259.698 396.265 259.34C396.469 258.984 396.572 258.573 396.572 258.109C396.572 257.198 396.362 256.436 395.943 255.82C395.523 255.204 394.947 254.584 394.216 253.959L391.94 252.005C391.422 251.523 390.958 251.032 390.548 250.532C390.137 250.033 389.812 249.461 389.571 248.819C389.33 248.176 389.209 247.418 389.209 246.543C389.209 244.866 389.686 243.558 390.641 242.621C391.595 241.684 392.876 241.153 394.482 241.028V238.645H395.767V241.028C396.731 241.081 397.521 241.3 398.136 241.684C398.752 242.068 399.22 242.55 399.541 243.13C399.862 243.71 400.094 244.344 400.237 245.031C400.379 245.718 400.469 246.383 400.505 247.026L396.676 247.588C396.658 246.928 396.605 246.343 396.516 245.834C396.426 245.325 396.266 244.929 396.034 244.643C395.802 244.358 395.445 244.224 394.963 244.242C394.463 244.26 394.084 244.456 393.825 244.831C393.566 245.206 393.437 245.625 393.437 246.089C393.437 246.91 393.633 247.57 394.026 248.07C394.418 248.57 394.865 249.052 395.364 249.516L397.586 251.444C398.175 251.979 398.72 252.559 399.219 253.184C399.718 253.809 400.12 254.5 400.424 255.259C400.727 256.018 400.879 256.887 400.879 257.869C400.879 258.815 400.687 259.676 400.303 260.452C399.919 261.229 399.366 261.857 398.644 262.34C397.921 262.822 397.068 263.107 396.087 263.196V265.713H394.805V265.712Z" stroke="black" stroke-miterlimit="10" stroke-linecap="round" stroke-linejoin="round"/>
</g>
<g opacity="0.3">
<path d="M448.363 88.841H425.809V67.013C413.346 67.013 403.24 77.118 403.24 89.582C403.24 102.046 413.345 112.151 425.809 112.151C438.272 112.151 448.377 102.045 448.377 89.582C448.378 89.337 448.371 89.086 448.363 88.841Z" stroke="black" stroke-miterlimit="10"/>
<path d="M450.583 86.622H428.029V64.793C440.248 64.793 450.195 74.504 450.583 86.622Z" stroke="black" stroke-miterlimit="10"/>
</g>
<g opacity="0.3">
<path d="M118.29 76.852H101.662V128.184H118.29V76.852Z" stroke="black" stroke-miterlimit="10" stroke-linecap="round" stroke-linejoin="round"/>
<path d="M140.703 94.927H124.075V128.184H140.703V94.927Z" stroke="black" stroke-miterlimit="10" stroke-linecap="round" stroke-linejoin="round"/>
<path d="M163.115 106.856H146.487V128.184H163.115V106.856Z" stroke="black" stroke-miterlimit="10" stroke-linecap="round" stroke-linejoin="round"/>
<path d="M160.216 103.48L157.181 88.427L154.046 91.191L137.334 72.236C136.88 71.721 136.286 71.351 135.623 71.172L104.627 62.777L102.797 69.534L132.778 77.654L148.795 95.82L145.66 98.584L160.216 103.48Z" stroke="black" stroke-miterlimit="10"/>
</g>
<path d="M341.814 123.025H266.346C260.833 123.025 256.363 118.556 256.363 113.043V39.02C256.363 33.507 260.832 29.037 266.346 29.037H341.814C347.327 29.037 351.797 33.506 351.797 39.02V113.042C351.797 118.555 347.327 123.025 341.814 123.025Z" fill="#263238"/>
<path d="M440.856 219.649H167.306C167.686 144.429 228.776 83.569 304.086 83.569C379.386 83.569 440.476 144.429 440.856 219.649Z" fill="#92E3A9" stroke="#263238" stroke-miterlimit="10" stroke-linejoin="round"/>
<path d="M434.045 219.649H174.115C174.345 176.159 195.935 137.729 228.925 114.309C250.145 99.239 276.085 90.379 304.085 90.379C332.085 90.379 358.025 99.239 379.245 114.299C412.225 137.729 433.815 176.159 434.045 219.649Z" fill="white" stroke="#263238" stroke-miterlimit="10" stroke-linejoin="round"/>
<path d="M379.246 114.299L304.586 219.649L304.086 220.349L303.586 219.649L228.926 114.309C250.146 99.239 276.086 90.379 304.086 90.379C332.086 90.379 358.026 99.239 379.246 114.299Z" fill="white" stroke="#263238" stroke-miterlimit="10" stroke-linejoin="round"/>
<path d="M355.305 219.649H252.855C253.225 191.669 276.015 169.109 304.085 169.109C332.145 169.109 354.935 191.669 355.305 219.649Z" fill="white" stroke="#263238" stroke-miterlimit="10" stroke-linejoin="round"/>
<path d="M342.942 253.35C340.766 255.876 336.949 256.147 334.438 253.953L230.273 161.594L235.494 155.532L342.277 244.85C344.82 247.009 345.118 250.824 342.942 253.35Z" fill="#263238"/>
<path d="M304.081 249.416C320.135 249.416 333.149 236.402 333.149 220.348C333.149 204.294 320.135 191.28 304.081 191.28C288.027 191.28 275.013 204.294 275.013 220.348C275.013 236.402 288.027 249.416 304.081 249.416Z" fill="white" stroke="#263238" stroke-miterlimit="10" stroke-linejoin="round"/>
<path d="M304.08 236.199C312.835 236.199 319.931 229.102 319.931 220.348C319.931 211.594 312.835 204.497 304.08 204.497C295.326 204.497 288.229 211.594 288.229 220.348C288.229 229.102 295.326 236.199 304.08 236.199Z" fill="#263238" stroke="#263238" stroke-miterlimit="10" stroke-linejoin="round"/>
<g opacity="0.28">
<path d="M201.039 190.655V172.001H204.448V188.306H208.962V190.655H201.039Z" fill="black"/>
<path d="M215.572 190.908C214.252 190.908 213.2 190.662 212.417 190.171C211.634 189.68 211.073 188.973 210.736 188.052C210.398 187.131 210.229 186.041 210.229 184.782V177.804C210.229 176.545 210.398 175.467 210.736 174.568C211.073 173.67 211.634 172.983 212.417 172.507C213.2 172.031 214.252 171.793 215.572 171.793C216.923 171.793 217.987 172.031 218.762 172.507C219.537 172.983 220.097 173.67 220.443 174.568C220.788 175.466 220.961 176.545 220.961 177.804V184.805C220.961 186.049 220.788 187.127 220.443 188.041C220.097 188.954 219.537 189.661 218.762 190.16C217.986 190.658 216.923 190.908 215.572 190.908ZM215.572 188.398C216.14 188.398 216.558 188.275 216.827 188.029C217.095 187.784 217.276 187.446 217.368 187.016C217.46 186.586 217.506 186.118 217.506 185.611V177.021C217.506 176.5 217.46 176.031 217.368 175.616C217.276 175.202 217.095 174.876 216.827 174.637C216.558 174.399 216.139 174.28 215.572 174.28C215.034 174.28 214.628 174.399 214.352 174.637C214.076 174.875 213.891 175.201 213.799 175.616C213.707 176.031 213.661 176.499 213.661 177.021V185.611C213.661 186.117 213.703 186.586 213.788 187.016C213.872 187.446 214.053 187.784 214.329 188.029C214.605 188.276 215.019 188.398 215.572 188.398Z" fill="black"/>
<path d="M225.427 190.655L222.779 172.001H225.635L227.178 184.092L229.113 172.048H231.439L233.419 184.092L234.939 172.001H237.749L235.147 190.655H232.383L230.31 178.15L228.26 190.655H225.427Z" fill="black"/>
</g>
<g opacity="0.28">
<path d="M367.006 190.655V172.001H370.392V179.808H374.192V172.001H377.6V190.655H374.192V182.226H370.392V190.655H367.006Z" fill="black"/>
<path d="M380.548 190.655V172.001H383.91V190.655H380.548Z" fill="black"/>
<path d="M391.464 190.908C390.236 190.908 389.261 190.647 388.539 190.125C387.817 189.604 387.299 188.862 386.984 187.903C386.67 186.943 386.512 185.811 386.512 184.506V178.242C386.512 176.906 386.665 175.755 386.972 174.787C387.28 173.82 387.821 173.08 388.596 172.565C389.371 172.051 390.442 171.794 391.809 171.794C393.083 171.794 394.096 172.009 394.849 172.439C395.601 172.869 396.142 173.487 396.472 174.293C396.802 175.099 396.967 176.078 396.967 177.23V178.197H393.72V177.138C393.72 176.539 393.678 176.025 393.593 175.595C393.509 175.165 393.34 174.839 393.087 174.616C392.833 174.393 392.422 174.282 391.855 174.282C391.256 174.282 390.822 174.428 390.554 174.72C390.284 175.011 390.116 175.396 390.047 175.871C389.978 176.347 389.943 176.869 389.943 177.437V185.244C389.943 185.889 389.996 186.45 390.104 186.925C390.21 187.401 390.411 187.766 390.703 188.019C390.994 188.272 391.409 188.399 391.946 188.399C392.499 188.399 392.921 188.261 393.213 187.984C393.505 187.708 393.708 187.324 393.823 186.833C393.938 186.342 393.996 185.758 393.996 185.082V183.331H391.992V181.189H397.059V190.654H394.87L394.617 188.812C394.371 189.426 393.999 189.929 393.5 190.32C393.003 190.713 392.323 190.908 391.464 190.908Z" fill="black"/>
<path d="M399.708 190.655V172.001H403.094V179.808H406.894V172.001H410.302V190.655H406.894V182.226H403.094V190.655H399.708Z" fill="black"/>
</g>
<path d="M273.48 69.762V40.481H280.492C282.469 40.481 284.139 40.716 285.5 41.186C286.861 41.656 287.896 42.457 288.609 43.59C289.318 44.723 289.675 46.265 289.675 48.217C289.675 49.398 289.566 50.458 289.349 51.398C289.132 52.338 288.765 53.139 288.246 53.802C287.728 54.465 287.012 54.977 286.096 55.339L290.182 69.762H284.83L281.289 56.351H278.83V69.762H273.48ZM278.83 52.989H280.492C281.529 52.989 282.355 52.839 282.969 52.537C283.584 52.236 284.024 51.754 284.289 51.091C284.553 50.428 284.685 49.579 284.685 48.542C284.685 47.072 284.415 45.97 283.872 45.234C283.329 44.499 282.3 44.131 280.78 44.131H278.829L278.83 52.989Z" fill="#92E3A9"/>
<path d="M293.832 69.762V40.481H299.11V69.762H293.832Z" fill="#92E3A9"/>
<path d="M311.002 70.16C309.243 70.16 307.772 69.817 306.592 69.13C305.411 68.443 304.52 67.438 303.917 66.111C303.314 64.786 302.977 63.16 302.905 61.231L307.496 60.328C307.544 61.461 307.682 62.461 307.912 63.328C308.141 64.195 308.49 64.864 308.96 65.334C309.43 65.805 310.05 66.039 310.821 66.039C311.689 66.039 312.303 65.78 312.665 65.262C313.026 64.744 313.207 64.087 313.207 63.292C313.207 62.015 312.918 60.967 312.34 60.147C311.762 59.328 310.99 58.508 310.027 57.689L306.339 54.436C305.303 53.544 304.478 52.55 303.863 51.454C303.248 50.358 302.941 49.002 302.941 47.387C302.941 45.074 303.615 43.29 304.965 42.037C306.314 40.785 308.157 40.158 310.495 40.158C311.869 40.158 313.013 40.369 313.93 40.79C314.845 41.212 315.575 41.797 316.116 42.543C316.659 43.29 317.062 44.14 317.327 45.091C317.593 46.043 317.762 47.049 317.834 48.11L313.278 48.905C313.23 47.99 313.128 47.17 312.971 46.447C312.814 45.724 312.537 45.158 312.139 44.748C311.742 44.338 311.158 44.133 310.386 44.133C309.591 44.133 308.982 44.392 308.561 44.91C308.139 45.429 307.928 46.073 307.928 46.844C307.928 47.832 308.132 48.646 308.542 49.284C308.952 49.923 309.542 50.58 310.314 51.254L313.965 54.471C315.17 55.483 316.199 56.67 317.056 58.032C317.91 59.394 318.339 61.039 318.339 62.967C318.339 64.364 318.031 65.606 317.417 66.691C316.803 67.775 315.946 68.625 314.851 69.239C313.755 69.853 312.472 70.16 311.002 70.16Z" fill="#92E3A9"/>
<path d="M321.196 69.762V40.481H326.546V53.35L332.33 40.481H337.428L331.824 53.567L338.006 69.762H332.692L327.776 56.423L326.547 58.664V69.762H321.196Z" fill="#92E3A9"/>
<g opacity="0.28">
<path d="M269.884 130.118L270.206 111.464H273.729L276.377 124.384L279.141 111.464H282.549L282.895 130.118H280.362L280.086 117.152L277.438 130.118H275.388L272.694 117.106L272.44 130.118H269.884Z" fill="black"/>
<path d="M285.521 130.118V111.464H293.351V113.859H288.93V119.225H292.407V121.597H288.93V127.769H293.398V130.118H285.521Z" fill="black"/>
<path d="M295.377 130.118V111.464H299.776C301.296 111.464 302.482 111.671 303.334 112.086C304.186 112.501 304.792 113.138 305.153 113.997C305.513 114.857 305.694 115.947 305.694 117.268V124.085C305.694 125.436 305.513 126.561 305.153 127.458C304.792 128.357 304.193 129.025 303.357 129.462C302.52 129.9 301.372 130.118 299.914 130.118H295.377ZM298.786 127.746H299.822C300.605 127.746 301.165 127.608 301.503 127.332C301.841 127.056 302.048 126.653 302.125 126.123C302.201 125.593 302.24 124.945 302.24 124.177V117.038C302.24 116.286 302.186 115.679 302.079 115.219C301.972 114.759 301.749 114.421 301.411 114.206C301.073 113.991 300.528 113.884 299.776 113.884H298.786V127.746Z" fill="black"/>
<path d="M308.297 130.118V111.464H311.659V130.118H308.297Z" fill="black"/>
<path d="M319.649 130.372C318.267 130.372 317.193 130.119 316.425 129.612C315.656 129.106 315.127 128.384 314.835 127.447C314.544 126.51 314.397 125.39 314.397 124.085V111.464H317.713V124.476C317.713 125.059 317.751 125.608 317.828 126.122C317.905 126.637 318.085 127.051 318.369 127.366C318.653 127.681 319.079 127.838 319.647 127.838C320.246 127.838 320.679 127.681 320.949 127.366C321.216 127.052 321.393 126.637 321.478 126.122C321.562 125.608 321.605 125.059 321.605 124.476V111.464H324.898V124.085C324.898 125.39 324.752 126.511 324.46 127.447C324.168 128.384 323.643 129.105 322.882 129.612C322.125 130.118 321.047 130.372 319.649 130.372Z" fill="black"/>
<path d="M327.525 130.118L327.847 111.464H331.37L334.018 124.384L336.782 111.464H340.191L340.536 130.118H338.003L337.727 117.152L335.079 130.118H333.029L330.335 117.106L330.082 130.118H327.525Z" fill="black"/>
</g>
<path d="M174.578 230.63C179.787 224.205 184.448 227.983 189.657 221.558C194.868 215.13 190.207 211.352 195.418 204.924C200.629 198.496 205.29 202.275 210.501 195.847C215.713 189.418 211.052 185.64 216.264 179.211C221.476 172.782 226.137 176.561 231.348 170.132" stroke="#92E3A9" stroke-miterlimit="10" stroke-linecap="round" stroke-linejoin="round"/>
<path d="M185.473 239.462C190.682 233.037 195.343 236.815 200.552 230.39C205.763 223.962 201.102 220.184 206.313 213.756C211.524 207.328 216.185 211.107 221.396 204.679C226.608 198.25 221.947 194.472 227.159 188.043C232.371 181.614 237.032 185.393 242.243 178.964" stroke="#92E3A9" stroke-miterlimit="10" stroke-linecap="round" stroke-linejoin="round"/>
<path d="M196.367 248.294C201.576 241.869 206.237 245.647 211.446 239.222C216.657 232.794 211.996 229.016 217.207 222.588C222.418 216.16 227.079 219.939 232.29 213.511C237.502 207.082 232.841 203.304 238.053 196.875C243.265 190.446 247.926 194.225 253.137 187.796" stroke="#92E3A9" stroke-miterlimit="10" stroke-linecap="round" stroke-linejoin="round"/>
<path d="M207.261 257.126C212.47 250.701 217.131 254.479 222.34 248.054C227.551 241.626 222.89 237.848 228.101 231.42C233.312 224.992 237.973 228.77 243.184 222.343C248.396 215.914 243.735 212.136 248.947 205.707C254.159 199.278 258.82 203.057 264.031 196.628" stroke="#92E3A9" stroke-miterlimit="10" stroke-linecap="round" stroke-linejoin="round"/>
<path d="M31.9727 471.015H470.367" stroke="#263238" stroke-miterlimit="10" stroke-linecap="round" stroke-linejoin="round"/>
<path d="M53.6759 448.121C53.6759 448.121 52.5299 465.118 53.8669 468.556C55.2039 471.994 59.9779 477.341 62.8429 476.195C65.7079 475.049 64.9439 468.365 64.9439 463.781C64.9439 459.198 66.0899 452.322 66.0899 451.176C66.0899 450.03 53.6759 448.121 53.6759 448.121Z" fill="white" stroke="#263238" stroke-miterlimit="10" stroke-linejoin="round"/>
<path d="M141.718 459.58C141.718 459.58 141.336 471.23 143.437 471.994C145.538 472.758 157.57 471.421 159.67 471.803C161.771 472.185 168.455 472.567 170.938 471.803C173.421 471.039 176.667 469.702 175.713 467.792C174.758 465.882 162.535 460.726 159.861 459.007C157.187 457.288 152.413 454.041 152.413 454.041L141.718 459.58Z" fill="white" stroke="#263238" stroke-miterlimit="10" stroke-linejoin="round"/>
<path d="M78.8849 317.871C78.8849 317.871 77.9298 324.555 77.5478 336.205C77.1658 347.855 81.1769 372.11 81.1769 372.11L76.2118 400.375L57.1138 443.919C57.1138 443.919 52.5309 445.065 53.6759 448.121C54.8219 451.177 58.8329 454.423 61.1239 454.423C63.4159 454.423 66.4719 453.468 67.4259 451.94C68.3809 450.412 68.7629 446.592 68.7629 446.592C68.7629 446.592 101.994 402.284 102.567 400.756C103.14 399.228 108.487 375.737 108.487 375.737L122.238 394.262L141.336 451.366C141.336 451.366 139.999 453.085 140.763 455.568C141.527 458.051 142.864 461.488 142.864 461.488C142.864 461.488 144.774 461.488 148.02 460.342C151.267 459.196 154.513 456.331 154.513 456.331C154.513 456.331 155.277 454.803 154.895 452.893C154.513 450.983 153.367 450.219 153.558 448.691C153.749 447.163 146.874 392.733 145.728 389.105C144.582 385.476 118.227 330.856 118.227 330.856L116.317 316.914C116.318 316.917 99.3209 323.792 78.8849 317.871Z" fill="#263238" stroke="#263238" stroke-miterlimit="10" stroke-linejoin="round"/>
<path d="M105.627 198.948C105.627 198.948 98.0914 196.009 91.9804 197.571C85.8694 199.133 76.4014 207.497 77.0924 212.415C77.7834 217.334 88.9774 228.085 88.9774 228.085L88.5484 237.909L108.079 246.34L110.86 233.789C110.86 233.789 118.034 231.956 117.762 230.893C117.49 229.83 115.843 220.061 115.843 220.061C115.843 220.061 118.031 218.653 116.554 216.199C115.078 213.746 111.905 210.261 111.905 210.261C111.905 210.261 112.888 206.193 105.627 198.948Z" fill="white" stroke="#263238" stroke-miterlimit="10" stroke-linecap="round" stroke-linejoin="round"/>
<path d="M110.86 233.789C110.86 233.789 106.267 233.812 105.513 233.661C104.758 233.51 100.079 230.793 100.079 230.793L108.531 243.019L110.86 233.789Z" fill="#263238" stroke="#263238" stroke-miterlimit="10" stroke-linecap="round" stroke-linejoin="round"/>
<path d="M110.768 212.772C111.249 213.525 111.388 214.296 111.078 214.494C110.768 214.692 110.127 214.242 109.646 213.489C109.165 212.736 109.026 211.965 109.336 211.767C109.646 211.57 110.287 212.019 110.768 212.772Z" fill="#263238"/>
<path d="M110.146 209.249C110.146 209.249 108.394 208.749 107.449 210.703" stroke="#263238" stroke-miterlimit="10" stroke-linecap="round" stroke-linejoin="round"/>
<path d="M114.744 222.964C114.744 222.964 112.922 223.548 110.929 222.418" stroke="#263238" stroke-miterlimit="10" stroke-linecap="round" stroke-linejoin="round"/>
<path d="M106.923 200.678L98.9362 204.852C98.9362 204.852 102.006 206.898 101.351 208.764C100.696 210.63 100.696 210.63 100.696 210.63L100.867 217.946L98.8092 218.755C98.8092 218.755 92.6002 214.398 91.0922 218.463C89.5842 222.528 94.8532 225.427 94.8532 225.427C94.8532 225.427 92.6832 230.227 90.6932 231.302C88.7032 232.377 89.8162 228.979 85.8872 228.002C81.9582 227.025 74.5382 220.146 74.3852 216.223C74.2322 212.299 76.1802 203.31 82.8102 199.351C89.4412 195.392 94.0262 194.503 97.7512 194.683C101.477 194.863 105.166 192.719 106.376 195.24C107.587 197.759 106.923 200.678 106.923 200.678Z" fill="#263238" stroke="#263238" stroke-miterlimit="10" stroke-linecap="round" stroke-linejoin="round"/>
<path d="M87.0978 237.85C87.0978 237.85 79.8408 247.59 76.9758 259.622C74.1108 271.654 73.5378 285.977 76.0208 293.235C78.5038 300.492 78.1218 313.288 78.1218 313.288C78.1218 313.288 76.2118 316.917 78.3128 319.208C80.4138 321.499 93.7818 325.701 105.432 323.983C117.082 322.264 117.464 319.4 118.037 317.49C118.61 315.58 118.419 289.607 115.936 277.957C113.453 266.307 110.589 256.185 108.87 251.029C107.151 245.872 87.0978 237.85 87.0978 237.85Z" fill="white" stroke="#263238" stroke-miterlimit="10" stroke-linejoin="round"/>
<path d="M87.3487 231.442L111.543 247.399L111.161 255.993L84.8057 238.232L87.3487 231.442Z" fill="white" stroke="#263238" stroke-miterlimit="10" stroke-linejoin="round"/>
<path d="M211.68 265.324L198.951 254.315L194.63 251.761L167.833 299.805C159.524 309.602 146.288 312.031 138.271 305.231C130.254 298.431 130.49 284.976 138.8 275.18L178.924 237.542L167.071 227.103L161.874 223.979L120.861 267.453C107.388 283.338 109.343 307.137 125.228 320.61C141.113 334.083 164.912 332.128 178.385 316.243L211.68 265.324Z" fill="#263238" stroke="#263238" stroke-miterlimit="10" stroke-linejoin="round"/>
<path d="M198.95 254.315L194.63 251.761L180.831 276.5L192.652 286.316L196.282 288.87L211.68 265.324L198.95 254.315Z" fill="#263238" stroke="#263238" stroke-miterlimit="10" stroke-linecap="round" stroke-linejoin="round"/>
<path d="M154.851 254.255L157.964 257.202L178.923 237.541L167.07 227.102L161.873 223.978L148.45 238.206L154.851 254.255Z" fill="#263238" stroke="#263238" stroke-miterlimit="10" stroke-linecap="round" stroke-linejoin="round"/>
<path d="M207.892 263.009L194.629 251.76L164.044 297.489C155.735 307.286 142.499 309.715 134.482 302.915C126.465 296.115 126.701 282.661 135.011 272.864L175.135 235.226L161.872 223.977L117.072 265.136C103.599 281.021 105.554 304.82 121.439 318.293C137.324 331.766 161.123 329.811 174.596 313.926L207.892 263.009Z" fill="white" stroke="#263238" stroke-miterlimit="10" stroke-linejoin="round"/>
<path d="M192.652 286.316L207.892 263.009L194.63 251.761L179.167 274.879L192.652 286.316Z" fill="#92E3A9" stroke="#263238" stroke-miterlimit="10" stroke-linejoin="round"/>
<path d="M154.851 254.255L175.136 235.227L161.873 223.978L141.367 242.818L154.851 254.255Z" fill="#92E3A9" stroke="#263238" stroke-miterlimit="10" stroke-linejoin="round"/>
<path d="M109.061 300.492L150.504 321.118C150.504 321.118 153.751 318.444 155.278 316.534C156.806 314.624 158.143 314.051 159.862 313.86C161.581 313.669 162.727 314.433 164.827 312.714C166.927 310.995 167.31 311.377 166.546 313.287C165.782 315.197 165.591 315.961 163.872 316.152C162.153 316.343 161.007 317.107 161.007 317.107C161.007 317.107 165.972 320.163 167.118 320.736C168.264 321.309 169.219 322.264 168.837 322.837C168.455 323.41 168.837 324.365 167.691 324.365C166.545 324.365 165.208 324.365 165.208 324.365C165.208 324.365 163.68 325.702 162.152 327.612C160.624 329.522 159.096 330.477 157.377 330.668C155.658 330.859 151.075 330.668 147.064 329.522C143.053 328.376 109.823 318.063 105.43 316.344C101.037 314.625 95.499 310.615 95.499 310.615L109.061 300.492Z" fill="white" stroke="#263238" stroke-miterlimit="10" stroke-linejoin="round"/>
<path d="M83.2781 253.702C83.2781 253.702 77.7401 258.095 78.3131 263.824C78.8861 269.553 89.3901 308.132 89.3901 308.132L108.297 296.482C108.297 296.482 102.376 264.206 98.9391 258.668C95.5011 253.13 91.4911 252.175 91.4911 252.175" fill="white"/>
<path d="M83.2781 253.702C83.2781 253.702 77.7401 258.095 78.3131 263.824C78.8861 269.553 89.3901 308.132 89.3901 308.132L108.297 296.482C108.297 296.482 102.376 264.206 98.9391 258.668C95.5011 253.13 91.4911 252.175 91.4911 252.175" stroke="#263238" stroke-miterlimit="10" stroke-linejoin="round"/>
<path d="M108.297 291.134L85.9521 305.076C85.9521 305.076 88.2441 313.097 89.9631 314.434C91.6821 315.771 91.6821 315.771 91.6821 315.771C91.6821 315.771 110.016 303.166 111.162 301.447C112.307 299.728 108.87 292.089 108.297 291.134Z" fill="white" stroke="#263238" stroke-miterlimit="10" stroke-linejoin="round"/>
<path d="M149.982 266.377L149.615 266.696C149.04 267.197 148.168 267.136 147.668 266.562L144.589 263.027C144.088 262.452 144.149 261.58 144.723 261.08L145.09 260.761C145.665 260.26 146.537 260.32 147.037 260.895L150.116 264.43C150.617 265.004 150.557 265.876 149.982 266.377Z" fill="white" stroke="#263238" stroke-miterlimit="10" stroke-linejoin="round"/>
<path d="M147.249 268.601L146.882 268.92C146.307 269.421 145.435 269.36 144.935 268.786L142.607 266.113C142.106 265.538 142.167 264.666 142.741 264.166L143.108 263.847C143.683 263.346 144.555 263.406 145.055 263.981L147.383 266.654C147.884 267.229 147.824 268.1 147.249 268.601Z" fill="white" stroke="#263238" stroke-miterlimit="10" stroke-linejoin="round"/>
<path d="M144.674 271.176L144.307 271.495C143.732 271.996 142.86 271.935 142.36 271.361L140.032 268.688C139.531 268.113 139.591 267.241 140.166 266.741L140.533 266.422C141.108 265.921 141.98 265.981 142.48 266.556L144.808 269.229C145.309 269.803 145.249 270.675 144.674 271.176Z" fill="white" stroke="#263238" stroke-miterlimit="10" stroke-linejoin="round"/>
<path d="M141.609 272.849L141.242 273.168C140.667 273.669 139.795 273.609 139.295 273.034L137.481 270.951C136.98 270.376 137.041 269.504 137.615 269.004L137.982 268.685C138.557 268.184 139.429 268.245 139.929 268.819L141.743 270.901C142.244 271.477 142.184 272.348 141.609 272.849Z" fill="white" stroke="#263238" stroke-miterlimit="10" stroke-linejoin="round"/>
</svg>
