<svg width="612" height="408" viewBox="0 0 612 408" fill="none" xmlns="http://www.w3.org/2000/svg">
<path fill-rule="evenodd" clip-rule="evenodd" d="M524.75 208.5L527.75 212.5L534.25 221.5C534.25 221.5 537.206 226.285 538.25 228.5C547 242 537.407 235.289 540.25 238.5C520.699 246.727 501.366 255.393 482.25 264.5C487.373 256.188 492.539 248.021 499.75 241C506.738 229.321 515.405 218.154 524.75 208.5Z" fill="#DBE6FC"/>
<path fill-rule="evenodd" clip-rule="evenodd" d="M559.5 298.5C559.305 302.657 558.471 306.99 557 311.5C555.332 317.396 552.832 322.729 549.5 327.5L548 329C548 329 544.334 333.023 542.5 335.5C538.638 339.862 534.304 343.695 529.5 347C524.263 349.24 519.263 351.907 514.5 355C509.246 356.647 503.913 357.98 498.5 359C459.352 360.132 420.186 360.632 381 360.5C345.332 360.5 309.832 360.167 274.5 359.5C289.5 359.5 304.5 359.5 319.5 359.5C320.167 359.5 320.833 359.5 321.5 359.5C359.501 359.667 397.501 359.5 435.5 359C436.823 358.184 437.489 357.017 437.5 355.5C438.249 354.469 438.915 353.302 439.5 352C479.431 333.865 519.431 316.032 559.5 298.5Z" fill="#DAE4FC"/>
<rect x="555.771" y="232.168" width="59.4048" height="160.989" transform="rotate(66.2053 555.771 232.168)" fill="#BCD0F8" stroke="#6998E7" stroke-width="4.5"/>
<path fill-rule="evenodd" clip-rule="evenodd" d="M518.905 175.775C505.948 166.152 493.281 156.152 480.905 145.775C459.526 172.974 416.5 232.275 416.5 232.275L386 273.275C386 273.275 346.667 273.275 327 273.275C327.116 269.915 327.449 266.582 328 263.275C331.29 261.651 333.957 259.318 336 256.275C343.871 267.035 354.538 271.535 368 269.775C376.121 263.988 383.288 257.155 389.5 249.275C391.145 246.337 393.145 243.67 395.5 241.275C399.723 233.299 403.89 225.299 408 217.275C413.172 215.329 418.505 213.996 424 213.275C425.497 210.303 427.497 207.636 430 205.275C430.917 203.113 430.917 200.78 430 198.275C428.3 198.149 426.8 197.482 425.5 196.275C424.728 196.42 424.061 196.753 423.5 197.275C424.424 193.036 423.258 192.369 420 195.275C415.783 200.156 410.449 202.822 404 203.275C403.819 200.378 404.152 197.545 405 194.775C403.852 193.049 402.685 193.216 401.5 195.275C399.051 201.067 397.218 207.067 396 213.275C392.561 218.25 388.728 222.917 384.5 227.275C384.01 228.568 383.843 229.902 384 231.275C382.627 231.118 381.293 231.285 380 231.775C378.335 233.848 376.835 236.015 375.5 238.275C374.829 239.027 373.496 239.586 372.5 239.5C372.174 237.339 370.674 236.506 369 235C365.289 234.825 361.622 233.325 358 232.5C357.333 231.833 356.167 231.167 355.5 230.5C356.521 229.099 359.021 227.54 360 226.275C363.981 227.94 367.981 229.606 372 231.275C373.333 230.942 374.667 230.608 376 230.275C377.873 227.051 378.207 223.717 377 220.275C375.394 219.698 373.728 220.365 372 220.275C367.99 220.945 365.5 222.5 360 221.275C361 222 356 226.333 356 221C353.694 220.507 355.361 204.449 353 204.275C353.763 203.507 354.763 203.007 356 202.775C352.392 202.749 349.058 201.916 346 200.275C345.411 197.135 344.744 194.135 344 191.275C338.84 168.29 329.34 147.29 315.5 128.275C303.2 117.058 289.033 114.224 273 119.775C260.885 126.153 255.052 136.32 255.5 150.275C252.667 153.108 249.833 155.942 247 158.775C241.535 161.007 236.535 164.007 232 167.775C229.68 170.253 228.014 173.086 227 176.275C226.278 176.693 225.778 177.359 225.5 178.275C224.597 177.074 223.431 176.24 222 175.775C217.61 175.003 213.277 175.169 209 176.275C207.075 180.218 206.075 184.385 206 188.775C206.83 193.686 207.163 198.519 207 203.275C206.333 203.608 205.667 203.942 205 204.275C203.031 203.141 201.198 201.808 199.5 200.275C195.792 199.706 192.292 198.539 189 196.775C180.522 195.345 175.522 198.845 174 207.275C175.015 210.648 176.348 213.815 178 216.775C187.606 219.448 196.606 218.115 205 212.775C206.932 211.423 208.266 209.59 209 207.275C209.667 207.942 210.333 208.608 211 209.275C213.889 206.252 217.055 203.585 220.5 201.275C222.646 197.445 225.146 193.945 228 190.775C227.884 189.507 227.551 188.173 227 186.775C228.245 185.984 229.578 185.484 231 185.275C234.486 185.927 235.653 187.927 234.5 191.275C230.579 197.201 225.912 202.534 220.5 207.275C216.952 213.642 217.452 219.642 222 225.275C222.376 228.482 221.376 231.148 219 233.275C218 232.275 217 231.275 216 230.275C210.53 228.269 205.197 226.102 200 223.775C184.816 221.793 178.816 228.293 182 243.275C186.231 249.888 192.231 252.054 200 249.775C205.948 247.969 211.281 245.136 216 241.275C213.717 244.179 212.217 247.513 211.5 251.275C210.76 253.094 209.593 254.427 208 255.275C208.219 254.1 207.886 253.1 207 252.275C198.311 254.418 193.977 259.752 194 268.275C196.235 267.98 198.235 268.314 200 269.275C194.333 269.275 188.667 269.275 183 269.275C183.19 258.842 180.524 249.176 175 240.275C166.843 228.951 157.176 219.118 146 210.775C138.371 205.464 130.371 200.964 122 197.275C121.679 195.727 120.679 195.06 119 195.275C119 207.275 119 219.275 119 231.275C119.131 232.151 118.798 232.818 118 233.275C100.38 225.125 82.3798 218.125 64 212.275C69.5639 209.643 74.2305 205.81 78 200.775C79.5806 200.068 81.0806 199.235 82.5 198.275C86.785 191.989 91.785 186.323 97.5 181.275C103.225 171.822 107.892 161.822 111.5 151.275C113.907 139.021 115.907 126.687 117.5 114.275C119.45 107.712 121.95 101.378 125 95.2751C141.787 70.1114 165.287 55.1114 195.5 50.2751C219.891 47.2595 243.725 49.5928 267 57.2751C273.079 60.6911 279.579 63.0244 286.5 64.2751C290.069 67.5222 294.236 69.3555 299 69.7751C299.837 70.7864 300.17 71.953 300 73.2751C306.58 75.733 313.247 77.8997 320 79.7751C328 81.7751 336 81.7751 344 79.7751C362.358 74.0859 380.358 67.4192 398 59.7751C423.063 51.8919 447.063 54.2252 470 66.7751C482.655 74.1782 493.822 83.3449 503.5 94.2751C504.961 98.8109 507.294 102.811 510.5 106.275C513.124 113.035 515.124 120.035 516.5 127.275C517.915 145.251 518.654 157.751 518.905 175.775Z" fill="#DDE7FD"/>
<rect x="481.274" y="147.153" width="69.3282" height="167.126" transform="rotate(37.2331 481.274 147.153)" fill="#BDD0F8" stroke="#95B7F7" stroke-width="4.5"/>
<path fill-rule="evenodd" clip-rule="evenodd" d="M159.5 127.5C153.066 126.647 147.566 123.981 143 119.5C142.289 117.101 142.456 114.768 143.5 112.5C147.107 111.511 150.774 111.177 154.5 111.5C156.951 116.524 158.618 121.857 159.5 127.5Z" fill="#C0D2F8"/>
<path fill-rule="evenodd" clip-rule="evenodd" d="M343.5 191.5C344.27 198.841 342.604 205.508 338.5 211.5C330.116 204.977 320.449 201.977 309.5 202.5C309.121 196.971 308.455 191.471 307.5 186C308.699 183.735 310.366 181.902 312.5 180.5C314.746 178.351 316.246 175.684 317 172.5C317.172 168.129 317.672 163.796 318.5 159.5C323.928 155.905 323.594 153.238 317.5 151.5C317.662 149.473 317.495 147.473 317 145.5C310.796 138.235 303.13 134.235 294 133.5C289.015 142.64 283.848 151.64 278.5 160.5C275.587 161.241 272.587 161.741 269.5 162C267.931 165.316 268.598 168.149 271.5 170.5C273.396 171.466 275.396 171.799 277.5 171.5C281.186 175.709 284.353 180.376 287 185.5C287.499 190.155 287.666 194.821 287.5 199.5C273.484 195.419 260.484 197.419 248.5 205.5C240.127 212.878 231.794 220.211 223.5 227.5C223.167 226.5 222.5 225.833 221.5 225.5C216.952 219.867 216.452 213.867 220 207.5C225.412 202.759 230.079 197.426 234 191.5C235.153 188.152 233.986 186.152 230.5 185.5C226.991 183.621 225.658 180.621 226.5 176.5C227.514 173.311 229.18 170.478 231.5 168C236.035 164.232 241.035 161.232 246.5 159C249.333 156.167 252.167 153.333 255 150.5C254.552 136.545 260.385 126.378 272.5 120C288.533 114.449 302.7 117.283 315 128.5C328.84 147.515 338.34 168.515 343.5 191.5Z" fill="#110F51"/>
<path fill-rule="evenodd" clip-rule="evenodd" d="M159.5 127.5C161.812 129.146 163.812 131.146 165.5 133.5C165.017 129.462 165.684 125.462 167.5 121.5C177.24 120.966 180.407 125.299 177 134.5C175.502 136.984 174.002 139.484 172.5 142C174.262 145.122 175.929 148.289 177.5 151.5C177.528 148.003 177.694 144.336 178 140.5C182.32 137.755 186.486 138.088 190.5 141.5C191.631 143.074 191.798 144.741 191 146.5C189.318 151.5 186.818 156 183.5 160C186.114 164.055 188.614 168.222 191 172.5C191.333 167.5 191.667 162.5 192 157.5C197.968 150.739 203.801 150.906 209.5 158C210.55 161.455 210.717 164.955 210 168.5C207.316 171.252 204.65 173.919 202 176.5C201.517 177.448 201.351 178.448 201.5 179.5C200.127 179.343 198.793 179.51 197.5 180C196.853 181.609 196.02 183.109 195 184.5C194.586 184.043 194.086 183.709 193.5 183.5C187.651 190.261 180.318 193.428 171.5 193C168.8 191.81 166.633 189.977 165 187.5C164.889 183.28 165.722 179.28 167.5 175.5C175.378 174.443 183.044 175.443 190.5 178.5C190.833 178 191.167 177.5 191.5 177C187.671 172.705 185.004 167.872 183.5 162.5C178.25 163.918 173.084 165.585 168 167.5C162.091 165.777 160.258 161.944 162.5 156C167.121 154.787 171.787 154.287 176.5 154.5C174.484 150.457 171.984 146.79 169 143.5C165.823 145.35 162.657 147.183 159.5 149C156.24 149.784 153.073 149.617 150 148.5C147.856 144.518 148.022 140.685 150.5 137C155.145 136.183 159.645 136.683 164 138.5C164.5 138.167 165 137.833 165.5 137.5C163.667 135.167 161.833 132.833 160 130.5C159.517 129.552 159.351 128.552 159.5 127.5Z" fill="#C1D2F8"/>
<path fill-rule="evenodd" clip-rule="evenodd" d="M278.5 160.5C276.365 162.369 273.698 163.036 270.5 162.5C270.266 167.59 272.599 170.59 277.5 171.5C275.396 171.799 273.396 171.466 271.5 170.5C268.598 168.149 267.931 165.316 269.5 162C272.587 161.741 275.587 161.241 278.5 160.5Z" fill="#BC8187"/>
<path fill-rule="evenodd" clip-rule="evenodd" d="M312.5 180.5C309.99 180.991 307.656 181.991 305.5 183.5C307.047 190.062 307.714 196.729 307.5 203.5C300.258 204.356 293.592 203.022 287.5 199.5C287.666 194.821 287.499 190.155 287 185.5C284.353 180.376 281.186 175.709 277.5 171.5C272.599 170.59 270.266 167.59 270.5 162.5C273.698 163.036 276.365 162.369 278.5 160.5C283.848 151.64 289.015 142.64 294 133.5C303.13 134.235 310.796 138.235 317 145.5C317.495 147.473 317.662 149.473 317.5 151.5C323.594 153.238 323.928 155.905 318.5 159.5C317.672 163.796 317.172 168.129 317 172.5C316.246 175.684 314.746 178.351 312.5 180.5Z" fill="#F5A18E"/>
<path fill-rule="evenodd" clip-rule="evenodd" d="M288.5 157.5C291.166 157.066 292.333 158.066 292 160.5C288.403 162.066 287.237 161.066 288.5 157.5Z" fill="#251631"/>
<path fill-rule="evenodd" clip-rule="evenodd" d="M308.5 152.5C309.833 152.5 311.167 152.5 312.5 152.5C312.5 153.833 312.5 155.167 312.5 156.5C311.167 156.5 309.833 156.5 308.5 156.5C308.5 155.167 308.5 153.833 308.5 152.5Z" fill="#2D1933"/>
<path fill-rule="evenodd" clip-rule="evenodd" d="M288.5 152.5C289.978 152.238 291.311 152.571 292.5 153.5C289.827 154.759 287.161 155.592 284.5 156C285.731 154.595 287.064 153.429 288.5 152.5Z" fill="#3A2138"/>
<path fill-rule="evenodd" clip-rule="evenodd" d="M306.5 147.5C315.719 147.886 315.719 148.886 306.5 150.5C305.438 149.575 305.438 148.575 306.5 147.5Z" fill="#361F32"/>
<path fill-rule="evenodd" clip-rule="evenodd" d="M307.5 170.5C310.926 170.35 311.259 171.516 308.5 174C305.076 175.658 301.742 175.325 298.5 173C301.628 172.159 304.628 171.325 307.5 170.5Z" fill="#F7EFEB"/>
<path fill-rule="evenodd" clip-rule="evenodd" d="M312.5 180.5C310.366 181.902 308.699 183.735 307.5 186C308.455 191.471 309.121 196.971 309.5 202.5C309.158 203.338 308.492 203.672 307.5 203.5C307.714 196.729 307.047 190.062 305.5 183.5C307.656 181.991 309.99 180.991 312.5 180.5Z" fill="#D59397"/>
<path fill-rule="evenodd" clip-rule="evenodd" d="M386.5 176.5C388.5 176.5 390.5 176.5 392.5 176.5C392.663 178.857 392.497 181.19 392 183.5C386.407 185.588 381.907 189.088 378.5 194C381.518 193.435 384.518 193.602 387.5 194.5C388.833 196.833 388.833 199.167 387.5 201.5C386.393 202.022 385.226 202.355 384 202.5C376.302 200.748 371.469 196.082 369.5 188.5C369.55 183.622 371.883 182.288 376.5 184.5C377.646 185.719 378.646 187.052 379.5 188.5C382.065 184.538 384.398 180.538 386.5 176.5Z" fill="#DDE7FD"/>
<path fill-rule="evenodd" clip-rule="evenodd" d="M287.5 199.5C293.592 203.022 300.258 204.356 307.5 203.5C308.492 203.672 309.158 203.338 309.5 202.5C320.449 201.977 330.116 204.977 338.5 211.5C342.223 218.608 346.223 225.608 350.5 232.5C349.66 233.735 348.66 234.735 347.5 235.5C344.312 238.03 341.145 240.696 338 243.5C337.854 248.015 337.021 252.348 335.5 256.5C333.457 259.543 330.79 261.876 327.5 263.5C325.825 266.507 325.159 269.84 325.5 273.5C323.901 273.232 322.568 273.566 321.5 274.5C319.983 274.511 318.816 275.177 318 276.5C317.5 284.159 317.334 291.826 317.5 299.5C314.848 299.41 312.515 300.076 310.5 301.5C305.744 297.23 301.41 297.563 297.5 302.5C291.456 302.161 285.456 301.494 279.5 300.5C275.134 295.799 270.467 291.466 265.5 287.5C264.724 279.336 263.724 271.336 262.5 263.5C262.004 259.348 261.004 255.348 259.5 251.5C259.614 247.306 258.114 243.973 255 241.5C251.018 244.149 247.684 247.482 245 251.5C243.649 249.982 242.149 248.649 240.5 247.5C235.161 241.828 229.495 236.495 223.5 231.5C223.5 230.167 223.5 228.833 223.5 227.5C231.794 220.211 240.127 212.878 248.5 205.5C260.484 197.419 273.484 195.419 287.5 199.5Z" fill="#6C78FD"/>
<path fill-rule="evenodd" clip-rule="evenodd" d="M226.5 176.5C225.658 180.621 226.991 183.621 230.5 185.5C229.078 185.709 227.745 186.209 226.5 187C227.051 188.398 227.384 189.732 227.5 191C224.646 194.17 222.146 197.67 220 201.5C216.555 203.81 213.389 206.477 210.5 209.5C209.833 208.833 209.167 208.167 208.5 207.5C207.766 209.815 206.432 211.648 204.5 213C196.106 218.34 187.106 219.673 177.5 217C175.848 214.04 174.515 210.873 173.5 207.5C175.022 199.07 180.022 195.57 188.5 197C191.792 198.764 195.292 199.931 199 200.5C200.698 202.033 202.531 203.366 204.5 204.5C205.167 204.167 205.833 203.833 206.5 203.5C206.663 198.744 206.33 193.911 205.5 189C205.575 184.61 206.575 180.443 208.5 176.5C212.777 175.394 217.11 175.228 221.5 176C222.931 176.465 224.097 177.299 225 178.5C225.278 177.584 225.778 176.918 226.5 176.5Z" fill="#BFD1F9"/>
<path fill-rule="evenodd" clip-rule="evenodd" d="M361.5 195.5C368.128 195.368 371.128 198.701 370.5 205.5C374.007 204.994 377.174 205.66 380 207.5C381.489 211.833 379.989 214.167 375.5 214.5C365.825 211.829 361.158 205.495 361.5 195.5Z" fill="#DDE7FD"/>
<path fill-rule="evenodd" clip-rule="evenodd" d="M429.5 205.5C429.631 204.624 429.298 203.957 428.5 203.5C426.22 206.186 425.553 206.019 426.5 203C425.576 201.189 424.743 201.355 424 203.5C423.405 202.101 423.572 200.768 424.5 199.5C422.979 199.12 421.313 198.954 419.5 199C421.927 197.446 421.927 196.279 419.5 195.5C422.758 192.594 423.924 193.261 423 197.5C423.561 196.978 424.228 196.645 425 196.5C426.3 197.707 427.8 198.374 429.5 198.5C430.417 201.005 430.417 203.338 429.5 205.5Z" fill="#F8A692"/>
<path fill-rule="evenodd" clip-rule="evenodd" d="M345.867 200C349.32 200.226 352.731 200.657 356.103 201.296C356.103 208.209 356.103 215.124 356.103 222.037C361.938 221.178 367.787 220.313 373.651 219.444C376.178 219.561 378.614 219.993 380.963 220.741C382.728 225.203 382.24 229.524 379.501 233.704C377.551 234.135 375.601 234.568 373.651 235C367.774 232.836 361.925 230.677 356.103 228.519C351.209 223.749 346.335 218.996 341.48 214.259C339.791 210.44 339.548 206.551 340.749 202.593C341.942 200.878 343.649 200.014 345.867 200Z" fill="#DDE7FD"/>
<path fill-rule="evenodd" clip-rule="evenodd" d="M121.5 197.5C126.619 205.944 131.285 214.611 135.5 223.5C136.675 223.281 137.675 223.614 138.5 224.5C147.15 239.127 156.317 253.46 166 267.5C168.826 269.34 171.993 270.006 175.5 269.5C171.361 270.563 167.028 271.23 162.5 271.5C158.641 265.909 153.808 261.243 148 257.5C145.271 254.486 142.771 251.319 140.5 248C138.866 247.506 137.199 247.34 135.5 247.5C135.719 246.325 135.386 245.325 134.5 244.5C130.464 242.487 126.797 239.987 123.5 237C122.207 236.51 120.873 236.343 119.5 236.5C119.784 234.585 119.451 232.919 118.5 231.5C118.5 219.5 118.5 207.5 118.5 195.5C120.179 195.285 121.179 195.952 121.5 197.5Z" fill="#7D9BF1"/>
<path fill-rule="evenodd" clip-rule="evenodd" d="M343.5 191.5C344.244 194.36 344.911 197.36 345.5 200.5C348.558 202.141 351.892 202.974 355.5 203C354.263 203.232 353.263 203.732 352.5 204.5C350.983 204.511 349.816 205.177 349 206.5C348.179 209.554 348.345 212.554 349.5 215.5C352.82 219.154 356.153 222.821 359.5 226.5C358.521 227.765 357.521 229.099 356.5 230.5C357.167 231.167 357.833 231.833 358.5 232.5C362.122 233.325 365.789 233.825 369.5 234C371.174 235.506 372.174 237.339 372.5 239.5C370.299 242.355 367.299 243.689 363.5 243.5C358.043 241.019 352.71 238.352 347.5 235.5C348.66 234.735 349.66 233.735 350.5 232.5C346.223 225.608 342.223 218.608 338.5 211.5C342.604 205.508 344.27 198.841 343.5 191.5Z" fill="#DDE7FD"/>
<path fill-rule="evenodd" clip-rule="evenodd" d="M63.5 212.5C81.8798 218.35 99.8798 225.35 117.5 233.5C118.298 233.043 118.631 232.376 118.5 231.5C119.451 232.919 119.784 234.585 119.5 236.5C120.873 236.343 122.207 236.51 123.5 237C126.797 239.987 130.464 242.487 134.5 244.5C135.386 245.325 135.719 246.325 135.5 247.5C137.199 247.34 138.866 247.506 140.5 248C142.771 251.319 145.271 254.486 148 257.5C153.808 261.243 158.641 265.909 162.5 271.5C158.684 273.062 154.684 274.562 150.5 276C149.333 277.167 148.167 278.333 147 279.5C146.501 283.821 146.334 288.154 146.5 292.5C142.172 292.273 138.506 293.607 135.5 296.5C133.806 297.527 132.473 298.861 131.5 300.5C131.135 297.375 130.302 294.375 129 291.5C128.695 293.557 128.695 295.557 129 297.5C128.292 296.619 127.458 295.953 126.5 295.5C122.793 290.792 118.46 286.792 113.5 283.5C111.1 280.097 108.1 277.43 104.5 275.5C104.167 274.5 103.5 273.833 102.5 273.5C99.4372 269.434 95.7706 266.101 91.5 263.5C90.8333 262.167 89.8333 261.167 88.5 260.5C85.4372 256.434 81.7706 253.101 77.5 250.5C77.1667 249.5 76.5 248.833 75.5 248.5C71.7731 243.77 67.4397 239.77 62.5 236.5C60.7607 233.757 58.4274 231.757 55.5 230.5C54.578 228.184 52.9113 226.517 50.5 225.5C47.4372 221.434 43.7706 218.101 39.5 215.5C36.9207 212.416 34.0874 209.416 31 206.5C30.5065 208.134 30.3398 209.801 30.5 211.5C29.6942 210.003 29.0276 208.336 28.5 206.5C29.8333 206.167 31.1667 205.833 32.5 205.5C42.9573 207.365 53.2906 209.698 63.5 212.5Z" fill="#90B4F7"/>
<path fill-rule="evenodd" clip-rule="evenodd" d="M39.5 215.5C43.7706 218.101 47.4372 221.434 50.5 225.5C45.9919 223.215 42.3252 219.882 39.5 215.5Z" fill="#3F4E8D"/>
<path fill-rule="evenodd" clip-rule="evenodd" d="M121.5 197.5C129.871 201.189 137.871 205.689 145.5 211C156.676 219.343 166.343 229.176 174.5 240.5C180.024 249.401 182.69 259.067 182.5 269.5C180.167 269.5 177.833 269.5 175.5 269.5C171.993 270.006 168.826 269.34 166 267.5C156.317 253.46 147.15 239.127 138.5 224.5C137.675 223.614 136.675 223.281 135.5 223.5C131.285 214.611 126.619 205.944 121.5 197.5Z" fill="#91B5F8"/>
<path fill-rule="evenodd" clip-rule="evenodd" d="M221.5 225.5C222.5 225.833 223.167 226.5 223.5 227.5C223.5 228.833 223.5 230.167 223.5 231.5C221.213 235.122 218.547 238.455 215.5 241.5C210.781 245.361 205.448 248.194 199.5 250C191.731 252.279 185.731 250.113 181.5 243.5C178.316 228.518 184.316 222.018 199.5 224C204.697 226.327 210.03 228.494 215.5 230.5C216.5 231.5 217.5 232.5 218.5 233.5C220.876 231.373 221.876 228.707 221.5 225.5Z" fill="#BFD1F8"/>
<path fill-rule="evenodd" clip-rule="evenodd" d="M419.5 195.5C421.927 196.279 421.927 197.446 419.5 199C421.313 198.954 422.979 199.12 424.5 199.5C423.572 200.768 423.405 202.101 424 203.5C424.743 201.355 425.576 201.189 426.5 203C425.553 206.019 426.22 206.186 428.5 203.5C429.298 203.957 429.631 204.624 429.5 205.5C426.997 207.861 424.997 210.528 423.5 213.5C418.005 214.221 412.672 215.554 407.5 217.5C403.39 225.524 399.223 233.524 395 241.5C392.645 243.895 390.645 246.562 389 249.5C382.788 257.38 375.621 264.213 367.5 270C354.038 271.76 343.371 267.26 335.5 256.5C337.021 252.348 337.854 248.015 338 243.5C341.145 240.696 344.312 238.03 347.5 235.5C352.71 238.352 358.043 241.019 363.5 243.5C367.299 243.689 370.299 242.355 372.5 239.5C373.496 239.586 374.329 239.252 375 238.5C376.335 236.24 377.835 234.073 379.5 232C380.793 231.51 381.992 229.905 382 230C382 230 383.51 228.793 384 227.5C388.228 223.142 392.061 218.475 395.5 213.5C396.718 207.292 398.551 201.292 401 195.5C402.185 193.441 403.352 193.274 404.5 195C403.652 197.77 403.319 200.603 403.5 203.5C409.949 203.047 415.283 200.381 419.5 195.5Z" fill="#F8A692"/>
<path fill-rule="evenodd" clip-rule="evenodd" d="M55.5 230.5C58.4274 231.757 60.7607 233.757 62.5 236.5C59.5726 235.243 57.2393 233.243 55.5 230.5Z" fill="#2E4389"/>
<path fill-rule="evenodd" clip-rule="evenodd" d="M62.5 236.5C67.4397 239.77 71.7731 243.77 75.5 248.5C70.5341 245.201 66.2008 241.201 62.5 236.5Z" fill="#394C8F"/>
<path fill-rule="evenodd" clip-rule="evenodd" d="M223.5 231.5C229.495 236.495 235.161 241.828 240.5 247.5C240.539 248.583 240.873 249.583 241.5 250.5C239.249 254.589 236.415 258.255 233 261.5C231.798 263.677 231.298 266.011 231.5 268.5C234.164 273.485 236.831 278.485 239.5 283.5C238.167 283.5 236.833 283.5 235.5 283.5C235.577 280.491 234.244 278.324 231.5 277C227.211 275.346 222.878 273.679 218.5 272C213.981 271.825 209.647 271.325 205.5 270.5C206.693 270.03 207.36 269.03 207.5 267.5C206.799 263.552 206.799 259.552 207.5 255.5C209.093 254.652 210.26 253.319 211 251.5C211.717 247.738 213.217 244.404 215.5 241.5C218.547 238.455 221.213 235.122 223.5 231.5Z" fill="#F8A591"/>
<path fill-rule="evenodd" clip-rule="evenodd" d="M77.5 250.5C81.7706 253.101 85.4372 256.434 88.5 260.5C84.2294 257.899 80.5628 254.566 77.5 250.5Z" fill="#34478F"/>
<path fill-rule="evenodd" clip-rule="evenodd" d="M120.5 267.5C117.897 263.95 116.73 259.95 117 255.5C118.477 259.43 119.644 263.43 120.5 267.5Z" fill="#3B518D"/>
<path fill-rule="evenodd" clip-rule="evenodd" d="M207.5 255.5C206.799 259.552 206.799 263.552 207.5 267.5C207.36 269.03 206.693 270.03 205.5 270.5C203.265 270.795 201.265 270.461 199.5 269.5C197.735 268.539 195.735 268.205 193.5 268.5C193.477 259.977 197.811 254.643 206.5 252.5C207.386 253.325 207.719 254.325 207.5 255.5Z" fill="#C0CFF4"/>
<path fill-rule="evenodd" clip-rule="evenodd" d="M259.5 251.5C252.89 255.562 246.224 259.729 239.5 264C239.038 265.722 238.872 267.555 239 269.5C238.167 268.5 237.333 267.5 236.5 266.5C234.925 267.456 233.258 268.123 231.5 268.5C231.298 266.011 231.798 263.677 233 261.5C236.415 258.255 239.249 254.589 241.5 250.5C240.873 249.583 240.539 248.583 240.5 247.5C242.149 248.649 243.649 249.982 245 251.5C247.684 247.482 251.018 244.149 255 241.5C258.114 243.973 259.614 247.306 259.5 251.5Z" fill="#C1D0F4"/>
<path fill-rule="evenodd" clip-rule="evenodd" d="M259.5 251.5C261.004 255.348 262.004 259.348 262.5 263.5C262.436 267.22 261.936 270.886 261 274.5C259.117 275.653 258.284 277.319 258.5 279.5C257.448 279.351 256.448 279.517 255.5 280C256.973 280.71 257.64 281.876 257.5 283.5C259.783 283.608 261.783 284.441 263.5 286C262.906 286.464 262.239 286.631 261.5 286.5C254.49 283.764 247.156 282.764 239.5 283.5C236.831 278.485 234.164 273.485 231.5 268.5C233.258 268.123 234.925 267.456 236.5 266.5C237.333 267.5 238.167 268.5 239 269.5C238.872 267.555 239.038 265.722 239.5 264C246.224 259.729 252.89 255.562 259.5 251.5Z" fill="#DAE5FB"/>
<path fill-rule="evenodd" clip-rule="evenodd" d="M120.5 267.5C122.591 271.19 123.757 275.19 124 279.5C122.119 275.693 120.953 271.693 120.5 267.5Z" fill="#344B8A"/>
<path fill-rule="evenodd" clip-rule="evenodd" d="M40.5001 247.5C43.9889 254.448 46.8222 261.781 49.0001 269.5C53.6131 276.325 57.2797 283.658 60.0001 291.5C68.5456 307.073 79.379 320.906 92.5001 333C99.769 338.939 107.769 343.606 116.5 347C121.792 348.16 127.125 348.993 132.5 349.5C132.343 350.873 132.51 352.207 133 353.5C136.154 356.512 139.654 358.845 143.5 360.5C125.418 361.098 107.418 360.265 89.5001 358C71.011 351.504 57.1777 339.671 48.0001 322.5C40.5396 309.255 37.0396 294.921 37.5001 279.5C37.8565 268.753 38.8565 258.087 40.5001 247.5Z" fill="#DCE7FD"/>
<path fill-rule="evenodd" clip-rule="evenodd" d="M91.5 263.5C95.7706 266.101 99.4372 269.434 102.5 273.5C98.2034 270.871 94.5367 267.537 91.5 263.5Z" fill="#34498F"/>
<circle cx="414" cy="274" r="6" fill="#95B7F7"/>
<path fill-rule="evenodd" clip-rule="evenodd" d="M327.5 263.5C326.949 266.807 326.616 270.14 326.5 273.5C346.167 273.5 365.833 273.5 385.5 273.5C387.5 273.5 389.5 273.5 391.5 273.5C405.837 273.333 420.171 273.5 434.5 274C435.416 274.278 436.082 274.778 436.5 275.5C435.5 275.5 434.5 275.5 433.5 275.5C397.5 274.833 361.5 274.167 325.5 273.5C325.159 269.84 325.825 266.507 327.5 263.5Z" fill="#8997F7"/>
<path fill-rule="evenodd" clip-rule="evenodd" d="M102.5 273.5C103.5 273.833 104.167 274.5 104.5 275.5C88.1633 275.667 71.8299 275.5 55.5 275C71.3387 274.831 87.0054 274.331 102.5 273.5Z" fill="#14296F"/>
<path fill-rule="evenodd" clip-rule="evenodd" d="M104.5 275.5C108.1 277.43 111.1 280.097 113.5 283.5C109.9 281.57 106.9 278.903 104.5 275.5Z" fill="#35488A"/>
<path fill-rule="evenodd" clip-rule="evenodd" d="M39.4998 215.5C42.325 219.882 45.9917 223.215 50.4998 225.5C52.9111 226.517 54.5778 228.184 55.4998 230.5C57.2391 233.243 59.5724 235.243 62.4998 236.5C66.2006 241.201 70.5339 245.201 75.4998 248.5C76.4998 248.833 77.1665 249.5 77.4998 250.5C80.5626 254.566 84.2292 257.899 88.4998 260.5C89.8331 261.167 90.8331 262.167 91.4998 263.5C94.5365 267.537 98.2032 270.871 102.5 273.5C87.0052 274.331 71.3385 274.831 55.4998 275C71.8297 275.5 88.1631 275.667 104.5 275.5C106.9 278.903 109.9 281.57 113.5 283.5C113.628 285.09 114.295 286.423 115.5 287.5C119.203 290.216 122.87 292.883 126.5 295.5C127.458 295.953 128.292 296.619 129 297.5C128.695 295.557 128.695 293.557 129 291.5C130.302 294.375 131.135 297.375 131.5 300.5C132.103 304.273 132.77 307.939 133.5 311.5C136.369 314.022 139.703 315.689 143.5 316.5C143.5 317.5 143.5 318.5 143.5 319.5C142.512 324.64 142.179 329.974 142.5 335.5C142.167 335.5 141.833 335.5 141.5 335.5C138.486 336.842 135.652 338.509 133 340.5C132.506 342.134 132.34 343.801 132.5 345.5C132.5 346.833 132.5 348.167 132.5 349.5C127.125 348.993 121.792 348.16 116.5 347C107.769 343.606 99.7687 338.939 92.4998 333C79.3787 320.906 68.5453 307.073 59.9998 291.5C57.2794 283.658 53.6128 276.325 48.9998 269.5C46.8219 261.781 43.9886 254.448 40.4998 247.5C37.1625 235.482 33.8292 223.482 30.4998 211.5C30.3396 209.801 30.5063 208.134 30.9998 206.5C34.0872 209.416 36.9205 212.416 39.4998 215.5Z" fill="#7D9AF1"/>
<path fill-rule="evenodd" clip-rule="evenodd" d="M321.5 274.5C322.568 273.566 323.901 273.232 325.5 273.5C361.5 274.167 397.5 274.833 433.5 275.5C433.011 278.754 431.344 279.421 428.5 277.5C418.853 278.256 409.186 278.756 399.5 279C410.161 279.5 420.828 279.667 431.5 279.5C432.403 287.458 432.736 295.458 432.5 303.5C417.83 303.333 403.163 303.5 388.5 304C387.944 304.383 387.611 304.883 387.5 305.5C385.983 305.511 384.816 306.177 384 307.5C383.333 311.167 383.333 314.833 384 318.5C386.025 320.693 388.525 321.693 391.5 321.5C405.167 322.167 418.833 322.833 432.5 323.5C433.167 362.167 433.833 362.167 434.5 323.5C435.5 323.5 436.5 323.5 437.5 323.5C437.175 331.019 437.508 338.352 438.5 345.5C438.384 348.86 438.051 352.193 437.5 355.5C437.489 357.017 436.823 358.184 435.5 359C397.501 359.5 359.501 359.667 321.5 359.5C321.461 358.417 321.127 357.417 320.5 356.5C322.396 355.534 324.396 355.201 326.5 355.5C326.778 353.654 326.111 352.32 324.5 351.5C323.227 345.322 323.227 339.155 324.5 333C323.167 324.333 321.833 324.333 320.5 333C321.833 338.333 321.833 343.667 320.5 349C320.759 350.261 321.426 351.261 322.5 352C320.939 352.318 319.772 353.151 319 354.5C318.555 335.402 318.388 316.402 318.5 297.5C318.833 296.833 319.167 296.167 319.5 295.5C320.204 301.856 320.87 308.19 321.5 314.5C320.635 317.544 320.968 320.544 322.5 323.5C323.355 321.392 324.022 319.226 324.5 317C323.537 307.207 323.204 297.374 323.5 287.5C322.127 287.657 320.793 287.49 319.5 287C321.473 286.505 323.473 286.338 325.5 286.5C325.579 285.07 325.246 283.736 324.5 282.5C325.5 281.667 326.5 280.833 327.5 280C350.833 279.667 374.167 279.333 397.5 279C373.791 278.823 350.124 278.323 326.5 277.5C325.522 277.977 324.689 278.643 324 279.5C324.019 277.893 324.185 276.226 324.5 274.5C323.5 274.5 322.5 274.5 321.5 274.5Z" fill="#464EE9"/>
<path fill-rule="evenodd" clip-rule="evenodd" d="M262.5 263.5C263.724 271.336 264.724 279.336 265.5 287.5C263.901 287.768 262.568 287.434 261.5 286.5C262.239 286.631 262.906 286.464 263.5 286C261.783 284.441 259.783 283.608 257.5 283.5C257.64 281.876 256.973 280.71 255.5 280C256.448 279.517 257.448 279.351 258.5 279.5C258.284 277.319 259.117 275.653 261 274.5C261.936 270.886 262.436 267.22 262.5 263.5Z" fill="#DDE7FD"/>
<path fill-rule="evenodd" clip-rule="evenodd" d="M175.5 269.5C177.833 269.5 180.167 269.5 182.5 269.5C188.167 269.5 193.833 269.5 199.5 269.5C201.265 270.461 203.265 270.795 205.5 270.5C209.647 271.325 213.981 271.825 218.5 272C222.878 273.679 227.211 275.346 231.5 277C234.244 278.324 235.577 280.491 235.5 283.5C236.833 283.5 238.167 283.5 239.5 283.5C247.156 282.764 254.49 283.764 261.5 286.5C262.568 287.434 263.901 287.768 265.5 287.5C270.467 291.466 275.134 295.799 279.5 300.5C280.847 303.193 282.18 305.86 283.5 308.5C291.175 327.427 288.175 344.427 274.5 359.5C269.347 362.912 264.014 366.079 258.5 369C245.857 372.071 233.857 370.738 222.5 365C220.181 361.153 216.847 359.32 212.5 359.5C213.028 358.153 213.195 356.819 213 355.5C209.756 352.828 207.256 349.662 205.5 346C187.988 346.34 170.655 344.84 153.5 341.5C149.778 339.408 146.111 337.408 142.5 335.5C142.179 329.974 142.512 324.64 143.5 319.5C144.972 321.134 146.638 322.634 148.5 324C165.982 329.994 183.982 332.16 202.5 330.5C202.5 327.833 202.5 325.167 202.5 322.5C193.494 322.666 184.494 322.5 175.5 322C184.516 321.541 193.516 320.874 202.5 320C203.482 317.262 204.148 314.428 204.5 311.5C185.201 314.457 166.201 313.957 147.5 310C142.515 308.428 137.849 306.261 133.5 303.5C133.4 300.892 134.067 298.558 135.5 296.5C138.506 293.607 142.172 292.273 146.5 292.5C146.334 288.154 146.501 283.821 147 279.5C148.167 278.333 149.333 277.167 150.5 276C154.684 274.562 158.684 273.062 162.5 271.5C167.028 271.23 171.361 270.563 175.5 269.5Z" fill="#F87169"/>
<path fill-rule="evenodd" clip-rule="evenodd" d="M113.5 283.5C118.46 286.792 122.793 290.792 126.5 295.5C122.87 292.883 119.203 290.216 115.5 287.5C114.295 286.423 113.628 285.09 113.5 283.5Z" fill="#3E5294"/>
<path fill-rule="evenodd" clip-rule="evenodd" d="M179.5 301.5C174.893 301.468 170.393 302.134 166 303.5C163.502 303.083 161.002 302.749 158.5 302.5C159.031 299.112 157.697 297.112 154.5 296.5C151.642 295.834 148.642 295.167 145.5 294.5C147.152 291.082 147.985 287.415 148 283.5C149.188 284.563 149.688 285.897 149.5 287.5C157.131 289.394 164.798 291.227 172.5 293C186.855 294.418 201.188 294.918 215.5 294.5C213.757 296.321 212.257 298.321 211 300.5C207.9 300.53 204.733 300.197 201.5 299.5C200.833 299.667 200.167 299.833 199.5 300C200.5 300.333 201.5 300.667 202.5 301C194.848 302.69 187.181 302.857 179.5 301.5Z" fill="#EB5852"/>
<path fill-rule="evenodd" clip-rule="evenodd" d="M433.5 275.5C434.5 275.5 435.5 275.5 436.5 275.5C437.338 275.842 437.672 276.508 437.5 277.5C436.85 277.196 436.183 276.863 435.5 276.5C433.526 279.337 433.193 282.337 434.5 285.5C435.308 283.577 435.808 281.577 436 279.5C436.167 282.5 436.333 285.5 436.5 288.5C436.625 294.378 435.959 299.378 434.5 303.5C433.833 303.5 433.167 303.5 432.5 303.5C432.736 295.458 432.403 287.458 431.5 279.5C420.828 279.667 410.161 279.5 399.5 279C409.186 278.756 418.853 278.256 428.5 277.5C431.344 279.421 433.011 278.754 433.5 275.5Z" fill="#3E46CC"/>
<path fill-rule="evenodd" clip-rule="evenodd" d="M437.5 277.5C438.442 286.113 438.775 294.779 438.5 303.5C438.167 303.5 437.833 303.5 437.5 303.5C436.5 303.5 435.5 303.5 434.5 303.5C435.959 299.378 436.625 294.378 436.5 288.5C436.333 285.5 436.167 282.5 436 279.5C435.808 281.577 435.308 283.577 434.5 285.5C433.193 282.337 433.526 279.337 435.5 276.5C436.183 276.863 436.85 277.196 437.5 277.5Z" fill="#4C51EE"/>
<path fill-rule="evenodd" clip-rule="evenodd" d="M279.5 300.5C285.456 301.494 291.456 302.161 297.5 302.5C297.5 303.167 297.5 303.833 297.5 304.5C296.664 306.903 296.331 309.236 296.5 311.5C293.243 310.236 290.077 308.903 287 307.5C285.989 308.337 284.822 308.67 283.5 308.5C282.18 305.86 280.847 303.193 279.5 300.5Z" fill="#18166D"/>
<path fill-rule="evenodd" clip-rule="evenodd" d="M135.5 296.5C134.067 298.558 133.4 300.892 133.5 303.5C133.5 306.167 133.5 308.833 133.5 311.5C132.77 307.939 132.103 304.273 131.5 300.5C132.473 298.861 133.806 297.527 135.5 296.5Z" fill="#A7749E"/>
<path fill-rule="evenodd" clip-rule="evenodd" d="M432.5 303.5C433.167 303.5 433.833 303.5 434.5 303.5C435.5 303.5 436.5 303.5 437.5 303.5C422.626 305.174 407.459 306.174 392 306.5C390.644 305.62 389.144 305.286 387.5 305.5C387.611 304.883 387.944 304.383 388.5 304C403.163 303.5 417.83 303.333 432.5 303.5Z" fill="#16176E"/>
<path fill-rule="evenodd" clip-rule="evenodd" d="M310.5 301.5C311.468 303.607 311.802 305.941 311.5 308.5C308.893 312.315 305.226 313.482 300.5 312C297.959 310.152 296.959 307.652 297.5 304.5C297.5 303.833 297.5 303.167 297.5 302.5C301.41 297.563 305.744 297.23 310.5 301.5Z" fill="#B5C4F1"/>
<path fill-rule="evenodd" clip-rule="evenodd" d="M301.5 302.5C306.006 301.527 308.172 303.194 308 307.5C304.507 310.502 302.007 309.835 300.5 305.5C300.685 304.416 301.018 303.416 301.5 302.5Z" fill="#1B1C6E"/>
<path fill-rule="evenodd" clip-rule="evenodd" d="M297.5 304.5C296.959 307.652 297.959 310.152 300.5 312C305.226 313.482 308.893 312.315 311.5 308.5C313.167 308.5 314.833 308.5 316.5 308.5C316.17 324.675 316.504 340.675 317.5 356.5C319.048 356.821 319.715 357.821 319.5 359.5C304.5 359.5 289.5 359.5 274.5 359.5C288.175 344.427 291.175 327.427 283.5 308.5C284.822 308.67 285.989 308.337 287 307.5C290.077 308.903 293.243 310.236 296.5 311.5C296.331 309.236 296.664 306.903 297.5 304.5Z" fill="#110F50"/>
<path fill-rule="evenodd" clip-rule="evenodd" d="M437.5 303.5C437.833 303.5 438.167 303.5 438.5 303.5C438.5 306.833 438.5 310.167 438.5 313.5C438.5 315.5 438.5 317.5 438.5 319.5C437.778 320.551 436.778 321.218 435.5 321.5C435.631 320.624 435.298 319.957 434.5 319.5C420.343 321.46 406.009 322.126 391.5 321.5C388.525 321.693 386.025 320.693 384 318.5C383.333 314.833 383.333 311.167 384 307.5C384.816 306.177 385.983 305.511 387.5 305.5C389.144 305.286 390.644 305.62 392 306.5C407.459 306.174 422.626 305.174 437.5 303.5Z" fill="#101053"/>
<path fill-rule="evenodd" clip-rule="evenodd" d="M317.5 299.5C317.5 318.5 317.5 337.5 317.5 356.5C316.504 340.675 316.17 324.675 316.5 308.5C314.833 308.5 313.167 308.5 311.5 308.5C311.802 305.941 311.468 303.607 310.5 301.5C312.515 300.076 314.848 299.41 317.5 299.5Z" fill="#101169"/>
<path fill-rule="evenodd" clip-rule="evenodd" d="M388.5 309.5C394.359 308.074 396.359 310.074 394.5 315.5C389.074 317.36 387.074 315.36 388.5 309.5Z" fill="#8CABEC"/>
<path fill-rule="evenodd" clip-rule="evenodd" d="M133.5 303.5C137.849 306.261 142.515 308.428 147.5 310C166.201 313.957 185.201 314.457 204.5 311.5C204.148 314.428 203.482 317.262 202.5 320C193.516 320.874 184.516 321.541 175.5 322C184.494 322.5 193.494 322.666 202.5 322.5C202.5 325.167 202.5 327.833 202.5 330.5C183.982 332.16 165.982 329.994 148.5 324C146.638 322.634 144.972 321.134 143.5 319.5C143.5 318.5 143.5 317.5 143.5 316.5C139.703 315.689 136.369 314.022 133.5 311.5C133.5 308.833 133.5 306.167 133.5 303.5Z" fill="#EA5753"/>
<path fill-rule="evenodd" clip-rule="evenodd" d="M435.5 321.5C434.5 322.167 433.5 322.833 432.5 323.5C418.833 322.833 405.167 322.167 391.5 321.5C406.009 322.126 420.343 321.46 434.5 319.5C435.298 319.957 435.631 320.624 435.5 321.5Z" fill="#292E90"/>
<path fill-rule="evenodd" clip-rule="evenodd" d="M438.5 319.5C438.5 328.167 438.5 336.833 438.5 345.5C437.508 338.352 437.175 331.019 437.5 323.5C436.5 323.5 435.5 323.5 434.5 323.5C433.833 362.167 433.167 362.167 432.5 323.5C433.5 322.833 434.5 322.167 435.5 321.5C436.778 321.218 437.778 320.551 438.5 319.5Z" fill="#3C46C2"/>
<path fill-rule="evenodd" clip-rule="evenodd" d="M143.5 324.5C148.465 327.479 153.798 329.646 159.5 331C173.758 332.974 188.091 333.974 202.5 334C203.435 336.381 203.768 338.881 203.5 341.5C185.093 342.706 167.093 340.873 149.5 336C144.486 333.847 142.486 330.014 143.5 324.5Z" fill="#E95752"/>
<path fill-rule="evenodd" clip-rule="evenodd" d="M327.5 353.5C362.173 353.167 396.84 353.5 431.5 354.5C414.167 354.833 396.833 355.167 379.5 355.5C361.82 355.5 344.487 354.833 327.5 353.5Z" fill="#3940C6"/>
<path fill-rule="evenodd" clip-rule="evenodd" d="M141.5 335.5C142.417 341.325 145.417 345.825 150.5 349C169.342 353.02 188.342 354.52 207.5 353.5C205.922 354.298 204.256 354.798 202.5 355C188.167 355.667 173.833 355.667 159.5 355C153.121 353.911 146.788 352.577 140.5 351C137.564 349.381 134.898 347.548 132.5 345.5C132.34 343.801 132.506 342.134 133 340.5C135.652 338.509 138.486 336.842 141.5 335.5Z" fill="#F96E67"/>
<path fill-rule="evenodd" clip-rule="evenodd" d="M321.5 274.5C322.5 274.5 323.5 274.5 324.5 274.5C324.185 276.226 324.019 277.893 324 279.5C324.689 278.643 325.522 277.977 326.5 277.5C350.124 278.323 373.791 278.823 397.5 279C374.167 279.333 350.833 279.667 327.5 280C326.5 280.833 325.5 281.667 324.5 282.5C325.246 283.736 325.579 285.07 325.5 286.5C323.473 286.338 321.473 286.505 319.5 287C320.793 287.49 322.127 287.657 323.5 287.5C323.204 297.374 323.537 307.207 324.5 317C324.022 319.226 323.355 321.392 322.5 323.5C320.968 320.544 320.635 317.544 321.5 314.5C320.87 308.19 320.204 301.856 319.5 295.5C319.167 296.167 318.833 296.833 318.5 297.5C318.388 316.402 318.555 335.402 319 354.5C319.772 353.151 320.939 352.318 322.5 352C321.426 351.261 320.759 350.261 320.5 349C321.833 343.667 321.833 338.333 320.5 333C321.833 324.333 323.167 324.333 324.5 333C323.227 339.155 323.227 345.322 324.5 351.5C326.111 352.32 326.778 353.654 326.5 355.5C324.396 355.201 322.396 355.534 320.5 356.5C321.127 357.417 321.461 358.417 321.5 359.5C320.833 359.5 320.167 359.5 319.5 359.5C319.715 357.821 319.048 356.821 317.5 356.5C317.5 337.5 317.5 318.5 317.5 299.5C317.334 291.826 317.5 284.159 318 276.5C318.816 275.177 319.983 274.511 321.5 274.5Z" fill="#3C44CA"/>
<path fill-rule="evenodd" clip-rule="evenodd" d="M141.5 335.5C141.833 335.5 142.167 335.5 142.5 335.5C146.111 337.408 149.778 339.408 153.5 341.5C170.655 344.84 187.988 346.34 205.5 346C207.256 349.662 209.756 352.828 213 355.5C213.195 356.819 213.028 358.153 212.5 359.5C196.499 364.349 180.165 365.682 163.5 363.5C157.755 361.716 151.755 360.716 145.5 360.5C144.833 360.5 144.167 360.5 143.5 360.5C139.654 358.845 136.154 356.512 133 353.5C132.51 352.207 132.343 350.873 132.5 349.5C132.5 348.167 132.5 346.833 132.5 345.5C134.898 347.548 137.564 349.381 140.5 351C146.788 352.577 153.121 353.911 159.5 355C173.833 355.667 188.167 355.667 202.5 355C204.256 354.798 205.922 354.298 207.5 353.5C188.342 354.52 169.342 353.02 150.5 349C145.417 345.825 142.417 341.325 141.5 335.5Z" fill="#E95853"/>
<path fill-rule="evenodd" clip-rule="evenodd" d="M145.5 360.5C151.755 360.716 157.755 361.716 163.5 363.5C157.223 363.421 151.223 362.421 145.5 360.5Z" fill="#EC8682"/>
<path d="M267.5 250.5C272.5 264 291.5 262.5 294.5 253" stroke="black"/>
<path d="M337.5 246C337.5 244.794 340.5 235.5 331 230" stroke="black"/>
<path d="M195.853 183.07C195.853 183.07 203.39 209.297 217.047 233.125" stroke="#BFD1F9"/>
<path d="M196.953 181.875C196.953 181.875 204.49 208.102 218.147 231.93" stroke="#BFD1F9" stroke-width="2"/>
<circle cx="414" cy="124" r="49" fill="#F9726A"/>
<path d="M417.32 116C416.2 113.64 413.8 112 411 112H402V108H426V112H419.48C420.44 113.16 421.16 114.52 421.58 116H426V120H421.96C421.46 125.6 416.74 130 411 130H409.54L423 144H417.46L404 130V126H411C414.52 126 417.44 123.4 417.92 120H402V116H417.32Z" fill="white"/>
<path d="M245.32 317C244.2 314.64 241.8 313 239 313H230V309H254V313H247.48C248.44 314.16 249.16 315.52 249.58 317H254V321H249.96C249.46 326.6 244.74 331 239 331H237.54L251 345H245.46L232 331V327H239C242.52 327 245.44 324.4 245.92 321H230V317H245.32Z" fill="white"/>
<g clip-path="url(#clip0_300_11611)">
<path d="M469.034 252.683C476.168 244.249 475.114 231.63 466.681 224.497C458.247 217.363 445.628 218.417 438.494 226.85C431.361 235.284 432.414 247.903 440.848 255.036C449.281 262.17 461.9 261.116 469.034 252.683ZM449.594 232.309C450.683 232.372 451.766 232.672 452.756 233.216L455.113 230.429L457.404 232.367L455.047 235.154C456.116 236.512 456.684 238.198 456.654 239.926C456.624 241.655 455.997 243.32 454.881 244.64L454.635 244.93L465.121 244.055L465.37 247.043L451.362 248.212L449.361 246.52L452.59 242.703C453.192 241.992 453.558 241.113 453.639 240.185C453.719 239.258 453.51 238.329 453.041 237.525L447.071 244.583L444.78 242.645L450.75 235.588C449.88 235.258 448.929 235.206 448.028 235.44C447.127 235.673 446.32 236.18 445.719 236.89L442.49 240.708L440.199 238.77L450.532 226.554L452.823 228.492L449.594 232.309Z" fill="#85B6FF"/>
</g>
<g clip-path="url(#clip1_300_11611)">
<path d="M501.183 312.679C511.494 308.718 516.641 297.148 512.679 286.837C508.717 276.526 497.148 271.379 486.836 275.341C476.525 279.302 471.378 290.872 475.34 301.183C479.302 311.494 490.871 316.641 501.183 312.679ZM493.941 285.466C494.866 286.045 495.67 286.829 496.277 287.783L499.684 286.473L500.76 289.274L497.353 290.583C497.637 292.288 497.324 294.039 496.466 295.54C495.608 297.041 494.258 298.2 492.644 298.82L492.289 298.956L501.902 303.233L500.684 305.972L487.84 300.258L486.9 297.813L491.568 296.019C492.437 295.686 493.181 295.091 493.698 294.317C494.214 293.543 494.479 292.627 494.453 291.697L485.824 295.012L484.748 292.212L493.377 288.896C492.773 288.189 491.964 287.686 491.062 287.457C490.16 287.228 489.209 287.284 488.34 287.618L483.672 289.411L482.597 286.611L497.532 280.873L498.608 283.673L493.941 285.466Z" fill="#6998E7"/>
</g>
<circle cx="525" cy="279" r="6" fill="#6998E7"/>
<circle cx="482" cy="206" r="6" fill="#95B7F7"/>
<circle cx="462" cy="309" r="6" fill="#6998E7"/>
<defs>
<clipPath id="clip0_300_11611">
<rect width="48" height="48" fill="white" transform="translate(419.943 242.591) rotate(-49.773)"/>
</clipPath>
<clipPath id="clip1_300_11611">
<rect width="48" height="48" fill="white" transform="translate(463 280.215) rotate(-21.0175)"/>
</clipPath>
</defs>
</svg>
