<svg width="42" height="42" viewBox="0 0 42 62" fill="none" xmlns="http://www.w3.org/2000/svg">
<path fill-rule="evenodd" clip-rule="evenodd" d="M36.2046 46.9436C35.1693 46.9436 34.3301 47.9124 34.3301 49.1063C34.3301 49.3996 34.3806 49.6779 34.4716 49.9324H37.9369C38.028 49.6779 38.0784 49.3996 38.0784 49.1063C38.0784 47.9124 37.2392 46.9436 36.2046 46.9436Z" fill="#422116"/>
<path fill-rule="evenodd" clip-rule="evenodd" d="M38.0681 49.5518H34.3418V49.9324H38.0681V49.5518Z" fill="#68401F"/>
<path fill-rule="evenodd" clip-rule="evenodd" d="M32.1347 29.2497L38.833 29.5597C39.0445 35.7758 38.0944 38.2556 38.0334 48.1447H34.3826C34.5148 43.8415 34.1751 38.3555 34.1953 34.1887C34.1975 33.6583 33.5462 34.3512 33.478 33.8248C32.8857 32.6896 32.012 30.27 32.1347 29.2497Z" fill="#1E3F69"/>
<path fill-rule="evenodd" clip-rule="evenodd" d="M28.3341 30.1773C28.7016 30.7576 28.7107 31.2785 28.7032 31.8953L28.6632 32.7245C28.6772 32.9227 28.3935 32.9631 28.3114 32.7721C28.1166 32.432 28.0773 32.0617 28.0404 31.6693C27.8652 31.9611 27.6658 32.6135 27.7072 32.9599C27.7649 33.4007 27.9829 33.8693 28.1916 34.2022C28.2914 34.4829 28.0219 34.6382 27.6177 34.3505C27.0186 33.9176 26.668 33.4015 26.3097 32.4256C26.1657 31.617 26.3199 30.427 26.6039 30.0402C26.7076 29.7564 26.6996 29.4757 26.6305 29.1951L28.387 29.4488C28.282 29.7048 28.2613 29.9474 28.3341 30.1773Z" fill="#F1B986"/>
<path fill-rule="evenodd" clip-rule="evenodd" d="M39.8393 30.1567C39.4714 30.7378 39.4628 31.2586 39.4701 31.8762L39.5098 32.7054C39.4965 32.9028 39.7799 32.9433 39.8622 32.7522C40.0567 32.4121 40.096 32.0419 40.1329 31.6495C40.3082 31.9412 40.5076 32.5929 40.4661 32.9401C40.4088 33.3817 40.1905 33.8486 39.982 34.1816C39.8818 34.463 40.1515 34.6184 40.5556 34.3306C41.1542 33.8978 41.5054 33.3817 41.8637 32.4058C42.0073 31.5971 41.8535 30.4072 41.5695 30.0203C41.4654 29.7373 41.4738 29.4559 41.5422 29.1752L39.7864 29.4281C39.8917 29.6842 39.9118 29.9276 39.8393 30.1567Z" fill="#DEA46D"/>
<path fill-rule="evenodd" clip-rule="evenodd" d="M32.0178 46.9422C33.0528 46.9422 33.892 47.9109 33.892 49.1056C33.892 49.3982 33.8412 49.6764 33.7505 49.9309H30.2856C30.1941 49.6764 30.144 49.3982 30.144 49.1056C30.144 47.9109 30.9833 46.9422 32.0178 46.9422Z" fill="#422116"/>
<path fill-rule="evenodd" clip-rule="evenodd" d="M30.1543 49.5504H33.881V49.9309H30.1543V49.5504Z" fill="#68401F"/>
<path fill-rule="evenodd" clip-rule="evenodd" d="M36.0875 29.2483L29.3896 29.559C29.178 35.7744 30.1278 38.2542 30.1891 48.1432H33.8403C33.7074 43.84 34.0471 38.354 34.0273 34.1872C34.0245 33.6569 34.6763 34.3498 34.7445 33.8234C35.3366 32.6881 36.2105 30.2694 36.0875 29.2483Z" fill="#1E3F69"/>
<path fill-rule="evenodd" clip-rule="evenodd" d="M32.2295 13.5869C33.5076 13.8723 34.5933 13.8596 35.894 13.5869L36.1014 14.2283C34.8525 14.8966 33.3001 14.8982 31.9766 14.2418L32.2295 13.5869Z" fill="#EE262F"/>
<path fill-rule="evenodd" clip-rule="evenodd" d="M37.314 10.3748C37.4174 9.02546 37.8745 7.61116 37.5463 6.35858C36.7792 4.5693 33.1578 3.72499 31.4174 4.04289C30.3295 5.87261 30.7792 8.13042 30.9793 10.2178L37.314 10.3748Z" fill="#934B1D"/>
<path fill-rule="evenodd" clip-rule="evenodd" d="M34.1274 10.2955V4.21097C35.6126 4.55899 37.0882 5.28993 37.5463 6.35858C37.8745 7.61116 37.4174 9.02546 37.314 10.3748L34.1274 10.2955Z" fill="#863F1B"/>
<path fill-rule="evenodd" clip-rule="evenodd" d="M34.0718 23.0329C35.033 23.0464 35.9784 23.0052 36.9124 22.9077V14.3386L36.5931 14.1991C35.8914 13.8923 35.0218 13.5387 34.0718 13.4095V23.0329Z" fill="#B5DFDE"/>
<path fill-rule="evenodd" clip-rule="evenodd" d="M34.0719 23.0329C33.1109 23.0464 32.1655 23.0052 31.2314 22.9077V14.3386L31.5501 14.1991C32.2525 13.8923 33.1217 13.5387 34.0719 13.4095V23.0329Z" fill="#B5DFDE"/>
<path fill-rule="evenodd" clip-rule="evenodd" d="M32.0435 11.7232H36.0997V14.1705C34.7476 15.2447 33.3955 15.2875 32.0435 14.1705V11.7232Z" fill="#DEA46D"/>
<path fill-rule="evenodd" clip-rule="evenodd" d="M32.4014 6.6994C31.8264 6.58762 31.2771 7.17506 31.1736 7.75062C31.0791 8.27939 31.0126 8.82244 30.9881 9.36549C30.973 9.36311 31.0575 9.36153 30.9413 9.36153C30.8255 9.36153 30.4477 9.44635 30.466 9.94897C30.4796 10.3255 30.8066 11.4188 31.2368 11.2404C31.8598 12.9092 32.6991 13.8518 34.0716 14.1855C34.0945 14.1412 34.1053 14.1752 34.127 14.161V6.87539C33.5736 6.87698 33.0196 6.82069 32.4014 6.6994Z" fill="#F1B986"/>
<path fill-rule="evenodd" clip-rule="evenodd" d="M35.7976 6.6994C36.372 6.58762 36.922 7.17506 37.0254 7.75062C37.1199 8.27939 37.1862 8.82244 37.2103 9.36549C37.2261 9.36311 37.1415 9.36153 37.2574 9.36153C37.3735 9.36153 37.751 9.44635 37.733 9.94897C37.7194 10.3255 37.3924 11.4188 36.962 11.2404C36.3302 12.9322 35.4783 13.8637 34.0718 14.1855V6.87539C34.6254 6.87698 35.1794 6.82069 35.7976 6.6994Z" fill="#EAAE77"/>
<path fill-rule="evenodd" clip-rule="evenodd" d="M34.0716 14.9917H34.765L34.4716 16.0929H33.6715L33.3779 14.9917H34.0716Z" fill="#EF3021"/>
<path fill-rule="evenodd" clip-rule="evenodd" d="M34.4717 16.0596L34.7555 20.224L34.0717 21.4727L33.3882 20.224L33.6716 16.0596H34.4717Z" fill="#F04229"/>
<path fill-rule="evenodd" clip-rule="evenodd" d="M34.072 14.9918L32.8822 16.1493L31.5503 14.1991L32.0439 13.9295C32.5425 14.4551 33.2253 14.7897 34.072 14.9918Z" fill="#F4FBFC"/>
<path fill-rule="evenodd" clip-rule="evenodd" d="M34.0716 21.3601L31.1508 14.3742C28.5111 15.5127 26.7345 16.3752 26.4362 19.7183C26.1529 22.9108 26.1458 26.4125 26.2959 30.0917L28.6805 30.0568L28.7427 23.2461L29.1994 31.223L34.1834 31.2159L34.0958 23.1621L34.0716 21.3601Z" fill="#286089"/>
<path fill-rule="evenodd" clip-rule="evenodd" d="M34.0718 21.3601V23.1256L31.3225 18.2017L32.1403 17.2107L30.8951 16.7953L30.333 14.7317L31.6932 14.1372L34.0718 21.3601Z" fill="#2F72AA"/>
<path fill-rule="evenodd" clip-rule="evenodd" d="M34.0718 14.9918L35.2615 16.1493L36.5934 14.1991L36.0998 13.9295C35.6015 14.4551 34.9187 14.7897 34.0718 14.9918Z" fill="#F4FBFC"/>
<path fill-rule="evenodd" clip-rule="evenodd" d="M34.0718 21.3601L36.9926 14.3742C39.6326 15.5127 41.4089 16.3752 41.7074 19.7183C41.9901 22.9108 41.9976 26.4125 41.8471 30.0917L39.4632 30.0568L39.4006 23.2461L38.9439 31.223L34.0718 31.2159V21.3601Z" fill="#245576"/>
<path fill-rule="evenodd" clip-rule="evenodd" d="M34.0718 21.3601V23.1256L36.821 18.2017L36.0035 17.2107L37.2484 16.7953L37.8108 14.7317L36.4996 14.1475L34.0718 21.3601Z" fill="#2C6B9A"/>
<path fill-rule="evenodd" clip-rule="evenodd" d="M34.6576 23.9082C34.7952 23.9082 34.9066 24.0199 34.9066 24.1579C34.9066 24.295 34.7952 24.406 34.6576 24.406C34.5198 24.406 34.4087 24.295 34.4087 24.1579C34.4087 24.0199 34.5198 23.9082 34.6576 23.9082Z" fill="#1E3F69"/>
<path fill-rule="evenodd" clip-rule="evenodd" d="M34.653 25.7624C34.7901 25.7624 34.9016 25.8742 34.9016 26.0121C34.9016 26.1485 34.7901 26.2603 34.653 26.2603C34.5154 26.2603 34.4033 26.1485 34.4033 26.0121C34.4033 25.8742 34.5154 25.7624 34.653 25.7624Z" fill="#1E3F69"/>
<path fill-rule="evenodd" clip-rule="evenodd" d="M34.6328 27.6421C34.77 27.6421 34.8814 27.7539 34.8814 27.8918C34.8814 28.029 34.77 28.1407 34.6328 28.1407C34.4953 28.1407 34.3838 28.029 34.3838 27.8918C34.3838 27.7539 34.4953 27.6421 34.6328 27.6421Z" fill="#1E3F69"/>
<path fill-rule="evenodd" clip-rule="evenodd" d="M10.006 47.0072C8.97083 47.0072 8.13184 47.9759 8.13184 49.1706C8.13184 49.464 8.18233 49.7422 8.27342 49.9967H11.7387C11.8294 49.7422 11.8799 49.464 11.8799 49.1706C11.8799 47.9759 11.041 47.0072 10.006 47.0072Z" fill="#422116"/>
<path fill-rule="evenodd" clip-rule="evenodd" d="M11.8696 49.6162H8.14258V49.9967H11.8696V49.6162Z" fill="#68401F"/>
<path fill-rule="evenodd" clip-rule="evenodd" d="M5.93547 29.3132L12.6335 29.624C12.8453 35.8401 11.8949 38.3199 11.8342 48.2081H8.18313C8.31537 43.905 7.97598 38.4198 7.9958 34.2522C7.99858 33.7218 7.34636 34.4147 7.2789 33.8883C6.68646 32.7538 5.81283 30.3335 5.93547 29.3132Z" fill="#1E3F69"/>
<path fill-rule="evenodd" clip-rule="evenodd" d="M2.13496 30.2408C2.50257 30.8211 2.51153 31.3419 2.50408 31.9603L2.46412 32.788C2.47776 32.9861 2.19442 33.0266 2.11205 32.8355C1.91727 32.4954 1.87826 32.126 1.8414 31.7328C1.66612 32.0253 1.46665 32.677 1.5082 33.0234C1.56543 33.465 1.78376 33.9335 1.99187 34.2665C2.09223 34.5463 1.82277 34.7025 1.41838 34.4139C0.819436 33.9811 0.468555 33.465 0.110302 32.4899C-0.0334276 31.6805 0.120846 30.4905 0.404499 30.1044C0.508511 29.8206 0.500505 29.5392 0.431693 29.2585L2.18792 29.513C2.08264 29.7683 2.06219 30.0117 2.13496 30.2408Z" fill="#F1B986"/>
<path fill-rule="evenodd" clip-rule="evenodd" d="M13.6401 30.221C13.2721 30.8021 13.2635 31.323 13.271 31.9397L13.3106 32.7698C13.2973 32.9664 13.5806 33.0068 13.663 32.8165C13.8578 32.4764 13.8971 32.1062 13.9336 31.7138C14.1089 32.0047 14.3086 32.6564 14.2671 33.0044C14.2095 33.4452 13.9915 33.9129 13.7832 34.2459C13.6828 34.5273 13.9525 34.6827 14.356 34.3949C14.9556 33.9621 15.3064 33.446 15.6647 32.4701C15.8084 31.6615 15.6545 30.4715 15.3705 30.0839C15.2664 29.8008 15.2742 29.5186 15.3433 29.2396L13.5874 29.4925C13.6924 29.7485 13.7128 29.9919 13.6401 30.221Z" fill="#DEA46D"/>
<path fill-rule="evenodd" clip-rule="evenodd" d="M5.81919 47.0055C6.85375 47.0055 7.6933 47.9751 7.6933 49.1698C7.6933 49.4623 7.64288 49.7406 7.55179 49.9958H4.08651C3.9955 49.7406 3.94531 49.4623 3.94531 49.1698C3.94531 47.9751 4.78391 47.0055 5.81919 47.0055Z" fill="#422116"/>
<path fill-rule="evenodd" clip-rule="evenodd" d="M3.95557 49.6145H7.68223V49.9958H3.95557V49.6145Z" fill="#68401F"/>
<path fill-rule="evenodd" clip-rule="evenodd" d="M9.889 29.3117L3.19064 29.6224C2.97976 35.8386 3.9299 38.3184 3.99055 48.2074H7.64197C7.50879 43.9034 7.84849 38.4182 7.82899 34.2506C7.82621 33.7203 8.47811 34.4132 8.54621 33.8868C9.13801 32.7531 10.0122 30.332 9.889 29.3117Z" fill="#1E3F69"/>
<path fill-rule="evenodd" clip-rule="evenodd" d="M6.03008 13.6504C7.30842 13.9366 8.39412 13.9247 9.69475 13.6504L9.90222 14.2918C8.65336 14.9601 7.10088 14.9617 5.77734 14.3061L6.03008 13.6504Z" fill="#EE262F"/>
<path fill-rule="evenodd" clip-rule="evenodd" d="M11.1146 10.4381C11.2183 9.08961 11.6754 7.67451 11.3468 6.42272C10.5801 4.63264 6.95876 3.78913 5.21831 4.10624C4.13015 5.93675 4.58013 8.19536 4.77983 10.2811L11.1146 10.4381Z" fill="#934B1D"/>
<path fill-rule="evenodd" clip-rule="evenodd" d="M7.92871 10.3588V4.2743C9.41389 4.62233 10.8899 5.35406 11.3472 6.42272C11.6758 7.67451 11.2187 9.08961 11.1149 10.4381L7.92871 10.3588Z" fill="#863F1B"/>
<path fill-rule="evenodd" clip-rule="evenodd" d="M7.87354 23.0971C8.83414 23.1098 9.77992 23.0693 10.7139 22.9718V14.4028L10.3946 14.2624C9.69287 13.9556 8.82328 13.6021 7.87354 13.4728V23.0971Z" fill="#B5DFDE"/>
<path fill-rule="evenodd" clip-rule="evenodd" d="M7.8732 23.0971C6.91165 23.1098 5.96619 23.0693 5.03223 22.9718V14.4028L5.35116 14.2624C6.05324 13.9556 6.92275 13.6021 7.8732 13.4728V23.0971Z" fill="#B5DFDE"/>
<path fill-rule="evenodd" clip-rule="evenodd" d="M5.84521 11.7875H9.90135V14.2339C8.54928 15.3089 7.19721 15.351 5.84521 14.2339V11.7875Z" fill="#DEA46D"/>
<path fill-rule="evenodd" clip-rule="evenodd" d="M6.2032 6.76282C5.62812 6.65104 5.07818 7.23928 4.97536 7.81483C4.88062 8.34361 4.81403 8.88587 4.78985 9.42892C4.77439 9.42654 4.85922 9.42495 4.74307 9.42495C4.62701 9.42495 4.24949 9.51057 4.26773 10.0124C4.28073 10.389 4.60838 11.4822 5.03854 11.3038C5.66158 12.9734 6.50049 13.9152 7.87365 14.2498C7.89624 14.2054 7.90679 14.2387 7.92875 14.2244V6.93882C7.37508 6.9412 6.82101 6.88412 6.2032 6.76282Z" fill="#F1B986"/>
<path fill-rule="evenodd" clip-rule="evenodd" d="M9.599 6.76282C10.1734 6.65104 10.7235 7.23928 10.8266 7.81483C10.921 8.34361 10.9876 8.88587 11.0121 9.42892C11.0276 9.42654 10.943 9.42495 11.0588 9.42495C11.1743 9.42495 11.5525 9.51057 11.5345 10.0124C11.5208 10.389 11.1936 11.4822 10.7631 11.3038C10.1317 12.9964 9.27912 13.9271 7.87354 14.2498V6.93882C8.42689 6.9412 8.98088 6.88412 9.599 6.76282Z" fill="#EAAE77"/>
<path fill-rule="evenodd" clip-rule="evenodd" d="M7.87336 15.056H8.5664L8.27284 16.1564H7.47293L7.17969 15.056H7.87336Z" fill="#EF3021"/>
<path fill-rule="evenodd" clip-rule="evenodd" d="M8.27301 16.1231L8.55667 20.2884L7.87354 21.537L7.18945 20.2884L7.47311 16.1231H8.27301Z" fill="#F04229"/>
<path fill-rule="evenodd" clip-rule="evenodd" d="M7.87361 15.056L6.68318 16.2126L5.35156 14.2624L5.84522 13.9937C6.34316 14.5201 7.02597 14.8538 7.87361 15.056Z" fill="#F4FBFC"/>
<path fill-rule="evenodd" clip-rule="evenodd" d="M7.87335 21.4244L4.95183 14.4377C2.31246 15.5769 0.535857 16.4387 0.237616 19.7826C-0.0457203 22.9751 -0.0531734 26.4768 0.097374 30.156L2.48124 30.1211L2.54411 23.3096L3.0009 31.2865L7.98482 31.2802L7.89714 23.2264L7.87335 21.4244Z" fill="#286089"/>
<path fill-rule="evenodd" clip-rule="evenodd" d="M7.87362 21.4244V23.1899L5.12334 18.266L5.9418 17.2743L4.69659 16.8589L4.13428 14.7953L5.49436 14.2007L7.87362 21.4244Z" fill="#2F72AA"/>
<path fill-rule="evenodd" clip-rule="evenodd" d="M7.87354 15.056L9.06301 16.2126L10.3946 14.2624L9.90129 13.9937C9.40335 14.5201 8.71982 14.8538 7.87354 15.056Z" fill="#F4FBFC"/>
<path fill-rule="evenodd" clip-rule="evenodd" d="M7.87354 21.4244L10.7941 14.4377C13.4334 15.5769 15.2104 16.4387 15.5082 19.7826C15.7919 22.9751 15.799 26.4768 15.6486 30.156L13.2649 30.1211L13.2021 23.3096L12.745 31.2865L7.87354 31.2802V21.4244Z" fill="#245576"/>
<path fill-rule="evenodd" clip-rule="evenodd" d="M7.87354 21.4244V23.1899L10.6225 18.266L9.80465 17.2743L11.0499 16.8589L11.6119 14.7953L10.3008 14.2118L7.87354 21.4244Z" fill="#2C6B9A"/>
<path fill-rule="evenodd" clip-rule="evenodd" d="M8.45889 23.9716C8.59612 23.9716 8.70758 24.0833 8.70758 24.2213C8.70758 24.3592 8.59612 24.4702 8.45889 24.4702C8.32143 24.4702 8.20996 24.3592 8.20996 24.2213C8.20996 24.0833 8.32143 23.9716 8.45889 23.9716Z" fill="#1E3F69"/>
<path fill-rule="evenodd" clip-rule="evenodd" d="M8.45423 25.8259C8.59138 25.8259 8.70292 25.9384 8.70292 26.0756C8.70292 26.2135 8.59138 26.3237 8.45423 26.3237C8.31677 26.3237 8.20459 26.2135 8.20459 26.0756C8.20459 25.9384 8.31677 25.8259 8.45423 25.8259Z" fill="#1E3F69"/>
<path fill-rule="evenodd" clip-rule="evenodd" d="M8.4335 27.7064C8.57129 27.7064 8.68251 27.8181 8.68251 27.9553C8.68251 28.0932 8.57129 28.2042 8.4335 28.2042C8.29635 28.2042 8.18457 28.0932 8.18457 27.9553C8.18457 27.8181 8.29635 27.7064 8.4335 27.7064Z" fill="#1E3F69"/>
<path fill-rule="evenodd" clip-rule="evenodd" d="M23.8669 57.9664C22.4706 57.9664 21.3384 59.2737 21.3384 60.8862C21.3384 61.2802 21.4069 61.6575 21.5292 62H26.204C26.3273 61.6575 26.3954 61.2802 26.3954 60.8862C26.3954 59.2737 25.2629 57.9664 23.8669 57.9664Z" fill="#422116"/>
<path fill-rule="evenodd" clip-rule="evenodd" d="M26.3813 61.4863H21.353V62H26.3813V61.4863Z" fill="#68401F"/>
<path fill-rule="evenodd" clip-rule="evenodd" d="M18.376 34.096L27.4127 34.5145C27.6979 42.9005 26.4164 46.2468 26.3341 59.5875H21.4083C21.587 53.7821 21.1294 46.3807 21.156 40.7592C21.1594 40.0441 20.2799 40.9788 20.1883 40.2685C19.3895 38.7368 18.2109 35.4722 18.376 34.096Z" fill="#1E3F69"/>
<path fill-rule="evenodd" clip-rule="evenodd" d="M13.2484 35.347C13.7448 36.1302 13.7566 36.8334 13.747 37.6658L13.6928 38.7852C13.7113 39.0516 13.3289 39.1055 13.2178 38.8478C12.9551 38.3896 12.9022 37.8902 12.8523 37.3606C12.6164 37.7538 12.3467 38.6338 12.4033 39.1023C12.4807 39.6961 12.7749 40.328 13.0561 40.7782C13.1914 41.1564 12.8276 41.3665 12.2822 40.9788C11.4743 40.3938 11.0005 39.6969 10.5174 38.3809C10.3229 37.2893 10.5313 35.6839 10.9144 35.163C11.0544 34.7809 11.0438 34.4012 10.9509 34.0222L13.32 34.3647C13.1778 34.7096 13.1502 35.0378 13.2484 35.347Z" fill="#F1B986"/>
<path fill-rule="evenodd" clip-rule="evenodd" d="M28.7709 35.3201C28.2743 36.1034 28.2625 36.8066 28.2724 37.6398L28.3263 38.7584C28.308 39.0255 28.6902 39.0794 28.801 38.821C29.0643 38.3628 29.1172 37.8641 29.1668 37.3346C29.403 37.727 29.6722 38.607 29.6164 39.0755C29.5387 39.6701 29.2445 40.3011 28.9633 40.7506C28.8283 41.1296 29.1918 41.3404 29.7372 40.9512C30.5448 40.3669 31.0189 39.6709 31.502 38.3549C31.6962 37.2632 31.4881 35.6578 31.1047 35.1354C30.965 34.7541 30.9759 34.3736 31.0685 33.9954L28.6994 34.3379C28.841 34.6827 28.8689 35.0109 28.7709 35.3201Z" fill="#DEA46D"/>
<path fill-rule="evenodd" clip-rule="evenodd" d="M18.2182 57.9647C19.6142 57.9647 20.7463 59.272 20.7463 60.8837C20.7463 61.2785 20.6785 61.6551 20.5553 61.9976H15.8807C15.7581 61.6551 15.6899 61.2785 15.6899 60.8837C15.6899 59.272 16.8219 57.9647 18.2182 57.9647Z" fill="#422116"/>
<path fill-rule="evenodd" clip-rule="evenodd" d="M15.7046 61.4846H20.7328V61.9976H15.7046V61.4846Z" fill="#68401F"/>
<path fill-rule="evenodd" clip-rule="evenodd" d="M23.7094 34.0936L14.6726 34.513C14.3875 42.899 15.6696 46.2452 15.7516 59.5852H20.677C20.4983 53.7797 20.9563 46.38 20.9297 40.7577C20.926 40.0418 21.8058 40.9773 21.8974 40.2662C22.6964 38.7353 23.875 35.4707 23.7094 34.0936Z" fill="#1E3F69"/>
<path fill-rule="evenodd" clip-rule="evenodd" d="M18.5039 12.9655C20.2282 13.3508 21.6926 13.3342 23.4482 12.9655L23.7278 13.8304C22.0431 14.7318 19.9482 14.7342 18.1626 13.8495L18.5039 12.9655Z" fill="#EE262F"/>
<path fill-rule="evenodd" clip-rule="evenodd" d="M25.3632 8.63135C25.5028 6.81114 26.1203 4.90215 25.6769 3.21276C24.6422 0.798766 19.7564 -0.339647 17.4082 0.0884495C15.9406 2.55873 16.547 5.60455 16.8167 8.41889L25.3632 8.63135Z" fill="#934B1D"/>
<path fill-rule="evenodd" clip-rule="evenodd" d="M21.0645 8.52433V0.315965C23.0681 0.785285 25.0587 1.7715 25.6768 3.21276C26.1203 4.90215 25.5028 6.81114 25.3631 8.63135L21.0645 8.52433Z" fill="#863F1B"/>
<path fill-rule="evenodd" clip-rule="evenodd" d="M20.9897 25.7093C22.286 25.7275 23.5619 25.6712 24.822 25.5396V13.9795L24.3918 13.7916C23.4442 13.3769 22.2712 12.9005 20.9897 12.7261V25.7093Z" fill="#B5DFDE"/>
<path fill-rule="evenodd" clip-rule="evenodd" d="M20.9898 25.7093C19.6931 25.7275 18.4173 25.6712 17.1572 25.5396V13.9795L17.588 13.7916C18.535 13.3769 19.708 12.9005 20.9898 12.7261V25.7093Z" fill="#B5DFDE"/>
<path fill-rule="evenodd" clip-rule="evenodd" d="M18.2529 10.4517H23.7259V13.7528C21.9016 15.2019 20.0776 15.2598 18.2529 13.7528V10.4517Z" fill="#DEA46D"/>
<path fill-rule="evenodd" clip-rule="evenodd" d="M18.736 3.67421C17.9609 3.5212 17.2186 4.31476 17.0793 5.09247C16.952 5.80517 16.8621 6.5369 16.8293 7.26942C16.8089 7.26625 16.9225 7.26387 16.7664 7.26387C16.6101 7.26387 16.1007 7.37961 16.1249 8.05743C16.1428 8.56481 16.5847 10.0409 17.1654 9.79915C18.0055 12.0506 19.1377 13.3222 20.9895 13.7733C21.0208 13.7139 21.035 13.7591 21.0641 13.74V3.91045C20.3169 3.91283 19.57 3.83672 18.736 3.67421Z" fill="#F1B986"/>
<path fill-rule="evenodd" clip-rule="evenodd" d="M23.3176 3.67421C24.093 3.5212 24.835 4.31476 24.9744 5.09247C25.1016 5.80517 25.1914 6.5369 25.2239 7.26942C25.245 7.26625 25.1307 7.26387 25.2871 7.26387C25.4438 7.26387 25.9529 7.37961 25.9291 8.05743C25.9108 8.56481 25.4695 10.0409 24.8888 9.79915C24.0364 12.0815 22.8868 13.3389 20.9897 13.7733V3.91045C21.7367 3.91283 22.4842 3.83672 23.3176 3.67421Z" fill="#EAAE77"/>
<path fill-rule="evenodd" clip-rule="evenodd" d="M20.9901 14.8611H21.9256L21.5295 16.3459H20.4506L20.0542 14.8611H20.9901Z" fill="#EF3021"/>
<path fill-rule="evenodd" clip-rule="evenodd" d="M21.5288 16.3015L21.9115 21.9199L20.9896 23.6045L20.0674 21.9199L20.4501 16.3015H21.5288Z" fill="#F04229"/>
<path fill-rule="evenodd" clip-rule="evenodd" d="M20.9897 14.861L19.384 16.422L17.5879 13.7916L18.253 13.4293C18.9257 14.1372 19.847 14.5883 20.9897 14.861Z" fill="#F4FBFC"/>
<path fill-rule="evenodd" clip-rule="evenodd" d="M20.9899 23.4523L17.0493 14.027C13.488 15.5634 11.0911 16.7272 10.6888 21.2373C10.3064 25.5436 10.2965 30.2693 10.4996 35.2329L13.7159 35.1861L13.8004 25.9971L14.4164 36.7582L21.1407 36.7495L21.0221 25.8837L20.9899 23.4523Z" fill="#286089"/>
<path fill-rule="evenodd" clip-rule="evenodd" d="M20.9901 23.4523V25.8346L17.2808 19.1912L18.3845 17.8538L16.7038 17.2941L15.9458 14.5099L17.7807 13.7076L20.9901 23.4523Z" fill="#2F72AA"/>
<path fill-rule="evenodd" clip-rule="evenodd" d="M20.9897 14.861L22.5954 16.422L24.3918 13.7916L23.7258 13.4293C23.0534 14.1372 22.1324 14.5883 20.9897 14.861Z" fill="#F4FBFC"/>
<path fill-rule="evenodd" clip-rule="evenodd" d="M20.9897 23.4523L24.9304 14.027C28.491 15.5634 30.8882 16.7272 31.2905 21.2373C31.6727 25.5436 31.6829 30.2693 31.4794 35.2329L28.2634 35.1861L28.1788 25.9971L27.5629 36.7582L20.9897 36.7495V23.4523Z" fill="#245576"/>
<path fill-rule="evenodd" clip-rule="evenodd" d="M20.9897 23.4523V25.8346L24.6987 19.1912L23.595 17.8538L25.2753 17.2941L26.0338 14.5099L24.2648 13.7226L20.9897 23.4523Z" fill="#2C6B9A"/>
<path fill-rule="evenodd" clip-rule="evenodd" d="M21.7799 26.8905C21.9654 26.8905 22.1159 27.0404 22.1159 27.2267C22.1159 27.4114 21.9654 27.562 21.7799 27.562C21.5941 27.562 21.4438 27.4114 21.4438 27.2267C21.4438 27.0404 21.5941 26.8905 21.7799 26.8905Z" fill="#1E3F69"/>
<path fill-rule="evenodd" clip-rule="evenodd" d="M21.7732 29.3917C21.9587 29.3917 22.1092 29.5424 22.1092 29.7279C22.1092 29.9134 21.9587 30.0632 21.7732 30.0632C21.5877 30.0632 21.4375 29.9134 21.4375 29.7279C21.4375 29.5424 21.5877 29.3917 21.7732 29.3917Z" fill="#1E3F69"/>
<path fill-rule="evenodd" clip-rule="evenodd" d="M21.7458 31.9286C21.9313 31.9286 22.0818 32.0785 22.0818 32.2632C22.0818 32.4495 21.9313 32.6001 21.7458 32.6001C21.5603 32.6001 21.4102 32.4495 21.4102 32.2632C21.4102 32.0785 21.5603 31.9286 21.7458 31.9286Z" fill="#1E3F69"/>
</svg>
