<svg width="39" height="36" viewBox="0 0 39 36" fill="none" xmlns="http://www.w3.org/2000/svg">
<path d="M35.625 17.8137C35.625 27.6493 27.6494 35.6251 17.8112 35.6251C7.97354 35.6251 0 27.6493 0 17.8137C0 13.4641 1.5593 9.47718 4.15199 6.38395C6.20557 3.92677 8.91192 2.03415 12.0051 0.968784C13.8245 0.34153 15.7792 -6.86646e-05 17.8112 -6.86646e-05C19.8434 -6.86646e-05 21.7979 0.34153 23.6172 0.968784C25.5443 1.63251 27.3207 2.61632 28.8844 3.85997C32.9916 7.12288 35.625 12.16 35.625 17.8137Z" fill="#6BC7D6"/>
<mask id="mask0_552_7737" style="mask-type:luminance" maskUnits="userSpaceOnUse" x="0" y="0" width="36" height="36">
<path d="M35.625 17.8427C35.625 27.6784 27.6494 35.6542 17.8112 35.6542C7.97354 35.6542 0 27.6784 0 17.8427C0 13.4931 1.5593 9.50624 4.15199 6.413C6.20557 3.95583 8.91192 2.06321 12.0051 0.997837C13.8245 0.370583 15.7792 0.0289841 17.8112 0.0289841C19.8434 0.0289841 21.7979 0.370583 23.6172 0.997837C25.5443 1.66156 27.3207 2.64537 28.8844 3.88902C32.9916 7.15193 35.625 12.189 35.625 17.8427Z" fill="white"/>
</mask>
<g mask="url(#mask0_552_7737)">
<path d="M13.2942 35.0763C5.64405 33.0769 0 26.1181 0 17.8427C0 17.0967 0.0458664 16.3614 0.134958 15.6394L9.09164 7.731L17.0316 6.98961L21.6639 7.7935C22 7.8519 22.3135 8.04001 22.5225 8.3435C22.7287 8.64206 22.7941 8.99575 22.7338 9.32649C22.724 9.37198 22.7129 9.41502 22.7006 9.456L17.9976 10.1662C17.5316 10.2365 17.205 10.6572 17.2453 11.1208C17.1862 11.1259 17.1267 11.1337 17.0668 11.1425C17.0059 11.1515 16.9458 11.1624 16.8867 11.1746L13.7699 11.8263L17.4866 13.5988L17.4732 13.5097L17.252 12.0455C17.2268 11.8783 17.2502 11.7156 17.3115 11.5712L18.8792 21.9519C18.9456 22.392 19.3245 22.7078 19.7564 22.7078C19.8004 22.7078 19.8451 22.7045 19.89 22.6978L35.45 20.3478C35.408 20.6472 35.3582 20.9443 35.3014 21.2386L21.9 23.2624L24.3334 22.9937C24.4127 22.9848 24.4922 22.9806 24.5719 22.9806C25.0774 22.9806 25.585 23.1574 25.9945 23.5172C26.4682 23.9343 26.716 24.5125 26.7266 25.0976L26.7307 25.331C26.7336 25.4822 26.7016 25.6365 26.6299 25.7818C26.558 25.9273 26.4551 26.0468 26.333 26.1365C24.5789 27.1629 23.0354 28.0027 21.308 29.8426C21.1447 29.9632 20.975 30.0781 20.7992 30.1869C20.6234 30.296 20.4447 30.3963 20.2637 30.4885L17.0495 31.8746C16.488 32.1617 15.6004 32.9379 15.0831 33.3371C14.5656 33.737 14.0974 34.1759 13.6777 34.6465L13.2942 35.0763ZM9.42086 19.2935C9.42047 19.2935 9.42006 19.2935 9.41975 19.2935C9.24235 19.2937 9.07635 19.342 8.93346 19.4257L7.92385 20.015L7.60893 20.9939C7.52658 21.25 7.43692 21.8429 7.43692 21.8429C7.1466 23.0937 9.27631 25.5044 10.5552 26.4732C10.5552 26.4732 10.941 26.692 11.1591 26.7519C11.2586 26.7791 11.6178 26.7939 11.9975 26.7939C12.4497 26.7939 12.9308 26.773 13.0356 26.7279C14.2997 26.3619 15.6465 25.7797 17.1509 24.7828L17.1246 24.7861C17.1002 24.7872 17.076 24.7876 17.0518 24.7876C16.7345 24.7876 16.4359 24.7005 16.1788 24.5494L15.831 24.3452C15.6525 24.2398 15.4806 24.1177 15.3182 23.9773C15.156 23.8367 15.0101 23.6847 14.8806 23.523L13.0542 21.2466L9.90651 19.424C9.76379 19.3415 9.59801 19.2935 9.42086 19.2935ZM12.3532 15.958C12.3285 15.958 12.3036 15.9585 12.2787 15.9594C12.1961 15.9623 12.1151 15.9714 12.0353 15.9839L15.1106 18.3451C15.3107 18.4988 15.4983 18.6746 15.6698 18.8728C15.8414 19.0714 15.9881 19.2828 16.1112 19.5031L17.3605 21.74L18.199 22.8386C18.3905 23.0894 18.4834 23.4144 18.4317 23.7509C18.4219 23.8144 18.406 23.8754 18.3871 23.9344C18.6081 23.8267 18.8378 23.7312 19.0806 23.6574C19.2291 23.6119 19.3778 23.5749 19.5266 23.5445C19.1967 23.4554 18.9335 23.1798 18.8792 22.8201L18.3281 19.1718L17.3844 18.1849C17.2136 18.0062 17.0217 17.8421 16.8087 17.6974C16.5959 17.5523 16.373 17.4339 16.144 17.3406L13.1288 16.1105C12.8889 16.0125 12.627 15.958 12.3532 15.958Z" fill="#60BED1"/>
<path d="M10.0633 13.6014L15.1104 17.4768C15.3105 17.6305 15.498 17.8061 15.6696 18.0045C15.8412 18.2031 15.9879 18.4143 16.111 18.6346L17.3602 20.8715L18.1988 21.9703C18.3903 22.2207 18.4832 22.546 18.4315 22.8826C18.3797 23.219 18.1934 23.5016 17.9352 23.6832L18.0474 23.6043C17.785 23.7889 17.4686 23.9032 17.1244 23.9178C16.7801 23.9321 16.4552 23.8436 16.1786 23.6809L15.8307 23.4766C15.6522 23.3715 15.4804 23.2493 15.3179 23.1088C15.1558 22.9684 15.0099 22.8164 14.8803 22.6545L13.0539 20.3782L9.90628 18.5558C9.76315 18.4727 9.59698 18.425 9.41952 18.4252C9.24204 18.4253 9.07612 18.4738 8.93323 18.5571L7.56934 19.3535L7.83436 14.8988L10.0633 13.6014Z" fill="#FBD6A7"/>
<path d="M11.5146 9.88242L18.0714 13.0097L19.9505 20.0002L17.384 17.3166C17.2132 17.138 17.0213 16.9738 16.8084 16.8289C16.5955 16.684 16.3726 16.5656 16.1436 16.4724L13.1285 15.2422C12.8669 15.1353 12.5792 15.0804 12.2783 15.0908C11.9775 15.1019 11.6944 15.1779 11.4413 15.3031L7.75928 17.1289L7.86774 11.4853L11.5146 9.88242Z" fill="#FFDBAC"/>
<path d="M-13.2789 40.8016C-13.0063 40.4861 -4.3147 21.6974 -4.3147 21.6974L-2.53439 17.1279L9.0915 6.86274L17.0314 6.12135L21.6638 6.92524C21.9999 6.98364 22.3134 7.17176 22.5224 7.47504C22.7316 7.7779 22.7964 8.13774 22.7318 8.47237L22.7578 8.33876C22.6826 8.79266 22.5324 9.00639 22.1697 9.3443C21.8072 9.68179 21.3591 9.87012 20.9011 9.91253L17.2483 10.2521C17.1882 10.2574 17.1276 10.265 17.0666 10.2742C17.0057 10.283 16.9457 10.2939 16.8865 10.3064L13.3022 11.0556C13.1289 11.0918 12.9585 11.1562 12.7977 11.2513C12.6367 11.3463 12.4982 11.4648 12.383 11.5992L9.6463 14.7896C9.48029 14.983 9.33052 15.1957 9.20115 15.427C9.07165 15.6586 8.96872 15.8975 8.89066 16.1404L7.6088 20.1257C7.52644 20.3818 7.43679 20.9742 7.43679 20.9742C7.14646 22.2254 9.27617 24.6361 10.5551 25.605C10.5551 25.605 10.9409 25.8236 11.159 25.8834C11.3769 25.9432 12.8428 25.9426 13.0355 25.8595C14.6018 25.4064 16.2944 24.6218 18.2572 23.1267C18.516 22.991 18.7908 22.8771 19.0805 22.7892C19.3702 22.7004 19.6618 22.6416 19.9522 22.6092L24.3333 22.1252C24.9148 22.0607 25.5203 22.2324 25.9943 22.649C26.4681 23.0658 26.7158 23.6442 26.7265 24.2293L26.7306 24.4626C26.7335 24.6138 26.7015 24.7683 26.6298 24.9135C26.558 25.0591 26.455 25.1785 26.3328 25.2681C24.5787 26.2947 23.0353 27.1344 21.3078 28.9742C21.1447 29.0949 20.9749 29.2099 20.799 29.3186C20.6232 29.4275 20.4446 29.5279 20.2635 29.6203L17.0494 31.0062C16.4879 31.2934 15.6003 32.0697 15.083 32.4689C14.5655 32.8684 14.0973 33.3076 13.6776 33.7783L8.62738 39.4385C8.26583 39.8435 7.87072 40.2279 7.44087 40.5871C7.01109 40.9464 6.56261 41.267 6.0997 41.551L2.47354 43.7746C1.99734 44.0668 1.54804 44.4195 1.1378 44.8352C0.727806 45.2508 0.380888 45.7047 0.0952826 46.1851L-2.66206 50.8191L-15.73 50.3218L-13.2789 40.8016Z" fill="#FFE3B2"/>
</g>
<path d="M38.9897 18.8859C39.0629 19.3712 38.7291 19.8238 38.2442 19.897L19.8898 22.6689C19.4049 22.7421 18.9522 22.408 18.879 21.923L17.2518 11.1484C17.1785 10.6632 17.5124 10.2105 17.9973 10.1373L36.3516 7.36563C36.8368 7.29227 37.2895 7.62628 37.3627 8.11112L38.9897 18.8859Z" fill="#FF8C58"/>
<path d="M37.9752 12.1665L17.8644 15.2034L17.4731 12.6122L37.584 9.57534L37.9752 12.1665Z" fill="#45413F"/>
<path d="M36.9684 14.8903L19.3591 17.5496L19.0806 15.7049L36.6899 13.0457L36.9684 14.8903Z" fill="white"/>
<path d="M32.5451 20.6433L29.2738 16.0526L36.9685 14.8905L36.69 13.0458L28.0599 14.3491L27.6191 13.7304L37.9752 12.1667L37.7209 10.4823L38.99 18.886C38.9967 18.9306 39 18.9749 39 19.0185C39.0006 19.4511 38.6848 19.8304 38.2445 19.897L32.5451 20.6433ZM25.914 11.3378L24.3726 9.17469L32.6316 7.92735L36.3519 7.36567C36.3533 7.36547 36.3547 7.36526 36.3564 7.36506C36.3996 7.35871 36.4428 7.35563 36.4855 7.35563C36.4855 7.35563 36.4855 7.35563 36.4857 7.35563C36.4861 7.35563 36.4865 7.35563 36.4869 7.35563C36.9154 7.35625 37.2912 7.66731 37.3615 8.10194C37.3619 8.10502 37.3625 8.10809 37.3629 8.11117L37.584 9.57551L25.914 11.3378Z" fill="#FF9869"/>
<path d="M27.6192 13.7303L25.9141 11.3377L37.5841 9.57543L37.721 10.4822L37.9753 12.1666L27.6192 13.7303Z" fill="#585453"/>
<path d="M29.274 16.0525L28.0601 14.349L36.6902 13.0457L36.9687 14.8904L29.274 16.0525Z" fill="white"/>
</svg>
